<svg xmlns="http://www.w3.org/2000/svg" xml:space="preserve" width="550" viewBox="0 0 574.395 220">
  <path fill="#0c0" fill-opacity=".349" fill-rule="evenodd" d="m460.229 89.051-22.51 111.783 92.519-171.127z"
    paint-order="stroke fill markers" />
  <path fill="red" fill-opacity=".298" fill-rule="evenodd" d="M327.57 51.653 460.229 89.05l70.009-59.344z"
    paint-order="stroke fill markers" />
  <path fill="#7d7dff" fill-opacity=".298" fill-rule="evenodd" d="m327.57 51.653 110.149 149.18 22.51-111.782Z"
    paint-order="stroke fill markers" />
  <path fill="#838787" stroke="#838787" stroke-linecap="round" stroke-linejoin="round" stroke-miterlimit="10"
    d="m437.719 200.834 92.519-171.127" paint-order="fill stroke markers" />
  <path fill="none" stroke="#404040" stroke-linecap="round" stroke-linejoin="round" stroke-miterlimit="10"
    d="M327.57 51.653 460.229 89.05" paint-order="fill stroke markers" />
  <path fill="none" stroke="#838787" stroke-linecap="round" stroke-linejoin="round" stroke-miterlimit="10"
    d="m460.229 89.051 70.009-59.344" paint-order="fill stroke markers" />
  <path fill="#838787" stroke="#838787" stroke-linecap="round" stroke-linejoin="round" stroke-miterlimit="10"
    d="M530.238 29.707 327.57 51.653" paint-order="fill stroke markers" />
  <path fill="none" stroke="#838787" stroke-linecap="round" stroke-linejoin="round" stroke-miterlimit="10"
    d="m327.57 51.653 110.149 149.18M437.719 200.834l22.51-111.783M460.229 89.051l-132.66-37.398"
    paint-order="fill stroke markers" />
  <path fill="#838787"
    d="m327.57 51.653 11.425 8.815 1.202-2.75 2.424 1.06.4-.916-2.423-1.06 1.201-2.748zm19.117 7.811-.4.917 4.58 2.003.401-.917zm8.246 3.605-.4.917 4.58 2.003.401-.917zm8.247 3.606-.401.916 4.581 2.003.4-.917zm8.246 3.605-.4.916 4.58 2.003.401-.917zm8.246 3.605-.4.916 4.581 2.003.4-.917zm8.247 3.605-.4.916 4.58 2.003.401-.917zm8.246 3.605-.4.916 4.581 2.003.4-.917zm8.247 3.605-.4.916 4.58 2.003.401-.917zm8.246 3.605-.4.916 4.581 2.003.4-.917zm8.247 3.605-.4.916 4.58 2.003.401-.917zm8.246 3.605-.4.916 4.58 2.003.401-.917zm8.247 3.605-.401.916 4.581 2.003.4-.916zm8.246 3.605-.4.916 4.58 2.003.401-.916zm8.246 3.605-.4.916 4.581 2.003.4-.916zm8.247 3.605-.4.916 4.58 2.003.401-.916zm8.246 3.605-.4.916 4.581 2.003.4-.916zm8.247 3.605-.4.916 4.58 2.003.401-.916zm8.246 3.605-.4.916 4.58 2.003.402-.916zm8.247 3.605-.401.916 4.581 2.003.4-.916zm8.246 3.605-.4.916 4.58 2.003.401-.916zm8.246 3.605-.4.916 4.581 2.003.4-.916zm8.247 3.605-.4.916 4.58 2.003.401-.916zm8.246 3.605-.4.916 4.581 2.003.4-.916zm8.247 3.605-.4.916 4.58 2.003.401-.916zm8.246 3.605-.4.916 4.581 2.003.4-.916zm8.247 3.605-.4.916 4.58 2.003.401-.916z"
    paint-order="stroke fill markers" />
  <path fill="#838787"
    d="m557.04 151.588-4.63 1.89.379.926 4.629-1.89zm-8.333 3.401-4.629 1.89.378.926 4.63-1.89zm-8.332 3.402-4.63 1.89.378.925 4.63-1.89zm-8.333 3.4-4.629 1.89.378.926 4.63-1.89zm-8.332 3.402-4.63 1.89.378.926 4.63-1.89zm-8.333 3.401-4.63 1.89.379.926 4.629-1.89zm-8.332 3.402-4.63 1.89.378.925 4.63-1.89zm-8.333 3.401-4.63 1.89.379.925 4.629-1.89zm-8.333 3.401-4.629 1.89.378.926 4.63-1.89zm-8.332 3.402-4.63 1.89.379.925 4.629-1.89zm-8.333 3.4-4.629 1.89.378.926 4.63-1.89zm-8.332 3.402-4.63 1.89.378.926 4.63-1.89zm-8.333 3.401-4.629 1.89.378.926 4.63-1.89zm-7.691-.1-11.64 8.53 14.285-2.05z"
    paint-order="stroke fill markers" />
  <path fill="#838787"
    d="m530.238 29.707-.402 14.425 6.836-1.508zm3.504 13.563-.976.216.708 3.209.976-.216zm1.57 7.115-.977.216 1.078 4.882.976-.215zm1.939 8.789-.977.215 1.078 4.883.976-.215zm1.939 8.789-.977.215 1.077 4.883.977-.216zm1.939 8.788-.977.216 1.077 4.882.977-.215zm1.939 8.789-.977.215 1.077 4.883.977-.215zm1.938 8.789-.976.215 1.077 4.883.977-.216zm1.94 8.788-.977.216 1.077 4.882.977-.215zm1.938 8.789-.976.215 1.077 4.883.976-.215zm1.94 8.789-.977.215 1.077 4.883.976-.216zm1.938 8.788-.976.216 1.077 4.882.976-.215zm1.939 8.789-.977.215 1.078 4.883.976-.215zm1.939 8.789-.977.215 1.077 4.883.977-.216z"
    paint-order="stroke fill markers" />
  <path fill="#0071bc"
    d="m544.275 93.333-.46 16.486 2.93-.646 9.507 43.093a1 1 0 0 0 1.953-.43l-9.507-43.094 2.93-.646z"
    paint-order="stroke fill markers" />
  <path fill="#0071bc"
    d="m511.58 132.095 13.059 10.074 1.201-2.748 30.988 13.546a.997.997 0 0 0 1.317-.515 1 1 0 0 0-.516-1.317l-30.988-13.547 1.202-2.749z"
    paint-order="stroke fill markers" />
  <path fill="#0071bc"
    d="M557.228 151.05a.997.997 0 0 0-.377.075l-23.585 9.627-1.133-2.777-13.302 9.75 16.325-2.344-1.134-2.777 23.585-9.627a1 1 0 0 0-.379-1.926z"
    paint-order="stroke fill markers" />
  <path fill="#f07124"
    d="m460.229 89.051 11.24 12.07 1.633-2.516 83.582 54.285a.999.999 0 1 0 1.09-1.677l-83.582-54.286 1.634-2.516z"
    paint-order="stroke fill markers" />
  <path fill="#2d2d2d" d="M563.229 152.051a6 6 0 1 1-12 0 6 6 0 0 1 12 0z" paint-order="stroke fill markers" />
  <path fill="none" stroke="#838787" stroke-linecap="round" stroke-linejoin="round" stroke-miterlimit="10"
    d="M563.229 152.051a6 6 0 1 1-12 0 6 6 0 0 1 12 0z" paint-order="fill stroke markers" />
  <text x="661.975" y="452.665" fill="#838787" dominant-baseline="alphabetic" font-family="sans-serif" font-size="18"
    text-decoration="normal" transform="translate(-100.746 -312.614)">O</text>
  <path fill="#0071bc" d="M536.238 29.707a6 6 0 1 1-12 0 6 6 0 0 1 12 0z" paint-order="stroke fill markers" />
  <text x="634.975" y="330.665" fill="#0071bc" dominant-baseline="alphabetic" font-family="sans-serif" font-size="18"
    text-decoration="normal" transform="translate(-100.746 -312.614)">
    <tspan font-family="sans-serif" font-weight="400" style="-inkscape-font-specification:sans-serif">P<tspan
        baseline-shift="sub" font-size="65%">3</tspan>
    </tspan>
  </text>
  <path fill="#0071bc" d="M333.57 51.653a6 6 0 1 1-12 0 6 6 0 0 1 12 0z" paint-order="stroke fill markers" />
  <text x="431.975" y="352.665" fill="#0071bc" dominant-baseline="alphabetic" font-family="sans-serif" font-size="18"
    font-weight="400"
    style="-inkscape-font-specification:&quot;sans-serif, Normal&quot;;font-variant-ligatures:normal;font-variant-position:normal;font-variant-caps:normal;font-variant-numeric:normal;font-variant-east-asian:normal"
    text-decoration="normal" transform="translate(-100.746 -312.614)">
    <tspan x="431.975" y="352.665">P<tspan baseline-shift="sub" font-size="65%">1</tspan>
    </tspan>
  </text>
  <path fill="#0071bc" d="M443.719 200.834a6 6 0 1 1-12 0 6 6 0 0 1 12 0z" paint-order="stroke fill markers" />
  <text x="517.01" y="526.069" fill="#0071bc" dominant-baseline="alphabetic" font-family="sans-serif" font-size="18"
    text-decoration="normal" transform="translate(-100.746 -312.614)">
    <tspan font-family="sans-serif" font-weight="400" style="-inkscape-font-specification:sans-serif">P<tspan
        baseline-shift="sub" font-size="65%">2</tspan>
    </tspan>
  </text>
  <path fill="#f07124" d="M467.229 89.051a7 7 0 1 1-14 0 7 7 0 0 1 14 0z" paint-order="stroke fill markers" />
  <text x="553.975" y="385.665" fill="#f07124" dominant-baseline="alphabetic" font-family="sans-serif" font-size="18"
    text-decoration="normal" transform="translate(-100.746 -312.614)">Q</text>
  <path fill="#838787" stroke="#838787" stroke-linecap="round" stroke-linejoin="round" stroke-miterlimit="10"
    d="m116.15 200.834 92.519-171.127" paint-order="fill stroke markers" />
  <path fill="none" stroke="#404040" stroke-linecap="round" stroke-linejoin="round" stroke-miterlimit="10"
    d="M6 51.653 138.66 89.05" paint-order="fill stroke markers" />
  <path fill="none" stroke="#838787" stroke-linecap="round" stroke-linejoin="round" stroke-miterlimit="10"
    d="m138.66 89.051 70.009-59.344" paint-order="fill stroke markers" />
  <path fill="#838787" stroke="#838787" stroke-linecap="round" stroke-linejoin="round" stroke-miterlimit="10"
    d="M208.669 29.707 6 51.653" paint-order="fill stroke markers" />
  <path fill="none" stroke="#838787" stroke-linecap="round" stroke-linejoin="round" stroke-miterlimit="10"
    d="m6 51.653 110.15 149.18M116.15 200.834 138.66 89.05M138.66 89.051 6 51.653" paint-order="fill stroke markers" />
  <path fill="#838787"
    d="m6 51.653 11.426 8.815 1.202-2.75 2.423 1.06.401-.916-2.424-1.06 1.202-2.748zm19.117 7.811-.4.917 4.58 2.003.401-.917zm8.247 3.605-.401.917 4.581 2.003.4-.917zm8.246 3.606-.4.916 4.58 2.003.401-.917zm8.246 3.605-.4.916 4.581 2.003.4-.917zm8.247 3.605-.4.916 4.58 2.003.401-.917zm8.246 3.605-.4.916 4.581 2.003.4-.917zm8.247 3.605-.4.916 4.58 2.003.401-.917zm8.246 3.605-.4.916 4.581 2.003.4-.917zm8.247 3.605-.4.916 4.58 2.003.401-.917zm8.246 3.605-.4.916 4.58 2.003.401-.917zm8.247 3.605-.401.916 4.581 2.003.4-.917zm8.246 3.605-.4.916 4.58 2.003.401-.916zm8.246 3.605-.4.916 4.581 2.003.4-.916zm8.247 3.605-.4.916 4.58 2.003.401-.916zm8.246 3.605-.4.916 4.581 2.003.4-.916zm8.247 3.605-.4.916 4.58 2.003.401-.916zm8.246 3.605-.4.916 4.581 2.003.4-.916zm8.247 3.605-.4.916 4.58 2.003.401-.916zm8.246 3.605-.4.916 4.58 2.003.401-.916zm8.247 3.605-.401.916 4.581 2.003.4-.916zm8.246 3.605-.4.916 4.58 2.003.401-.916zm8.246 3.605-.4.916 4.581 2.003.4-.916zm8.247 3.605-.4.916 4.58 2.003.401-.916zm8.246 3.605-.4.916 4.581 2.003.4-.916zm8.247 3.605-.4.916 4.58 2.003.401-.916zm8.246 3.605-.4.916 4.58 2.003.402-.916z"
    paint-order="stroke fill markers" />
  <path fill="#838787"
    d="m235.47 151.588-4.629 1.89.378.926 4.63-1.89zm-8.332 3.401-4.63 1.89.378.926 4.63-1.89zm-8.333 3.402-4.629 1.89.378.925 4.63-1.89zm-8.332 3.4-4.63 1.89.378.926 4.63-1.89zm-8.333 3.402-4.63 1.89.379.926 4.629-1.89zm-8.332 3.401-4.63 1.89.378.926 4.63-1.89zm-8.333 3.402-4.63 1.89.379.925 4.629-1.89zm-8.333 3.401-4.629 1.89.378.925 4.63-1.89zm-8.332 3.401-4.63 1.89.379.926 4.629-1.89zm-8.333 3.402-4.629 1.89.378.925 4.63-1.89zm-8.332 3.4-4.63 1.89.379.926 4.629-1.89zm-8.333 3.402-4.629 1.89.378.926 4.63-1.89zm-8.332 3.401-4.63 1.89.378.926 4.63-1.89zm-7.692-.1-11.639 8.53 14.285-2.05z"
    paint-order="stroke fill markers" />
  <path fill="#838787"
    d="m208.669 29.707-.402 14.425 6.835-1.508zm3.504 13.563-.977.216.708 3.209.977-.216zm1.57 7.115-.977.216 1.077 4.882.977-.215zm1.938 8.789-.976.215 1.077 4.883.977-.215zm1.94 8.789-.977.215 1.077 4.883.976-.216zm1.938 8.788-.976.216 1.077 4.882.976-.215zm1.939 8.789-.976.215 1.077 4.883.976-.215zm1.939 8.789-.977.215 1.078 4.883.976-.216zm1.939 8.788-.977.216 1.078 4.882.976-.215zm1.939 8.789-.977.215 1.077 4.883.977-.215zm1.939 8.789-.977.215 1.077 4.883.977-.216zm1.939 8.788-.977.216 1.077 4.882.977-.215zm1.938 8.789-.976.215 1.077 4.883.977-.215zm1.94 8.789-.977.215 1.077 4.883.977-.216z"
    paint-order="stroke fill markers" />
  <path fill="#0071bc"
    d="m222.705 93.333-.459 16.486 2.93-.646 9.507 43.093a1 1 0 0 0 1.953-.43l-9.507-43.094 2.93-.646z"
    paint-order="stroke fill markers" />
  <path fill="#0071bc"
    d="m190.01 132.095 13.06 10.074 1.2-2.748 30.989 13.546a.997.997 0 0 0 1.317-.515 1 1 0 0 0-.516-1.317l-30.988-13.547 1.202-2.749z"
    paint-order="stroke fill markers" />
  <path fill="#0071bc"
    d="M235.659 151.05a.997.997 0 0 0-.378.075l-23.584 9.627-1.134-2.777-13.302 9.75 16.326-2.344-1.134-2.777 23.584-9.627a1 1 0 0 0-.378-1.926z"
    paint-order="stroke fill markers" />
  <path fill="#f07124"
    d="m138.66 89.051 11.239 12.07 1.634-2.516 83.582 54.285a.999.999 0 1 0 1.09-1.677L152.62 96.926l1.634-2.516z"
    paint-order="stroke fill markers" />
  <path fill="#2d2d2d" d="M241.66 152.051a6 6 0 1 1-12 0 6 6 0 0 1 12 0z" paint-order="stroke fill markers" />
  <path fill="none" stroke="#838787" stroke-linecap="round" stroke-linejoin="round" stroke-miterlimit="10"
    d="M241.66 152.051a6 6 0 1 1-12 0 6 6 0 0 1 12 0z" paint-order="fill stroke markers" />
  <text x="661.975" y="452.665" fill="#838787" dominant-baseline="alphabetic" font-family="sans-serif" font-size="18"
    text-decoration="normal" transform="translate(-422.316 -312.614)">O</text>
  <path fill="#0071bc" d="M214.669 29.707a6 6 0 1 1-12 0 6 6 0 0 1 12 0z" paint-order="stroke fill markers" />
  <text x="634.975" y="330.665" fill="#0071bc" dominant-baseline="alphabetic" font-family="sans-serif" font-size="18"
    text-decoration="normal" transform="translate(-422.316 -312.614)">
    <tspan font-family="sans-serif" font-weight="400" style="-inkscape-font-specification:sans-serif">P<tspan
        baseline-shift="sub" font-size="65%">3</tspan>
    </tspan>
  </text>
  <path fill="#0071bc" d="M12 51.653a6 6 0 1 1-12 0 6 6 0 0 1 12 0z" paint-order="stroke fill markers" />
  <text x="431.975" y="352.665" fill="#0071bc" dominant-baseline="alphabetic" font-family="sans-serif" font-size="18"
    text-decoration="normal" transform="translate(-422.316 -312.614)">
    <tspan font-family="sans-serif" font-weight="400" style="-inkscape-font-specification:sans-serif">P<tspan
        baseline-shift="sub" font-size="65%">1</tspan>
    </tspan>
  </text>
  <path fill="#0071bc" d="M122.15 200.834a6 6 0 1 1-12 0 6 6 0 0 1 12 0z" paint-order="stroke fill markers" />
  <text x="517.01" y="526.069" fill="#0071bc" dominant-baseline="alphabetic" font-family="sans-serif" font-size="18"
    text-decoration="normal" transform="translate(-422.316 -312.614)">
    <tspan font-family="sans-serif" font-weight="400" style="-inkscape-font-specification:sans-serif">P<tspan
        baseline-shift="sub" font-size="65%">2</tspan>
    </tspan>
  </text>
  <path fill="#f07124" d="M145.66 89.051a7 7 0 1 1-14 0 7 7 0 0 1 14 0z" paint-order="stroke fill markers" />
  <text x="553.975" y="385.665" fill="#f07124" dominant-baseline="alphabetic" font-family="sans-serif" font-size="18"
    text-decoration="normal" transform="translate(-422.316 -312.614)">Q</text>
  <path fill="none" stroke="#838787" stroke-width=".92" d="M286.947 0v218.182" />
</svg>
