<svg xmlns="http://www.w3.org/2000/svg" xmlns:xlink="http://www.w3.org/1999/xlink" width="550"
   viewBox="0 0 278.664 91.395">
   <defs>
      <path id="a"
         d="M4.297-5.344 3.047-1.03c-.074.273-.11.433-.11.484 0 .031.008.059.032.078.02.024.039.031.062.031.04 0 .086-.019.14-.062.102-.07.224-.207.36-.406l.125.062c-.355.637-.75.953-1.187.953-.156 0-.278-.043-.36-.125a.412.412 0 0 1-.125-.312c0-.113.036-.285.11-.516l.11-.39c-.325.574-.602.953-.829 1.14C1.187.04 1.008.11.844.11a.617.617 0 0 1-.485-.234C.223-.281.156-.508.156-.813c0-.382.082-.757.25-1.125.176-.375.375-.687.594-.937.219-.25.426-.426.625-.531.207-.114.41-.172.61-.172.093 0 .175.023.25.062.081.043.175.121.28.235l.282-.953c.07-.239.11-.41.11-.516a.198.198 0 0 0-.079-.156.25.25 0 0 0-.172-.063c-.043 0-.09.008-.14.016l.046-.156 1.266-.235ZM2.609-2.906c0-.156-.03-.27-.093-.344a.291.291 0 0 0-.22-.11c-.085 0-.171.047-.265.141-.18.156-.37.485-.578.985-.2.5-.297.918-.297 1.25a.5.5 0 0 0 .063.28c.05.063.101.095.156.095.094 0 .18-.04.266-.125.218-.196.43-.536.64-1.016.219-.477.328-.863.328-1.156Zm0 0" />
      <path id="b" d="M3.266-5.328-.094.125H-.64l3.375-5.453zm0 0" />
      <path id="c"
         d="m3.203-.922.125.078c-.168.324-.383.563-.64.719-.25.156-.516.234-.797.234-.493 0-.883-.18-1.172-.546C.438-.801.297-1.235.297-1.734c0-.5.129-.93.39-1.297.32-.446.758-.672 1.313-.672.375 0 .672.094.89.281.22.188.329.399.329.625a.483.483 0 0 1-.14.36.46.46 0 0 1-.345.124.498.498 0 0 1-.375-.156C2.266-2.57 2.203-2.75 2.172-3c-.012-.164-.047-.281-.11-.344a.288.288 0 0 0-.203-.094c-.125 0-.23.063-.312.188-.137.2-.203.508-.203.922 0 .336.05.656.156.969.113.312.266.543.453.687.133.117.3.172.5.172a.659.659 0 0 0 .344-.094c.113-.062.25-.172.406-.328zm0 0" />
      <path id="d"
         d="M1.969-3.703c.312 0 .601.086.875.25.27.156.472.387.61.687.132.293.202.618.202.97 0 .51-.125.937-.375 1.28-.312.418-.75.625-1.312.625-.543 0-.961-.187-1.25-.562A2.128 2.128 0 0 1 .28-1.781c0-.52.149-.969.453-1.344.301-.383.711-.578 1.235-.578Zm.015.265a.452.452 0 0 0-.343.157c-.094.094-.157.289-.188.578-.031.293-.047.7-.047 1.219 0 .273.02.527.063.765.031.188.086.328.172.422a.45.45 0 0 0 .328.14.422.422 0 0 0 .281-.093.678.678 0 0 0 .203-.375c.05-.238.078-.727.078-1.469 0-.437-.027-.738-.078-.906-.043-.164-.11-.285-.203-.36a.463.463 0 0 0-.266-.078Zm0 0" />
      <path id="e"
         d="m2.547-3.703.047 1.234h-.125c-.156-.363-.32-.613-.485-.75-.168-.133-.336-.203-.5-.203-.105 0-.199.04-.28.11a.328.328 0 0 0-.11.234c0 .074.023.14.078.203.082.105.312.29.687.547.383.25.633.469.75.656.125.18.188.375.188.594 0 .2-.055.398-.156.594-.106.187-.25.336-.438.437-.18.102-.375.156-.594.156-.168 0-.398-.054-.687-.156a.481.481 0 0 0-.156-.047c-.086 0-.157.063-.22.188H.423L.359-1.203H.5c.113.344.27.601.469.766.195.167.39.25.578.25.113 0 .21-.036.297-.11a.339.339 0 0 0 .125-.266.485.485 0 0 0-.125-.328c-.074-.093-.246-.226-.516-.406-.398-.27-.652-.476-.766-.625A1.103 1.103 0 0 1 .594-3.36c.196-.226.473-.343.829-.343.195 0 .39.047.578.14a.38.38 0 0 0 .172.047c.039 0 .07-.004.094-.015a.676.676 0 0 0 .14-.172zm0 0" />
      <path id="f"
         d="M.11-1.734C.11-.578.577.094 1.28.094c.532 0 1.11-.39 1.625-1.172.531-.797.813-1.75.813-2.672 0-1.156-.453-1.813-1.188-1.813-.594 0-1.187.47-1.719 1.391C.344-3.375.11-2.484.11-1.734zM1-2.688h1.828C2.406-.984 1.844-.124 1.297-.124.984-.125.75-.453.75-1.078c0-.438.094-.969.25-1.61Zm1.906-.296H1.078c.39-1.579.906-2.36 1.406-2.36.391 0 .594.328.594.985 0 .406-.062.859-.172 1.375zm0 0" />
      <path id="g"
         d="M1.266-3.813c.113 0 .207.043.28.126a.35.35 0 0 1 .126.265.404.404 0 0 1-.125.297.38.38 0 0 1-.281.11.405.405 0 0 1-.282-.11.39.39 0 0 1-.125-.297c0-.101.036-.191.11-.265a.404.404 0 0 1 .297-.126zm.171 1.266L.875-.594a1.21 1.21 0 0 0-.047.219c0 .023.004.043.016.063A.15.15 0 0 0 1-.329c.082-.07.18-.195.297-.375l.094.062C1.109-.16.812.08.5.08a.408.408 0 0 1-.281-.095.35.35 0 0 1-.11-.265c0-.063.016-.145.047-.25l.39-1.328c.032-.125.048-.22.048-.282a.154.154 0 0 0-.047-.109c-.031-.031-.078-.047-.14-.047h-.11l.047-.11.922-.14Zm0 0" />
   </defs>
   <path fill="none" stroke="#176fc1" stroke-miterlimit="3.864" stroke-width=".564"
      d="M255.969 63.016a12.96 12.96 0 0 1 10.636-5.543" />
   <path fill="none" stroke="#f6836c" stroke-miterlimit="3.864" stroke-width=".282" d="M24.227 59.379 8.387 12.336" />
   <path fill="#bfcfee" d="M205.324 74.504h73.34v-3.418h-73.34zM92.492 74.504h73.34v-3.418h-73.34Zm0 0" />
   <path fill="none" stroke="#838787" stroke-miterlimit="3.864" stroke-width=".564" d="m36.277 27.855-12.035 31.52" />
   <path fill="#838787" fill-rule="evenodd" d="m36.195 28.078-1.32-.508 2.582-2.785.055 3.797-1.317-.504" />
   <path fill="#bfcfee"
      d="M9.277 64.313c10.606-13.766 16.63.343 33.711 1.976 25.106 2.399 15.512 16.219 7.614 21.297-7.235 4.652-29.364 2.707-37.711-2.258 0-6.582-11.852-9.73-3.614-21.015" />
   <path fill="none" stroke="#838787" stroke-miterlimit="3.864" stroke-width=".564"
      d="M9.277 64.313c10.606-13.766 16.63.343 33.711 1.976 25.106 2.399 15.512 16.219 7.614 21.297-7.235 4.652-29.364 2.707-37.711-2.258 0-6.582-11.852-9.73-3.614-21.015zm0 0" />
   <path fill="#838787" d="M23.395 59.559a.753.753 0 1 1 1.498-.151.753.753 0 0 1-1.498.15" />
   <path fill="none" stroke="#838787" stroke-miterlimit="3.864" stroke-width=".141"
      d="M23.395 59.559a.753.753 0 1 1 1.498-.151.753.753 0 0 1-1.498.15zm0 0" />
   <path fill="#838787" fill-rule="evenodd"
      d="M20.586 66.008v1.351c0 .188.016.317.043.383a.306.306 0 0 0 .14.149c.06.03.18.047.364.047v.132h-2.07v-.132c.164-.004.285-.051.363-.137.05-.059.078-.215.078-.465v-3.813c0-.257-.027-.421-.09-.492-.062-.074-.18-.113-.351-.125v-.136h1.523v.476c.125-.183.254-.32.387-.402.187-.117.39-.176.613-.176.262 0 .504.086.723.25.214.168.382.398.496.691.11.297.168.61.168.95 0 .363-.059.699-.176 1-.117.3-.285.53-.508.687-.223.16-.469.238-.742.238-.2 0-.383-.043-.555-.132a1.408 1.408 0 0 1-.406-.344zm0-.387c.223.313.457.469.71.469.142 0 .255-.074.345-.219.136-.215.203-.625.203-1.23 0-.621-.074-1.043-.223-1.27-.098-.152-.226-.23-.394-.23-.258 0-.473.191-.641.562v1.918" />
   <path fill="none" stroke="#838787" stroke-miterlimit="3.864" stroke-width=".564" d="m13.61 27.316 10.484 32.07" />
   <path fill="#838787" fill-rule="evenodd" d="m13.684 27.543-1.344.434.254-3.79 2.43 2.918-1.34.438" />
   <path fill="none" stroke="#176fc1" stroke-miterlimit="3.864" stroke-width=".564"
      d="M20.48 48.777a6.46 6.46 0 0 1 3.31-1.336 6.5 6.5 0 0 1 4.546 1.23" />
   <path fill="#838787"
      d="M40.523 26.422v.465c.184-.2.364-.344.532-.434.172-.09.351-.137.547-.137.234 0 .43.067.582.196a.944.944 0 0 1 .308.484c.04.149.063.43.063.848v1.402c0 .277.023.453.074.52.05.07.152.113.312.129v.136h-1.824v-.136c.137-.016.235-.075.293-.168.04-.067.063-.223.063-.48V27.64c0-.293-.012-.48-.036-.559a.346.346 0 0 0-.117-.18.29.29 0 0 0-.183-.062c-.22 0-.426.156-.614.465v1.941c0 .27.024.442.075.516.05.07.144.117.28.133v.136h-1.823v-.136c.152-.016.257-.063.32-.145.043-.059.066-.227.066-.504v-2.043c0-.277-.023-.45-.074-.515-.05-.067-.156-.114-.312-.133v-.133h1.468M10.844 25.781v4.485c0 .257.027.422.09.496.058.07.175.11.351.12v.134H9.316v-.133c.164-.004.286-.051.364-.14.054-.06.082-.22.082-.477V26.53c0-.258-.032-.422-.094-.492-.059-.074-.176-.113-.352-.125v-.133h1.528" />
   <path fill="none" stroke="#838787" stroke-miterlimit="3.864" stroke-width=".141" d="M80.645 0v91.395" />
   <path fill="#fff"
      d="M104.352 68.469c.285-.934.543-1.54.843-2.29h-2.847c.129.27.562 1.356.843 2.29.301 1 .508 1.902.582 2.488.07-.586.278-1.488.579-2.488" />
   <path fill="none" stroke="#f68712" stroke-miterlimit="3.864" stroke-width=".564" d="M103.773 7.898v59.239" />
   <path fill="#f68712"
      d="M104.352 68.469c.285-.934.543-1.54.843-2.29h-2.847c.129.27.562 1.356.843 2.29.301 1 .508 1.902.582 2.488.07-.586.278-1.488.579-2.488" />
   <path fill="none" stroke="#838787" stroke-miterlimit="3.864" stroke-width=".846" d="M92.492 71.086h73.34" />
   <path fill="#fff"
      d="M115.637 68.469c.281-.934.539-1.54.84-2.29h-2.844c.125.27.558 1.356.84 2.29.3 1 .507 1.902.582 2.488.074-.586.28-1.488.582-2.488" />
   <path fill="none" stroke="#f68712" stroke-miterlimit="3.864" stroke-width=".564" d="M115.059 7.898v59.239" />
   <path fill="#f68712"
      d="M115.637 68.469c.281-.934.539-1.54.84-2.29h-2.844c.125.27.558 1.356.84 2.29.3 1 .507 1.902.582 2.488.074-.586.28-1.488.582-2.488" />
   <path fill="#fff"
      d="M138.203 68.469c.281-.934.54-1.54.84-2.29h-2.844c.125.27.559 1.356.84 2.29.305 1 .508 1.902.582 2.488.074-.586.281-1.488.582-2.488" />
   <path fill="none" stroke="#f68712" stroke-miterlimit="3.864" stroke-width=".564" d="M137.625 7.898v59.239" />
   <path fill="#f68712"
      d="M138.203 68.469c.281-.934.54-1.54.84-2.29h-2.844c.125.27.559 1.356.84 2.29.305 1 .508 1.902.582 2.488.074-.586.281-1.488.582-2.488" />
   <path fill="#fff"
      d="M126.918 68.469c.281-.934.543-1.54.844-2.29h-2.848c.129.27.563 1.356.84 2.29.305 1 .512 1.902.582 2.488.074-.586.281-1.488.582-2.488" />
   <path fill="none" stroke="#f68712" stroke-miterlimit="3.864" stroke-width=".564" d="M126.34 7.898v59.239" />
   <path fill="#f68712"
      d="M126.918 68.469c.281-.934.543-1.54.844-2.29h-2.848c.129.27.563 1.356.84 2.29.305 1 .512 1.902.582 2.488.074-.586.281-1.488.582-2.488" />
   <path fill="#fff"
      d="M149.484 68.469c.286-.934.543-1.54.844-2.29h-2.848c.13.27.563 1.356.844 2.29.301 1 .508 1.902.578 2.488.075-.586.282-1.488.582-2.488" />
   <path fill="none" stroke="#f68712" stroke-miterlimit="3.864" stroke-width=".564" d="M148.906 7.898v59.239" />
   <path fill="#f68712"
      d="M149.484 68.469c.286-.934.543-1.54.844-2.29h-2.848c.13.27.563 1.356.844 2.29.301 1 .508 1.902.578 2.488.075-.586.282-1.488.582-2.488" />
   <path fill="none" stroke="#838787" stroke-miterlimit="3.864" stroke-width=".846" d="M205.324 71.086h73.34" />
   <path fill="#fff"
      d="M207.02 68.719c-.59-.774-.93-1.34-1.36-2.024l-1.668 2.309c.29.05 1.422.34 2.344.656.988.34 1.84.707 2.36.988-.434-.402-1.044-1.101-1.676-1.93" />
   <path fill="none" stroke="#f68712" stroke-miterlimit="3.864" stroke-width=".564" d="m180.043 49.914 25.559 18.492" />
   <path fill="#f68712"
      d="M207.02 68.719c-.59-.774-.93-1.34-1.36-2.024l-1.668 2.309c.29.05 1.422.34 2.344.656.988.34 1.84.707 2.36.988-.434-.402-1.044-1.101-1.676-1.93" />
   <path fill="#fff"
      d="M226.219 68.688c-.59-.774-.93-1.34-1.36-2.024l-1.668 2.305c.293.054 1.426.34 2.344.66.988.34 1.84.703 2.36.988-.434-.402-1.043-1.101-1.676-1.93" />
   <path fill="none" stroke="#f68712" stroke-miterlimit="3.864" stroke-width=".564" d="m186.648 40.766 38.153 27.609" />
   <path fill="#f68712"
      d="M226.219 68.688c-.59-.774-.93-1.34-1.36-2.024l-1.668 2.305c.293.054 1.426.34 2.344.66.988.34 1.84.703 2.36.988-.434-.402-1.043-1.101-1.676-1.93" />
   <path fill="#fff"
      d="M245.535 68.715c-.59-.777-.93-1.34-1.363-2.024L242.504 69c.293.05 1.43.336 2.348.656.984.34 1.84.703 2.359.989-.434-.403-1.047-1.102-1.676-1.93" />
   <path fill="none" stroke="#f68712" stroke-miterlimit="3.864" stroke-width=".564" d="m193.254 31.617 50.86 36.785" />
   <path fill="#f68712"
      d="M245.535 68.715c-.59-.777-.93-1.34-1.363-2.024L242.504 69c.293.05 1.43.336 2.348.656.984.34 1.84.703 2.359.989-.434-.403-1.047-1.102-1.676-1.93" />
   <path fill="#fff"
      d="M264.89 68.723c-.593-.774-.93-1.34-1.363-2.02l-1.664 2.305c.29.055 1.426.34 2.344.66.988.34 1.844.703 2.363.984-.433-.402-1.047-1.101-1.68-1.93" />
   <path fill="none" stroke="#f68712" stroke-miterlimit="3.864" stroke-width=".564" d="m199.86 22.469 63.609 45.945" />
   <path fill="#f68712"
      d="M264.89 68.723c-.593-.774-.93-1.34-1.363-2.02l-1.664 2.305c.29.055 1.426.34 2.344.66.988.34 1.844.703 2.363.984-.433-.402-1.047-1.101-1.68-1.93" />
   <path fill="none" stroke="#838787" stroke-miterlimit="3.864" stroke-width=".141" d="M130.43 85.977h5.457" />
   <path fill="#838787" fill-rule="evenodd" d="M135.754 85.977v-.778l1.941.778-1.941.777v-.777" />
   <path fill="none" stroke="#838787" stroke-miterlimit="3.864" stroke-width=".141" d="M150.64 86h10.708" />
   <path fill="#838787" fill-rule="evenodd" d="M150.77 86v.777L148.828 86l1.942-.777V86" />
   <path fill="none" stroke="#838787" stroke-miterlimit="3.864" stroke-width=".141"
      d="M137.625 71.086v16.078M148.906 71.086v16.078" />
   <path fill="none" stroke="#838787" stroke-miterlimit="3.864" stroke-width=".564" d="M266.605 70.73V32.863" />
   <path fill="none" stroke="#838787" stroke-miterlimit="3.864" stroke-width=".141" d="m203.586 47.938 3.117-4.473" />
   <path fill="#838787" fill-rule="evenodd" d="m206.629 43.57-.637-.445 1.742-1.148-.468 2.035-.637-.442" />
   <path fill="none" stroke="#838787" stroke-miterlimit="3.864" stroke-width=".141" d="m215.148 31.363 6.114-8.789" />
   <path fill="#838787" fill-rule="evenodd" d="m215.223 31.258.636.445-1.746 1.149.473-2.036.637.442" />
   <path fill="none" stroke="#838787" stroke-miterlimit="3.864" stroke-width=".141" d="M220.633 86.047h5.453" />
   <path fill="#838787" fill-rule="evenodd" d="M225.957 86.047v-.777l1.938.777-1.938.777v-.777" />
   <path fill="none" stroke="#838787" stroke-miterlimit="3.864" stroke-width=".141" d="M249.02 86.066h27.812" />
   <path fill="#838787" fill-rule="evenodd" d="M249.148 86.066v.778l-1.937-.778 1.937-.773v.773" />
   <path fill="none" stroke="#838787" stroke-miterlimit="3.864" stroke-width=".141"
      d="M227.824 71.152V87.23M247.29 71.086V87.23" />
   <path fill="none" stroke="#838787" stroke-miterlimit="3.864" stroke-width=".282"
      d="m27.59 58.04-1.031 2.636M25.012 57.066l2.812 1.067" />
   <use xlink:href="#a" x="217.59" y="157.522" fill="#838787" transform="translate(-64.992 -74.473)" />
   <g fill="#838787" transform="translate(-64.992 -74.473)">
      <use xlink:href="#a" x="315.94" y="157.143" />
      <use xlink:href="#b" x="319.889" y="157.143" />
   </g>
   <g fill="#838787" transform="translate(-64.992 -74.473)">
      <use xlink:href="#c" x="322.085" y="157.143" />
      <use xlink:href="#d" x="325.592" y="157.143" />
      <use xlink:href="#e" x="329.541" y="157.143" />
   </g>
   <use xlink:href="#f" x="334.588" y="157.143" fill="#838787" transform="translate(-64.992 -74.473)" />
   <use xlink:href="#g" x="338.482" y="158.275" fill="#838787" transform="translate(-64.992 -74.473)" />
   <use xlink:href="#f" x="321.489" y="130.724" fill="#838787" transform="translate(-64.992 -74.473)" />
   <use xlink:href="#g" x="325.383" y="131.853" fill="#838787" transform="translate(-64.992 -74.473)" />
   <use xlink:href="#f" x="86.14" y="118.407" fill="#838787" transform="translate(-64.992 -74.473)" />
   <use xlink:href="#g" x="90.034" y="119.535" fill="#838787" transform="translate(-64.992 -74.473)" />
   <use xlink:href="#a" x="276.734" y="102.234" fill="#838787" transform="translate(-64.992 -74.473)" />
   <path fill="#f07124" fill-rule="evenodd"
      d="m13.77 10.398-2.282-2.222-.902 1.957M14.008 4.672l-3.195.047.726 2.015M10.145.492 7.91 2.797l1.938.89M4.438.262l.039 3.218 2-.757M.238 4.172l2.274 2.246.898-1.961M0 9.898l3.195-.046-.726-2.016M3.875 14.113l2.234-2.304-1.937-.895M9.57 14.309l-.039-3.22-2 .759M8.582 3.879c-1.867-.86-4.094-.02-4.957 1.851a3.741 3.741 0 0 0 1.82 4.973c1.848.848 4.067.031 4.934-1.863.863-1.871.055-4.11-1.797-4.961" />
</svg>
