<svg xmlns="http://www.w3.org/2000/svg" xmlns:xlink="http://www.w3.org/1999/xlink" width="600"
   viewBox="0 30 370.273 85">
   <defs>
      <path id="b"
         d="M.188-6.469v.172c.218.016.374.063.453.156.062.094.093.297.093.61v4.61c0 .312-.015.515-.093.577-.094.11-.235.172-.454.172V0h2.438v-.172c-.219 0-.36-.047-.438-.156-.078-.078-.109-.281-.109-.594v-5.547Zm0 0" />
      <path id="c"
         d="M.344-6.469v.172c.187.031.312.078.39.172.063.078.079.281.079.625v4.531c0 .344-.016.547-.079.625-.078.094-.203.156-.39.172V0h2.25v-.172c-.188-.016-.313-.078-.375-.203-.047-.078-.063-.266-.063-.594v-2.375c.14-.219.266-.375.39-.469a.532.532 0 0 1 .36-.124c.094 0 .172.03.235.078.062.046.109.125.14.218.031.094.047.329.047.704V-.97c0 .328-.031.531-.094.61a.449.449 0 0 1-.343.187V0h2.25v-.172c-.204-.016-.329-.078-.375-.156-.079-.078-.11-.297-.11-.64v-1.735c0-.5-.031-.86-.093-1.078a1.062 1.062 0 0 0-.391-.563 1.134 1.134 0 0 0-.719-.234c-.219 0-.437.047-.625.156-.203.11-.422.281-.672.547v-2.594zm0 0" />
      <path id="e"
         d="m2.578.125 1.469-3.484c.187-.438.312-.688.406-.782.078-.078.203-.125.344-.156v-.156H3.344v.156c.172.016.297.047.375.11.078.062.11.14.11.234 0 .187-.079.469-.267.89L3-1.625l-.75-1.656c-.14-.344-.203-.563-.203-.672 0-.11.047-.188.11-.266.062-.047.155-.078.312-.078v-.156H.094v.156c.156.031.25.094.328.172.11.125.234.375.422.797l1.5 3.453zm0 0" />
      <clipPath id="a">
         <path d="M162 216h332.457v17.32H162Zm0 0" />
      </clipPath>
      <clipPath id="d">
         <path d="M142.465 192H148v5h-5.535zm0 0" />
      </clipPath>
   </defs>
   <path fill="#e99036" d="m337.757 100.848 13.227-54.422 1.988.527-13.227 54.363zm11-53.895 5.387-9.246.582 10.707" />
   <path fill="#00904c"
      d="M67.929 102.606 20.468 82.707l.762-1.93 47.515 19.954zM20.585 84.988l-8.25-6.789 10.649 1.114" />
   <g clip-path="url(#a)" transform="translate(-133.372 -120.242)">
      <path fill="none" stroke="#0071bc" stroke-linejoin="round" stroke-miterlimit="10"
         stroke-width="1.9506000000000001"
         d="m163.379 230.395 4.621-5.09 6.027.933 7.961 3.223v-5.563h3.688l2.34-2.808 5.09 1.406 5.617 3.277 10.3-6.085 1.286 4.21 6.03 1.875 6.497.875 5.148-3.683 8.368 2.34 8.367-5.153 6.086-.933 3.218 2.808 4.625 3.278 3.278 3.277 4.152-2.809 6.496-.468 10.711-6.555 3.742-.937 3.746 3.277 3.688.469 3.277-1.407 5.09 1.875 6.027.938 3.278 3.273 3.219 3.223 9.304-1.875 9.774-8.367 9.304.469 6.496 3.742 6.961.879 4.215 4.273 2.34 2.75h3.688l5.148-2.75 3.219 1.344 13.52-7.899 7.898.47 3.687 3.741 4.156 3.688 8.422 2.808 4.625-3.742 3.688-1.875 7.96-4.62h4.622l5.148 3.276h7.434l6.496 2.809 7.43-.996h6.496l3.687-2.809 7.957-6.027 6.028-.938 3.277 3.747 5.559 3.218" />
   </g>
   <path fill="#e99036"
      d="m287.538 104.078 13.196-55.254 1.988.469-13.477 55.356zm10.973-54.726 5.441-9.246.528 10.648M245.964 104l13.32-54.941 1.989.468-13.356 55.082zm11.094-54.414 5.441-9.246.528 10.707M192.57 101.2l13.226-54.423 1.988.47-13.222 54.421zm11.003-53.895 5.383-9.246.586 10.648M142.773 99.328l13.226-54.426 1.989.47-13.227 54.421zm11-53.898 5.382-9.246.586 10.71M104.792 100.906l13.168-54.363 1.988.469-13.164 54.363zm10.946-53.894 5.44-9.188.528 10.649M66.75 101.559 80.217 45.37l1.988.469-13.75 56.328zm11.241-55.72 5.383-9.187.586 10.653" />
   <path fill="#00904c"
      d="M105.886 101.844 58.312 81.945l.758-1.93 47.578 19.958zM58.429 84.23l-8.254-6.79 10.652 1.114M144.167 102.293 94.378 81.418l.762-1.871 49.637 20.793zm-49.672-18.59-8.254-6.789 10.653 1.113M193.421 103.023l-49.594-20.785.817-1.87 49.75 20.702zM144 84.523l-8.25-6.789 10.653 1.11M245.179 104.242 197.605 84.29l.82-1.875 47.574 19.899zM197.78 86.57l-8.253-6.789 10.593 1.114M286.98 104.477l-47.516-19.953.762-1.875 47.515 19.957zM239.58 86.863l-8.25-6.847 10.649 1.172M340.624 103.773 293.11 83.82l.757-1.933 47.52 20.015zm-47.398-17.671-8.196-6.848 10.594 1.172" />
   <path fill="#ed1c24"
      d="m143.241 101.2-22.12-44.415 1.87-.879 22.063 44.356zm-23.468-42.544-1.813-10.535 7.317 7.785M193.566 104.242l-22.063-44.355 1.817-.938 22.12 44.356zM170.159 61.7l-1.812-10.535 7.312 7.785M245.823 105.414l-22.062-44.36 1.812-.937 22.067 44.36zM222.36 62.871l-1.817-10.535 7.317 7.781M287.605 105.414l-22.063-44.36 1.817-.937 22.058 44.36zM264.14 62.871l-1.813-10.535 7.313 7.781M338.253 102.902 315.93 57.953l1.812-.875 22.403 44.848zm-23.73-43.132-1.813-10.536 7.313 7.844M106.59 102.176 84.526 57.758l1.87-.879 22.063 44.36zM83.178 59.629l-1.813-10.531 7.317 7.781M67.148 102.176 45.027 57.758l1.87-.879 22.063 44.36zm-23.47-42.547-1.812-10.531 7.317 7.781" />
   <use xlink:href="#b" x="218.54" y="158.157" fill="#838787" transform="translate(-133.372 -120.242)" />
   <use xlink:href="#c" x="177.252" y="169.861" fill="#838787" transform="translate(-133.372 -120.242)" />
   <g clip-path="url(#d)" transform="translate(-133.372 -120.242)">
      <use xlink:href="#e" x="142.466" y="196.519" fill="#838787" />
   </g>
   <use xlink:href="#e" x="191.882" y="196.194" fill="#838787" transform="translate(-133.372 -120.242)" />
   <use xlink:href="#e" x="231.87" y="198.47" fill="#838787" transform="translate(-133.372 -120.242)" />
   <use xlink:href="#e" x="272.833" y="196.194" fill="#838787" transform="translate(-133.372 -120.242)" />
   <use xlink:href="#e" x="323.223" y="198.795" fill="#838787" transform="translate(-133.372 -120.242)" />
   <use xlink:href="#e" x="371.013" y="198.795" fill="#838787" transform="translate(-133.372 -120.242)" />
   <use xlink:href="#e" x="422.055" y="197.819" fill="#838787" transform="translate(-133.372 -120.242)" />
   <use xlink:href="#c" x="218.54" y="171.161" fill="#838787" transform="translate(-133.372 -120.242)" />
   <use xlink:href="#c" x="256.253" y="171.161" fill="#838787" transform="translate(-133.372 -120.242)" />
   <use xlink:href="#c" x="304.692" y="172.462" fill="#838787" transform="translate(-133.372 -120.242)" />
   <use xlink:href="#c" x="356.71" y="174.087" fill="#838787" transform="translate(-133.372 -120.242)" />
   <use xlink:href="#c" x="399.623" y="174.087" fill="#838787" transform="translate(-133.372 -120.242)" />
   <use xlink:href="#c" x="449.69" y="170.837" fill="#838787" transform="translate(-133.372 -120.242)" />
   <use xlink:href="#b" x="256.252" y="159.132" fill="#838787" transform="translate(-133.372 -120.242)" />
   <use xlink:href="#b" x="294.614" y="158.157" fill="#838787" transform="translate(-133.372 -120.242)" />
   <use xlink:href="#b" x="343.38" y="159.132" fill="#838787" transform="translate(-133.372 -120.242)" />
   <use xlink:href="#b" x="397.346" y="161.083" fill="#838787" transform="translate(-133.372 -120.242)" />
   <use xlink:href="#b" x="439.935" y="162.058" fill="#838787" transform="translate(-133.372 -120.242)" />
   <use xlink:href="#b" x="489.026" y="159.132" fill="#838787" transform="translate(-133.372 -120.242)" />
   <path fill="none" stroke="#ed1c24" stroke-linejoin="round" stroke-miterlimit="10" stroke-width="3.584"
      d="m346.124 99.152-13.11 8.778M76.003 98.8 64.3 106.114m48.336-6.668-10.184 6.434m47.461-7.488-11.004 6.847m60.332-5.265-9.593 6.61m65.011-5.208-13.109 8.777m54.719-8.777-13.051 8.777" />
</svg>
