<svg xmlns="http://www.w3.org/2000/svg" width="600" viewBox="5 210 365 80">
   <defs>
      <clipPath id="a">
         <path d="M142.465 367H266v32H142.465Zm0 0" />
      </clipPath>
      <clipPath id="b">
         <path d="M142.465 333.758H266v74.73H142.465Zm0 0" />
      </clipPath>
      <clipPath id="c">
         <path d="M266 333.758h124v74.73H266Zm0 0" />
      </clipPath>
      <clipPath id="d">
         <path d="M391 333.758h103.02v74.73H391Zm0 0" />
      </clipPath>
      <clipPath id="e">
         <path d="M391 368h103.02v32H391Zm0 0" />
      </clipPath>
   </defs>
   <path fill="#007db1"
      d="m292.968 234.41 21.305 25.492-1.051.856-21.254-25.496zm-1.602 2.203-2.707-6.363 5.762 3.809M270.308 237.594l31.992 33.43-1.05.851-31.907-33.367zm-1.469 2.332-3.191-6.227 6.078 3.442" />
   <path fill="#00904c"
      d="m255.343 276.86-98.977-44.883.567-1.262 99.008 44.879zm-98.914-43.337-5.461-4.738 7.168.98M172.98 254.7l-33.828-15.844.57-1.23 33.86 15.812zm-33.797-14.298-5.399-4.796 7.137 1.039M166.741 264.777l-26.722-12.554.57-1.23 26.754 12.523zM140.05 253.77l-5.398-4.797 7.136 1.043M158.073 271.277l-17.148-8.082.602-1.23 17.117 8.05zm-17.082-6.535-5.402-4.797 7.137 1.043M181.284 248.07l-40.832-19.132.598-1.235 40.8 19.106zm-40.77-17.586-5.398-4.8 7.133 1.043" />
   <g clip-path="url(#a)" transform="translate(-133.387 -120.445)">
      <path fill="none" stroke="#0071bc" stroke-linejoin="round" stroke-miterlimit="10" stroke-width="1.3815"
         d="m143.043 383.758 5.906 3.933 3.317 3.317 4.957 3.316 8.304-1.64h14.907l4.988-3.317 8.273-6.633 1.672-6.629 4.957-4.988 4.988-3.316 9.95 1.672 6.629 3.316 1.644 1.64 3.317 6.634 4.988 9.945 3.312 3.316 1.645 1.672 3.316 1.645h6.63l9.948-1.645h8.301" />
   </g>
   <path fill="#f1a52b"
      d="m95.515 250.48 31.238-13.62.602 1.23L96.08 251.71zm1.77 2.211-7.137 1.043 5.398-4.8M103.26 265.48l26.536-11.515.57 1.23-26.504 11.516zm1.802 2.211-7.137 1.04 5.398-4.797M120.366 273.164l10.747-4.676.566 1.235-10.715 4.672zm1.801 2.211-7.14 1.04 5.402-4.798" />
   <path fill="#838787"
      d="m22.605 269.68 3.504-1.64.41.882-3.504 1.64zm6.156-2.844 3.504-1.64.41.882-3.504 1.613zm6.125-2.871 3.508-1.64.41.882-3.504 1.64zm6.129-2.844 3.504-1.64.41.882-3.504 1.614zm6.156-2.87 3.504-1.645.41.886-3.504 1.64zm6.125-2.845 3.504-1.64.414.882-3.508 1.61zm6.125-2.87 3.508-1.645.41.886-3.504 1.641zm6.16-2.845 3.504-1.64.41.883-3.504 1.609zm6.125-2.875 3.348-1.546.379.886-3.317 1.547zm-47.84 24.41-4.988.727 3.758-3.347" />
   <path fill="#f1a52b" d="m17.585 260.426 50.742-23.617.567 1.23-50.711 23.621zm1.797 2.21-7.133 1.044 5.399-4.801" />
   <path fill="#838787"
      d="m30.94 269.996 3.536-1.578.379.883-3.535 1.578zm6.157-2.781 3.539-1.578.41.886-3.539 1.579zm6.191-2.746 3.535-1.61.38.883-3.536 1.578zm6.157-2.778 3.535-1.613.41.887-3.535 1.578zm6.187-2.78 3.54-1.61.378.887-3.54 1.578zm-23.46 12.663-5.02.664 3.82-3.316M42.527 269.078l3.539-1.578.379.883-3.504 1.582zm6.16-2.777 3.535-1.61.379.883-3.504 1.578zm6.156-2.809 3.539-1.613.379.887-3.508 1.61zm-11.082 7.168-4.988.692 3.789-3.348" />
   <g clip-path="url(#b)" transform="translate(-133.387 -120.445)">
      <path fill="none" stroke="#838787" stroke-width=".5263" d="M142.73 408.227h122.786v-74.2H142.73Zm0 0" />
   </g>
   <g clip-path="url(#c)" transform="translate(-133.387 -120.445)">
      <path fill="none" stroke="#838787" stroke-width=".5263" d="M266.93 408.227h122.789v-74.2h-122.79Zm0 0" />
   </g>
   <g clip-path="url(#d)" transform="translate(-133.387 -120.445)">
      <path fill="none" stroke="#838787" stroke-width=".5263" d="M391.395 408.227h102.527v-74.2H391.395Zm0 0" />
   </g>
   <path fill="none" stroke="#0071bc" stroke-linejoin="round" stroke-miterlimit="10" stroke-width="1.658"
      d="m133.476 274.215 8.304-1.64h14.907l4.988-3.317 8.273-6.633 1.672-6.629 4.957-4.988 4.989-3.317 9.949 1.672 6.629 3.317 1.644 1.64 3.317 6.633 4.988 9.945 3.316 3.317 1.641 1.676 3.316 1.64h6.63l9.949-1.64h8.304l9.946 1.64 4.957-1.64" />
   <path fill="#ef4023"
      d="m207.335 260.543 3.567 1.484-.38.883-3.566-1.484zm6.219 2.59 3.601 1.484-.378.914-3.567-1.484zm6.254 2.621 3.566 1.484-.347.883-3.567-1.484zm6.25 2.586 3.57 1.484-.348.918-3.601-1.515zm6.254 2.621 3.566 1.484-.379.887-3.566-1.484zm6.254 2.59 3.566 1.484-.379.887-3.57-1.484zM207.019 262.5l-3.914-3.187 5.02.503M209.007 265.406l3.602 1.418-.348.887-3.602-1.39zm6.316 2.461 3.602 1.39-.348.915-3.601-1.422zm6.317 2.465 3.597 1.387-.347.887-3.63-1.391zm6.281 2.43 3.633 1.422-.379.882-3.598-1.386zm6.316 2.465.567.218-.379.887-.535-.223zm-25.48-7.832-3.98-3.125 5.023.41M212.323 272.07l3.57 1.45-.347.886-3.601-1.422zm6.286 2.524 3.566 1.453-.348.883-3.597-1.45zm-6.57-.535-3.946-3.16 5.02.472" />
   <g clip-path="url(#e)" transform="translate(-133.387 -120.445)">
      <path fill="none" stroke="#0071bc" stroke-linejoin="round" stroke-miterlimit="10" stroke-width="1.6578"
         d="m392.21 382.21 9.946 6.63 3.317 3.316 4.988 3.317 8.27-1.676h14.937l4.957-3.317 8.305-6.628 1.644-6.633 4.988-4.957 4.958-3.317 9.945 1.645 6.633 3.316 1.672 1.672 3.316 6.633 4.957 9.945 3.316 3.317 1.672 1.64 3.317 1.672" />
   </g>
   <path fill="#00904c" d="m296.007 271.063-33.879-5.875.352-1.317 33.726 5.887zm-.203-2.707 6.117 3.058-6.816.8" />
   <path fill="#f1a52b" d="m267.503 261.543 50.715-23.621.598 1.266-50.743 23.62zm1.77 2.211-7.137 1.043 5.398-4.8" />
   <path fill="#00904c" d="m310.105 262.168-37.625 10.211-.352-1.227 37.652-10.14zm-1.25-2.172 6.332.137-5.36 3.375" />
   <path fill="#f1a52b"
      d="m277.452 268.176 50.711-23.621.598 1.261-50.742 23.622zm1.766 2.207-7.133 1.043 5.399-4.8M77.265 243.852l44.953-21.516.57 1.23-44.925 21.516zm1.797 2.207-7.137 1.043 5.402-4.801" />
</svg>
