<svg xmlns="http://www.w3.org/2000/svg" xmlns:xlink="http://www.w3.org/1999/xlink" width="600"
    viewBox="0 0 900.51 228.703">
    <defs>
        <clipPath id="b">
            <path d="M.707.723h.883V2.96H.707Zm0 0" />
        </clipPath>
        <clipPath id="a">
            <path d="M0 0h2v3H0z" />
        </clipPath>
        <clipPath id="d">
            <path d="M.297.723h.883V2.96H.297Zm0 0" />
        </clipPath>
        <clipPath id="c">
            <path d="M0 0h2v3H0z" />
        </clipPath>
        <clipPath id="f">
            <path d="M.883.723h.883V2.96H.883Zm0 0" />
        </clipPath>
        <clipPath id="e">
            <path d="M0 0h2v3H0z" />
        </clipPath>
        <clipPath id="h">
            <path d="M.469.723h.886V2.96H.47Zm0 0" />
        </clipPath>
        <clipPath id="g">
            <path d="M0 0h2v3H0z" />
        </clipPath>
        <clipPath id="j">
            <path d="M.059.723H.94V2.96H.06Zm0 0" />
        </clipPath>
        <clipPath id="i">
            <path d="M0 0h1v3H0z" />
        </clipPath>
        <clipPath id="l">
            <path d="M.645.723h.886V2.96H.645Zm0 0" />
        </clipPath>
        <clipPath id="k">
            <path d="M0 0h2v3H0z" />
        </clipPath>
        <clipPath id="n">
            <path d="M.234.723h.883V2.96H.234Zm0 0" />
        </clipPath>
        <clipPath id="m">
            <path d="M0 0h2v3H0z" />
        </clipPath>
        <clipPath id="p">
            <path d="M.695.238h2.239v.887H.695Zm0 0" />
        </clipPath>
        <clipPath id="o">
            <path d="M0 0h3v2H0z" />
        </clipPath>
        <clipPath id="r">
            <path d="M.695 1h2.239v.828H.695Zm0 0" />
        </clipPath>
        <clipPath id="q">
            <path d="M0 0h3v2H0z" />
        </clipPath>
        <clipPath id="t">
            <path d="M.695.648h2.239v.887H.695Zm0 0" />
        </clipPath>
        <clipPath id="s">
            <path d="M0 0h3v2H0z" />
        </clipPath>
        <clipPath id="v">
            <path d="M.695.355h2.239v.887H.695Zm0 0" />
        </clipPath>
        <clipPath id="u">
            <path d="M0 0h3v2H0z" />
        </clipPath>
        <clipPath id="x">
            <path d="M.695.063h2.239v.882H.695Zm0 0" />
        </clipPath>
        <clipPath id="w">
            <path d="M0 0h3v1H0z" />
        </clipPath>
        <clipPath id="z">
            <path d="M.695.77h2.239v.882H.695Zm0 0" />
        </clipPath>
        <clipPath id="y">
            <path d="M0 0h3v2H0z" />
        </clipPath>
        <clipPath id="aq">
            <path d="M584.27 15.336h285.425V43H584.27Zm0 0" />
        </clipPath>
        <clipPath id="ar">
            <path d="M584.27 15.336h285.425V38H584.27Zm0 0" />
        </clipPath>
        <clipPath id="as">
            <path d="M584.27 15.336h285.425V34H584.27Zm0 0" />
        </clipPath>
        <clipPath id="B">
            <path d="M.523.723h.887V2.96H.523Zm0 0" />
        </clipPath>
        <clipPath id="A">
            <path d="M0 0h2v3H0z" />
        </clipPath>
        <clipPath id="D">
            <path d="M.113.723h.883V2.96H.113Zm0 0" />
        </clipPath>
        <clipPath id="C">
            <path d="M0 0h1v3H0z" />
        </clipPath>
        <clipPath id="F">
            <path d="M.7.723h.886V2.96H.699Zm0 0" />
        </clipPath>
        <clipPath id="E">
            <path d="M0 0h2v3H0z" />
        </clipPath>
        <clipPath id="H">
            <path d="M.29.723h.882V2.96H.289Zm0 0" />
        </clipPath>
        <clipPath id="G">
            <path d="M0 0h2v3H0z" />
        </clipPath>
        <clipPath id="J">
            <path d="M.875.723h.887V2.96H.875Zm0 0" />
        </clipPath>
        <clipPath id="I">
            <path d="M0 0h2v3H0z" />
        </clipPath>
        <clipPath id="L">
            <path d="M.465.723h.883V2.96H.465Zm0 0" />
        </clipPath>
        <clipPath id="K">
            <path d="M0 0h2v3H0z" />
        </clipPath>
        <clipPath id="N">
            <path d="M.793.723h.887V2.96H.793Zm0 0" />
        </clipPath>
        <clipPath id="M">
            <path d="M0 0h2v3H0z" />
        </clipPath>
        <clipPath id="aA">
            <path d="M293.938 15.332h285.425V26H293.937Zm0 0" />
        </clipPath>
        <clipPath id="aB">
            <path d="M293.938 15.332h285.425V74H293.937Zm0 0" />
        </clipPath>
        <clipPath id="aC">
            <path d="M293.938 15.332h285.425V90H293.937Zm0 0" />
        </clipPath>
        <clipPath id="P">
            <path d="M.117.723H1V2.96H.117Zm0 0" />
        </clipPath>
        <clipPath id="O">
            <path d="M0 0h2v3H0z" />
        </clipPath>
        <clipPath id="R">
            <path d="M.707.723h.883V2.96H.707Zm0 0" />
        </clipPath>
        <clipPath id="Q">
            <path d="M0 0h2v3H0z" />
        </clipPath>
        <clipPath id="T">
            <path d="M.293.723h.887V2.96H.293Zm0 0" />
        </clipPath>
        <clipPath id="S">
            <path d="M0 0h2v3H0z" />
        </clipPath>
        <clipPath id="V">
            <path d="M.883.723h.883V2.96H.883Zm0 0" />
        </clipPath>
        <clipPath id="U">
            <path d="M0 0h2v3H0z" />
        </clipPath>
        <clipPath id="X">
            <path d="M.469.723h.886V2.96H.47Zm0 0" />
        </clipPath>
        <clipPath id="W">
            <path d="M0 0h2v3H0z" />
        </clipPath>
        <clipPath id="Z">
            <path d="M.059.723H.94V2.96H.06Zm0 0" />
        </clipPath>
        <clipPath id="Y">
            <path d="M0 0h1v3H0z" />
        </clipPath>
        <clipPath id="ab">
            <path d="M.387.723h.883V2.96H.387Zm0 0" />
        </clipPath>
        <clipPath id="aa">
            <path d="M0 0h2v3H0z" />
        </clipPath>
        <clipPath id="aK">
            <path d="M4.523 15.332H289.95V167H4.523Zm0 0" />
        </clipPath>
        <clipPath id="ac">
            <path d="M0 0h908v206H0z" />
        </clipPath>
        <g clip-path="url(#a)">
            <g id="ad" clip-path="url(#b)">
                <path fill="none" stroke="#838787" stroke-linejoin="round" stroke-miterlimit="10"
                    stroke-width=".88580775" d="M1.268.724v2.238" />
            </g>
        </g>
        <g clip-path="url(#c)">
            <g id="ae" clip-path="url(#d)">
                <path fill="none" stroke="#838787" stroke-linejoin="round" stroke-miterlimit="10"
                    stroke-width=".88580775" d="M.838.724v2.238" />
            </g>
        </g>
        <g clip-path="url(#e)">
            <g id="af" clip-path="url(#f)">
                <path fill="none" stroke="#838787" stroke-linejoin="round" stroke-miterlimit="10"
                    stroke-width=".88580775" d="M1.405.724v2.238" />
            </g>
        </g>
        <g clip-path="url(#g)">
            <g id="ag" clip-path="url(#h)">
                <path fill="none" stroke="#838787" stroke-linejoin="round" stroke-miterlimit="10"
                    stroke-width=".88580775" d="M.979.724v2.238" />
            </g>
        </g>
        <g clip-path="url(#i)">
            <g id="ah" clip-path="url(#j)">
                <path fill="none" stroke="#838787" stroke-linejoin="round" stroke-miterlimit="10"
                    stroke-width=".88580775" d="M.55.724v2.238" />
            </g>
        </g>
        <g clip-path="url(#k)">
            <g id="ai" clip-path="url(#l)">
                <path fill="none" stroke="#838787" stroke-linejoin="round" stroke-miterlimit="10"
                    stroke-width=".88580775" d="M1.12.724v2.238" />
            </g>
        </g>
        <g clip-path="url(#m)">
            <g id="aj" clip-path="url(#n)">
                <path fill="none" stroke="#838787" stroke-linejoin="round" stroke-miterlimit="10"
                    stroke-width=".88580775" d="M.693.724v2.238" />
            </g>
        </g>
        <g clip-path="url(#o)">
            <g id="ak" clip-path="url(#p)">
                <path fill="none" stroke="#838787" stroke-linejoin="round" stroke-miterlimit="10"
                    stroke-width=".88580775" d="M.693.724h2.235" />
            </g>
        </g>
        <g clip-path="url(#q)">
            <g id="al" clip-path="url(#r)">
                <path fill="none" stroke="#838787" stroke-linejoin="round" stroke-miterlimit="10"
                    stroke-width=".88580775" d="M.693 1.447h2.235" />
            </g>
        </g>
        <g clip-path="url(#s)">
            <g id="am" clip-path="url(#t)">
                <path fill="none" stroke="#838787" stroke-linejoin="round" stroke-miterlimit="10"
                    stroke-width=".88580775" d="M.693 1.17h2.235" />
            </g>
        </g>
        <g clip-path="url(#u)">
            <g id="an" clip-path="url(#v)">
                <path fill="none" stroke="#838787" stroke-linejoin="round" stroke-miterlimit="10"
                    stroke-width=".88580775" d="M.693.892h2.235" />
            </g>
        </g>
        <g clip-path="url(#w)">
            <g id="ao" clip-path="url(#x)">
                <path fill="none" stroke="#838787" stroke-linejoin="round" stroke-miterlimit="10"
                    stroke-width=".88580775" d="M.693.61h2.235" />
            </g>
        </g>
        <g clip-path="url(#y)">
            <g id="ap" clip-path="url(#z)">
                <path fill="none" stroke="#838787" stroke-linejoin="round" stroke-miterlimit="10"
                    stroke-width=".88580775" d="M.693 1.337h2.235" />
            </g>
        </g>
        <g clip-path="url(#A)">
            <g id="at" clip-path="url(#B)">
                <path fill="none" stroke="#838787" stroke-linejoin="round" stroke-miterlimit="10"
                    stroke-width=".88580775" d="M.937.724v2.238" />
            </g>
        </g>
        <g clip-path="url(#C)">
            <g id="au" clip-path="url(#D)">
                <path fill="none" stroke="#838787" stroke-linejoin="round" stroke-miterlimit="10"
                    stroke-width=".88580775" d="M.507.724v2.238" />
            </g>
        </g>
        <g clip-path="url(#E)">
            <g id="av" clip-path="url(#F)">
                <path fill="none" stroke="#838787" stroke-linejoin="round" stroke-miterlimit="10"
                    stroke-width=".88580775" d="M1.081.724v2.238" />
            </g>
        </g>
        <g clip-path="url(#G)">
            <g id="aw" clip-path="url(#H)">
                <path fill="none" stroke="#838787" stroke-linejoin="round" stroke-miterlimit="10"
                    stroke-width=".88580775" d="M.651.724v2.238" />
            </g>
        </g>
        <g clip-path="url(#I)">
            <g id="ax" clip-path="url(#J)">
                <path fill="none" stroke="#838787" stroke-linejoin="round" stroke-miterlimit="10"
                    stroke-width=".88580775" d="M1.221.724v2.238" />
            </g>
        </g>
        <g clip-path="url(#K)">
            <g id="ay" clip-path="url(#L)">
                <path fill="none" stroke="#838787" stroke-linejoin="round" stroke-miterlimit="10"
                    stroke-width=".88580775" d="M.792.724v2.238" />
            </g>
        </g>
        <g clip-path="url(#M)">
            <g id="az" clip-path="url(#N)">
                <path fill="none" stroke="#838787" stroke-linejoin="round" stroke-miterlimit="10"
                    stroke-width=".88580775" d="M1.362.724v2.238" />
            </g>
        </g>
        <g clip-path="url(#O)">
            <g id="aD" clip-path="url(#P)">
                <path fill="none" stroke="#838787" stroke-linejoin="round" stroke-miterlimit="10"
                    stroke-width=".88580775" d="M.523.724v2.238" />
            </g>
        </g>
        <g clip-path="url(#Q)">
            <g id="aE" clip-path="url(#R)">
                <path fill="none" stroke="#838787" stroke-linejoin="round" stroke-miterlimit="10"
                    stroke-width=".88580775" d="M1.093.724v2.238" />
            </g>
        </g>
        <g clip-path="url(#S)">
            <g id="aF" clip-path="url(#T)">
                <path fill="none" stroke="#838787" stroke-linejoin="round" stroke-miterlimit="10"
                    stroke-width=".88580775" d="M.663.724v2.238" />
            </g>
        </g>
        <g clip-path="url(#U)">
            <g id="aG" clip-path="url(#V)">
                <path fill="none" stroke="#838787" stroke-linejoin="round" stroke-miterlimit="10"
                    stroke-width=".88580775" d="M1.238.724v2.238" />
            </g>
        </g>
        <g clip-path="url(#W)">
            <g id="aH" clip-path="url(#X)">
                <path fill="none" stroke="#838787" stroke-linejoin="round" stroke-miterlimit="10"
                    stroke-width=".88580775" d="M.804.724v2.238" />
            </g>
        </g>
        <g clip-path="url(#Y)">
            <g id="aI" clip-path="url(#Z)">
                <path fill="none" stroke="#838787" stroke-linejoin="round" stroke-miterlimit="10"
                    stroke-width=".88580775" d="M.374.724v2.238" />
            </g>
        </g>
        <g clip-path="url(#aa)">
            <g id="aJ" clip-path="url(#ab)">
                <path fill="none" stroke="#838787" stroke-linejoin="round" stroke-miterlimit="10"
                    stroke-width=".88580775" d="M.948.724v2.238" />
            </g>
        </g>
        <g id="aL" clip-path="url(#ac)">
            <path fill="#838787"
                d="M10.484 176.723c-1.054 0-1.843.52-2.382 1.554-.54 1.04-.79 2.594-.79 4.668 0 2.075.25 3.63.79 4.668.539 1.035 1.328 1.555 2.382 1.555 1.059 0 1.848-.52 2.387-1.555.52-1.039.79-2.593.79-4.668 0-2.074-.27-3.629-.79-4.668-.539-1.035-1.328-1.554-2.387-1.554m0-1.618c1.684 0 2.97.684 3.883 2.012.89 1.348 1.348 3.297 1.348 5.828 0 2.551-.457 4.5-1.348 5.828-.914 1.329-2.199 1.993-3.883 1.993-1.699 0-3.007-.664-3.894-1.993-.895-1.328-1.332-3.277-1.332-5.828 0-2.53.437-4.48 1.332-5.828.887-1.328 2.195-2.012 3.894-2.012M24.656 176.633c-.379 0-.695.129-.957.39a1.3 1.3 0 0 0-.394.957 1.315 1.315 0 0 0 1.351 1.336c.38 0 .7-.117.961-.375.262-.265.39-.582.39-.96 0-.38-.128-.696-.39-.958a1.305 1.305 0 0 0-.96-.39m0-.914c.288 0 .581.054.87.172.278.117.524.289.727.496.203.215.363.46.48.726.118.274.172.563.172.867 0 .641-.234 1.16-.668 1.598-.433.438-.972.637-1.593.637-.641 0-1.18-.2-1.598-.637-.438-.422-.64-.957-.64-1.598 0-.62.218-1.16.655-1.593a2.155 2.155 0 0 1 1.594-.668M42.727 189.297h3.34v-11.531l-3.63.726v-1.867l3.61-.727h2.05v13.399h3.34v1.723h-8.71M55.59 175.898h8.027v1.72h-6.16v3.714c.293-.105.605-.187.895-.23.289-.04.597-.082.89-.082 1.68 0 3.008.48 4 1.39.996.934 1.496 2.18 1.496 3.754 0 1.64-.52 2.906-1.535 3.797-1.016.89-2.445 1.328-4.273 1.328-.64 0-1.285-.062-1.95-.144a13.51 13.51 0 0 1-2.035-.48v-2.056a7.791 7.791 0 0 0 1.89.75c.645.164 1.33.227 2.056.227 1.16 0 2.093-.29 2.777-.914.664-.621 1.016-1.45 1.016-2.508 0-1.035-.352-1.867-1.016-2.492-.684-.617-1.617-.93-2.777-.93-.54 0-1.102.063-1.641.188a9.546 9.546 0 0 0-1.66.558v-7.59M74.121 177.152c-.383 0-.7.133-.96.395a1.306 1.306 0 0 0-.395.957c0 .379.132.7.394.96.262.259.578.376.961.376.375 0 .695-.117.957-.375a1.32 1.32 0 0 0 .39-.961c0-.375-.132-.695-.39-.957a1.306 1.306 0 0 0-.957-.395m0-.91c.29 0 .578.059.867.172.278.117.524.29.727.492.203.219.363.465.48.727.114.277.172.566.172.87 0 .642-.23 1.161-.668 1.599-.433.437-.972.64-1.594.64-.64 0-1.18-.203-1.601-.64-.434-.422-.637-.957-.637-1.598 0-.625.219-1.16.653-1.598a2.178 2.178 0 0 1 1.601-.664M91.625 182.344c.973.207 1.738.64 2.281 1.304.535.664.828 1.493.828 2.45 0 1.492-.52 2.652-1.535 3.46-1.039.813-2.488 1.208-4.375 1.208-.644 0-1.308-.067-1.972-.188a12.328 12.328 0 0 1-2.075-.539v-1.973a6.873 6.873 0 0 0 1.868.75 8.787 8.787 0 0 0 2.117.246c1.285 0 2.258-.246 2.922-.746.664-.5 1.02-1.246 1.02-2.218 0-.871-.313-1.578-.934-2.075-.625-.496-1.497-.77-2.618-.77h-1.761v-1.679h1.843c.996 0 1.766-.183 2.305-.601.54-.391.809-.973.809-1.739 0-.77-.29-1.37-.832-1.785-.559-.414-1.348-.625-2.364-.625-.558 0-1.16.067-1.8.192-.645.12-1.352.308-2.118.558v-1.824c.766-.21 1.493-.375 2.18-.48.66-.102 1.305-.165 1.926-.165 1.535 0 2.758.356 3.672 1.06.914.702 1.367 1.66 1.367 2.858 0 .832-.246 1.536-.727 2.118-.476.582-1.156.996-2.027 1.203M102.992 176.723c-1.058 0-1.847.52-2.383 1.554-.543 1.04-.789 2.594-.789 4.668 0 2.075.246 3.63.79 4.668.535 1.035 1.324 1.555 2.382 1.555 1.059 0 1.848-.52 2.387-1.555.52-1.039.789-2.593.789-4.668 0-2.074-.27-3.629-.79-4.668-.538-1.035-1.327-1.554-2.386-1.554m0-1.618c1.68 0 2.965.684 3.88 2.012.894 1.348 1.347 3.297 1.347 5.828 0 2.551-.453 4.5-1.348 5.828-.914 1.329-2.2 1.993-3.879 1.993-1.703 0-3.008-.664-3.898-1.993-.895-1.328-1.328-3.277-1.328-5.828 0-2.53.433-4.48 1.328-5.828.89-1.328 2.195-2.012 3.898-2.012M117.164 176.633c-.379 0-.695.129-.957.39a1.285 1.285 0 0 0-.394.957c0 .38.128.696.394.961.262.258.578.375.957.375.375 0 .695-.117.957-.375.262-.265.39-.582.39-.96 0-.38-.128-.696-.39-.958a1.303 1.303 0 0 0-.957-.39m0-.914c.29 0 .582.054.871.172.278.117.524.289.727.496.203.215.363.46.476.726.117.274.176.563.176.867 0 .641-.234 1.16-.668 1.598-.433.438-.973.637-1.598.637-.636 0-1.175-.2-1.597-.637-.438-.422-.637-.957-.637-1.598 0-.62.219-1.16.652-1.593a2.158 2.158 0 0 1 1.598-.668M134.086 177.68l-5.164 8.07h5.164v-8.07m-.54-1.782h2.575v9.852h2.156v1.7h-2.156v3.57h-2.035v-3.57h-6.824v-1.97M141.684 175.898h8.027v1.72h-6.16v3.714c.289-.105.601-.187.89-.23.29-.04.602-.082.891-.082 1.68 0 3.008.48 4.004 1.39.996.934 1.492 2.18 1.492 3.754 0 1.637-.515 2.906-1.531 3.797-1.02.89-2.45 1.328-4.274 1.328a15.86 15.86 0 0 1-1.949-.144 13.51 13.51 0 0 1-2.035-.48v-2.056a7.702 7.702 0 0 0 1.887.75c.644.164 1.328.227 2.054.227 1.16 0 2.094-.29 2.778-.914.664-.621 1.015-1.45 1.015-2.508 0-1.035-.351-1.867-1.015-2.492-.684-.617-1.617-.93-2.778-.93-.539 0-1.101.063-1.636.188a9.438 9.438 0 0 0-1.66.558v-7.59M160.21 177.152c-.378 0-.698.133-.956.395a1.306 1.306 0 0 0-.395.957c0 .379.133.7.395.96.258.259.578.376.957.376a1.305 1.305 0 0 0 1.348-1.336c0-.375-.13-.695-.391-.957a1.306 1.306 0 0 0-.957-.395m0-.91c.289 0 .578.059.871.172.273.117.52.29.723.492.203.219.363.465.48.727.117.277.176.566.176.87 0 .642-.23 1.161-.668 1.599-.438.437-.973.64-1.598.64-.64 0-1.18-.203-1.597-.64-.438-.422-.637-.957-.637-1.598 0-.625.215-1.16.648-1.598.438-.433.961-.664 1.602-.664M176.137 182.113c-.91 0-1.637.336-2.18.953-.535.625-.805 1.496-.805 2.575 0 1.101.27 1.968.805 2.593.543.621 1.27.934 2.18.934.91 0 1.64-.313 2.18-.934.538-.625.804-1.492.804-2.593 0-1.079-.266-1.95-.805-2.575-.539-.617-1.27-.953-2.18-.953m4.067-6.406v1.867a7.6 7.6 0 0 0-1.555-.558 6.928 6.928 0 0 0-1.554-.192c-1.371 0-2.41.457-3.114 1.371-.707.91-1.12 2.301-1.203 4.125a4.075 4.075 0 0 1 1.493-1.347 4.309 4.309 0 0 1 1.992-.477c1.515 0 2.715.477 3.586 1.39.875.915 1.328 2.177 1.328 3.755 0 1.554-.477 2.8-1.387 3.734-.914.934-2.137 1.39-3.652 1.39-1.742 0-3.09-.663-4.004-1.992-.934-1.328-1.387-3.277-1.387-5.828 0-2.386.559-4.293 1.7-5.703 1.12-1.41 2.652-2.137 4.562-2.137.5 0 1.02.063 1.554.145.52.102 1.06.25 1.641.457M189.082 176.723c-1.055 0-1.848.52-2.383 1.554-.539 1.04-.789 2.594-.789 4.668 0 2.075.25 3.63.79 4.668.534 1.035 1.327 1.555 2.382 1.555 1.059 0 1.848-.52 2.387-1.555.52-1.039.789-2.593.789-4.668 0-2.074-.27-3.629-.79-4.668-.538-1.035-1.327-1.554-2.386-1.554m0-1.618c1.684 0 2.969.684 3.879 2.012.894 1.348 1.348 3.297 1.348 5.828 0 2.551-.454 4.5-1.348 5.828-.91 1.329-2.195 1.993-3.879 1.993-1.7 0-3.004-.664-3.898-1.993-.891-1.328-1.329-3.277-1.329-5.828 0-2.53.438-4.48 1.329-5.828.894-1.328 2.199-2.012 3.898-2.012M203.254 176.633c-.375 0-.695.129-.957.39-.262.262-.39.579-.39.957 0 .38.128.696.39.961.262.258.582.375.957.375.379 0 .7-.117.957-.375a1.3 1.3 0 0 0 .394-.96c0-.38-.128-.696-.394-.958a1.29 1.29 0 0 0-.957-.39m0-.914c.293 0 .582.054.875.172.273.117.52.289.723.496.203.215.363.46.48.726.113.274.172.563.172.867 0 .641-.23 1.16-.664 1.598-.438.438-.973.637-1.602.637-.636 0-1.172-.2-1.593-.637-.438-.422-.641-.957-.641-1.598 0-.62.219-1.16.656-1.593a2.155 2.155 0 0 1 1.594-.668M214.04 175.898h9.726v.872l-5.496 14.25h-2.133l5.16-13.403h-7.258M227.773 175.898h8.028v1.72h-6.16v3.714c.289-.105.601-.187.89-.23.293-.04.602-.082.895-.082 1.68 0 3.004.48 4.004 1.39.992.934 1.492 2.18 1.492 3.754 0 1.637-.52 2.906-1.535 3.797-1.02.89-2.45 1.328-4.274 1.328-.64 0-1.285-.062-1.949-.144-.664-.11-1.328-.25-2.031-.48v-2.056a7.641 7.641 0 0 0 1.887.75c.64.164 1.328.227 2.054.227 1.156 0 2.094-.29 2.778-.914.664-.621 1.015-1.45 1.015-2.508 0-1.035-.351-1.867-1.015-2.492-.684-.617-1.622-.93-2.778-.93-.543 0-1.101.063-1.64.188a9.546 9.546 0 0 0-1.66.558v-7.59M246.3 177.152c-.374 0-.695.133-.956.395a1.306 1.306 0 0 0-.395.957c0 .379.133.7.395.96.261.259.582.376.957.376.379 0 .695-.117.957-.375.262-.262.394-.582.394-.961 0-.375-.132-.695-.394-.957a1.3 1.3 0 0 0-.957-.395m0-.91c.289 0 .582.059.87.172.278.117.52.29.727.492.204.219.364.465.477.727.117.277.176.566.176.87 0 .642-.23 1.161-.668 1.599-.434.437-.973.64-1.598.64-.637 0-1.176-.203-1.597-.64-.434-.422-.637-.957-.637-1.598 0-.625.219-1.16.652-1.598.438-.433.961-.664 1.598-.664M257.668 190.184v-1.868a6.958 6.958 0 0 0 3.11.747c1.327 0 2.363-.438 3.07-1.348.707-.91 1.12-2.281 1.242-4.149-.414.582-.91 1.04-1.492 1.348-.602.313-1.266.457-1.989.457-1.539 0-2.742-.457-3.613-1.367-.867-.914-1.305-2.16-1.305-3.754 0-1.535.454-2.781 1.368-3.734.918-.934 2.136-1.41 3.671-1.41 1.743 0 3.09.683 4.004 2.011.91 1.348 1.391 3.297 1.391 5.828 0 2.407-.582 4.293-1.703 5.703-1.14 1.41-2.656 2.114-4.563 2.114-.52 0-1.035-.063-1.554-.14a8.56 8.56 0 0 1-1.637-.438m4.062-6.41c.91 0 1.637-.31 2.18-.934.54-.621.805-1.492.805-2.59 0-1.078-.266-1.95-.805-2.574-.543-.621-1.27-.953-2.18-.953-.91 0-1.636.332-2.175.953-.543.625-.809 1.496-.809 2.574 0 1.098.266 1.969.809 2.59.539.625 1.265.933 2.175.933M275.176 176.723c-1.059 0-1.848.52-2.387 1.554-.539 1.04-.789 2.594-.789 4.668 0 2.075.25 3.63.79 4.668.538 1.035 1.327 1.555 2.386 1.555 1.058 0 1.847-.52 2.383-1.555.52-1.039.789-2.593.789-4.668 0-2.074-.27-3.629-.79-4.668-.535-1.035-1.324-1.554-2.382-1.554m0-1.618c1.68 0 2.965.684 3.879 2.012.89 1.348 1.347 3.297 1.347 5.828 0 2.551-.457 4.5-1.347 5.828-.914 1.329-2.2 1.993-3.88 1.993-1.698 0-3.007-.664-3.898-1.993-.894-1.328-1.328-3.277-1.328-5.828 0-2.53.434-4.48 1.328-5.828.891-1.328 2.2-2.012 3.899-2.012M289.344 176.633c-.375 0-.696.129-.957.39-.258.262-.39.579-.39.957 0 .38.132.696.39.958.261.261.582.378.957.378.379 0 .699-.117.96-.379a1.3 1.3 0 0 0 .395-.957 1.3 1.3 0 0 0-.394-.957 1.305 1.305 0 0 0-.961-.39m0-.914c.293 0 .582.054.875.172.273.117.52.289.722.496.204.215.364.46.48.726.118.274.173.563.173.867 0 .641-.23 1.16-.664 1.598-.438.438-.973.637-1.598.637-.637 0-1.176-.2-1.598-.637-.437-.422-.64-.957-.64-1.598 0-.62.218-1.16.656-1.593a2.155 2.155 0 0 1 1.594-.668M589.496 176.719c-1.058 0-1.848.52-2.387 1.558-.539 1.036-.789 2.59-.789 4.664 0 2.075.25 3.63.79 4.668.538 1.04 1.327 1.555 2.386 1.555 1.059 0 1.844-.516 2.383-1.555.52-1.039.789-2.593.789-4.668 0-2.074-.27-3.628-.79-4.664-.538-1.039-1.323-1.558-2.382-1.558m0-1.617c1.68 0 2.965.683 3.875 2.011.895 1.348 1.352 3.301 1.352 5.828 0 2.555-.457 4.504-1.352 5.829-.91 1.328-2.195 1.992-3.875 1.992-1.703 0-3.008-.664-3.902-1.992-.89-1.325-1.324-3.274-1.324-5.829 0-2.527.433-4.48 1.324-5.828.894-1.328 2.199-2.011 3.902-2.011M603.664 176.629c-.375 0-.695.133-.957.394-.262.258-.39.579-.39.954 0 .378.128.699.39.957.262.265.582.382.957.382.379 0 .7-.117.957-.382.266-.258.395-.579.395-.957 0-.375-.13-.696-.395-.954a1.294 1.294 0 0 0-.957-.394m0-.914c.293 0 .582.058.875.176.273.113.52.289.723.492.203.219.363.465.476.726.121.274.176.567.176.868 0 .64-.23 1.164-.664 1.601-.438.434-.973.637-1.602.637-.636 0-1.171-.203-1.593-.637-.438-.422-.64-.96-.64-1.601 0-.622.218-1.16.655-1.594.43-.434.957-.668 1.594-.668M621.734 189.293h3.344v-11.531l-3.633.726v-1.863l3.61-.727h2.054v13.395h3.336v1.723h-8.71M634.602 175.898h8.023v1.72h-6.156v3.714c.289-.105.597-.187.886-.23.293-.04.606-.082.895-.082 1.68 0 3.008.476 4.004 1.39.996.934 1.492 2.176 1.492 3.75 0 1.64-.52 2.906-1.535 3.797-1.016.895-2.445 1.328-4.274 1.328-.64 0-1.285-.062-1.949-.144a13.008 13.008 0 0 1-2.031-.48v-2.052a7.69 7.69 0 0 0 1.887.746c.64.165 1.328.227 2.054.227 1.16 0 2.094-.289 2.778-.91.664-.621 1.015-1.453 1.015-2.512 0-1.035-.351-1.867-1.015-2.488-.684-.621-1.617-.934-2.778-.934-.543 0-1.101.063-1.64.188a9.115 9.115 0 0 0-1.656.562v-7.59M653.125 177.152c-.375 0-.695.13-.957.391-.262.262-.39.582-.39.957 0 .383.128.7.39.96.262.263.582.38.957.38.379 0 .7-.117.957-.38.266-.26.395-.577.395-.96 0-.375-.13-.695-.395-.957a1.29 1.29 0 0 0-.957-.39m0-.915c.29 0 .582.059.871.176.277.117.524.29.727.492.203.219.363.465.48.727.113.277.172.566.172.867 0 .64-.23 1.164-.668 1.598-.434.437-.973.64-1.598.64-.636 0-1.172-.203-1.593-.64-.438-.422-.641-.957-.641-1.598 0-.621.219-1.16.656-1.594a2.155 2.155 0 0 1 1.594-.668M670.629 182.34c.976.207 1.746.644 2.285 1.308.54.665.828 1.493.828 2.446 0 1.496-.52 2.656-1.535 3.465-1.035.808-2.488 1.203-4.375 1.203-.644 0-1.309-.063-1.973-.188a11.788 11.788 0 0 1-2.074-.539v-1.969a6.816 6.816 0 0 0 1.867.747 8.8 8.8 0 0 0 2.114.25c1.289 0 2.265-.25 2.925-.75.664-.497 1.016-1.243 1.016-2.22 0-.866-.309-1.573-.934-2.073-.62-.497-1.492-.766-2.609-.766h-1.766v-1.68h1.848c.996 0 1.762-.187 2.3-.601.54-.395.81-.973.81-1.743 0-.77-.29-1.367-.829-1.785-.562-.414-1.347-.62-2.363-.62a9.55 9.55 0 0 0-1.809.187c-.64.125-1.343.308-2.113.558v-1.824c.77-.207 1.496-.375 2.176-.476a12.395 12.395 0 0 1 1.93-.168c1.535 0 2.761.351 3.672 1.058.914.707 1.37 1.66 1.37 2.863 0 .829-.25 1.536-.726 2.118-.48.578-1.164.992-2.035 1.199M682 176.719c-1.059 0-1.844.52-2.383 1.558-.539 1.036-.789 2.59-.789 4.664 0 2.075.25 3.63.79 4.668.538 1.04 1.323 1.555 2.382 1.555 1.059 0 1.848-.516 2.387-1.555.515-1.039.785-2.593.785-4.668 0-2.074-.27-3.628-.785-4.664-.54-1.039-1.328-1.558-2.387-1.558m0-1.617c1.68 0 2.965.683 3.879 2.011.89 1.348 1.348 3.301 1.348 5.828 0 2.555-.457 4.504-1.348 5.829-.914 1.328-2.2 1.992-3.879 1.992-1.7 0-3.008-.664-3.898-1.992-.891-1.325-1.329-3.274-1.329-5.829 0-2.527.438-4.48 1.329-5.828.89-1.328 2.199-2.011 3.898-2.011M696.172 176.629c-.379 0-.695.133-.961.394-.258.258-.39.579-.39.954 0 .378.132.699.39.957.266.265.582.382.96.382.38 0 .696-.117.958-.382.266-.258.394-.579.394-.957 0-.375-.128-.696-.394-.954a1.3 1.3 0 0 0-.957-.394m0-.914c.289 0 .578.058.871.176.273.113.523.289.727.492.203.219.363.465.48.726.113.274.172.567.172.868 0 .64-.23 1.164-.668 1.601-.438.434-.973.637-1.598.637-.636 0-1.172-.203-1.594-.637-.437-.422-.64-.96-.64-1.601 0-.622.219-1.16.652-1.594.438-.434.961-.668 1.598-.668M713.094 177.68l-5.16 8.066h5.16v-8.066m-.54-1.782h2.575v9.848h2.156v1.7h-2.156v3.57h-2.035v-3.57h-6.82v-1.966M720.691 175.898h8.028v1.72h-6.16v3.714c.289-.105.601-.187.89-.23.29-.04.602-.082.89-.082 1.68 0 3.009.476 4.005 1.39.996.934 1.492 2.176 1.492 3.75 0 1.64-.52 2.906-1.535 3.797-1.016.895-2.446 1.328-4.274 1.328-.64 0-1.285-.062-1.945-.144a12.906 12.906 0 0 1-2.031-.48v-2.052a7.664 7.664 0 0 0 1.883.746c.644.165 1.332.227 2.058.227 1.156 0 2.09-.289 2.778-.91.664-.621 1.015-1.453 1.015-2.512 0-1.035-.351-1.867-1.015-2.488-.688-.621-1.622-.934-2.778-.934-.543 0-1.101.063-1.64.188a9.05 9.05 0 0 0-1.66.562v-7.59M739.219 177.152c-.38 0-.7.13-.957.391a1.291 1.291 0 0 0-.395.957c0 .383.13.7.395.96.258.263.578.38.957.38s.695-.117.957-.38c.261-.26.394-.577.394-.96 0-.375-.132-.695-.394-.957a1.296 1.296 0 0 0-.957-.39m0-.915c.289 0 .578.059.867.176.277.117.523.29.727.492a2.5 2.5 0 0 1 .48.727c.117.277.176.566.176.867 0 .64-.235 1.164-.668 1.598-.438.437-.973.64-1.598.64-.64 0-1.176-.203-1.598-.64-.433-.422-.636-.957-.636-1.598 0-.621.215-1.16.652-1.594a2.164 2.164 0 0 1 1.598-.668M755.145 182.113c-.91 0-1.637.332-2.176.953-.54.621-.809 1.496-.809 2.575 0 1.097.27 1.968.809 2.59.539.624 1.265.933 2.176.933.914 0 1.64-.309 2.18-.934.534-.62.808-1.492.808-2.59 0-1.078-.274-1.953-.809-2.574-.539-.62-1.265-.953-2.18-.953m4.067-6.406v1.863a7.785 7.785 0 0 0-1.559-.558 6.836 6.836 0 0 0-1.554-.188c-1.368 0-2.403.457-3.11 1.367-.707.914-1.12 2.305-1.203 4.13a4.022 4.022 0 0 1 1.496-1.348 4.234 4.234 0 0 1 1.989-.477c1.515 0 2.714.477 3.59 1.387.867.914 1.328 2.18 1.328 3.758 0 1.554-.481 2.796-1.395 3.73-.91.934-2.133 1.39-3.648 1.39-1.739 0-3.09-.663-4.004-1.991-.934-1.325-1.387-3.274-1.387-5.825 0-2.386.558-4.293 1.7-5.707 1.12-1.41 2.655-2.136 4.562-2.136.5 0 1.015.062 1.554.144.52.106 1.059.25 1.64.461M768.094 176.719c-1.059 0-1.848.52-2.387 1.558-.539 1.036-.789 2.59-.789 4.664 0 2.075.25 3.63.789 4.668.54 1.04 1.328 1.555 2.387 1.555 1.054 0 1.843-.516 2.383-1.555.52-1.039.789-2.593.789-4.668 0-2.074-.27-3.628-.79-4.664-.539-1.039-1.328-1.558-2.382-1.558m0-1.617c1.676 0 2.965.683 3.875 2.011.894 1.348 1.351 3.301 1.351 5.828 0 2.555-.457 4.504-1.351 5.829-.91 1.328-2.2 1.992-3.875 1.992-1.703 0-3.008-.664-3.903-1.992-.89-1.325-1.328-3.274-1.328-5.829 0-2.527.438-4.48 1.328-5.828.895-1.328 2.2-2.011 3.903-2.011M782.262 176.629a1.3 1.3 0 0 0-.957.394 1.291 1.291 0 0 0-.395.954c0 .378.133.699.395.957.261.265.578.382.957.382s.699-.117.957-.382c.265-.258.394-.579.394-.957 0-.375-.129-.696-.394-.954a1.294 1.294 0 0 0-.957-.394m0-.914a2.235 2.235 0 0 1 1.598.668c.202.219.363.465.48.726.117.274.172.567.172.868 0 .64-.23 1.164-.668 1.601-.434.434-.973.637-1.594.637-.64 0-1.176-.203-1.598-.637-.437-.422-.64-.96-.64-1.601 0-.622.218-1.16.656-1.594a2.17 2.17 0 0 1 1.594-.668M793.047 175.898h9.726v.872l-5.496 14.246h-2.136l5.168-13.399h-7.262M806.781 175.898h8.028v1.72h-6.16v3.714a4.75 4.75 0 0 1 .89-.23c.293-.04.602-.082.895-.082 1.68 0 3.007.476 4.004 1.39.992.934 1.492 2.176 1.492 3.75 0 1.64-.52 2.906-1.535 3.797-1.016.895-2.446 1.328-4.274 1.328-.644 0-1.289-.062-1.95-.144a12.906 12.906 0 0 1-2.03-.48v-2.052a7.691 7.691 0 0 0 1.886.746c.641.165 1.328.227 2.055.227 1.156 0 2.094-.289 2.777-.91.664-.621 1.016-1.453 1.016-2.512 0-1.035-.352-1.867-1.016-2.488-.683-.621-1.62-.934-2.777-.934-.543 0-1.102.063-1.64.188a9.15 9.15 0 0 0-1.66.562v-7.59M825.309 177.152c-.38 0-.696.13-.957.391a1.291 1.291 0 0 0-.395.957c0 .383.129.7.395.96.261.263.578.38.957.38s.695-.117.96-.38c.258-.26.391-.577.391-.96 0-.375-.133-.695-.39-.957a1.311 1.311 0 0 0-.961-.39m0-.915c.293 0 .582.059.87.176.278.117.524.29.727.492.203.219.364.465.48.727.114.277.173.566.173.867 0 .64-.235 1.164-.668 1.598-.434.437-.973.64-1.598.64-.637 0-1.176-.203-1.598-.64-.433-.422-.636-.957-.636-1.598 0-.621.218-1.16.652-1.594a2.164 2.164 0 0 1 1.598-.668M836.672 190.18v-1.868c.5.25 1.02.438 1.558.563a6.585 6.585 0 0 0 1.555.188c1.324 0 2.363-.438 3.07-1.348.704-.914 1.122-2.281 1.247-4.149a4.451 4.451 0 0 1-1.497 1.348c-.601.313-1.265.457-1.992.457-1.531 0-2.734-.457-3.605-1.371-.875-.91-1.309-2.156-1.309-3.754 0-1.531.457-2.781 1.367-3.73.914-.934 2.137-1.414 3.672-1.414 1.742 0 3.09.687 4.004 2.011.914 1.348 1.387 3.301 1.387 5.832 0 2.403-.578 4.29-1.7 5.703-1.14 1.407-2.652 2.114-4.562 2.114a9.92 9.92 0 0 1-1.554-.145 8.674 8.674 0 0 1-1.641-.437m4.066-6.407c.914 0 1.64-.312 2.18-.933.539-.621.809-1.492.809-2.594 0-1.078-.27-1.95-.809-2.57-.54-.625-1.266-.953-2.18-.953-.91 0-1.636.328-2.176.953-.539.62-.808 1.492-.808 2.57 0 1.102.27 1.973.808 2.594.54.62 1.266.933 2.176.933M854.184 176.719c-1.059 0-1.848.52-2.383 1.558-.543 1.036-.79 2.59-.79 4.664 0 2.075.247 3.63.79 4.668.535 1.04 1.324 1.555 2.383 1.555 1.054 0 1.843-.516 2.386-1.555.516-1.039.79-2.593.79-4.668 0-2.074-.274-3.628-.79-4.664-.543-1.039-1.332-1.558-2.386-1.558m0-1.617c1.68 0 2.968.683 3.879 2.011.89 1.348 1.347 3.301 1.347 5.828 0 2.555-.457 4.504-1.347 5.829-.91 1.328-2.2 1.992-3.88 1.992-1.699 0-3.007-.664-3.898-1.992-.894-1.325-1.328-3.274-1.328-5.829 0-2.527.434-4.48 1.328-5.828.89-1.328 2.2-2.011 3.899-2.011M868.355 176.629c-.378 0-.699.133-.957.394a1.276 1.276 0 0 0-.394.954c0 .378.129.699.394.957.258.265.579.382.957.382.375 0 .696-.117.957-.382a1.29 1.29 0 0 0 .391-.957c0-.375-.129-.696-.39-.954a1.306 1.306 0 0 0-.958-.394m0-.914c.29 0 .579.058.868.176.277.113.527.289.726.492a2.5 2.5 0 0 1 .48.726c.118.274.176.567.176.868 0 .64-.234 1.164-.668 1.601-.437.434-.972.637-1.597.637-.64 0-1.176-.203-1.598-.637-.437-.422-.637-.96-.637-1.601 0-.622.215-1.16.653-1.594.437-.434.957-.668 1.597-.668" />
            <path fill="rgba(255,255,255,0)" d="M584.27 171.723h285.425V15.336H584.27Zm0 0" />
            <use xlink:href="#ad" transform="translate(583 171)" />
            <use xlink:href="#ae" transform="translate(631 171)" />
            <use xlink:href="#af" transform="translate(678 171)" />
            <use xlink:href="#ag" transform="translate(726 171)" />
            <use xlink:href="#ah" transform="translate(774 171)" />
            <use xlink:href="#ai" transform="translate(821 171)" />
            <use xlink:href="#aj" transform="translate(869 171)" />
            <use xlink:href="#ak" transform="translate(869 171)" />
            <use xlink:href="#al" transform="translate(869 139)" />
            <use xlink:href="#am" transform="translate(869 108)" />
            <use xlink:href="#an" transform="translate(869 77)" />
            <use xlink:href="#ao" transform="translate(869 46)" />
            <use xlink:href="#ap" transform="translate(869 14)" />
            <g clip-path="url(#aq)">
                <path fill="none" stroke="#ed2024" stroke-linecap="square" stroke-linejoin="round"
                    stroke-miterlimit="10" stroke-width="2.21464869"
                    d="M584.268 28.927h28.828l2.883.004h14.418l2.879.004h2.887l5.765.008h2.883l2.883.004 2.887.004 2.878.007 2.887.004 2.88.008 2.882.004 2.887.011 2.882.008 2.88.012 2.886.008 2.883.015 2.879.012 2.886.02 5.766.03 2.883.024 2.887.02 2.878.023 2.883.032 2.887.027 2.883.031 2.879.035 2.886.036 2.88.043 2.886.042 2.883.047 2.883.051 2.882.055 5.766.125 2.883.066 2.883.078 2.886.078 2.88.086 2.882.094 2.887.094 2.883.11 2.879.113 2.886.12 2.883.133 2.883.141 2.883.149 2.882.164 2.883.171 2.883.184 2.883.2 2.883.214 2.883.223 2.886.242 2.88.262 2.882.277 2.887.297 2.882.32 2.883.336 2.883.363 2.883.383 2.883.41 2.883.434 2.882.46 2.883.485 2.883.504 2.883.528 2.883.539 2.886.543 2.883.535 2.883.515 2.883.457 2.882.368 2.883.218 2.883-.004 2.883-.335 2.883-.805 2.883-1.45 2.882-2.288 2.883-3.329 2.883-4.523 2.887-5.73 2.882-6.762" />
            </g>
            <g clip-path="url(#ar)">
                <path fill="none" stroke="#0a8140" stroke-linecap="square" stroke-linejoin="round"
                    stroke-miterlimit="10" stroke-width="2.21464869"
                    d="M584.268 27.6h34.598l2.883.003h5.765l2.883.004h5.766l5.765.008h2.883l2.883.004h2.887l2.878.007 2.887.004 2.88.008 2.882.004 2.887.008 2.882.007 2.88.012 2.886.012 2.883.007 2.879.016 2.886.011 5.766.032 2.883.02 2.887.019 2.878.023 2.883.024 2.887.023 2.883.031 2.879.028 2.886.035 2.88.035 2.886.04 2.883.038 5.765.094 5.766.11 5.766.124 2.886.07 2.88.079 2.882.078 2.887.086 2.883.094 2.879.097 2.886.106 2.883.113 2.883.121 2.883.129 2.882.137 2.883.148 2.883.152 2.883.168 2.883.18 2.883.188 2.886.203 2.88.215 2.882.226 2.887.242 2.882.254 2.883.274 2.883.28 2.883.302 2.883.316 2.883.324 2.882.34 2.883.348 2.883.351 2.883.356 2.883.348 2.886.324 2.883.297 2.883.238 2.883.16 2.882.047 2.883-.117 2.883-.336 2.883-.637 2.883-1.02 2.883-1.496 2.882-2.078 2.883-2.726 2.883-3.418 2.887-4.063 2.882-4.554" />
            </g>
            <g clip-path="url(#as)">
                <path fill="none" stroke="#3853a4" stroke-linecap="square" stroke-linejoin="round"
                    stroke-miterlimit="10" stroke-width="2.21464869"
                    d="M584.268 27.154h43.246l2.883.004 2.879.004h5.77l8.648.011 2.887.004h2.878l2.887.008 2.88.004 2.882.007 2.887.004 2.882.008 2.88.012 2.886.008 2.883.011 2.879.008 2.886.012 8.649.046 2.887.02 2.878.02 2.883.023 2.887.024 2.883.023 2.879.027 2.886.032 2.88.03 2.886.04 2.883.035 2.883.04 2.882.042 2.883.047 2.883.05 2.883.056 2.883.058 2.886.063 2.88.062 2.882.07 2.887.075 2.883.082 2.879.086 2.886.09 2.883.097 2.883.102 2.883.11 2.882.112 2.883.121 2.883.133 2.883.137 2.883.14 2.883.153 2.886.16 2.88.168 2.882.176 2.887.183 5.765.383 11.532.828 2.882.203 2.883.2 2.883.183 2.883.164 2.883.133 2.886.09 2.883.035 2.883-.039 2.883-.14 2.882-.266 2.883-.426 2.883-.621 2.883-.855 2.883-1.133 2.883-1.453 2.882-1.79 2.883-2.14 2.883-2.48 2.887-2.758 2.882-2.973" />
            </g>
            <path fill="none" stroke="#838787" stroke-linecap="square" stroke-miterlimit="10" stroke-width=".88580775"
                d="M584.268 171.724V15.337M869.693 171.724V15.337M584.268 171.724h285.425M584.268 15.337h285.425" />
            <path fill="rgba(255,255,255,0)" d="M293.938 171.723h285.425V15.332H293.937Zm0 0" />
            <use xlink:href="#at" transform="translate(293 171)" />
            <use xlink:href="#au" transform="translate(341 171)" />
            <use xlink:href="#av" transform="translate(388 171)" />
            <use xlink:href="#aw" transform="translate(436 171)" />
            <use xlink:href="#ax" transform="translate(483 171)" />
            <use xlink:href="#ay" transform="translate(531 171)" />
            <use xlink:href="#az" transform="translate(578 171)" />
            <g clip-path="url(#aA)">
                <path fill="none" stroke="#ed2024" stroke-linecap="square" stroke-linejoin="round"
                    stroke-miterlimit="10" stroke-width="2.21464869"
                    d="M293.937 22.334h43.246l2.882.003h2.887l2.879.004h2.883l2.887.004h2.882l2.883.008h2.883l2.883.008h2.883l2.882.007 2.887.008 2.879.008 2.883.004 2.883.011 2.882.008 2.883.012 2.887.011 2.883.012 2.879.012 2.886.015 5.766.032 2.883.023 2.883.016 2.882.02 2.883.023 8.649.082 2.886.031 2.88.031 2.886.032 2.883.035 8.648.117 2.883.047 2.883.043 2.883.05 2.882.047 2.883.051 2.887.055 2.879.055 2.883.058 2.886.055 2.883.062 2.88.059 2.886.059 2.883.062 11.53.234 2.884.051 2.882.047 2.887.043 2.88.035 2.886.028 2.883.015 2.879.008 2.886-.008 2.883-.027 2.883-.047 2.883-.07 2.882-.094 2.88-.13 2.886-.16 2.887-.195 2.879-.238 2.883-.285 2.886-.336 2.88-.387 2.882-.441 2.887-.496 2.882-.547 2.88-.602 2.886-.64 2.879-.676 2.887-.7 2.882-.706 2.883-.692 2.883-.652 2.883-.598" />
            </g>
            <g clip-path="url(#aB)">
                <path fill="none" stroke="#0a8140" stroke-linecap="square" stroke-linejoin="round"
                    stroke-miterlimit="10" stroke-width="2.21464869"
                    d="M293.937 71.997h28.832l2.886.004h8.645l2.883.004h8.648l2.883.004 2.887.004h2.882l5.766.008h2.883l2.883.008 2.882.003 2.887.004 2.879.004 2.883.004 8.648.024 2.887.007 2.883.012 2.879.008 2.886.007 14.414.06 2.883.015 2.883.011 5.766.032 2.886.011 2.88.016 2.886.012 2.883.011 2.883.016 2.882.011 2.883.008 2.883.012 5.766.007h2.882l2.883-.003 2.887-.012 2.879-.012 2.883-.023 2.886-.024 2.883-.039 2.88-.05 2.886-.06 2.883-.073 2.882-.086 2.883-.106 2.883-.129 2.883-.152 2.883-.18 2.882-.207 2.887-.242 2.88-.277 2.886-.328 2.883-.375 2.879-.43 2.886-.496 2.883-.567 2.883-.652 2.883-.738 2.882-.84 2.88-.953 2.886-1.082 2.887-1.223 2.879-1.379 2.883-1.554 2.886-1.75 2.88-1.958 2.882-2.19 2.887-2.442 2.882-2.72 2.88-3.01 2.886-3.325 2.879-3.66 2.887-4.008 2.882-4.363 2.883-4.73 2.883-5.098 2.883-5.442" />
            </g>
            <g clip-path="url(#aC)">
                <path fill="none" stroke="#3853a4" stroke-linecap="square" stroke-linejoin="round"
                    stroke-miterlimit="10" stroke-width="2.21464869"
                    d="M293.937 87.556h95.144l2.883-.004 2.879-.004h2.886l11.532-.015 8.648-.024 5.766-.024 2.886-.015 2.88-.016 2.886-.019 2.883-.02 2.883-.027 2.882-.031 2.883-.028 2.883-.039 5.766-.093 2.882-.059 2.883-.062L461.16 87l2.879-.086 2.883-.093 2.886-.106 2.883-.117 2.88-.137 2.886-.152 2.883-.176 2.882-.195 2.883-.219 2.883-.25 2.883-.277 2.883-.313 2.882-.351 2.887-.395 2.88-.445 2.886-.496 2.883-.559 2.879-.625 2.886-.703 2.883-.785 2.883-.883 2.883-.988 2.882-1.102 2.88-1.234 2.886-1.383 2.887-1.543 2.879-1.723 2.883-1.925 2.886-2.145 2.88-2.387 2.882-2.652 2.887-2.95 2.882-3.269 2.88-3.62 2.886-4 2.879-4.407 2.887-4.84 2.882-5.297 2.883-5.781 2.883-6.273 2.883-6.782" />
            </g>
            <path fill="none" stroke="#838787" stroke-linecap="square" stroke-miterlimit="10" stroke-width=".88580775"
                d="M293.937 171.724V15.337M579.362 171.724V15.337M293.937 171.724h285.425M293.937 15.337h285.425" />
            <path fill="rgba(255,255,255,0)" d="M4.523 171.723H289.95V15.332H4.523Zm0 0" />
            <use xlink:href="#aD" transform="translate(4 171)" />
            <use xlink:href="#aE" transform="translate(51 171)" />
            <use xlink:href="#aF" transform="translate(99 171)" />
            <use xlink:href="#aG" transform="translate(146 171)" />
            <use xlink:href="#aH" transform="translate(194 171)" />
            <use xlink:href="#aI" transform="translate(242 171)" />
            <use xlink:href="#aJ" transform="translate(289 171)" />
            <g fill="none" stroke-linecap="square" stroke-linejoin="round" stroke-miterlimit="10" stroke-width="8.563"
                clip-path="url(#aK)">
                <path stroke="#ed2024" stroke-width="2.21464869"
                    d="M4.523 165.294h28.832l2.883-.004h8.644l2.887-.004 2.883-.003h2.883l2.882-.008 5.766-.008 5.766-.015 2.886-.008 2.88-.008 2.882-.015 2.883-.012 2.887-.016 2.882-.015 5.766-.04 2.883-.023 5.765-.062 5.766-.07 2.883-.044 2.883-.046 2.886-.055 2.883-.055 2.88-.066 2.886-.07 2.883-.075 2.882-.09 2.883-.093 2.883-.102 2.883-.113 2.883-.13 2.882-.136 2.883-.148 2.883-.164 2.887-.18 2.879-.2 2.883-.214 2.886-.238 2.883-.254 2.879-.281 2.887-.305 2.882-.34 2.88-.363 2.886-.399 2.883-.433 2.883-.473 2.883-.52 2.882-.558 2.883-.613 2.883-.672 2.887-.727 2.879-.797 2.882-.867 2.887-.945 2.883-1.028 2.879-1.125 2.886-1.222 2.883-1.336 2.883-1.457 2.883-1.586 2.883-1.738 2.883-1.891 2.882-2.066 2.887-2.258 2.879-2.473 2.883-2.695 2.886-2.95 2.883-3.226 2.88-3.535 2.886-3.867 2.883-4.242 2.882-4.649 2.883-5.105 2.883-5.606 2.883-6.16 2.883-6.773 2.883-7.465 2.882-8.23 2.883-9.079L281.3 52.42l2.879-11.105 2.886-12.309 2.883-13.656" />
                <path stroke="#0a8140" stroke-width="2.21464869"
                    d="M4.523 165.2h20.18l2.882-.003h14.418l2.88-.004h2.886l14.414-.02 5.766-.015 2.886-.008 2.88-.012 2.882-.008 2.883-.015 2.887-.016 2.882-.015 2.883-.024 2.883-.02 2.883-.026 2.883-.024 2.882-.031 2.883-.035 2.883-.04 2.883-.042 2.883-.047 2.886-.051 2.883-.059 2.88-.062 2.886-.074 2.883-.079 2.882-.082 5.766-.203 2.883-.113 2.883-.129 2.882-.137 2.883-.152 2.883-.164 2.887-.184 2.879-.195 2.883-.215 2.886-.238 2.883-.258 2.879-.281 2.887-.309 2.882-.332 2.88-.367 2.886-.398 2.883-.438 2.883-.472 2.883-.52 2.882-.566 2.883-.614 2.883-.672 2.887-.73 2.879-.793 2.882-.871 2.887-.945 2.883-1.032 2.879-1.125 2.886-1.226 2.883-1.336 2.883-1.457 2.883-1.594 2.883-1.734 2.883-1.89 2.882-2.071 2.887-2.258 2.879-2.469 2.883-2.695 2.886-2.95 2.883-3.226 2.88-3.531 2.886-3.871 2.883-4.235 2.882-4.648 2.883-5.098L264 100.05l2.883-6.157 2.883-6.769 2.883-7.457 2.882-8.219 2.883-9.07L281.3 52.35l2.879-11.09 2.886-12.293 2.883-13.63" />
                <path stroke="#3853a4" stroke-width="2.21464869"
                    d="M4.523 165.044h31.715l2.879-.004h2.886l2.88-.004h5.769l2.883-.007h2.882l2.883-.008 2.883-.004 5.766-.015 2.886-.008 2.88-.012 5.765-.023 2.887-.012 2.882-.024 2.883-.015 5.766-.047 8.648-.094 2.883-.039 2.883-.043 2.883-.05 2.886-.051 2.883-.059 2.88-.066 2.886-.07 2.883-.079 2.882-.09 2.883-.093 2.883-.106 2.883-.117 2.883-.125 2.882-.137 2.883-.152 2.883-.168 2.887-.184 2.879-.199 2.883-.215 2.886-.238 2.883-.258 2.879-.285 2.887-.312 2.882-.336 2.88-.368 2.886-.398 2.883-.437 2.883-.481 2.883-.52 2.882-.566 2.883-.617 2.883-.672 2.887-.734 2.879-.797 2.882-.871 2.887-.95 2.883-1.03 2.879-1.126 2.886-1.23 2.883-1.336 2.883-1.461 2.883-1.59 2.883-1.738 2.883-1.89 2.882-2.071 2.887-2.258 2.879-2.469 2.883-2.695 2.886-2.945 2.883-3.223 2.88-3.527 2.886-3.864 2.883-4.23 2.882-4.64 2.883-5.09L264 99.88l2.883-6.14 2.883-6.759 2.883-7.437 2.882-8.203 2.883-9.051 2.887-10 2.879-11.07 2.886-12.266 2.883-13.617" />
            </g>
            <path fill="none" stroke="#838787" stroke-linecap="square" stroke-miterlimit="10" stroke-width=".88580775"
                d="M4.523 171.724V15.337M289.948 171.724V15.337M4.523 171.724h285.425M4.523 15.337h285.425" />
            <path fill="#838787"
                d="M879.371 163.758c-1.055 0-1.844.515-2.383 1.554-.539 1.036-.785 2.59-.785 4.665 0 2.074.246 3.632.785 4.668.54 1.035 1.328 1.554 2.383 1.554 1.059 0 1.848-.52 2.387-1.554.52-1.036.789-2.594.789-4.668 0-2.075-.27-3.63-.79-4.664-.538-1.04-1.327-1.555-2.386-1.555m0-1.621c1.684 0 2.969.687 3.879 2.011.895 1.348 1.348 3.297 1.348 5.829 0 2.55-.453 4.503-1.348 5.828-.91 1.328-2.195 1.992-3.879 1.992-1.7 0-3.008-.664-3.894-1.992-.895-1.325-1.329-3.278-1.329-5.828 0-2.532.434-4.48 1.329-5.829.886-1.324 2.195-2.011 3.894-2.011M888.188 177.527h2.136v-2.574h-2.136zM899.16 163.758c-1.058 0-1.847.515-2.387 1.554-.543 1.036-.785 2.59-.785 4.665 0 2.074.242 3.632.785 4.668.54 1.035 1.329 1.554 2.387 1.554 1.059 0 1.844-.52 2.383-1.554.52-1.036.789-2.594.789-4.668 0-2.075-.27-3.63-.789-4.664-.54-1.04-1.324-1.555-2.383-1.555m0-1.621c1.68 0 2.965.687 3.875 2.011.895 1.348 1.352 3.297 1.352 5.829 0 2.55-.457 4.503-1.352 5.828-.91 1.328-2.195 1.992-3.875 1.992-1.703 0-3.008-.664-3.898-1.992-.895-1.325-1.328-3.278-1.328-5.828 0-2.532.433-4.48 1.328-5.829.89-1.324 2.195-2.011 3.898-2.011M879.371 133.492c-1.055 0-1.844.516-2.383 1.555-.539 1.035-.785 2.59-.785 4.664s.246 3.633.785 4.668c.54 1.039 1.328 1.555 2.383 1.555 1.059 0 1.848-.516 2.387-1.555.52-1.035.789-2.594.789-4.668 0-2.074-.27-3.629-.79-4.664-.538-1.04-1.327-1.555-2.386-1.555m0-1.62c1.684 0 2.969.687 3.879 2.01.895 1.348 1.348 3.302 1.348 5.829 0 2.555-.453 4.5-1.348 5.832-.91 1.324-2.195 1.988-3.879 1.988-1.7 0-3.008-.664-3.894-1.988-.895-1.332-1.329-3.277-1.329-5.832 0-2.527.434-4.48 1.329-5.828.886-1.324 2.195-2.012 3.894-2.012M888.188 147.262h2.136v-2.57h-2.136zM896.547 145.543h7.133v1.719h-9.602v-1.719c.77-.79 1.824-1.867 3.172-3.238 1.328-1.348 2.18-2.22 2.531-2.614.664-.722 1.121-1.347 1.371-1.863.246-.5.391-1.02.391-1.516 0-.789-.29-1.457-.848-1.953s-1.285-.765-2.199-.765c-.64 0-1.328.12-2.035.332-.703.226-1.469.562-2.281 1.015v-2.074a16.781 16.781 0 0 1 2.304-.746 8.792 8.792 0 0 1 1.97-.25c1.558 0 2.8.399 3.733 1.184.934.789 1.41 1.824 1.41 3.132 0 .622-.124 1.223-.35 1.762-.231.559-.645 1.223-1.267 1.973-.168.207-.703.765-1.62 1.7-.91.933-2.176 2.237-3.813 3.921M879.371 102.117c-1.055 0-1.844.52-2.383 1.559-.539 1.031-.785 2.59-.785 4.664s.246 3.629.785 4.664c.54 1.039 1.328 1.555 2.383 1.555 1.059 0 1.848-.516 2.387-1.555.52-1.035.789-2.59.789-4.664s-.27-3.633-.79-4.664c-.538-1.04-1.327-1.559-2.386-1.559m0-1.617c1.684 0 2.969.684 3.879 2.012.895 1.347 1.348 3.297 1.348 5.828 0 2.55-.453 4.5-1.348 5.828-.91 1.324-2.195 1.992-3.879 1.992-1.7 0-3.008-.668-3.894-1.992-.895-1.328-1.329-3.277-1.329-5.828 0-2.531.434-4.48 1.329-5.828.886-1.328 2.195-2.012 3.894-2.012M888.188 115.89h2.136v-2.574h-2.136zM900.402 102.55l-5.164 8.071h5.164v-8.07m-.535-1.781h2.57v9.851h2.153v1.703h-2.153v3.567h-2.035v-3.567h-6.824v-1.972M879.371 70.746c-1.055 0-1.844.516-2.383 1.555-.539 1.035-.785 2.594-.785 4.668 0 2.07.246 3.629.785 4.664.54 1.039 1.328 1.555 2.383 1.555 1.059 0 1.848-.516 2.387-1.555.52-1.035.789-2.594.789-4.664 0-2.074-.27-3.633-.79-4.668-.538-1.04-1.327-1.555-2.386-1.555m0-1.621c1.684 0 2.969.688 3.879 2.016.895 1.343 1.348 3.296 1.348 5.828 0 2.55-.453 4.5-1.348 5.828-.91 1.324-2.195 1.988-3.879 1.988-1.7 0-3.008-.664-3.894-1.988-.895-1.328-1.329-3.277-1.329-5.828 0-2.531.434-4.485 1.329-5.828.886-1.329 2.195-2.016 3.894-2.016M888.188 84.52h2.136v-2.575h-2.136zM899.41 76.137c-.914 0-1.64.332-2.18.957-.539.62-.808 1.492-.808 2.57 0 1.098.27 1.969.808 2.59.54.625 1.266.933 2.18.933.91 0 1.637-.308 2.176-.933.539-.621.809-1.492.809-2.59 0-1.078-.27-1.95-.81-2.57-.538-.625-1.265-.957-2.175-.957m4.063-6.407v1.868a7.62 7.62 0 0 0-1.555-.563 6.896 6.896 0 0 0-1.559-.187c-1.363 0-2.406.457-3.109 1.37-.703.91-1.117 2.302-1.203 4.126a4.086 4.086 0 0 1 1.496-1.348 4.245 4.245 0 0 1 1.988-.476c1.516 0 2.719.476 3.59 1.39.871.91 1.328 2.18 1.328 3.754 0 1.555-.48 2.8-1.39 3.73-.914.934-2.137 1.391-3.649 1.391-1.742 0-3.094-.664-4.004-1.988-.933-1.328-1.39-3.277-1.39-5.828 0-2.387.558-4.293 1.699-5.707 1.12-1.41 2.656-2.137 4.562-2.137.5 0 1.016.063 1.559.148.516.102 1.055.25 1.637.457M879.371 39.375c-1.055 0-1.844.516-2.383 1.555-.539 1.035-.785 2.59-.785 4.664s.246 3.629.785 4.664c.54 1.043 1.328 1.558 2.383 1.558 1.059 0 1.848-.515 2.387-1.558.52-1.035.789-2.59.789-4.664s-.27-3.63-.79-4.664c-.538-1.04-1.327-1.555-2.386-1.555m0-1.621c1.684 0 2.969.687 3.879 2.012.895 1.347 1.348 3.297 1.348 5.828 0 2.554-.453 4.5-1.348 5.828-.91 1.328-2.195 1.992-3.879 1.992-1.7 0-3.008-.664-3.894-1.992-.895-1.328-1.329-3.274-1.329-5.828 0-2.532.434-4.48 1.329-5.828.886-1.325 2.195-2.012 3.894-2.012M888.188 53.145h2.136v-2.57h-2.136zM899.16 45.969c-.976 0-1.742.27-2.3.785-.563.52-.833 1.226-.833 2.137 0 .914.27 1.64.832 2.156.559.52 1.325.77 2.301.77.953 0 1.719-.25 2.281-.79.559-.515.852-1.222.852-2.136 0-.91-.293-1.618-.832-2.137-.559-.516-1.324-.785-2.3-.785m-2.056-.875c-.87-.207-1.554-.621-2.05-1.223-.5-.601-.727-1.324-.727-2.2 0-1.198.41-2.155 1.285-2.858.848-.708 2.032-1.06 3.547-1.06 1.492 0 2.676.352 3.547 1.06.852.703 1.285 1.66 1.285 2.859 0 .875-.25 1.598-.75 2.2-.496.6-1.16 1.015-2.027 1.222.972.23 1.738.687 2.3 1.351.54.664.829 1.492.829 2.446 0 1.476-.457 2.593-1.348 3.359-.914.79-2.18 1.164-3.836 1.164-1.68 0-2.965-.375-3.86-1.164-.89-.766-1.327-1.883-1.327-3.36 0-.953.27-1.78.828-2.445.543-.664 1.308-1.12 2.304-1.351m-.746-3.23c0 .784.227 1.406.727 1.843.496.438 1.184.645 2.074.645.867 0 1.555-.207 2.055-.645.496-.437.742-1.059.742-1.844 0-.789-.246-1.39-.742-1.828-.5-.433-1.188-.66-2.055-.66-.89 0-1.578.227-2.074.66-.5.438-.727 1.04-.727 1.828M875.348 18.941h3.343V7.411l-3.632.726V6.27l3.609-.727h2.055v13.398h3.336v1.72h-8.711M888.188 20.66h2.136v-2.57h-2.136zM899.16 6.89c-1.058 0-1.847.52-2.387 1.555-.539 1.04-.785 2.594-.785 4.668 0 2.075.246 3.63.785 4.668.54 1.035 1.329 1.555 2.387 1.555 1.059 0 1.844-.52 2.383-1.555.52-1.039.789-2.593.789-4.668 0-2.074-.27-3.629-.789-4.668-.54-1.035-1.324-1.554-2.383-1.554m0-1.618c1.68 0 2.965.684 3.875 2.012.895 1.348 1.352 3.297 1.352 5.828 0 2.551-.457 4.504-1.352 5.828-.91 1.329-2.195 1.993-3.875 1.993-1.703 0-3.008-.664-3.898-1.993-.895-1.324-1.328-3.277-1.328-5.828 0-2.531.433-4.48 1.328-5.828.89-1.328 2.195-2.012 3.898-2.012M299.137 176.723c-1.059 0-1.848.515-2.383 1.554-.543 1.035-.79 2.594-.79 4.668 0 2.075.247 3.63.79 4.664.535 1.04 1.324 1.559 2.383 1.559 1.058 0 1.847-.52 2.386-1.559.516-1.035.79-2.59.79-4.664s-.274-3.633-.79-4.668c-.539-1.039-1.328-1.554-2.386-1.554m0-1.621c1.683 0 2.968.687 3.879 2.011.89 1.348 1.347 3.301 1.347 5.832 0 2.551-.457 4.5-1.347 5.825-.91 1.328-2.196 1.992-3.88 1.992-1.702 0-3.007-.664-3.898-1.992-.89-1.325-1.328-3.274-1.328-5.825 0-2.53.438-4.484 1.328-5.832.89-1.324 2.196-2.011 3.899-2.011M313.309 176.629a1.3 1.3 0 0 0-.957.394 1.291 1.291 0 0 0-.395.954c0 .378.133.699.395.96.261.262.578.38.957.38.378 0 .699-.118.957-.38.261-.261.39-.582.39-.96 0-.375-.129-.696-.39-.954a1.294 1.294 0 0 0-.957-.394m0-.914a2.218 2.218 0 0 1 1.594.668 2.5 2.5 0 0 1 .48.726c.117.274.176.567.176.868 0 .64-.23 1.164-.668 1.601-.438.434-.973.637-1.598.637-.637 0-1.176-.203-1.598-.637-.433-.422-.636-.96-.636-1.601 0-.622.218-1.16.652-1.594.434-.434.96-.668 1.598-.668M331.379 189.293h3.34v-11.527l-3.63.722v-1.863l3.606-.727h2.055v13.395h3.34v1.723h-8.711M344.242 175.898h8.028v1.72h-6.16v3.714c.288-.105.6-.187.89-.23.293-.04.602-.082.89-.082 1.684 0 3.008.476 4.005 1.39.996.934 1.492 2.176 1.492 3.754 0 1.637-.516 2.902-1.532 3.793-1.02.895-2.449 1.328-4.273 1.328-.64 0-1.285-.062-1.95-.144a12.906 12.906 0 0 1-2.03-.48v-2.052a7.603 7.603 0 0 0 1.882.746c.645.165 1.332.227 2.055.227 1.16 0 2.094-.289 2.781-.91.664-.621 1.016-1.453 1.016-2.508 0-1.039-.352-1.871-1.016-2.492-.687-.617-1.62-.93-2.78-.93-.54 0-1.099.059-1.638.184a9.461 9.461 0 0 0-1.66.562v-7.59M362.77 177.152c-.375 0-.7.13-.958.391a1.309 1.309 0 0 0-.394.96c0 .38.133.696.395.958.257.262.582.379.957.379.378 0 .695-.117.957-.38a1.3 1.3 0 0 0 .394-.956c0-.379-.133-.7-.394-.961a1.296 1.296 0 0 0-.957-.39m0-.915c.289 0 .582.059.87.176.278.117.52.29.727.492.2.219.363.465.477.727.117.277.176.566.176.87 0 .638-.23 1.161-.668 1.595-.434.437-.973.64-1.598.64-.637 0-1.172-.203-1.598-.64-.433-.418-.636-.957-.636-1.594 0-.625.214-1.16.652-1.598a2.164 2.164 0 0 1 1.598-.668M380.273 182.34c.977.207 1.743.644 2.282 1.308.539.665.828 1.493.828 2.446 0 1.496-.516 2.656-1.535 3.465-1.035.812-2.485 1.203-4.375 1.203-.641 0-1.305-.063-1.97-.184a11.81 11.81 0 0 1-2.073-.543v-1.969c.558.332 1.18.582 1.867.747.66.164 1.367.25 2.113.25 1.285 0 2.262-.25 2.926-.747.664-.5 1.016-1.246 1.016-2.222 0-.867-.313-1.574-.934-2.074-.621-.497-1.492-.766-2.613-.766h-1.762v-1.68h1.844c.996 0 1.765-.187 2.304-.601.54-.395.809-.973.809-1.743 0-.765-.29-1.367-.832-1.78-.559-.415-1.348-.626-2.363-.626a9.51 9.51 0 0 0-1.805.188c-.64.125-1.344.312-2.117.558v-1.824a20.723 20.723 0 0 1 2.18-.476 12.89 12.89 0 0 1 1.93-.168c1.534 0 2.757.355 3.671 1.058.914.707 1.367 1.66 1.367 2.863 0 .829-.25 1.536-.722 2.118-.48.578-1.164.992-2.036 1.199M391.645 176.723c-1.06 0-1.848.515-2.387 1.554-.54 1.035-.79 2.594-.79 4.668 0 2.075.25 3.63.79 4.664.539 1.04 1.328 1.559 2.387 1.559 1.058 0 1.847-.52 2.382-1.559.52-1.035.79-2.59.79-4.664s-.27-3.633-.79-4.668c-.535-1.039-1.324-1.554-2.382-1.554m0-1.621c1.68 0 2.964.687 3.875 2.011.894 1.348 1.351 3.301 1.351 5.832 0 2.551-.457 4.5-1.351 5.825-.91 1.328-2.196 1.992-3.875 1.992-1.704 0-3.008-.664-3.903-1.992-.89-1.325-1.324-3.274-1.324-5.825 0-2.53.434-4.484 1.324-5.832.895-1.324 2.2-2.011 3.903-2.011M405.813 176.629c-.375 0-.696.133-.958.394-.257.258-.39.579-.39.954 0 .378.133.699.39.96.262.262.583.38.958.38.378 0 .699-.118.957-.38.265-.261.394-.582.394-.96 0-.375-.129-.696-.394-.954a1.294 1.294 0 0 0-.958-.394m0-.914c.293 0 .583.058.875.176.274.113.52.289.727.492.2.219.36.465.477.726.117.274.171.567.171.868 0 .64-.23 1.164-.664 1.601-.437.434-.972.637-1.597.637-.637 0-1.176-.203-1.598-.637-.433-.422-.64-.96-.64-1.601 0-.622.222-1.16.656-1.594.433-.434.96-.668 1.593-.668M422.738 177.68l-5.164 8.066h5.164v-8.066m-.539-1.782h2.574v9.848h2.153v1.7h-2.153v3.57h-2.035v-3.57h-6.82v-1.966M430.336 175.898h8.023v1.72h-6.16v3.714a4.71 4.71 0 0 1 .895-.23c.289-.04.601-.082.89-.082 1.68 0 3.008.476 4.004 1.39.996.934 1.492 2.176 1.492 3.754 0 1.637-.52 2.902-1.535 3.793-1.015.895-2.449 1.328-4.273 1.328-.64 0-1.285-.062-1.95-.144a13.008 13.008 0 0 1-2.03-.48v-2.052a7.69 7.69 0 0 0 1.886.746c.64.165 1.328.227 2.055.227 1.156 0 2.09-.289 2.777-.91.664-.621 1.016-1.453 1.016-2.508 0-1.039-.352-1.871-1.016-2.492-.687-.617-1.62-.93-2.777-.93-.54 0-1.102.059-1.64.184a9.425 9.425 0 0 0-1.657.562v-7.59M448.86 177.152c-.376 0-.696.13-.958.391-.261.262-.39.582-.39.96 0 .38.129.696.39.958.262.262.582.379.957.379.38 0 .696-.117.961-.38a1.3 1.3 0 0 0 .395-.956c0-.379-.133-.7-.395-.961a1.311 1.311 0 0 0-.96-.39m0-.915c.292 0 .581.059.87.176.278.117.524.29.727.492.203.219.363.465.48.727.118.277.172.566.172.87 0 .638-.23 1.161-.668 1.595-.433.437-.968.64-1.597.64-.637 0-1.172-.203-1.594-.64-.437-.418-.64-.957-.64-1.594 0-.625.218-1.16.656-1.598a2.155 2.155 0 0 1 1.593-.668M464.785 182.113c-.91 0-1.637.332-2.176.953-.539.621-.808 1.496-.808 2.575 0 1.097.27 1.968.808 2.59.54.624 1.266.933 2.176.933.918 0 1.64-.309 2.184-.934.535-.62.808-1.492.808-2.59 0-1.078-.273-1.953-.808-2.574-.543-.62-1.266-.953-2.184-.953m4.067-6.406v1.863a7.91 7.91 0 0 0-1.555-.558 6.862 6.862 0 0 0-1.555-.188c-1.367 0-2.406.457-3.11 1.367-.706.914-1.12 2.305-1.202 4.13a4.04 4.04 0 0 1 1.492-1.348 4.257 4.257 0 0 1 1.988-.477c1.516 0 2.719.477 3.59 1.39.871.91 1.332 2.176 1.332 3.755 0 1.554-.48 2.796-1.395 3.73-.91.934-2.136 1.39-3.652 1.39-1.738 0-3.086-.663-4-1.991-.933-1.325-1.387-3.274-1.387-5.825 0-2.386.559-4.293 1.7-5.703 1.117-1.414 2.652-2.14 4.562-2.14.496 0 1.016.066 1.555.148.52.102 1.058.246 1.637.457M477.734 176.723c-1.054 0-1.843.515-2.386 1.554-.535 1.035-.785 2.594-.785 4.668 0 2.075.25 3.63.785 4.664.543 1.04 1.332 1.559 2.386 1.559 1.059 0 1.848-.52 2.387-1.559.516-1.035.79-2.59.79-4.664s-.274-3.633-.79-4.668c-.539-1.039-1.328-1.554-2.387-1.554m0-1.621c1.68 0 2.97.687 3.88 2.011.89 1.348 1.347 3.301 1.347 5.832 0 2.551-.457 4.5-1.348 5.825-.91 1.328-2.199 1.992-3.879 1.992-1.699 0-3.007-.664-3.898-1.992-.89-1.325-1.328-3.274-1.328-5.825 0-2.53.437-4.484 1.328-5.832.89-1.324 2.2-2.011 3.898-2.011M491.906 176.629c-.379 0-.699.133-.957.394-.261.258-.39.579-.39.954 0 .378.129.699.39.96.258.262.578.38.957.38.38 0 .696-.118.957-.38.262-.261.395-.582.395-.96 0-.375-.133-.696-.395-.954a1.3 1.3 0 0 0-.957-.394m0-.914c.29 0 .578.058.871.176.274.113.524.289.727.492.203.219.363.465.48.726.114.274.172.567.172.868 0 .64-.23 1.164-.668 1.601-.437.434-.972.637-1.597.637-.637 0-1.172-.203-1.594-.637-.438-.422-.64-.96-.64-1.601 0-.622.218-1.16.652-1.594.437-.434.96-.668 1.597-.668M502.691 175.898h9.723v.872l-5.492 14.246h-2.137l5.168-13.399h-7.262M516.426 175.898h8.027v1.72h-6.16v3.714a4.6 4.6 0 0 1 .89-.23c.29-.04.602-.082.895-.082 1.676 0 3.008.476 4 1.39.996.934 1.496 2.176 1.496 3.75 0 1.64-.523 2.906-1.539 3.797-1.015.895-2.445 1.328-4.27 1.328-.644 0-1.288-.062-1.949-.144a12.905 12.905 0 0 1-2.03-.48v-2.052a7.603 7.603 0 0 0 1.882.746c.644.165 1.332.227 2.055.227 1.16 0 2.093-.289 2.78-.91.665-.621 1.017-1.453 1.017-2.512 0-1.035-.352-1.867-1.016-2.488-.688-.617-1.621-.93-2.781-.93-.54 0-1.098.059-1.637.184a9.354 9.354 0 0 0-1.66.562v-7.59M534.95 177.152c-.376 0-.696.13-.958.391-.262.262-.39.582-.39.96 0 .38.128.696.39.958s.582.379.957.379c.383 0 .7-.117.961-.38a1.3 1.3 0 0 0 .395-.956c0-.379-.133-.7-.395-.961a1.299 1.299 0 0 0-.96-.39m0-.915c.292 0 .581.059.87.176.278.117.524.29.727.492.203.219.367.465.48.727.118.277.172.566.172.87 0 .638-.23 1.161-.664 1.595-.437.437-.973.64-1.598.64-.64 0-1.175-.203-1.597-.64-.434-.418-.637-.957-.637-1.594 0-.625.219-1.16.652-1.598a2.155 2.155 0 0 1 1.594-.668M546.316 190.18v-1.868c.496.25 1.016.438 1.555.563.52.125 1.04.188 1.559.188 1.324 0 2.363-.438 3.07-1.348.703-.914 1.117-2.281 1.242-4.149-.418.582-.914 1.036-1.496 1.348-.598.313-1.262.457-1.988.457-1.535 0-2.738-.457-3.61-1.367-.87-.914-1.304-2.16-1.304-3.758 0-1.531.453-2.781 1.367-3.73.914-.934 2.137-1.414 3.672-1.414 1.742 0 3.09.687 4 2.011.914 1.348 1.39 3.301 1.39 5.832 0 2.403-.582 4.293-1.699 5.703-1.14 1.407-2.656 2.114-4.562 2.114-.52 0-1.04-.063-1.559-.145a8.428 8.428 0 0 1-1.637-.437m4.067-6.407c.91 0 1.637-.312 2.176-.933.543-.621.808-1.492.808-2.594 0-1.078-.265-1.95-.808-2.57-.54-.625-1.266-.953-2.176-.953-.914 0-1.64.328-2.176.953-.543.62-.812 1.492-.812 2.57 0 1.102.27 1.973.812 2.594.535.62 1.262.933 2.176.933M563.828 176.723c-1.058 0-1.848.515-2.387 1.554-.539 1.035-.789 2.594-.789 4.668 0 2.075.25 3.63.79 4.664.538 1.04 1.328 1.559 2.386 1.559 1.055 0 1.844-.52 2.383-1.559.52-1.035.789-2.59.789-4.664s-.27-3.633-.79-4.668c-.538-1.039-1.327-1.554-2.382-1.554m0-1.621c1.68 0 2.965.687 3.875 2.011.895 1.348 1.352 3.301 1.352 5.832 0 2.551-.457 4.5-1.352 5.825-.91 1.328-2.195 1.992-3.875 1.992-1.703 0-3.008-.664-3.898-1.992-.895-1.325-1.332-3.274-1.332-5.825 0-2.53.437-4.484 1.332-5.832.89-1.324 2.195-2.011 3.898-2.011M577.996 176.629a1.3 1.3 0 0 0-.957.394c-.262.258-.39.579-.39.954 0 .378.128.699.39.96.262.262.578.38.957.38s.7-.118.961-.38c.262-.261.39-.582.39-.96 0-.375-.128-.696-.39-.954a1.309 1.309 0 0 0-.96-.394m0-.914a2.235 2.235 0 0 1 1.598.668 2.5 2.5 0 0 1 .48.726c.116.274.171.567.171.868 0 .64-.23 1.164-.664 1.601-.437.434-.977.637-1.598.637-.64 0-1.175-.203-1.597-.637-.438-.422-.64-.96-.64-1.601 0-.622.218-1.16.655-1.594a2.17 2.17 0 0 1 1.594-.668" />
        </g>
        <path id="aM"
            d="M12.406-11.234c-.43-.47-.976-.844-1.64-1.125-.657-.282-1.391-.422-2.204-.422-.835 0-1.585.152-2.25.453a5.124 5.124 0 0 0-1.703 1.234A5.784 5.784 0 0 0 3.531-9.28a6.277 6.277 0 0 0-.375 2.187c0 .782.125 1.524.375 2.219A5.74 5.74 0 0 0 4.61-3.062c.47.511 1.04.914 1.72 1.203.687.293 1.452.437 2.296.437.664 0 1.273-.055 1.828-.172.563-.125 1.05-.3 1.469-.531v-3.938h-3.14v-1.671h5.093v6.859c-.742.398-1.555.7-2.438.906C10.563.25 9.602.36 8.563.36 7.457.36 6.44.176 5.515-.187A6.96 6.96 0 0 1 3.125-1.72a7.132 7.132 0 0 1-1.563-2.36C1.188-4.991 1-6 1-7.093c0-1.113.188-2.125.563-3.031a6.985 6.985 0 0 1 1.578-2.344 7.176 7.176 0 0 1 2.39-1.5 8.18 8.18 0 0 1 3.016-.547c1.125 0 2.129.168 3.015.5.895.336 1.633.778 2.22 1.329zm0 0" />
        <path id="aN" d="M3.547 0h-1.89v-15.125h1.89zm0 0" />
        <path id="aO"
            d="M7.516-6.14c0-.708-.215-1.227-.641-1.563-.43-.344-.992-.516-1.688-.516-.542 0-1.054.106-1.53.313-.47.21-.86.468-1.173.781l-1-1.188a4.969 4.969 0 0 1 1.704-1.046 6.205 6.205 0 0 1 2.171-.375c.676 0 1.266.101 1.766.296.5.188.91.45 1.234.782.32.336.563.73.72 1.187.155.45.233.934.233 1.453v4.141c0 .313.008.648.032 1 .02.355.054.648.11.875H7.765a5.45 5.45 0 0 1-.172-1.36h-.047A3.715 3.715 0 0 1 6.219-.171c-.524.27-1.14.406-1.86.406A4.84 4.84 0 0 1 3.188.078a3.383 3.383 0 0 1-1.11-.469 2.726 2.726 0 0 1-.828-.906c-.219-.375-.328-.836-.328-1.39 0-.72.191-1.286.578-1.704.383-.414.89-.734 1.516-.953a8.064 8.064 0 0 1 2.109-.437c.79-.063 1.586-.094 2.39-.094Zm-.454 1.624c-.468 0-.953.024-1.453.063-.5.031-.953.11-1.359.234a2.471 2.471 0 0 0-1.016.547c-.261.242-.39.559-.39.953 0 .281.054.516.172.703.113.188.257.344.437.47.188.116.395.198.625.25.227.042.461.062.703.062.875 0 1.547-.258 2.016-.782.476-.53.719-1.195.719-2v-.5zm0 0" />
        <path id="aP"
            d="M6.734-7.078a2.439 2.439 0 0 0-.89-.844 2.524 2.524 0 0 0-1.297-.344c-.219 0-.438.028-.656.079-.211.042-.399.117-.563.218a1.296 1.296 0 0 0-.406.39c-.094.15-.14.337-.14.563 0 .399.175.696.53.891.364.188.907.367 1.626.531.457.106.878.23 1.265.375.383.149.719.328 1 .547.29.219.516.484.672.797.164.305.25.664.25 1.078 0 .563-.11 1.04-.328 1.422-.211.387-.492.703-.844.953a3.482 3.482 0 0 1-1.219.516c-.449.113-.914.172-1.39.172-.719 0-1.422-.141-2.11-.422A4.18 4.18 0 0 1 .516-1.438l1.343-1.14c.25.375.598.687 1.047.937.446.25.938.375 1.469.375.238 0 .469-.02.688-.062.226-.05.43-.129.609-.234.176-.102.316-.239.422-.407.113-.176.172-.398.172-.672 0-.437-.215-.757-.641-.968-.418-.22-1.031-.422-1.844-.61-.324-.082-.652-.18-.984-.297a3.345 3.345 0 0 1-.89-.468 2.259 2.259 0 0 1-.641-.75c-.168-.301-.25-.672-.25-1.11 0-.5.101-.93.312-1.297.207-.375.477-.675.813-.906.332-.238.71-.41 1.14-.515a5.084 5.084 0 0 1 1.313-.172c.687 0 1.343.136 1.968.406.633.262 1.13.64 1.485 1.14zm0 0" />
        <path id="aQ"
            d="M13.86-2.203a6.434 6.434 0 0 1-2.188 1.86c-.887.468-1.961.702-3.219.702C7.38.36 6.383.176 5.47-.187a6.864 6.864 0 0 1-2.36-1.532 7.278 7.278 0 0 1-1.546-2.36C1.188-4.991 1-6 1-7.093c0-1.113.188-2.125.563-3.031a6.985 6.985 0 0 1 1.578-2.344 7.176 7.176 0 0 1 2.39-1.5 8.18 8.18 0 0 1 3.016-.547c.476 0 .96.047 1.453.141.488.094.957.234 1.406.422.457.18.875.406 1.25.687.375.274.696.59.969.954l-1.563 1.187c-.343-.477-.835-.875-1.468-1.188a4.588 4.588 0 0 0-2.047-.468c-.836 0-1.586.152-2.25.453a5.182 5.182 0 0 0-1.688 1.234A5.784 5.784 0 0 0 3.531-9.28a6.277 6.277 0 0 0-.375 2.187c0 .793.125 1.54.375 2.235.25.699.602 1.304 1.063 1.812a4.815 4.815 0 0 0 1.672 1.203c.664.293 1.406.438 2.218.438.801 0 1.524-.157 2.172-.469a4.2 4.2 0 0 0 1.625-1.406zm0 0" />
        <path id="aR"
            d="M11.219-4.766c0 .743-.133 1.418-.39 2.032A4.83 4.83 0 0 1 9.75-1.141c-.46.438-1 .782-1.625 1.032a5.429 5.429 0 0 1-2.031.375c-.719 0-1.39-.125-2.016-.375a5.018 5.018 0 0 1-1.625-1.032 4.85 4.85 0 0 1-1.062-1.593C1.129-3.348 1-4.024 1-4.766c0-.726.129-1.394.39-2a4.743 4.743 0 0 1 1.063-1.578c.457-.437 1-.773 1.625-1.015a5.377 5.377 0 0 1 2.016-.375c.726 0 1.406.125 2.031.375A4.893 4.893 0 0 1 9.75-8.344c.457.438.816.965 1.078 1.578a5.06 5.06 0 0 1 .39 2zm-1.953 0c0-.445-.075-.879-.22-1.296a3.189 3.189 0 0 0-.608-1.094 2.87 2.87 0 0 0-.985-.75 3.156 3.156 0 0 0-1.36-.282c-.5 0-.948.094-1.343.282a2.97 2.97 0 0 0-1 .75 3.47 3.47 0 0 0-.61 1.093 4.15 4.15 0 0 0-.203 1.297c0 .461.067.899.204 1.313.144.406.347.773.609 1.094.27.324.602.578 1 .765.395.188.844.282 1.344.282.508 0 .96-.094 1.36-.282.394-.187.722-.441.984-.765.269-.32.472-.688.609-1.094.144-.414.219-.852.219-1.313zm0 0" />
        <path id="aS"
            d="M3.5 4.797H1.625V-9.484h1.828V-8h.063c.312-.508.765-.926 1.359-1.25.594-.32 1.281-.484 2.063-.484.707 0 1.347.125 1.921.375a4.32 4.32 0 0 1 1.5 1.062c.426.45.754.98.985 1.594a5.48 5.48 0 0 1 .344 1.937c0 .7-.118 1.356-.344 1.97a4.947 4.947 0 0 1-.969 1.608c-.406.45-.906.805-1.5 1.063a4.84 4.84 0 0 1-1.969.39A4.427 4.427 0 0 1 4.97-.171a3.55 3.55 0 0 1-1.407-1.25H3.5Zm6.234-9.563c0-.437-.07-.859-.203-1.265a3.14 3.14 0 0 0-.594-1.11 2.816 2.816 0 0 0-.984-.765c-.398-.188-.855-.282-1.375-.282-.48 0-.918.094-1.312.282a3.15 3.15 0 0 0-1 .765 3.64 3.64 0 0 0-.657 1.11c-.156.406-.234.84-.234 1.297 0 .449.078.882.234 1.296.157.418.375.782.657 1.094a3.22 3.22 0 0 0 1 .75c.394.188.832.282 1.312.282.52 0 .977-.098 1.375-.297a3.01 3.01 0 0 0 .984-.766c.27-.32.47-.688.594-1.094.133-.414.203-.847.203-1.297Zm0 0" />
        <path id="aT"
            d="M8.563-5.578a3.48 3.48 0 0 0-.188-1.047 2.502 2.502 0 0 0-.5-.86 2.288 2.288 0 0 0-.828-.562 2.776 2.776 0 0 0-1.14-.219c-.407 0-.79.075-1.141.22a2.85 2.85 0 0 0-.922.562 2.926 2.926 0 0 0-.64.859 2.532 2.532 0 0 0-.282 1.047zm1.89.766v.312c0 .105-.008.21-.016.313H2.922c.008.406.098.789.265 1.14a3.04 3.04 0 0 0 1.64 1.531c.364.149.755.22 1.173.22.633 0 1.188-.141 1.656-.423a3.491 3.491 0 0 0 1.11-1.015l1.312 1.046c-.512.668-1.11 1.165-1.797 1.485C7.601.109 6.844.266 6 .266a5.481 5.481 0 0 1-2-.36 4.482 4.482 0 0 1-1.578-1.015 4.901 4.901 0 0 1-1.047-1.563C1.125-3.285 1-3.969 1-4.719c0-.726.117-1.406.36-2.031a4.68 4.68 0 0 1 1.03-1.594 4.777 4.777 0 0 1 1.563-1.015 5.043 5.043 0 0 1 1.953-.375c.688 0 1.313.117 1.875.343.57.22 1.051.543 1.438.97.394.429.695.948.906 1.562.219.605.328 1.289.328 2.046zm0 0" />
        <path id="aU"
            d="M1.625-7.438c0-.25-.012-.57-.031-.968a32.549 32.549 0 0 0-.047-1.078h1.766c.03.242.05.515.062.828.02.312.031.574.031.781h.047a3.26 3.26 0 0 1 1.172-1.344 3.075 3.075 0 0 1 1.734-.515c.29 0 .536.027.735.078l-.078 1.734a3.69 3.69 0 0 0-.86-.094c-.449 0-.84.086-1.172.25-.336.168-.617.391-.843.672a2.63 2.63 0 0 0-.485.969 4.103 4.103 0 0 0-.156 1.14V0H1.625Zm0 0" />
        <path id="aV"
            d="M2.297 0H.094l6.14-14.156h1.813L14.125 0h-2.25l-1.438-3.484H3.72Zm2.125-5.219h5.297l-2.64-6.64zm0 0" />
        <path id="aW"
            d="M8.297 0a24.54 24.54 0 0 1-.063-.813c-.011-.3-.015-.55-.015-.75h-.031c-.25.512-.657.946-1.22 1.297a3.504 3.504 0 0 1-1.89.532c-.617 0-1.148-.102-1.594-.297a3.05 3.05 0 0 1-1.109-.844 3.47 3.47 0 0 1-.625-1.219 5.333 5.333 0 0 1-.203-1.5v-5.89h1.875v5.25c0 .386.023.757.078 1.109.063.355.172.668.328.938.164.261.39.476.672.64.281.156.64.234 1.078.234.758 0 1.375-.28 1.844-.843.469-.57.703-1.332.703-2.281v-5.047H10v7.437c0 .262.004.594.016 1 .02.399.039.746.062 1.047zm0 0" />
        <path id="aX"
            d="M3.453-7.922c.238-.508.625-.937 1.156-1.281.532-.352 1.157-.531 1.875-.531a3.44 3.44 0 0 1 1.72.437c.519.293.925.777 1.218 1.453.32-.613.77-1.082 1.344-1.406a3.767 3.767 0 0 1 1.875-.484c.613 0 1.14.105 1.578.312.437.2.8.477 1.094.828.3.344.519.75.656 1.219.144.46.219.96.219 1.5V0h-1.891v-5.266c0-.382-.04-.75-.11-1.093a2.871 2.871 0 0 0-.328-.922 1.738 1.738 0 0 0-.64-.64c-.274-.157-.61-.235-1.016-.235-.43 0-.797.09-1.11.265-.304.18-.554.414-.75.704a3.155 3.155 0 0 0-.421.968 4.628 4.628 0 0 0-.125 1.094V0H7.922v-5.64c0-.376-.04-.712-.11-1.016a1.947 1.947 0 0 0-.343-.797 1.632 1.632 0 0 0-.61-.516c-.25-.125-.562-.187-.937-.187-.7 0-1.277.289-1.734.86-.461.562-.688 1.312-.688 2.25V0H1.625v-7.438c0-.25-.012-.57-.031-.968a32.549 32.549 0 0 0-.047-1.078h1.766c.03.242.05.511.062.812.02.305.031.555.031.75zm0 0" />
        <path id="aY"
            d="M3.516 0H1.64v-9.484h1.875zm.328-12.906c0 .355-.125.648-.375.875-.25.219-.547.328-.89.328-.345 0-.638-.113-.876-.344a1.157 1.157 0 0 1-.36-.86c0-.343.118-.628.36-.859.238-.238.531-.359.875-.359s.64.121.89.36c.25.23.376.515.376.859zm0 0" />
        <path id="aZ"
            d="M3.313-9.484c.03.242.05.511.062.812.02.305.031.555.031.75h.047c.125-.25.29-.484.5-.703.207-.219.442-.41.703-.578a3.76 3.76 0 0 1 .875-.39c.32-.095.66-.141 1.016-.141.601 0 1.125.105 1.562.312.446.2.817.477 1.11.828.289.344.504.75.64 1.219.145.46.22.96.22 1.5V0H8.202v-5.266c0-.382-.031-.75-.094-1.093a2.871 2.871 0 0 0-.328-.922 1.696 1.696 0 0 0-.656-.64c-.281-.157-.64-.235-1.078-.235a2.3 2.3 0 0 0-1.844.86c-.469.562-.703 1.312-.703 2.25V0H1.625v-7.438c0-.25-.012-.57-.031-.968a32.549 32.549 0 0 0-.047-1.078Zm0 0" />
    </defs>
    <use xlink:href="#aL" transform="translate(-4.08 -5.273)" />
    <use xlink:href="#aM" x="170.71" y="744.18" fill="#838787" transform="translate(-71.08 -520.273)" />
    <use xlink:href="#aN" x="186.27" y="744.18" fill="#838787" transform="translate(-71.08 -520.273)" />
    <use xlink:href="#aO" x="191.47" y="744.18" fill="#838787" transform="translate(-71.08 -520.273)" />
    <use xlink:href="#aP" x="202.31" y="744.18" fill="#838787" transform="translate(-71.08 -520.273)" />
    <use xlink:href="#aP" x="211.19" y="744.18" fill="#838787" transform="translate(-71.08 -520.273)" />
    <use xlink:href="#aQ" x="465.71" y="744.18" fill="#838787" transform="translate(-71.08 -520.273)" />
    <use xlink:href="#aR" x="479.63" y="744.18" fill="#838787" transform="translate(-71.08 -520.273)" />
    <use xlink:href="#aS" x="491.83" y="744.18" fill="#838787" transform="translate(-71.08 -520.273)" />
    <use xlink:href="#aS" x="504.51" y="744.18" fill="#838787" transform="translate(-71.08 -520.273)" />
    <use xlink:href="#aT" x="517.19" y="744.18" fill="#838787" transform="translate(-71.08 -520.273)" />
    <use xlink:href="#aU" x="528.65" y="744.18" fill="#838787" transform="translate(-71.08 -520.273)" />
    <use xlink:href="#aV" x="767.21" y="744.18" fill="#838787" transform="translate(-71.08 -520.273)" />
    <use xlink:href="#aN" x="781.43" y="744.18" fill="#838787" transform="translate(-71.08 -520.273)" />
    <use xlink:href="#aW" x="786.63" y="744.18" fill="#838787" transform="translate(-71.08 -520.273)" />
    <use xlink:href="#aX" x="798.27" y="744.18" fill="#838787" transform="translate(-71.08 -520.273)" />
    <use xlink:href="#aY" x="816.01" y="744.18" fill="#838787" transform="translate(-71.08 -520.273)" />
    <use xlink:href="#aZ" x="821.19" y="744.18" fill="#838787" transform="translate(-71.08 -520.273)" />
    <use xlink:href="#aY" x="832.83" y="744.18" fill="#838787" transform="translate(-71.08 -520.273)" />
    <use xlink:href="#aW" x="838.01" y="744.18" fill="#838787" transform="translate(-71.08 -520.273)" />
    <use xlink:href="#aX" x="849.65" y="744.18" fill="#838787" transform="translate(-71.08 -520.273)" />
</svg>
