<svg xmlns="http://www.w3.org/2000/svg" xmlns:xlink="http://www.w3.org/1999/xlink" width="500"
   viewBox="0 0 795.307 216.66">
   <defs>
      <path id="a"
         d="m29.063-9.36-1.032-.312c-1.453 3.016-2.61 4.735-4.265 5.828-2.547 1.719-4.157 1.969-9.36 1.969-4.265 0-5.469-.516-5.469-2.125 0-.734.22-1.61.532-2.813l6.234-22.312c.828-2.953 2.14-3.797 5.25-4v-.828H6.766v.828c3.218.203 4 .734 4 2.234 0 .782-.157 1.828-.579 3.235L3.845-4.891C2.906-1.609 2.5-1.14-.422-.828V0h26.469zm0 0" />
      <path id="m"
         d="m2.125-22.25-.36 1.656H6.5L1.922 1.25C.734 6.86-.938 9.672-3.125 9.672c-.625 0-1.031-.36-1.031-.828 0-.578.468-.828.468-1.516 0-1.094-.78-1.922-1.984-1.922-1.094 0-1.969.985-1.969 2.188 0 1.812 1.766 3.172 4.11 3.172 4.734 0 8.219-5.094 10.39-14.72l3.75-16.64h5.61l.312-1.656H10.97c1.515-8.219 3.437-11.86 6.344-11.86.734 0 1.14.25 1.14.672 0 .47-.515.735-.515 1.61 0 1.25.984 2.031 1.921 2.031 1.203 0 2.188-1.094 2.188-2.234 0-1.875-1.922-3.219-4.469-3.219-3.172 0-5.312 1.766-6.86 4-1.718 2.438-2.609 5.297-3.75 9zm0 0" />
      <path id="b"
         d="M17.281-11.11c0-3.25-2.218-5.171-5.203-5.171-1.515 0-3 .328-4.437 1.11C3.766-13.11 1-8.86 1-4.72 1-1.516 2.953.406 6.422.406c2.437 0 4.797-.922 6.937-3.062 2.438-2.406 3.922-5.656 3.922-8.453zm-3.11-.921c0 2.797-1.03 6.265-2.718 8.594C10-1.438 8.61-.376 6.984-.376c-1.734 0-2.89-1.14-2.89-3.36 0-2.906 1.031-5.828 2.734-8.406 1.484-2.218 3.11-3.359 4.734-3.359 1.579 0 2.61 1.219 2.61 3.469zm0 0" />
      <path id="o"
         d="M9.75-22.11c0-1.078-.86-2.03-1.844-2.03-1 0-1.734.812-1.734 1.953 0 1.171.703 1.953 1.766 1.953.953 0 1.812-.844 1.812-1.875zM8.203-4.202C6.61-2.11 5.72-1.328 5.093-1.328c-.296 0-.515-.188-.515-.563 0-.515.188-.984.375-1.609l3.469-12.672-.156-.11c-3.72.704-4.47.813-5.907.923v.593c2 .032 2.36.141 2.36.891 0 .281-.14.953-.328 1.61L2.625-5.72c-.563 2.063-.813 3.36-.813 4.094 0 1.36.594 2.031 1.813 2.031 1.844 0 3.016-1.11 5.047-4.203zm0 0" />
      <path id="c"
         d="M15.813 8.375C8.53 2.281 6.969-3.594 6.969-13.265c0-10.032 1.61-14.86 8.843-21.047l-.468-.844C7.016-30.22 2.5-22.72 2.5-13.11c0 8.843 4.469 17.64 12.688 22.312zm0 0" />
      <path id="e"
         d="M4.313 7.328C7.905 5.61 10.14 2.344 10.14-.782c0-2.702-1.829-4.515-4.157-4.515-1.875 0-3.125 1.188-3.125 2.953C2.86-.578 3.953.312 5.875.312 6.453.313 6.969.11 7.391.11c.406 0 .718.313.718.672 0 1.719-1.453 3.64-4.312 5.563zm0 0" />
      <path id="g"
         d="M1.516-34.313c7.53 5.922 8.828 11.907 8.828 21.626 0 10.093-1.453 14.968-8.828 21.062l.453.828C10.25 4.156 14.813-3.219 14.813-12.844c0-8.844-4.72-17.531-12.688-22.312zm0 0" />
      <path id="h" d="M33.125-16.64v-3.438H2.5v3.437zm0 10.406v-3.438H2.5v3.438zm0 0" />
      <path id="d"
         d="M11.031-23.969H1.047v1.25c2.281.36 2.86 1.094 2.86 3.375V6.141c0 2.171-.423 2.859-2.923 3.265v1.25h14.141v-1.25c-3.172-.156-4-1.812-4-5.297v-6.546C13.625 0 14.922.671 17.265.671c6.235 0 9.985-5.563 9.985-13.625 0-7.64-3.64-11.64-9.406-11.64-3.078 0-5.047 1.093-6.813 4.202zm.094 5.985c0-.313.36-1.047.938-1.72 1.046-1.25 2.343-1.921 3.53-1.921 2.657 0 3.954 3.063 3.954 9.453 0 7.188-1.563 9.985-4.422 9.985-1.703 0-3.219-1.407-4-3.376zm0 0" />
      <path id="f"
         d="M25.219-23.969h-7.844v1.25c2.234.094 2.86.469 2.86 1.703 0 .625-.157 1.36-.579 2.344l-3.75 9.469-4.11-10.563c-.405-1.03-.452-1.25-.452-1.609 0-.781.515-1.094 1.812-1.25l.938-.094v-1.25h-13v1.25c1.14.157 1.453.313 1.765.719.47.625 2.391 4.781 3.438 7.344L12.53.734h1.36l8.312-20.593c.985-2.391 1.406-2.703 3.016-2.86Zm0 0" />
      <path id="n"
         d="M13.313 0v-1.25c-1.72-.047-2.594-.875-2.594-3.281v-30.625H.78v1.25c1.813.156 2.703 1.453 2.703 3.375v26c0 2.297-.89 3.125-2.656 3.281V0Zm0 0" />
      <path id="p"
         d="M28.031 0v-1.25c-2.031-.156-2.547-.781-2.547-3.125v-12.844c0-4.515-2.765-7.375-7.03-7.375-3.11 0-5.61 1.407-7.376 4.516h-.047v-3.89H1.094v1.25c2.281.359 2.75.937 2.75 3.171V-4.53c0 2.187-.406 2.812-2.75 3.281V0h12.484v-1.25c-1.937-.266-2.5-1.188-2.5-3.125v-13.719c0-.203.36-.734.875-1.25 1.156-1.14 2.406-1.765 3.64-1.765 1.782 0 2.657 1.5 2.657 4.422v12.312c0 2.094-.625 2.922-2.39 3.125V0Zm0 0" />
      <path id="i"
         d="M12.266.516c0 6.921-.313 11.5-3.688 11.5-.515 0-.875-.266-.875-.735 0-.672.61-.515.61-1.812 0-1.61-1.235-2.235-2.438-2.235-1.453 0-2.86.985-2.86 2.75 0 2.032 1.36 4 4.688 4 7.219 0 9.563-6.656 9.563-12.171v-92.344c0-6.766.422-11.5 3.797-11.5.515 0 .875.265.875.734 0 .672-.625.516-.625 1.828 0 1.61 1.25 2.235 2.453 2.235 1.453 0 2.859-1 2.859-2.766 0-2.031-1.36-4-4.688-4-7.375 0-9.671 7.078-9.671 12.531zm0 0" />
      <path id="j"
         d="M9.453 0v-.89C8.234-.923 7.61-1.517 7.61-3.22v-21.734H.547v.875c1.297.11 1.922 1.031 1.922 2.406v18.453C2.469-1.594 1.844-1 .594-.89V0Zm0 0" />
      <path id="k"
         d="M23.078 1v-2.438h-10.75c-3.797 0-6.969-3.14-7.61-6.64h18.36v-2.438H4.766c.625-3.515 3.796-6.656 7.609-6.656h10.703v-2.437h-10.86c-5.874 0-10 4.843-10 10.312C2.219-3.844 6.423 1 12.329 1Zm0 0" />
      <path id="l"
         d="M26.406 0v-6.234h-.937c-.063 1.843-.766 2.734-2.282 2.734H17.5l.078-1.375c4.985-1.406 7.938-4.39 7.938-9.781 0-5.5-4.47-10.297-11.782-10.297-7.453 0-11.78 5.281-11.78 10.297 0 5.36 2.702 8.344 7.827 9.781L9.86-3.5H4.281C2.656-3.5 2.031-4.063 2-6.313h-.922V0h10.594l-.344-5.938c-3.25-.937-5.156-5.171-5.156-8.796 0-4.422 2.547-8.891 7.562-8.891 4.844 0 7.563 3.656 7.563 8.89 0 3.954-2.063 8.016-5.203 8.797L15.844 0Zm0 0" />
      <path id="q"
         d="M10.563-13.156c0-1.656-1.407-3.125-3.079-3.125-1.718 0-3.171 1.562-3.171 3.125 0 1.562 1.453 3.125 3.171 3.125 1.672 0 3.079-1.453 3.079-3.125zm0 0" />
      <path id="r"
         d="M22.719-.672c-.203-1.719-.313-4.266-.313-5.984v-28.657l-.468-.25-3.641 1.25v12.157c-1.86-1.344-3.781-1.922-5.563-1.922-6.234 0-11.28 5.828-11.28 13.203 0 4.531 2.187 8.438 5.093 10.203C7.953.156 9.78.516 11.28.516c2.39 0 5.203-.938 7.125-2.797l.11 2.594.468.265zm-4.422-7.547c-1.14 3.078-3.578 5.047-5.969 5.047-1.36 0-2.656-.36-3.86-1.25-1.812-1.344-2.905-4.203-2.905-7.125 0-5.36 3.75-8.844 7.39-8.844 1.969 0 3.953 1.203 5.344 3.282zm0 0" />
      <path id="s"
         d="M15.25-2.422c-.617.836-1.418 1.512-2.406 2.031-.98.52-2.156.782-3.531.782-1.188 0-2.29-.2-3.297-.594a7.84 7.84 0 0 1-2.594-1.688 7.857 7.857 0 0 1-1.719-2.593c-.406-1.008-.61-2.118-.61-3.329 0-1.218.208-2.328.626-3.328a7.63 7.63 0 0 1 1.75-2.578 7.966 7.966 0 0 1 2.625-1.656c1.008-.395 2.11-.594 3.297-.594.53 0 1.066.055 1.609.156.54.106 1.063.262 1.563.47.5.198.953.448 1.359.75.414.304.77.652 1.062 1.046l-1.718 1.313c-.387-.532-.93-.97-1.625-1.313a4.96 4.96 0 0 0-2.25-.515c-.907 0-1.727.167-2.454.5-.718.335-1.34.789-1.859 1.359a6.035 6.035 0 0 0-1.187 1.984 6.807 6.807 0 0 0-.422 2.406c0 .887.133 1.711.406 2.47A6.164 6.164 0 0 0 5.047-3.36 5.441 5.441 0 0 0 6.89-2.031c.726.324 1.539.484 2.437.484.875 0 1.672-.172 2.39-.516a4.712 4.712 0 0 0 1.798-1.546zm0 0" />
      <path id="t"
         d="M12.344-5.234a5.58 5.58 0 0 1-.438 2.218 5.11 5.11 0 0 1-1.187 1.75c-.5.493-1.102.871-1.797 1.141-.688.27-1.43.406-2.219.406a6.02 6.02 0 0 1-2.219-.406 5.22 5.22 0 0 1-1.78-1.14 5.338 5.338 0 0 1-1.188-1.75 5.713 5.713 0 0 1-.422-2.22c0-.812.14-1.55.422-2.218a5.34 5.34 0 0 1 2.969-2.86 6.02 6.02 0 0 1 2.218-.406c.79 0 1.531.137 2.219.406a5.33 5.33 0 0 1 1.797 1.141c.508.48.906 1.055 1.187 1.719.29.668.438 1.406.438 2.219zm-2.156 0c0-.5-.079-.973-.235-1.422a3.728 3.728 0 0 0-.672-1.203 3.283 3.283 0 0 0-1.094-.829C7.758-8.895 7.266-9 6.704-9c-.555 0-1.047.105-1.484.313-.43.21-.79.484-1.078.828a3.657 3.657 0 0 0-.672 1.203c-.156.449-.235.922-.235 1.422 0 .5.079.98.235 1.437.156.45.379.852.672 1.203.289.356.648.637 1.078.844.437.2.93.297 1.484.297.563 0 1.055-.098 1.484-.297.438-.207.801-.488 1.094-.844a3.9 3.9 0 0 0 .672-1.203c.156-.457.235-.937.235-1.437zm0 0" />
      <path id="u"
         d="M7.406-7.781a2.647 2.647 0 0 0-.984-.938A2.773 2.773 0 0 0 5-9.094c-.242 0-.48.028-.719.078-.23.055-.437.137-.625.25-.18.106-.324.246-.437.422a1.15 1.15 0 0 0-.156.625c0 .438.195.766.593.985.395.21.989.402 1.781.578.5.117.958.258 1.375.422.426.156.797.355 1.11.593.32.243.57.532.75.875.176.336.265.73.265 1.188 0 .617-.12 1.137-.359 1.562-.23.43-.543.778-.937 1.047A3.676 3.676 0 0 1 6.312.11c-.5.114-1.011.172-1.53.172-.794 0-1.571-.152-2.329-.453A4.5 4.5 0 0 1 .578-1.578l1.469-1.266a3.38 3.38 0 0 0 1.156 1.047 3.231 3.231 0 0 0 1.61.406c.269 0 .523-.023.765-.078.238-.05.457-.133.656-.25.196-.113.352-.265.47-.453.124-.195.187-.441.187-.734 0-.477-.235-.832-.704-1.063-.46-.238-1.136-.46-2.03-.672a20.656 20.656 0 0 1-1.079-.312 3.544 3.544 0 0 1-.969-.516 2.817 2.817 0 0 1-.718-.828c-.18-.332-.266-.742-.266-1.234 0-.551.11-1.024.328-1.422a3.01 3.01 0 0 1 .89-1 4.068 4.068 0 0 1 1.266-.578 5.615 5.615 0 0 1 1.454-.188c.75 0 1.468.153 2.156.453.695.293 1.238.715 1.625 1.266zm0 0" />
      <path id="v"
         d="M3.875 0H1.797v-10.422h2.078Zm.344-14.188c0 .376-.137.688-.407.938-.273.25-.593.375-.968.375-.387 0-.715-.125-.985-.375a1.265 1.265 0 0 1-.39-.938c0-.382.129-.703.39-.953.27-.257.598-.39.985-.39.375 0 .695.133.969.39.269.25.406.57.406.954zm0 0" />
      <path id="w"
         d="M3.656-10.422c.031.262.051.559.063.89.008.325.015.595.015.813h.079c.124-.27.3-.523.53-.765.227-.25.489-.461.782-.641.29-.188.613-.332.969-.438a3.937 3.937 0 0 1 1.093-.156c.676 0 1.254.117 1.735.344.488.23.894.54 1.219.922.32.375.562.824.718 1.344a5.59 5.59 0 0 1 .235 1.64V0H9.016v-5.781c0-.426-.032-.828-.094-1.203A2.852 2.852 0 0 0 8.562-8a1.87 1.87 0 0 0-.734-.703c-.305-.176-.7-.266-1.187-.266-.825 0-1.496.313-2.016.938-.523.617-.781 1.445-.781 2.484V0H1.78v-8.188c0-.28-.011-.64-.031-1.078-.012-.437-.031-.82-.063-1.156zm0 0" />
      <path id="x"
         d="M9.422-6.14a4.132 4.132 0 0 0-.219-1.141 2.662 2.662 0 0 0-.547-.938 2.557 2.557 0 0 0-.906-.64c-.355-.157-.777-.235-1.266-.235-.437 0-.855.078-1.25.235a3.115 3.115 0 0 0-1 .64 3.392 3.392 0 0 0-.703.938 2.69 2.69 0 0 0-.312 1.14zm2.078.843v.344c0 .117-.008.234-.016.36H3.22c.008.437.101.855.281 1.25.188.386.43.726.734 1.015a3.533 3.533 0 0 0 2.36.89c.707 0 1.316-.148 1.828-.453.52-.312.926-.687 1.219-1.125l1.453 1.172c-.563.73-1.227 1.266-1.985 1.61C8.36.109 7.52.28 6.594.28a6.132 6.132 0 0 1-2.203-.39 5.02 5.02 0 0 1-1.735-1.11 5.267 5.267 0 0 1-1.14-1.718c-.282-.676-.422-1.426-.422-2.25 0-.813.133-1.555.406-2.235.27-.687.645-1.27 1.125-1.75a5.267 5.267 0 0 1 1.719-1.14 5.643 5.643 0 0 1 2.14-.407c.77 0 1.461.125 2.079.375a4.24 4.24 0 0 1 1.578 1.078c.437.47.77 1.04 1 1.704.238.667.359 1.421.359 2.265Zm0 0" />
      <path id="z"
         d="M9.094-7.781c-.23-.344-.563-.625-1-.844a3.018 3.018 0 0 0-1.406-.344c-.543 0-1.024.106-1.438.313-.418.199-.777.469-1.078.812A3.657 3.657 0 0 0 3.5-6.64c-.148.45-.219.922-.219 1.422 0 .5.07.98.219 1.438.156.449.379.851.672 1.203.3.344.66.621 1.078.828.426.2.91.297 1.453.297.531 0 1.008-.098 1.438-.297a2.97 2.97 0 0 0 1.078-.844l1.39 1.25c-.449.512-1 .914-1.656 1.203-.656.282-1.406.422-2.25.422a6.304 6.304 0 0 1-2.234-.39 5.154 5.154 0 0 1-1.766-1.11 5.204 5.204 0 0 1-1.187-1.718c-.282-.676-.422-1.438-.422-2.282 0-.82.14-1.566.422-2.234a5.08 5.08 0 0 1 1.171-1.734 5.133 5.133 0 0 1 1.766-1.126 6.02 6.02 0 0 1 2.219-.406c.726 0 1.453.153 2.172.453.726.293 1.304.715 1.734 1.266zm0 0" />
      <path id="A"
         d="M1.781-8.188c0-.28-.011-.64-.031-1.078-.012-.437-.031-.82-.063-1.156h1.97c.03.262.05.563.062.906.008.344.015.625.015.844h.079c.289-.613.718-1.11 1.28-1.484A3.353 3.353 0 0 1 7-10.72c.32 0 .594.031.813.094l-.094 1.906a4.005 4.005 0 0 0-.938-.11c-.5 0-.937.095-1.312.282a2.617 2.617 0 0 0-.907.75 3.186 3.186 0 0 0-.546 1.063 4.393 4.393 0 0 0-.172 1.25V0H1.78zm0 0" />
      <path id="B"
         d="M6.89-8.734H4.11v5.437c0 .625.113 1.074.343 1.344.238.273.617.406 1.14.406.188 0 .391-.02.61-.062.219-.04.414-.102.594-.188l.062 1.688a5.71 5.71 0 0 1-1.75.28c-.992 0-1.746-.269-2.265-.812-.524-.539-.781-1.351-.781-2.437v-5.656h-2v-1.688h2v-3h2.046v3h2.782zm0 0" />
      <path id="C"
         d="M3.813-8.719c.257-.55.675-1.02 1.25-1.406.582-.395 1.269-.594 2.062-.594a3.79 3.79 0 0 1 1.906.485c.563.324 1.004.859 1.328 1.609a3.699 3.699 0 0 1 1.47-1.547 4.11 4.11 0 0 1 2.077-.547c.676 0 1.254.117 1.735.344.488.23.894.54 1.218.922.32.375.555.824.703 1.344a5.59 5.59 0 0 1 .235 1.64V0h-2.063v-5.781c0-.426-.039-.828-.109-1.203A3.111 3.111 0 0 0 15.25-8c-.18-.3-.414-.535-.703-.703-.293-.176-.668-.266-1.125-.266-.469 0-.875.102-1.219.297-.336.2-.61.453-.828.766-.21.312-.36.668-.453 1.062-.094.399-.14.805-.14 1.219V0H8.718v-6.203c0-.406-.043-.774-.125-1.11a2.286 2.286 0 0 0-.375-.875 1.67 1.67 0 0 0-.672-.578c-.281-.132-.625-.203-1.031-.203-.762 0-1.399.313-1.907.938-.511.617-.765 1.445-.765 2.484V0H1.78v-8.188c0-.28-.011-.64-.031-1.078-.012-.437-.031-.82-.063-1.156h1.97c.03.262.05.559.062.89.008.325.015.595.015.813zm0 0" />
      <path id="J"
         d="M1.89-15.578h5.344c1 0 1.993.148 2.985.437a7.94 7.94 0 0 1 2.703 1.391c.812.637 1.469 1.445 1.969 2.422.5.98.75 2.164.75 3.547 0 1.336-.25 2.492-.75 3.468a7.171 7.171 0 0 1-1.97 2.407A8.49 8.49 0 0 1 10.22-.47 9.873 9.873 0 0 1 7.234 0H1.891ZM4.064-1.906h2.734c.937 0 1.805-.13 2.61-.39a6.03 6.03 0 0 0 2.062-1.157 5.145 5.145 0 0 0 1.36-1.844c.32-.738.483-1.566.483-2.484 0-.969-.164-1.817-.484-2.547a5.013 5.013 0 0 0-1.36-1.844c-.573-.488-1.261-.863-2.062-1.125a8.495 8.495 0 0 0-2.61-.39H4.063Zm0 0" />
      <path id="F"
         d="M8.266-6.75c0-.781-.235-1.36-.704-1.734-.468-.375-1.09-.563-1.859-.563-.594 0-1.152.117-1.672.344-.523.23-.953.523-1.297.875L1.625-9.156c.508-.477 1.133-.86 1.875-1.14a6.752 6.752 0 0 1 2.39-.423c.75 0 1.4.11 1.954.328.55.211 1 .5 1.343.875.352.368.618.797.797 1.297.176.492.266 1.024.266 1.594v4.563c0 .343.008.714.031 1.109.02.387.063.703.125.953H8.531c-.117-.5-.172-1-.172-1.5h-.062c-.387.563-.871 1-1.453 1.313-.574.3-1.258.453-2.047.453-.406 0-.836-.059-1.281-.172A3.664 3.664 0 0 1 2.28-.437a3.01 3.01 0 0 1-.906-.985c-.242-.414-.36-.926-.36-1.531 0-.79.208-1.414.626-1.875.425-.457.984-.805 1.671-1.047.696-.25 1.477-.41 2.344-.484.864-.07 1.735-.11 2.61-.11Zm-.5 1.781c-.512 0-1.043.024-1.594.063a7.198 7.198 0 0 0-1.5.265c-.45.137-.82.336-1.11.594-.292.262-.437.617-.437 1.063 0 .304.063.558.188.765.124.211.285.383.484.516.207.125.437.215.687.266.25.054.508.078.782.078.957 0 1.695-.29 2.218-.875.52-.582.782-1.313.782-2.188v-.547Zm0 0" />
      <path id="G"
         d="M10.094-1.656A3.852 3.852 0 0 1 8.469-.203c-.68.32-1.387.484-2.125.484C5.53.281 4.8.141 4.156-.14 3.508-.43 2.957-.82 2.5-1.312a5.387 5.387 0 0 1-1.047-1.766 6.165 6.165 0 0 1-.375-2.156c0-.758.125-1.473.375-2.141.25-.664.602-1.25 1.063-1.75a5.03 5.03 0 0 1 1.656-1.172c.644-.281 1.36-.422 2.14-.422.852 0 1.594.184 2.22.547.632.356 1.132.793 1.5 1.313h.046v-7.766h2.063V0h-2v-1.656Zm-6.86-3.578c0 .48.07.949.22 1.406.144.46.362.867.655 1.219.29.343.649.625 1.079.843.425.211.925.313 1.5.313.53 0 1.007-.098 1.437-.297a3.415 3.415 0 0 0 1.11-.828c.312-.352.55-.754.718-1.203a4.23 4.23 0 0 0 0-2.86 3.627 3.627 0 0 0-.719-1.203 3.402 3.402 0 0 0-1.109-.843A3.262 3.262 0 0 0 6.687-9c-.574 0-1.074.105-1.5.313-.43.21-.789.492-1.078.843a3.426 3.426 0 0 0-.656 1.203 4.45 4.45 0 0 0-.219 1.407zm0 0" />
      <path id="E"
         d="M2.594 1.781A5.013 5.013 0 0 0 4.297 3c.687.313 1.39.469 2.11.469.687 0 1.265-.102 1.734-.297.468-.2.843-.469 1.125-.813.289-.343.5-.75.625-1.218a5.88 5.88 0 0 0 .187-1.516v-1.344h-.047A3.767 3.767 0 0 1 8.47-.375a4.844 4.844 0 0 1-2.11.469c-.793 0-1.515-.14-2.171-.422a4.994 4.994 0 0 1-1.657-1.14A5.142 5.142 0 0 1 1.47-3.173a5.875 5.875 0 0 1-.375-2.11c0-.75.125-1.452.375-2.109A5.172 5.172 0 0 1 2.53-9.109a4.85 4.85 0 0 1 1.64-1.172c.645-.29 1.368-.438 2.173-.438.738 0 1.445.164 2.125.485.687.324 1.226.82 1.625 1.484h.047v-1.672h2v9.89c0 .759-.094 1.489-.282 2.188a4.65 4.65 0 0 1-.968 1.844c-.461.54-1.055.973-1.782 1.297-.73.32-1.64.484-2.734.484-.906 0-1.82-.168-2.734-.5a6.79 6.79 0 0 1-2.36-1.39Zm.64-7.11c0 .493.079.954.235 1.391.156.438.379.829.672 1.172.3.336.664.606 1.093.813.426.2.91.297 1.454.297.53 0 1.015-.094 1.453-.282a3.139 3.139 0 0 0 1.109-.78c.313-.333.55-.72.719-1.157.176-.445.265-.93.265-1.453 0-.5-.09-.969-.265-1.406a3.536 3.536 0 0 0-.719-1.157A3.408 3.408 0 0 0 6.687-9c-.542 0-1.027.102-1.453.297-.43.2-.793.465-1.093.797a3.547 3.547 0 0 0-.672 1.172 4.15 4.15 0 0 0-.235 1.406zm0 0" />
      <path id="M"
         d="M9.125 0a28.252 28.252 0 0 1-.063-.89 23.62 23.62 0 0 1-.015-.829H9c-.262.563-.703 1.04-1.328 1.422a3.91 3.91 0 0 1-2.078.578c-.68 0-1.262-.11-1.75-.328a3.283 3.283 0 0 1-1.219-.906 4.088 4.088 0 0 1-.703-1.36 5.552 5.552 0 0 1-.234-1.64v-6.469h2.078v5.766c0 .418.03.824.093 1.218.063.387.18.727.36 1.016.176.293.414.527.718.703.313.18.711.266 1.204.266.832 0 1.504-.313 2.015-.938.52-.625.781-1.457.781-2.5v-5.53H11v8.171c0 .281.004.648.016 1.094.02.437.046.824.078 1.156zm0 0" />
      <path id="D" d="M4.063 0H1.89v-15.578h2.171Zm0 0" />
      <path id="H"
         d="M1.89-15.578h5.376c.582 0 1.164.07 1.75.203a4.384 4.384 0 0 1 1.578.656c.457.313.828.719 1.11 1.219.288.492.437 1.11.437 1.86 0 .867-.25 1.593-.75 2.187-.5.586-1.157.984-1.97 1.203v.047c.49.055.946.18 1.376.375.426.2.789.46 1.094.781.312.324.55.711.718 1.156.176.438.266.93.266 1.47 0 .75-.156 1.405-.469 1.968a3.939 3.939 0 0 1-1.25 1.375c-.531.355-1.152.625-1.86.812-.71.18-1.468.266-2.28.266H1.89zM4.064-9h2.843c.414 0 .805-.047 1.172-.14a2.9 2.9 0 0 0 .985-.438c.28-.195.5-.445.656-.75.164-.3.25-.664.25-1.094 0-.832-.309-1.426-.922-1.781-.617-.363-1.445-.547-2.485-.547h-2.5zm0 7.156h2.734c.457 0 .914-.039 1.375-.125a4.25 4.25 0 0 0 1.25-.422c.375-.207.676-.484.906-.828.227-.344.344-.781.344-1.312 0-.926-.32-1.594-.953-2-.625-.414-1.531-.625-2.719-.625H4.062Zm0 0" />
      <path id="I"
         d="M4.063 0H1.89v-15.578h5a9.3 9.3 0 0 1 2.125.234 5.34 5.34 0 0 1 1.765.735c.508.336.91.777 1.203 1.328.301.554.454 1.226.454 2.015 0 1.149-.356 2.075-1.063 2.782-.71.699-1.621 1.14-2.734 1.328L13 0h-2.64L6.405-6.938H4.063Zm0-8.75h2.515c.508 0 .984-.04 1.422-.125a3.62 3.62 0 0 0 1.156-.438c.332-.195.594-.453.781-.765.196-.32.297-.719.297-1.188 0-.468-.101-.859-.296-1.171a2.154 2.154 0 0 0-.75-.75 3.316 3.316 0 0 0-1.11-.422 7.131 7.131 0 0 0-1.344-.125H4.063Zm0 0" />
      <path id="K" d="M4.063 0H1.89v-15.578h9.718v1.922H4.063v4.828h7.062v1.875H4.062Zm0 0" />
      <path id="L"
         d="M17.594-7.813c0 1.211-.211 2.32-.625 3.329a7.836 7.836 0 0 1-1.735 2.593 7.87 7.87 0 0 1-2.609 1.688C11.613.19 10.515.39 9.328.39 8.141.39 7.04.19 6.031-.203a8.032 8.032 0 0 1-2.61-1.688 7.857 7.857 0 0 1-1.718-2.593c-.406-1.008-.61-2.118-.61-3.329 0-1.218.204-2.328.61-3.328a7.556 7.556 0 0 1 1.719-2.578 8.018 8.018 0 0 1 2.61-1.656c1.007-.395 2.109-.594 3.296-.594 1.188 0 2.285.2 3.297.594a7.856 7.856 0 0 1 2.61 1.656 7.538 7.538 0 0 1 1.734 2.578c.414 1 .625 2.11.625 3.329zm-2.344 0c0-.851-.14-1.656-.422-2.406a6.102 6.102 0 0 0-1.187-1.984 5.655 5.655 0 0 0-1.86-1.36c-.73-.332-1.547-.5-2.453-.5-.898 0-1.71.168-2.437.5a5.632 5.632 0 0 0-1.844 1.36c-.5.562-.89 1.226-1.172 1.984a6.807 6.807 0 0 0-.422 2.406c0 .868.14 1.684.422 2.454a5.995 5.995 0 0 0 1.188 1.984 5.441 5.441 0 0 0 1.843 1.328c.719.324 1.524.485 2.422.485.895 0 1.707-.16 2.438-.485a5.416 5.416 0 0 0 1.875-1.328 6.062 6.062 0 0 0 1.187-1.984c.281-.77.422-1.586.422-2.454Zm0 0" />
   </defs>
   <use xlink:href="#a" x="69.147" y="554.08" fill="#838787" transform="translate(-57.965 -392.565)" />
   <use xlink:href="#b" x="96.232" y="567.08" fill="#838787" transform="translate(-57.965 -392.565)" />
   <use xlink:href="#c" x="114.692" y="554.08" fill="#838787" transform="translate(-57.965 -392.565)" />
   <use xlink:href="#d" x="132.008" y="554.08" fill="#838787" transform="translate(-57.965 -392.565)" />
   <use xlink:href="#e" x="160.92" y="554.08" fill="#838787" transform="translate(-57.965 -392.565)" />
   <use xlink:href="#f" x="182.586" y="554.08" fill="#838787" transform="translate(-57.965 -392.565)" />
   <use xlink:href="#g" x="208.586" y="554.08" fill="#838787" transform="translate(-57.965 -392.565)" />
   <use xlink:href="#h" x="240.347" y="554.08" fill="#838787" transform="translate(-57.965 -392.565)" />
   <use xlink:href="#i" x="290.411" y="585.93" fill="#838787" transform="translate(-57.965 -392.565)" />
   <use xlink:href="#j" x="314.695" y="608.225" fill="#838787" transform="translate(-57.965 -392.565)" />
   <use xlink:href="#k" x="324.959" y="608.225" fill="#838787" transform="translate(-57.965 -392.565)" />
   <use xlink:href="#l" x="350.249" y="608.225" fill="#838787" transform="translate(-57.965 -392.565)" />
   <use xlink:href="#m" x="393.958" y="554.08" fill="#838787" transform="translate(-57.965 -392.565)" />
   <use xlink:href="#c" x="409.958" y="554.08" fill="#838787" transform="translate(-57.965 -392.565)" />
   <use xlink:href="#n" x="427.274" y="554.08" fill="#838787" transform="translate(-57.965 -392.565)" />
   <use xlink:href="#e" x="441.73" y="554.08" fill="#838787" transform="translate(-57.965 -392.565)" />
   <use xlink:href="#f" x="463.396" y="554.08" fill="#838787" transform="translate(-57.965 -392.565)" />
   <use xlink:href="#g" x="489.396" y="554.08" fill="#838787" transform="translate(-57.965 -392.565)" />
   <use xlink:href="#a" x="515.396" y="554.08" fill="#838787" transform="translate(-57.965 -392.565)" />
   <use xlink:href="#o" x="542.481" y="567.08" fill="#838787" transform="translate(-57.965 -392.565)" />
   <use xlink:href="#c" x="552.745" y="554.08" fill="#838787" transform="translate(-57.965 -392.565)" />
   <use xlink:href="#d" x="570.061" y="554.08" fill="#838787" transform="translate(-57.965 -392.565)" />
   <use xlink:href="#e" x="598.973" y="554.08" fill="#838787" transform="translate(-57.965 -392.565)" />
   <use xlink:href="#n" x="620.64" y="554.08" fill="#838787" transform="translate(-57.965 -392.565)" />
   <use xlink:href="#g" x="635.096" y="554.08" fill="#838787" transform="translate(-57.965 -392.565)" />
   <use xlink:href="#c" x="661.096" y="554.08" fill="#838787" transform="translate(-57.965 -392.565)" />
   <use xlink:href="#p" x="678.412" y="554.08" fill="#838787" transform="translate(-57.965 -392.565)" />
   <use xlink:href="#q" x="718.879" y="554.08" fill="#838787" transform="translate(-57.965 -392.565)" />
   <use xlink:href="#n" x="745.307" y="554.08" fill="#838787" transform="translate(-57.965 -392.565)" />
   <use xlink:href="#g" x="759.763" y="554.08" fill="#838787" transform="translate(-57.965 -392.565)" />
   <use xlink:href="#r" x="791.535" y="554.08" fill="#838787" transform="translate(-57.965 -392.565)" />
   <use xlink:href="#n" x="817.223" y="554.08" fill="#838787" transform="translate(-57.965 -392.565)" />
   <use xlink:href="#s" x="624.605" y="458.806" fill="#a01d76" transform="translate(-57.965 -392.565)" />
   <g fill="#a01d76" transform="translate(-57.965 -392.565)">
      <use xlink:href="#t" x="639.917" y="458.806" />
      <use xlink:href="#u" x="653.337" y="458.806" />
      <use xlink:href="#v" x="663.105" y="458.806" />
      <use xlink:href="#w" x="668.803" y="458.806" />
      <use xlink:href="#x" x="681.607" y="458.806" />
      <use xlink:href="#y" x="694.213" y="458.806" />
      <use xlink:href="#z" x="699.713" y="458.806" />
      <use xlink:href="#t" x="710.581" y="458.806" />
      <use xlink:href="#A" x="724.001" y="458.806" />
      <use xlink:href="#A" x="731.965" y="458.806" />
   </g>
   <g fill="#a01d76" transform="translate(-57.965 -392.565)">
      <use xlink:href="#x" x="739.533" y="458.806" />
      <use xlink:href="#z" x="752.139" y="458.806" />
      <use xlink:href="#B" x="763.007" y="458.806" />
      <use xlink:href="#v" x="770.245" y="458.806" />
      <use xlink:href="#t" x="775.943" y="458.806" />
      <use xlink:href="#w" x="789.363" y="458.806" />
      <use xlink:href="#y" x="802.167" y="458.806" />
      <use xlink:href="#B" x="807.667" y="458.806" />
      <use xlink:href="#x" x="814.905" y="458.806" />
      <use xlink:href="#A" x="827.511" y="458.806" />
      <use xlink:href="#C" x="835.475" y="458.806" />
      <use xlink:href="#y" x="854.989" y="458.806" />
   </g>
   <g fill="#4c8945" transform="translate(-57.965 -392.565)">
      <use xlink:href="#D" x="497.895" y="411.233" />
      <use xlink:href="#w" x="503.857" y="411.233" />
      <use xlink:href="#z" x="516.661" y="411.233" />
      <use xlink:href="#t" x="527.529" y="411.233" />
      <use xlink:href="#C" x="540.949" y="411.233" />
      <use xlink:href="#v" x="560.463" y="411.233" />
      <use xlink:href="#w" x="566.161" y="411.233" />
      <use xlink:href="#E" x="578.965" y="411.233" />
      <use xlink:href="#y" x="592.869" y="411.233" />
      <use xlink:href="#A" x="598.369" y="411.233" />
   </g>
   <g fill="#4c8945" transform="translate(-57.965 -392.565)">
      <use xlink:href="#F" x="606.047" y="411.233" />
      <use xlink:href="#G" x="617.971" y="411.233" />
      <use xlink:href="#v" x="631.941" y="411.233" />
      <use xlink:href="#F" x="637.639" y="411.233" />
      <use xlink:href="#w" x="649.563" y="411.233" />
      <use xlink:href="#z" x="662.367" y="411.233" />
      <use xlink:href="#x" x="673.235" y="411.233" />
   </g>
   <g fill="#f96928" transform="translate(-57.965 -392.565)">
      <use xlink:href="#H" x="417.204" y="458.806" />
      <use xlink:href="#I" x="431.328" y="458.806" />
      <use xlink:href="#J" x="444.836" y="458.806" />
      <use xlink:href="#K" x="461.578" y="458.806" />
      <use xlink:href="#y" x="474.074" y="458.806" />
   </g>
   <g fill="#2489bf" transform="translate(-57.965 -392.565)">
      <use xlink:href="#L" x="60.383" y="409.19" />
      <use xlink:href="#M" x="79.061" y="409.19" />
      <use xlink:href="#B" x="91.865" y="409.19" />
      <use xlink:href="#E" x="99.103" y="409.19" />
      <use xlink:href="#t" x="113.007" y="409.19" />
      <use xlink:href="#v" x="126.427" y="409.19" />
      <use xlink:href="#w" x="132.125" y="409.19" />
      <use xlink:href="#E" x="144.929" y="409.19" />
      <use xlink:href="#y" x="158.833" y="409.19" />
      <use xlink:href="#A" x="164.333" y="409.19" />
   </g>
   <g fill="#2489bf" transform="translate(-57.965 -392.565)">
      <use xlink:href="#F" x="172.011" y="409.19" />
      <use xlink:href="#G" x="183.935" y="409.19" />
      <use xlink:href="#v" x="197.905" y="409.19" />
      <use xlink:href="#F" x="203.603" y="409.19" />
      <use xlink:href="#w" x="215.527" y="409.19" />
      <use xlink:href="#z" x="228.331" y="409.19" />
      <use xlink:href="#x" x="239.199" y="409.19" />
   </g>
   <path fill="none" stroke="#2489bf" stroke-width="2" d="M1 103.01h177.86v100H1Zm0 0" />
   <path fill="none" stroke="#f96928" stroke-width="2" d="M318.566 92.154h132.836v100H318.566Zm0 0" />
   <path fill="none" stroke="#4c8945" stroke-width="2" d="M454.148 92.154H597.57v100H454.148Zm0 0" />
   <path fill="none" stroke="#a01d76" stroke-width="2" d="M600.32 92.154h121.09v100H600.32Zm0 0" />
</svg>
