<svg xmlns="http://www.w3.org/2000/svg" xmlns:xlink="http://www.w3.org/1999/xlink" width="800"
  viewBox="0 0 933.229 87.438">
  <defs>
    <path id="t"
      d="m13.047-14.672.328 4.875h-.328c-.438-1.457-1.063-2.508-1.875-3.156-.813-.645-1.79-.969-2.922-.969-.95 0-1.809.246-2.578.735-.774.48-1.375 1.25-1.813 2.312-.437 1.055-.656 2.367-.656 3.938 0 1.304.203 2.433.61 3.39.414.95 1.039 1.68 1.874 2.188.844.5 1.801.75 2.875.75.926 0 1.743-.196 2.454-.594.718-.395 1.504-1.188 2.359-2.375l.328.219c-.719 1.273-1.558 2.203-2.515 2.796-.961.594-2.102.891-3.422.891C5.39.328 3.55-.55 2.25-2.312 1.27-3.625.781-5.172.781-6.954c0-1.426.317-2.738.953-3.938.645-1.207 1.532-2.14 2.657-2.796a7.182 7.182 0 0 1 3.687-.985c1.04 0 2.067.25 3.078.75.29.156.5.235.625.235a.68.68 0 0 0 .5-.204c.188-.187.317-.445.39-.78zm0 0" />
    <path id="u"
      d="M4.016-15.047v12.86c0 .605.039 1.007.125 1.203a.98.98 0 0 0 .406.453c.187.105.531.156 1.031.156V0H.828v-.375c.438 0 .738-.047.906-.14A.878.878 0 0 0 2.11-.97c.094-.219.141-.625.141-1.219V-11c0-1.094-.027-1.766-.078-2.016-.043-.25-.121-.414-.235-.5a.59.59 0 0 0-.406-.14c-.187 0-.422.058-.703.172l-.187-.375 2.89-1.188zm0 0" />
    <path id="v"
      d="M3.14-15.047c.301 0 .555.106.766.313.207.21.313.46.313.75 0 .304-.106.558-.313.765-.21.211-.465.313-.765.313-.293 0-.547-.102-.766-.313a1.025 1.025 0 0 1-.313-.765c0-.29.102-.54.313-.75a1.04 1.04 0 0 1 .766-.313zm.876 5.063v7.796c0 .606.039 1.012.125 1.22.093.198.222.35.39.452.176.094.492.141.953.141V0H.781v-.375c.469 0 .785-.047.953-.14a.941.941 0 0 0 .391-.454c.094-.219.14-.625.14-1.219v-3.734c0-1.05-.03-1.734-.093-2.047-.055-.226-.133-.383-.235-.468-.105-.094-.25-.141-.437-.141-.2 0-.438.058-.719.172l-.14-.39 2.921-1.188Zm0 0" />
    <path id="w"
      d="M-.016-8.734 2.97-9.938h.39v2.266c.5-.851 1-1.453 1.5-1.797.508-.344 1.047-.515 1.61-.515.968 0 1.781.382 2.437 1.14.79.938 1.188 2.153 1.188 3.64 0 1.68-.48 3.063-1.438 4.157C7.863-.148 6.867.297 5.672.297c-.524 0-.977-.074-1.36-.219-.28-.101-.601-.316-.953-.64V2.39c0 .664.04 1.086.125 1.265a.918.918 0 0 0 .422.422c.207.113.57.172 1.094.172v.39H-.078v-.39h.266c.382 0 .718-.078 1-.234A.74.74 0 0 0 1.5 3.64c.07-.168.11-.606.11-1.313v-9.172c0-.625-.032-1.02-.094-1.187a.705.705 0 0 0-.266-.375c-.125-.094-.293-.14-.5-.14-.168 0-.383.054-.64.155zM3.36-7.047v3.625c0 .781.032 1.293.094 1.531.102.418.348.782.735 1.094.382.305.867.453 1.453.453.707 0 1.28-.27 1.718-.812.57-.727.86-1.742.86-3.047 0-1.477-.328-2.617-.985-3.422-.449-.54-.984-.813-1.609-.813a2.24 2.24 0 0 0-1 .25c-.25.126-.672.508-1.266 1.141zm0 0" />
    <path id="x"
      d="M3.5-7.922c1.133-1.375 2.219-2.062 3.25-2.062.531 0 .984.136 1.36.406.382.262.69.695.921 1.297.156.43.235 1.078.235 1.953v4.14c0 .618.046 1.032.14 1.25.082.18.207.32.375.422.176.094.492.141.953.141V0h-4.78v-.375h.187c.457 0 .773-.066.953-.203.176-.145.3-.352.375-.625.031-.102.047-.43.047-.984v-3.97c0-.882-.118-1.523-.344-1.921-.23-.395-.617-.594-1.156-.594-.844 0-1.684.461-2.516 1.375v5.11c0 .656.04 1.062.125 1.218.094.2.223.352.39.453.176.094.532.141 1.063.141V0H.281v-.375H.5c.488 0 .816-.125.984-.375.176-.25.266-.727.266-1.438V-5.78c0-1.164-.027-1.875-.078-2.125-.055-.258-.137-.438-.25-.532A.612.612 0 0 0 1-8.578c-.2 0-.438.058-.719.172l-.156-.39 2.922-1.188H3.5Zm0 0" />
    <path id="y"
      d="M3.266-3.531c-.594-.29-1.055-.696-1.375-1.219a3.275 3.275 0 0 1-.47-1.719c0-.957.36-1.781 1.079-2.468.727-.696 1.66-1.047 2.797-1.047.914 0 1.71.23 2.39.687H9.75c.3 0 .473.012.516.031.05.012.086.04.109.079.04.062.063.18.063.343 0 .18-.016.305-.047.375a.2.2 0 0 1-.11.094c-.054.023-.23.031-.531.031H8.484c.395.5.594 1.149.594 1.938 0 .906-.351 1.683-1.047 2.328-.687.637-1.61.953-2.765.953a5.7 5.7 0 0 1-1.485-.203c-.304.262-.511.496-.625.703-.105.2-.156.371-.156.516 0 .117.055.23.172.343.113.118.344.196.687.235.188.031.676.058 1.47.078 1.456.043 2.398.094 2.827.156.656.094 1.176.34 1.563.734.394.387.594.868.594 1.454 0 .789-.372 1.535-1.11 2.234C8.098 4.156 6.66 4.672 4.891 4.672c-1.368 0-2.516-.309-3.454-.922-.53-.344-.796-.71-.796-1.094 0-.168.039-.34.125-.515.113-.262.359-.621.734-1.079.05-.062.41-.445 1.078-1.14-.367-.219-.625-.414-.781-.594a.895.895 0 0 1-.219-.594c0-.238.098-.523.297-.859.207-.332.672-.8 1.39-1.406zM5.109-9.47c-.523 0-.96.211-1.312.625-.356.418-.531 1.055-.531 1.906 0 1.118.238 1.981.718 2.594.375.469.844.703 1.407.703.53 0 .968-.195 1.312-.593.352-.407.531-1.04.531-1.907 0-1.113-.246-1.988-.734-2.625-.367-.468-.828-.703-1.39-.703ZM3.156 0a6.205 6.205 0 0 0-.75 1c-.168.313-.25.598-.25.86 0 .343.203.64.61.89.707.438 1.726.656 3.062.656 1.27 0 2.207-.226 2.813-.672.601-.449.906-.93.906-1.437C9.547.93 9.363.672 9 .516 8.633.359 7.91.27 6.828.25 5.234.207 4.008.125 3.156 0Zm0 0" />
    <path id="z"
      d="M15.39-14.344v.39c-.511.095-.898.259-1.156.485-.375.344-.71.871-1 1.578l-5 12.22h-.39L2.469-12.048c-.281-.633-.477-1.02-.578-1.156a1.926 1.926 0 0 0-.657-.516c-.261-.125-.609-.203-1.046-.234v-.39h5.859v.39c-.656.062-1.086.18-1.281.344a.737.737 0 0 0-.297.609c0 .355.16.906.484 1.656L8.61-2.938l3.375-8.296c.332-.82.5-1.391.5-1.704 0-.207-.105-.406-.312-.593-.2-.188-.543-.317-1.031-.39a1.855 1.855 0 0 0-.172-.032v-.39zm0 0" />
    <path id="A"
      d="M2.313-6.047c-.012 1.438.335 2.57 1.046 3.39.696.825 1.524 1.235 2.485 1.235.633 0 1.187-.172 1.656-.516.469-.351.86-.957 1.172-1.812L9-3.531c-.148.969-.578 1.851-1.297 2.64C6.993-.098 6.102.297 5.031.297c-1.156 0-2.152-.453-2.984-1.36C1.21-1.969.797-3.188.797-4.719c0-1.656.426-2.945 1.281-3.875C2.93-9.52 4-9.984 5.281-9.984c1.082 0 1.973.359 2.672 1.078C8.648-8.196 9-7.242 9-6.046Zm0-.61h4.484c-.043-.624-.117-1.062-.219-1.312a2.066 2.066 0 0 0-.797-.922 1.965 1.965 0 0 0-1.093-.343c-.586 0-1.11.23-1.579.687-.46.45-.726 1.078-.796 1.89Zm0 0" />
    <path id="B"
      d="M3.516-9.984v2.187c.812-1.457 1.644-2.187 2.5-2.187.382 0 .703.12.953.359.258.242.39.516.39.828a.98.98 0 0 1-.28.703.9.9 0 0 1-.657.281c-.25 0-.531-.117-.844-.359-.305-.25-.527-.375-.672-.375-.125 0-.261.07-.406.203-.324.293-.652.774-.984 1.438v4.64c0 .543.066.95.203 1.22.094.187.254.35.484.484.227.125.563.187 1 .187V0H.25v-.375c.488 0 .852-.078 1.094-.234.176-.114.3-.297.375-.547.031-.114.047-.457.047-1.032v-3.75c0-1.125-.028-1.796-.079-2.015-.042-.219-.125-.375-.25-.469a.665.665 0 0 0-.453-.156c-.218 0-.464.058-.734.172l-.11-.39 2.922-1.188Zm0 0" />
    <path id="C"
      d="M3.484-12.875v3.188H5.75v.734H3.484v6.281c0 .637.086 1.063.266 1.281a.888.888 0 0 0 .703.329c.227 0 .453-.07.672-.22.219-.144.39-.359.516-.64h.406C5.805-1.234 5.457-.71 5-.359c-.45.343-.914.515-1.39.515-.325 0-.641-.09-.954-.265a1.565 1.565 0 0 1-.687-.766c-.149-.344-.219-.863-.219-1.563v-6.515H.219v-.344c.383-.156.781-.414 1.187-.781a6.164 6.164 0 0 0 1.078-1.328c.164-.27.391-.758.672-1.469Zm0 0" />
    <path id="D"
      d="M.281-9.688h4.563v.391c-.293 0-.496.055-.61.156a.453.453 0 0 0-.171.375c0 .168.125.43.375.782.07.117.187.293.343.53l.688 1.11.797-1.11c.507-.694.765-1.132.765-1.312a.445.445 0 0 0-.187-.375c-.117-.101-.309-.156-.578-.156v-.39h3.28v.39a1.907 1.907 0 0 0-.905.281c-.344.243-.813.762-1.407 1.563L5.906-5.687 8.313-2.22c.593.856 1.015 1.371 1.265 1.547.258.18.594.277 1 .297V0H6v-.375c.313 0 .555-.07.734-.219a.453.453 0 0 0 .204-.39c0-.164-.227-.579-.672-1.235L4.844-4.28 3.297-2.22c-.48.649-.719 1.031-.719 1.156 0 .168.078.32.235.454.156.136.394.214.718.234V0H.36v-.375c.25-.04.473-.129.672-.266.258-.207.707-.734 1.344-1.578l2.031-2.687-1.828-2.672C2.047-8.336 1.641-8.812 1.36-9c-.28-.195-.64-.297-1.078-.297Zm0 0" />
    <path id="E"
      d="M9.938-14.672v4.953h-.391c-.125-.945-.356-1.703-.688-2.265-.324-.563-.793-1.008-1.406-1.344a3.854 3.854 0 0 0-1.875-.5c-.742 0-1.351.226-1.828.672-.48.449-.719.96-.719 1.531 0 .438.149.836.453 1.188.438.53 1.477 1.242 3.125 2.124 1.344.72 2.258 1.274 2.75 1.657.489.386.864.84 1.125 1.36.27.523.407 1.07.407 1.64 0 1.086-.422 2.023-1.266 2.812-.844.781-1.93 1.172-3.25 1.172-.418 0-.809-.031-1.172-.094-.219-.03-.68-.156-1.375-.375-.687-.226-1.121-.343-1.297-.343-.18 0-.32.054-.422.156-.105.105-.18.324-.218.656h-.407v-4.922h.407c.175 1.032.421 1.805.734 2.313.313.511.785.937 1.422 1.281.633.336 1.332.5 2.094.5.882 0 1.582-.227 2.093-.688C8.742-1.655 9-2.207 9-2.843a2.2 2.2 0 0 0-.297-1.062c-.187-.364-.484-.703-.89-1.016-.282-.207-1.04-.656-2.266-1.344-1.219-.687-2.09-1.234-2.61-1.64-.523-.414-.917-.867-1.187-1.36a3.482 3.482 0 0 1-.39-1.64c0-1.02.39-1.899 1.171-2.64.79-.75 1.801-1.126 3.031-1.126.758 0 1.567.188 2.422.563.395.168.672.25.829.25.187 0 .335-.051.453-.157.113-.113.207-.332.28-.656zm0 0" />
    <path id="F"
      d="M3.531-15.047v7.094c.781-.863 1.399-1.414 1.86-1.656.457-.25.914-.375 1.375-.375.55 0 1.02.156 1.406.468.394.305.691.778.89 1.422.133.45.204 1.274.204 2.469v3.438c0 .617.046 1.03.14 1.25.07.18.192.32.36.421.164.094.476.141.937.141V0H5.938v-.375h.218c.457 0 .77-.066.938-.203.176-.145.3-.352.375-.625.02-.102.031-.43.031-.984v-3.438c0-1.05-.059-1.742-.172-2.078-.105-.332-.277-.582-.516-.75a1.495 1.495 0 0 0-.859-.25c-.355 0-.719.094-1.094.281-.367.188-.808.559-1.328 1.11v5.125c0 .656.035 1.07.11 1.234.07.168.207.308.406.422.195.105.547.156 1.047.156V0H.28v-.375c.438 0 .774-.066 1.016-.203.144-.07.258-.207.344-.406.082-.196.125-.598.125-1.204v-8.78c0-1.102-.028-1.782-.079-2.032-.054-.258-.136-.43-.25-.516-.105-.093-.25-.14-.437-.14-.148 0-.387.058-.719.172l-.14-.375 2.89-1.188zm0 0" />
    <path id="G"
      d="M6.172-1.39c-1 .761-1.625 1.202-1.875 1.327a2.914 2.914 0 0 1-1.219.266c-.668 0-1.219-.226-1.656-.687C.984-.941.766-1.547.766-2.297c0-.469.109-.879.328-1.234.289-.477.789-.926 1.5-1.344.719-.426 1.91-.941 3.578-1.547v-.375c0-.969-.156-1.629-.469-1.984-.305-.364-.746-.547-1.328-.547-.45 0-.805.121-1.063.36-.273.241-.406.515-.406.827l.031.61c0 .324-.085.574-.25.75-.167.18-.386.265-.656.265a.826.826 0 0 1-.64-.265c-.168-.188-.25-.442-.25-.766 0-.601.304-1.16.921-1.672.626-.508 1.5-.765 2.626-.765.863 0 1.566.148 2.109.437.414.219.723.563.922 1.031.133.305.203.922.203 1.86v3.297c0 .918.016 1.48.047 1.687.031.211.086.352.172.422.082.074.175.11.28.11.114 0 .212-.024.298-.079.144-.093.43-.347.86-.765v.593C8.784-.336 8.03.188 7.311.188c-.343 0-.62-.122-.828-.36-.199-.238-.304-.644-.312-1.219Zm0-.688v-3.703c-1.063.43-1.75.73-2.063.906-.562.313-.964.64-1.203.984-.242.336-.36.7-.36 1.094 0 .512.15.934.454 1.266.3.336.648.5 1.047.5.539 0 1.25-.348 2.125-1.047zm0 0" />
    <path id="H"
      d="M7.531-1.094c-.48.5-.949.86-1.406 1.078a3.43 3.43 0 0 1-1.453.313c-1.055 0-1.977-.442-2.766-1.328C1.113-1.914.72-3.051.72-4.438c0-1.394.437-2.664 1.312-3.812.875-1.156 2-1.734 3.375-1.734.852 0 1.563.273 2.125.812v-1.797c0-1.101-.031-1.781-.093-2.031-.055-.258-.137-.43-.25-.516a.612.612 0 0 0-.422-.14c-.18 0-.418.058-.72.172l-.14-.375 2.89-1.188h.47v11.203c0 1.137.023 1.828.078 2.078.05.25.133.43.25.532.125.093.265.14.422.14.187 0 .437-.054.75-.172l.125.36L8.016.297H7.53Zm0-.734v-5a3.745 3.745 0 0 0-.39-1.313 2.165 2.165 0 0 0-.844-.89c-.344-.196-.684-.297-1.016-.297-.625 0-1.18.277-1.656.828-.648.742-.969 1.813-.969 3.219 0 1.43.305 2.523.922 3.281.625.75 1.317 1.125 2.078 1.125.645 0 1.27-.316 1.875-.953zm0 0" />
    <path id="I"
      d="M8.906-3.688c-.261 1.282-.773 2.266-1.531 2.954C6.613-.047 5.77.296 4.844.296 3.75.297 2.789-.16 1.969-1.077 1.145-2.004.734-3.258.734-4.844c0-1.52.454-2.754 1.36-3.703C3-9.504 4.086-9.984 5.359-9.984c.957 0 1.743.257 2.36.765.613.5.922 1.024.922 1.563 0 .273-.09.492-.266.656-.18.168-.418.25-.719.25-.418 0-.734-.133-.953-.406-.117-.145-.195-.426-.234-.844-.043-.414-.184-.734-.422-.953-.25-.207-.594-.313-1.031-.313-.711 0-1.278.262-1.704.782-.574.687-.859 1.601-.859 2.734 0 1.156.281 2.18.844 3.063.57.886 1.344 1.328 2.312 1.328.688 0 1.305-.235 1.86-.704.383-.32.765-.91 1.14-1.765zm0 0" />
    <path id="J"
      d="M8.875 0 3.328-12.078v9.594c0 .886.094 1.433.281 1.64.258.305.672.453 1.235.453h.515V0h-5v-.39h.516c.602 0 1.031-.18 1.281-.547.156-.227.235-.743.235-1.547v-9.375c0-.633-.07-1.094-.204-1.375-.105-.207-.292-.38-.562-.516-.262-.133-.684-.203-1.266-.203v-.39h4.063L9.625-3.126l5.125-11.219h4.063v.39h-.5c-.618 0-1.047.184-1.297.548-.157.23-.235.746-.235 1.547v9.375c0 .886.098 1.433.297 1.64.258.305.672.453 1.235.453h.5V0h-6.094v-.39h.515c.602 0 1.032-.18 1.282-.547.156-.227.234-.743.234-1.547v-9.594L9.219 0Zm0 0" />
    <path id="K"
      d="M9.172-9.688v5.876c0 1.117.023 1.796.078 2.046.05.25.133.43.25.532.125.093.266.14.422.14.219 0 .46-.054.734-.172l.14.36L7.907.297h-.484V-1.75c-.824.898-1.453 1.465-1.89 1.703A2.99 2.99 0 0 1 4.14.297a2.263 2.263 0 0 1-1.422-.469 2.416 2.416 0 0 1-.828-1.203c-.157-.5-.235-1.203-.235-2.11v-4.328c0-.457-.054-.773-.156-.953a.943.943 0 0 0-.438-.406C.875-9.266.523-9.305.016-9.297v-.39h3.406v6.484c0 .898.156 1.492.469 1.781.312.281.691.422 1.14.422.301 0 .645-.094 1.032-.281.382-.196.835-.563 1.359-1.094v-5.5c0-.55-.102-.922-.297-1.11-.2-.195-.617-.3-1.25-.312v-.39Zm0 0" />
    <path id="M"
      d="M11.063-9.234H15.5v.39c-.617.055-1.07.188-1.36.406-.292.22-.75.891-1.374 2.016a21.32 21.32 0 0 1-2.094 3.14c.633.731 1.195 1.247 1.687 1.548.489.293.989.437 1.5.437.477 0 .883-.129 1.22-.39.343-.27.585-.665.733-1.188l.391.297c-.262.992-.683 1.726-1.265 2.203-.575.469-1.247.703-2.016.703-.586 0-1.172-.156-1.766-.469-.594-.312-1.246-.843-1.953-1.593-.875.773-1.668 1.308-2.375 1.609a5.6 5.6 0 0 1-2.234.453C3.426.328 2.5.02 1.812-.594 1.132-1.219.798-1.96.798-2.828c0-.852.305-1.703.922-2.547.613-.852 1.765-1.734 3.453-2.64-.336-.739-.563-1.344-.688-1.813a5.513 5.513 0 0 1-.171-1.344c0-1.207.445-2.129 1.343-2.765.688-.489 1.473-.735 2.36-.735.832 0 1.515.25 2.046.75.532.492.797 1.102.797 1.828a2.85 2.85 0 0 1-.765 1.969c-.512.563-1.418 1.18-2.719 1.844a42.454 42.454 0 0 0 2.813 4.39c1.238-1.476 1.859-2.726 1.859-3.75 0-.32-.11-.613-.328-.875-.156-.187-.375-.296-.656-.328zm-4.047.265c.875-.414 1.523-.883 1.953-1.406.437-.531.656-1.117.656-1.766 0-.507-.156-.93-.469-1.265a1.544 1.544 0 0 0-1.172-.5c-.617 0-1.078.215-1.39.64-.313.43-.469.844-.469 1.25 0 .356.055.746.172 1.172.125.418.363 1.043.719 1.875zm1.64 6.625c-.93-1.27-1.574-2.195-1.937-2.781-.356-.594-.75-1.32-1.188-2.188-.843.493-1.48 1.028-1.906 1.61a3.148 3.148 0 0 0-.64 1.906c0 .75.238 1.414.718 1.985.488.574 1.149.859 1.985.859.437 0 .863-.086 1.28-.266.415-.176.977-.55 1.688-1.125zm0 0" />
    <path id="N"
      d="m12.547-14.344.156 3.36h-.406c-.074-.594-.18-1.016-.313-1.266-.218-.414-.511-.719-.875-.906-.367-.196-.843-.297-1.437-.297H7.656v10.969c0 .886.094 1.433.282 1.64.269.305.68.453 1.234.453h.5V0H3.594v-.39h.5c.601 0 1.035-.18 1.297-.547.156-.227.234-.743.234-1.547v-10.97H3.891c-.668 0-1.141.056-1.422.157-.367.137-.684.399-.953.781-.262.375-.414.887-.454 1.532H.656l.172-3.36zm0 0" />
    <path id="O"
      d="M.188-9.688h4.546v.391h-.296c-.274 0-.481.07-.625.203-.149.125-.22.305-.22.531 0 .25.071.543.22.876l2.265 5.359 2.266-5.563c.156-.382.234-.68.234-.89a.39.39 0 0 0-.078-.25.592.592 0 0 0-.313-.203c-.117-.04-.355-.063-.718-.063v-.39h3.172v.39c-.375.024-.633.094-.766.219-.25.21-.477.562-.672 1.062L5.766.297h-.438L1.875-7.891c-.156-.375-.309-.644-.453-.812a1.763 1.763 0 0 0-.531-.422c-.125-.063-.36-.117-.704-.172Zm0 0" />
    <path id="P"
      d="M6.938-9.984v3.312h-.344c-.274-1.039-.617-1.75-1.032-2.125-.417-.375-.953-.562-1.609-.562-.492 0-.887.132-1.187.39-.305.262-.454.555-.454.875 0 .399.11.735.329 1.016.218.293.664.601 1.343.922l1.547.75c1.426.699 2.14 1.62 2.14 2.765 0 .875-.335 1.586-1 2.125-.667.54-1.413.813-2.234.813-.593 0-1.273-.106-2.03-.313-.243-.07-.434-.109-.579-.109-.156 0-.281.09-.375.266h-.36v-3.454h.36c.195.993.57 1.735 1.125 2.235.563.5 1.188.75 1.875.75.488 0 .883-.14 1.188-.422.312-.29.468-.633.468-1.031 0-.489-.171-.899-.515-1.235-.344-.332-1.028-.75-2.047-1.25-1.024-.507-1.695-.972-2.016-1.39-.312-.395-.468-.899-.468-1.516 0-.8.269-1.469.812-2 .55-.539 1.258-.812 2.125-.812.383 0 .848.086 1.39.25.352.105.594.156.72.156a.47.47 0 0 0 .265-.063c.063-.05.133-.164.219-.343zm0 0" />
    <path id="Q"
      d="M4.438-6.719v4.172c0 .906.097 1.469.296 1.688.27.312.676.468 1.22.468h.562V0H.359v-.39h.547c.602 0 1.035-.196 1.297-.594.133-.22.203-.739.203-1.563v-9.265c0-.895-.094-1.454-.281-1.672-.273-.313-.68-.47-1.219-.47H.36v-.39h5.266c1.281 0 2.29.133 3.031.39.739.263 1.364.712 1.875 1.345.508.625.766 1.37.766 2.234 0 1.168-.39 2.121-1.172 2.86-.773.73-1.86 1.093-3.266 1.093-.343 0-.718-.023-1.125-.078-.406-.05-.84-.125-1.296-.219Zm0-.61c.375.075.707.134 1 .173.289.031.539.047.75.047.726 0 1.359-.282 1.89-.844.531-.57.797-1.313.797-2.219 0-.613-.133-1.187-.39-1.719-.25-.539-.61-.941-1.079-1.203a3.172 3.172 0 0 0-1.578-.39c-.355 0-.82.062-1.39.187zm0 0" />
    <path id="R" d="M.875-5.656h5.469v1.593H.875Zm0 0" />
    <path id="S"
      d="M5.422-9.984c1.469 0 2.644.558 3.531 1.671a5.19 5.19 0 0 1 1.125 3.282c0 .875-.21 1.758-.625 2.64-.406.887-.98 1.559-1.719 2.016a4.594 4.594 0 0 1-2.437.672c-1.461 0-2.621-.582-3.484-1.75A5.43 5.43 0 0 1 .734-4.75c0-.883.22-1.766.657-2.64.437-.883 1.015-1.536 1.734-1.954a4.477 4.477 0 0 1 2.297-.64Zm-.328.687c-.375 0-.758.117-1.14.344-.376.219-.68.61-.907 1.172-.23.554-.344 1.265-.344 2.14 0 1.407.274 2.625.828 3.657.563 1.023 1.301 1.53 2.219 1.53.688 0 1.25-.28 1.688-.843.445-.562.671-1.535.671-2.922 0-1.718-.37-3.07-1.109-4.062-.5-.676-1.137-1.016-1.906-1.016Zm0 0" />
    <path id="T"
      d="m13.297-14.672.375 4.531h-.375c-.375-1.132-.856-1.988-1.438-2.562-.855-.82-1.953-1.235-3.296-1.235-1.836 0-3.227.727-4.172 2.172-.793 1.22-1.188 2.672-1.188 4.36 0 1.367.258 2.617.781 3.75.532 1.125 1.223 1.953 2.079 2.484.863.524 1.742.781 2.64.781a5.68 5.68 0 0 0 1.531-.203 6.04 6.04 0 0 0 1.438-.594v-4.14c0-.719-.059-1.188-.172-1.406a1.085 1.085 0 0 0-.5-.516c-.23-.113-.637-.172-1.219-.172v-.406h5.563v.406h-.266c-.555 0-.93.184-1.125.547-.148.262-.219.777-.219 1.547v4.39c-.812.438-1.617.758-2.406.954a10.38 10.38 0 0 1-2.625.312c-2.773 0-4.883-.89-6.328-2.672C1.301-3.676.765-5.21.765-6.954c0-1.257.301-2.468.907-3.624.719-1.375 1.707-2.43 2.969-3.172 1.05-.613 2.289-.922 3.718-.922.52 0 .993.043 1.422.125.426.086 1.031.274 1.813.563.394.148.66.218.797.218.132 0 .25-.062.343-.187.094-.125.149-.363.172-.719zm0 0" />
    <path id="U"
      d="M3.563-7.922c.695-.695 1.109-1.098 1.234-1.203.32-.27.664-.477 1.031-.625a2.743 2.743 0 0 1 1.094-.234c.601 0 1.125.18 1.562.53.438.356.727.868.875 1.532.727-.844 1.344-1.394 1.844-1.656.5-.27 1.016-.406 1.547-.406.52 0 .977.136 1.375.406.395.262.707.695.938 1.297.156.406.234 1.047.234 1.922v4.171c0 .606.047 1.024.14 1.25.07.157.204.293.391.407.188.105.5.156.938.156V0h-4.782v-.375h.204c.406 0 .726-.082.968-.25.156-.113.27-.29.344-.531.031-.125.047-.469.047-1.032v-4.171c0-.79-.094-1.348-.281-1.672-.282-.446-.727-.672-1.329-.672-.375 0-.75.094-1.125.281-.375.188-.835.531-1.375 1.031l-.015.125.015.454v4.625c0 .656.036 1.07.11 1.234.07.168.21.308.422.422.207.105.554.156 1.047.156V0H6.109v-.375c.54 0 .91-.063 1.11-.188a1 1 0 0 0 .422-.578c.03-.125.046-.472.046-1.046V-6.36c0-.79-.117-1.36-.343-1.704a1.503 1.503 0 0 0-1.297-.671c-.387 0-.766.101-1.14.296-.587.313-1.032.665-1.345 1.047v5.204c0 .636.04 1.046.126 1.234.082.187.21.336.39.437.176.094.524.141 1.047.141V0H.344v-.375c.437 0 .742-.047.922-.14a.984.984 0 0 0 .406-.47c.094-.206.14-.609.14-1.203V-5.89c0-1.062-.03-1.75-.093-2.062-.055-.238-.133-.399-.235-.484-.105-.094-.25-.141-.437-.141-.2 0-.434.058-.703.172l-.156-.39 2.906-1.188h.469Zm0 0" />
    <path id="V"
      d="M.125-9.688h4.516v.391h-.22c-.312 0-.554.07-.718.203a.656.656 0 0 0-.234.516c0 .273.113.652.344 1.14l2.374 4.891 2.157-5.36c.125-.288.187-.577.187-.859 0-.125-.027-.218-.078-.28a.551.551 0 0 0-.265-.173c-.118-.05-.325-.078-.626-.078v-.39h3.141v.39c-.262.024-.465.078-.61.172-.136.086-.288.242-.452.469-.063.094-.184.367-.36.812L5.328 1.828c-.375.938-.875 1.645-1.5 2.125-.617.477-1.21.719-1.781.719-.418 0-.762-.121-1.031-.36-.262-.242-.391-.515-.391-.828 0-.293.094-.527.281-.703.196-.18.469-.265.813-.265.226 0 .547.07.953.218.281.114.457.172.531.172.207 0 .438-.11.688-.328.25-.219.5-.648.75-1.281l.687-1.672L1.86-7.688c-.117-.218-.289-.492-.515-.828-.18-.238-.324-.398-.438-.484-.156-.113-.418-.21-.781-.297Zm0 0" />
    <clipPath id="a">
      <path d="M279 190.844h7V194h-7zm0 0" />
    </clipPath>
    <clipPath id="b">
      <path d="M290 190.844h84V194h-84zm0 0" />
    </clipPath>
    <clipPath id="c">
      <path d="M374 190.844h7V197h-7zm0 0" />
    </clipPath>
    <clipPath id="d">
      <path d="M374 272h7v6.285h-7zm0 0" />
    </clipPath>
    <clipPath id="e">
      <path d="M286 275h85v3.285h-85zm0 0" />
    </clipPath>
    <clipPath id="f">
      <path d="M279 272h7v6.285h-7zm0 0" />
    </clipPath>
    <clipPath id="g">
      <path d="M279 190.844h4V197h-4zm0 0" />
    </clipPath>
    <clipPath id="h">
      <path d="M399 190.844h101v87.441H399Zm0 0" />
    </clipPath>
    <clipPath id="i">
      <path d="M43.668 190.844H145v87.441H43.668Zm0 0" />
    </clipPath>
    <clipPath id="j">
      <path d="M876 190.844h100.898v87.441H876Zm0 0" />
    </clipPath>
    <clipPath id="k">
      <path d="M637 190.844h102v87.441H637Zm0 0" />
    </clipPath>
    <clipPath id="l">
      <path d="M518 190.844h102v87.441H518Zm0 0" />
    </clipPath>
    <clipPath id="m">
      <path d="M756 190.844h102v87.441H756Zm0 0" />
    </clipPath>
    <clipPath id="n">
      <path d="M160 190.844h7V197h-7zm0 0" />
    </clipPath>
    <clipPath id="o">
      <path d="M171 190.844h84V194h-84zm0 0" />
    </clipPath>
    <clipPath id="p">
      <path d="M255 190.844h7V197h-7zm0 0" />
    </clipPath>
    <clipPath id="q">
      <path d="M255 272h7v6.285h-7zm0 0" />
    </clipPath>
    <clipPath id="r">
      <path d="M167 275h84v3.285h-84zm0 0" />
    </clipPath>
    <clipPath id="s">
      <path d="M160 272h7v6.285h-7zm0 0" />
    </clipPath>
  </defs>
  <path fill="#62bf7e" stroke="#838787" d="M237.28 86.285h98.515V1.156H237.28zm0 0" />
  <g stroke="#838787" clip-path="url(#a)" transform="translate(-43.67 -190.844)">
    <path fill="none" stroke-linecap="round" stroke-miterlimit="3.864" stroke-width="2.3100850499999996"
      d="M280.95 192.001h3.465" />
  </g>
  <g stroke="#838787" clip-path="url(#b)" transform="translate(-43.67 -190.844)">
    <path fill="none" stroke-dasharray="7.045825669999999 7.045825669999999" stroke-linecap="round"
      stroke-miterlimit="3.864" stroke-width="2.3100850499999996" d="M291.458 192.001h81.02" />
  </g>
  <g stroke="#838787" clip-path="url(#c)" transform="translate(-43.67 -190.844)">
    <path fill="none" stroke-linecap="round" stroke-miterlimit="3.864" stroke-width="2.3100850499999996"
      d="M375.997 192.001h3.465v3.465" />
  </g>
  <path fill="none" stroke="#838787" stroke-dasharray="26.816 26.816" stroke-linecap="round" stroke-miterlimit="3.864"
    stroke-width="2.31" d="M335.792 11.728v67.531" />
  <g stroke="#838787" clip-path="url(#d)" transform="translate(-43.67 -190.844)">
    <path fill="none" stroke-linecap="round" stroke-miterlimit="3.864" stroke-width="2.3100850499999996"
      d="M379.462 273.662v3.464h-3.465" />
  </g>
  <g stroke="#838787" clip-path="url(#e)" transform="translate(-43.67 -190.844)">
    <path fill="none" stroke-dasharray="7.045825669999999 7.045825669999999" stroke-linecap="round"
      stroke-miterlimit="3.864" stroke-width="2.3100850499999996" d="M368.954 277.126h-81.02" />
  </g>
  <g stroke="#838787" clip-path="url(#f)" transform="translate(-43.67 -190.844)">
    <path fill="none" stroke-linecap="round" stroke-miterlimit="3.864" stroke-width="2.3100850499999996"
      d="M284.415 277.126h-3.465v-3.464" />
  </g>
  <path fill="none" stroke="#838787" stroke-dasharray="26.816 26.816" stroke-linecap="round" stroke-miterlimit="3.864"
    stroke-width="2.31" d="M237.28 75.708V8.178" />
  <g stroke="#838787" clip-path="url(#g)" transform="translate(-43.67 -190.844)">
    <path fill="none" stroke-linecap="round" stroke-miterlimit="3.864" stroke-width="2.3100850499999996"
      d="M280.95 195.466v-3.465" />
  </g>
  <path fill="#838787"
    d="M98.932 25.54v38.694h10.371v15.48l10.371-30.952V41.02l-10.371-30.958V25.54M335.752 25.54v38.694h10.371v15.48l10.371-30.952V41.02l-10.37-30.958V25.54M454.158 25.54v38.694h10.375v15.48l10.368-30.952V41.02l-10.368-30.958V25.54M574.885 25.54v38.694h10.371v15.48l10.371-30.952V41.02l-10.37-30.958V25.54M693.291 25.54v38.694h10.371v15.48l10.371-30.952V41.02l-10.37-30.958V25.54M813.24 25.54v38.694h10.376v15.48l10.367-30.952V41.02l-10.367-30.958V25.54" />
  <path fill="#93cad9" stroke="#838787" d="M356.533 86.285h98.52V1.156h-98.52zm0 0" />
  <g stroke="#838787" clip-path="url(#h)" transform="translate(-43.67 -190.844)">
    <path fill="none" stroke-miterlimit="3.864" stroke-width="2.3100850499999996"
      d="M400.204 277.126h98.52v-85.129h-98.52zm0 0" />
  </g>
  <path fill="#62bf7e" stroke="#838787" d="M1.155 86.285H99.67V1.156H1.155Zm0 0" />
  <g stroke="#838787" clip-path="url(#i)" transform="translate(-43.67 -190.844)">
    <path fill="none" stroke-miterlimit="3.864" stroke-width="2.3100850499999996"
      d="M44.825 277.126h98.515v-85.129H44.825Zm0 0" />
  </g>
  <path fill="#f6ef98" stroke="#838787"
    d="M475.791 86.285h98.516V1.156H475.79zM833.557 86.285h98.52V1.156h-98.52zm0 0" />
  <g stroke="#838787" clip-path="url(#j)" transform="translate(-43.67 -190.844)">
    <path fill="none" stroke-miterlimit="3.864" stroke-width="2.3100850499999996"
      d="M877.228 277.126h98.52v-85.129h-98.52zm0 0" />
  </g>
  <path fill="#93cad9" stroke="#838787" d="M595.045 86.285h98.516V1.156h-98.516zm0 0" />
  <g stroke="#838787" clip-path="url(#k)" transform="translate(-43.67 -190.844)">
    <path fill="none" stroke-miterlimit="3.864" stroke-width="2.3100850499999996"
      d="M638.716 277.126h98.516v-85.129h-98.516zm0 0" />
  </g>
  <g stroke="#838787" clip-path="url(#l)" transform="translate(-43.67 -190.844)">
    <path fill="none" stroke-miterlimit="3.864" stroke-width="2.3100850499999996"
      d="M519.462 277.126h98.516v-85.129h-98.516zm0 0" />
  </g>
  <path fill="#62bf7e" stroke="#838787" d="M714.303 86.285h98.516V1.156h-98.516zm0 0" />
  <g stroke="#838787" clip-path="url(#m)" transform="translate(-43.67 -190.844)">
    <path fill="none" stroke-miterlimit="3.864" stroke-width="2.3100850499999996"
      d="M757.974 277.126h98.516v-85.129h-98.516zm0 0" />
  </g>
  <path fill="#838787" d="M216.506 25.543v38.691h10.371v15.48l10.371-30.956V41.02l-10.37-30.954v15.477" />
  <path fill="#62bf7e" stroke="#838787" d="M117.994 86.285h98.512V1.156h-98.512zm0 0" />
  <g stroke="#838787" clip-path="url(#n)" transform="translate(-43.67 -190.844)">
    <path fill="none" stroke-linecap="round" stroke-miterlimit="3.864" stroke-width="2.3100850499999996"
      d="M161.665 195.462v-3.465h3.465" />
  </g>
  <g stroke="#838787" clip-path="url(#o)" transform="translate(-43.67 -190.844)">
    <path fill="none" stroke-dasharray="7.045825669999999 7.045825669999999" stroke-linecap="round"
      stroke-miterlimit="3.864" stroke-width="2.3100850499999996" d="M172.173 191.997h81.015" />
  </g>
  <g stroke="#838787" clip-path="url(#p)" transform="translate(-43.67 -190.844)">
    <path fill="none" stroke-linecap="round" stroke-miterlimit="3.864" stroke-width="2.3100850499999996"
      d="M256.712 191.997h3.465v3.465" />
  </g>
  <path fill="none" stroke="#838787" stroke-dasharray="26.816 26.816" stroke-linecap="round" stroke-miterlimit="3.864"
    stroke-width="2.31" d="M216.507 11.728v67.535" />
  <g stroke="#838787" clip-path="url(#q)" transform="translate(-43.67 -190.844)">
    <path fill="none" stroke-linecap="round" stroke-miterlimit="3.864" stroke-width="2.3100850499999996"
      d="M260.177 273.662v3.464h-3.465" />
  </g>
  <g stroke="#838787" clip-path="url(#r)" transform="translate(-43.67 -190.844)">
    <path fill="none" stroke-dasharray="7.045825669999999 7.045825669999999" stroke-linecap="round"
      stroke-miterlimit="3.864" stroke-width="2.3100850499999996" d="M249.669 277.126h-81.016" />
  </g>
  <g stroke="#838787" clip-path="url(#s)" transform="translate(-43.67 -190.844)">
    <path fill="none" stroke-linecap="round" stroke-miterlimit="3.864" stroke-width="2.3100850499999996"
      d="M165.13 277.126h-3.465v-3.464" />
  </g>
  <path fill="none" stroke="#838787" stroke-dasharray="26.816 26.816" stroke-linecap="round" stroke-miterlimit="3.864"
    stroke-width="2.31" d="M117.995 75.708V8.178" />
  <g fill="#231f20" transform="translate(-43.67 -190.844)">
    <use xlink:href="#t" x="411.536" y="240.249" />
    <use xlink:href="#u" x="425.989" y="240.249" />
    <use xlink:href="#v" x="432.013" y="240.249" />
    <use xlink:href="#w" x="438.037" y="240.249" />
    <use xlink:href="#w" x="448.871" y="240.249" />
    <use xlink:href="#v" x="459.706" y="240.249" />
    <use xlink:href="#x" x="465.729" y="240.249" />
    <use xlink:href="#y" x="476.564" y="240.249" />
  </g>
  <use xlink:href="#z" x="65.721" y="227.247" fill="#231f20" transform="translate(-43.67 -190.844)" />
  <g fill="#231f20" transform="translate(-43.67 -190.844)">
    <use xlink:href="#A" x="78.982" y="227.247" />
    <use xlink:href="#B" x="88.603" y="227.247" />
    <use xlink:href="#C" x="95.819" y="227.247" />
    <use xlink:href="#A" x="101.843" y="227.247" />
    <use xlink:href="#D" x="111.464" y="227.247" />
  </g>
  <g fill="#231f20" transform="translate(-43.67 -190.844)">
    <use xlink:href="#E" x="63.922" y="253.25" />
    <use xlink:href="#F" x="75.97" y="253.25" />
    <use xlink:href="#G" x="86.804" y="253.25" />
    <use xlink:href="#H" x="96.425" y="253.25" />
    <use xlink:href="#A" x="107.26" y="253.25" />
    <use xlink:href="#B" x="116.881" y="253.25" />
  </g>
  <g fill="#231f20" transform="translate(-43.67 -190.844)">
    <use xlink:href="#E" x="539.23" y="227.247" />
    <use xlink:href="#I" x="551.278" y="227.247" />
    <use xlink:href="#B" x="560.899" y="227.247" />
    <use xlink:href="#A" x="568.115" y="227.247" />
    <use xlink:href="#A" x="577.735" y="227.247" />
    <use xlink:href="#x" x="587.356" y="227.247" />
  </g>
  <g fill="#231f20" transform="translate(-43.67 -190.844)">
    <use xlink:href="#J" x="529.587" y="253.25" />
    <use xlink:href="#G" x="548.851" y="253.25" />
    <use xlink:href="#w" x="558.471" y="253.25" />
    <use xlink:href="#w" x="569.306" y="253.25" />
    <use xlink:href="#v" x="580.14" y="253.25" />
    <use xlink:href="#x" x="586.164" y="253.25" />
    <use xlink:href="#y" x="596.999" y="253.25" />
  </g>
  <g fill="#231f20" transform="translate(-43.67 -190.844)">
    <use xlink:href="#J" x="894.728" y="240.249" />
    <use xlink:href="#A" x="913.992" y="240.249" />
    <use xlink:href="#B" x="923.613" y="240.249" />
  </g>
  <g fill="#231f20" transform="translate(-43.67 -190.844)">
    <use xlink:href="#y" x="930.439" y="240.249" />
    <use xlink:href="#A" x="941.273" y="240.249" />
    <use xlink:href="#B" x="950.894" y="240.249" />
  </g>
  <g fill="#231f20" transform="translate(-43.67 -190.844)">
    <use xlink:href="#E" x="652.145" y="240.249" />
    <use xlink:href="#A" x="664.193" y="240.249" />
    <use xlink:href="#C" x="673.814" y="240.249" />
    <use xlink:href="#K" x="679.838" y="240.249" />
    <use xlink:href="#w" x="690.673" y="240.249" />
    <use xlink:href="#L" x="701.507" y="240.249" />
    <use xlink:href="#M" x="706.924" y="240.249" />
  </g>
  <use xlink:href="#N" x="651.646" y="217.258" fill="#231f20" transform="translate(-43.67 -190.844)" />
  <g fill="#231f20" transform="translate(-43.67 -190.844)">
    <use xlink:href="#B" x="664.128" y="217.258" />
    <use xlink:href="#v" x="671.343" y="217.258" />
    <use xlink:href="#G" x="677.367" y="217.258" />
    <use xlink:href="#x" x="686.988" y="217.258" />
    <use xlink:href="#y" x="697.823" y="217.258" />
    <use xlink:href="#u" x="708.657" y="217.258" />
    <use xlink:href="#A" x="714.681" y="217.258" />
  </g>
  <use xlink:href="#N" x="647.442" y="263.24" fill="#231f20" transform="translate(-43.67 -190.844)" />
  <g fill="#231f20" transform="translate(-43.67 -190.844)">
    <use xlink:href="#B" x="659.924" y="263.24" />
    <use xlink:href="#G" x="667.139" y="263.24" />
    <use xlink:href="#O" x="676.76" y="263.24" />
    <use xlink:href="#A" x="687.595" y="263.24" />
    <use xlink:href="#B" x="697.216" y="263.24" />
    <use xlink:href="#P" x="704.432" y="263.24" />
    <use xlink:href="#G" x="712.861" y="263.24" />
    <use xlink:href="#u" x="722.482" y="263.24" />
  </g>
  <g fill="#231f20" transform="translate(-43.67 -190.844)">
    <use xlink:href="#Q" x="784.888" y="227.247" />
    <use xlink:href="#v" x="796.936" y="227.247" />
    <use xlink:href="#D" x="802.96" y="227.247" />
    <use xlink:href="#A" x="813.794" y="227.247" />
    <use xlink:href="#u" x="823.415" y="227.247" />
  </g>
  <g fill="#231f20" transform="translate(-43.67 -190.844)">
    <use xlink:href="#E" x="777.066" y="253.25" />
    <use xlink:href="#F" x="789.114" y="253.25" />
    <use xlink:href="#G" x="799.949" y="253.25" />
    <use xlink:href="#H" x="809.57" y="253.25" />
    <use xlink:href="#A" x="820.404" y="253.25" />
    <use xlink:href="#B" x="830.025" y="253.25" />
  </g>
  <g fill="#231f20" transform="translate(-43.67 -190.844)">
    <use xlink:href="#N" x="179.611" y="227.247" />
    <use xlink:href="#A" x="192.851" y="227.247" />
    <use xlink:href="#P" x="202.472" y="227.247" />
    <use xlink:href="#P" x="210.901" y="227.247" />
    <use xlink:href="#A" x="219.33" y="227.247" />
    <use xlink:href="#u" x="228.951" y="227.247" />
    <use xlink:href="#R" x="234.975" y="227.247" />
  </g>
  <g fill="#231f20" transform="translate(-43.67 -190.844)">
    <use xlink:href="#u" x="186.22" y="253.25" />
    <use xlink:href="#G" x="192.244" y="253.25" />
    <use xlink:href="#C" x="201.865" y="253.25" />
    <use xlink:href="#v" x="207.889" y="253.25" />
    <use xlink:href="#S" x="213.913" y="253.25" />
    <use xlink:href="#x" x="224.748" y="253.25" />
  </g>
  <g fill="#231f20" transform="translate(-43.67 -190.844)">
    <use xlink:href="#T" x="286.85" y="227.247" />
    <use xlink:href="#A" x="302.495" y="227.247" />
    <use xlink:href="#S" x="312.116" y="227.247" />
    <use xlink:href="#U" x="322.951" y="227.247" />
    <use xlink:href="#A" x="339.809" y="227.247" />
    <use xlink:href="#C" x="349.43" y="227.247" />
    <use xlink:href="#B" x="355.454" y="227.247" />
    <use xlink:href="#V" x="362.67" y="227.247" />
  </g>
  <g fill="#231f20" transform="translate(-43.67 -190.844)">
    <use xlink:href="#E" x="300.09" y="253.25" />
    <use xlink:href="#F" x="312.138" y="253.25" />
    <use xlink:href="#G" x="322.973" y="253.25" />
    <use xlink:href="#H" x="332.594" y="253.25" />
    <use xlink:href="#A" x="343.428" y="253.25" />
    <use xlink:href="#B" x="353.049" y="253.25" />
  </g>
</svg>
