<svg xmlns="http://www.w3.org/2000/svg" xmlns:xlink="http://www.w3.org/1999/xlink" width="250"
   viewBox="0 0 401.969 338.371">
   <defs>
      <clipPath id="a">
         <path d="M470 649h201.105v119H470Zm0 0" />
      </clipPath>
      <clipPath id="b">
         <path d="M467 646h204.105v122H467Zm0 0" />
      </clipPath>
      <path id="c"
         d="M.39-6.625C.39-2.203 2.235.359 4.876.359c2.016 0 4.219-1.5 6.203-4.484 2.016-3 3.125-6.656 3.125-10.172 0-4.39-1.781-6.89-4.547-6.89-2.25 0-4.547 1.78-6.594 5.265C1.298-12.875.392-9.484.392-6.625Zm3.407-3.61h7c-1.625 6.5-3.75 9.782-5.828 9.782-1.203 0-2.11-1.266-2.11-3.672 0-1.656.329-3.703.938-6.11zm7.312-1.171H4.094c1.531-5.985 3.453-9 5.39-9 1.5 0 2.282 1.297 2.282 3.765 0 1.563-.235 3.282-.657 5.235zm0 0" />
      <path id="d"
         d="M5.406-8c.235-.86.516-1.547 1.36-2.172.578-.422 1.234-.672 1.859-.672 1.375 0 1.547.844 1.219 2.094L7.5 0h1.703l2.063-7.703c.125-.484.265-1 .406-1.516.562-2.11-.328-3.062-2.125-3.062-1.281 0-2.344.61-3.39 1.64h-.048l1.485-5.484H5.89L1.562 0h1.704zm0 0" />
   </defs>
   <path fill="none" stroke="#ed1c24" stroke-dasharray="1.545, 1.545" stroke-miterlimit="3.864" stroke-width="1.074"
      d="m249.254 218.906 109.09-189.164M249.254 218.367 39.27 140.602" />
   <path fill="none" stroke="#ed1c24" stroke-miterlimit="3.864" stroke-width="2.149"
      d="M231.512 166.656c-16.602 4.246-31.309 17.793-34.121 32.242" />
   <g clip-path="url(#a)" transform="translate(-269.137 -429.629)">
      <path fill="#743ea0"
         d="M481.309 672.176c40.414-52.446 63.363 1.308 128.437 7.523 95.652 9.137 59.113 61.801 29.02 81.149-27.567 17.726-111.883 10.316-143.7-8.598 0-25.078-45.14-37.082-13.757-80.074" />
   </g>
   <path fill="#838787"
      d="M247.426 220.406a2.865 2.865 0 0 1 2.55-3.148 2.863 2.863 0 0 1 3.153 2.547 2.869 2.869 0 0 1-2.555 3.152c-1.57.16-2.98-.98-3.148-2.55" />
   <path fill="none" stroke="#838787" stroke-miterlimit="3.864" stroke-width=".537"
      d="M247.426 220.406a2.865 2.865 0 0 1 2.55-3.148 2.863 2.863 0 0 1 3.153 2.547 2.869 2.869 0 0 1-2.555 3.152c-1.57.16-2.98-.98-3.148-2.55zm0 0" />
   <path fill="#838787" fill-rule="evenodd"
      d="M247.7 237.676v5.144c0 .715.058 1.2.171 1.457.11.258.285.446.524.563.234.117.699.18 1.382.18v.511h-7.886v-.511c.62-.02 1.082-.192 1.386-.52.2-.23.301-.816.301-1.77V228.2c0-.981-.113-1.606-.348-1.88-.226-.273-.675-.433-1.34-.472v-.508h5.81v1.805c.48-.708.968-1.211 1.472-1.528a4.318 4.318 0 0 1 2.332-.668c1.008 0 1.926.317 2.754.95.828.636 1.457 1.515 1.887 2.632.43 1.121.644 2.328.644 3.621 0 1.383-.223 2.653-.668 3.805-.445 1.148-1.09 2.02-1.937 2.621a4.772 4.772 0 0 1-2.825.906c-.757 0-1.46-.168-2.117-.5-.488-.257-1.004-.691-1.543-1.308zm0-1.485c.847 1.192 1.75 1.786 2.71 1.786.531 0 .969-.278 1.309-.832.511-.82.765-2.383.765-4.684 0-2.363-.277-3.977-.84-4.848-.37-.574-.87-.86-1.5-.86-.992 0-1.808.712-2.445 2.134v7.304" />
   <path fill="#838787"
      d="M248.379 59.414v1.774c.703-.758 1.379-1.305 2.027-1.649a4.324 4.324 0 0 1 2.086-.52c.887 0 1.625.25 2.211.743.59.496.98 1.113 1.176 1.847.156.559.234 1.633.234 3.223v5.356c0 1.054.094 1.714.285 1.976.192.258.586.422 1.192.488v.512h-6.953v-.512c.52-.066.894-.28 1.117-.644.156-.246.238-.852.238-1.82v-6.122c0-1.128-.047-1.84-.133-2.132a1.306 1.306 0 0 0-.445-.684 1.132 1.132 0 0 0-.695-.242c-.84 0-1.617.594-2.34 1.773v7.407c0 1.027.098 1.675.289 1.953.187.273.547.445 1.066.511v.512h-6.953v-.512c.574-.058.985-.246 1.23-.558.165-.215.247-.852.247-1.906V62.39c0-1.051-.094-1.703-.285-1.961-.192-.258-.586-.426-1.192-.504v-.512h5.598M330.898 105.879v17.094c0 .98.114 1.605.344 1.879.227.273.676.425 1.344.464v.516h-7.496v-.516c.62-.02 1.082-.195 1.387-.53.195-.231.3-.833.3-1.813v-14.239c0-.976-.117-1.601-.347-1.875-.23-.273-.68-.43-1.34-.468v-.512h5.808" />
   <path fill="none" stroke="#838787" stroke-miterlimit="3.864" stroke-width="2.149" d="M249.79 218.906V89.934" />
   <path fill="#838787" fill-rule="evenodd"
      d="M249.79 90.828h-5.372l5.371-13.433 5.375 13.433h-5.375M313.828 107.902l-4.652-2.683 11.37-8.95-2.066 14.32-4.652-2.687" />
   <path fill="none" stroke="#838787" stroke-miterlimit="3.864" stroke-width="2.149" d="m249.54 217.875-121.2-44.113" />
   <path fill="#838787" fill-rule="evenodd"
      d="m129.18 174.07-1.836 5.051-10.785-9.644 14.46-.454-1.84 5.047M206.195 98.352l-5.05 1.835.457-14.46 9.64 10.789-5.047 1.836" />
   <path fill="#838787"
      d="M200.36 60.46v7.985c.753-.793 1.44-1.355 2.062-1.683a4.16 4.16 0 0 1 1.95-.492c.858 0 1.593.242 2.206.734.61.488 1.016 1.062 1.219 1.723.195.664.297 1.777.297 3.343v5.36c0 1.054.097 1.715.293 1.972.195.262.586.43 1.18.496v.512h-6.95v-.512c.485-.066.848-.261 1.094-.59.172-.253.262-.882.262-1.878v-6.121c0-1.137-.047-1.848-.137-2.137a1.264 1.264 0 0 0-.441-.676 1.11 1.11 0 0 0-.708-.242c-.386 0-.765.133-1.136.406-.367.266-.762.738-1.192 1.414v7.356c0 .988.07 1.601.215 1.847.188.336.567.543 1.137.621v.512h-6.95v-.512c.575-.058.981-.246 1.227-.562.164-.211.25-.852.25-1.906V63.44c0-1.054-.097-1.707-.285-1.964-.191-.258-.586-.426-1.191-.504v-.512h5.597M122.95 200.64l-4.653-10.652c-.559-1.293-.992-2.113-1.309-2.46-.226-.258-.558-.43-1-.52v-.512h7.305v.512c-.461 0-.773.086-.941.254a1.004 1.004 0 0 0-.352.77c0 .366.215 1.054.645 2.066l2.269 5.152 1.8-4.45c.52-1.28.782-2.19.782-2.726a.95.95 0 0 0-.332-.746c-.219-.195-.61-.297-1.168-.32v-.512h4.484v.512c-.43.062-.785.222-1.058.492-.274.266-.688 1.05-1.235 2.355l-4.562 10.786h-.676" />
   <path fill="none" stroke="#838787" stroke-miterlimit="3.864" stroke-width="1.074"
      d="M220.602 135.43c6.222-2.723 13.312-4.27 20.91-4.27 2.441 0 4.84.16 7.175.469" />
   <use xlink:href="#c" x="487.535" y="545.87" fill="#838787" transform="translate(-269.137 -429.629)" />
   <use xlink:href="#d" x="502.973" y="550.169" fill="#838787" transform="translate(-269.137 -429.629)" />
   <path fill="none" stroke="#ed1c24" stroke-miterlimit="3.864" stroke-width="2.149"
      d="M271.02 182.48c-10.989-8.546-26.915-11.285-37.473-5.945" />
   <path fill="none" stroke="#838787" stroke-miterlimit="3.864" stroke-width="2.149"
      d="M250.004 218.707 205.89 97.512M249.79 218.824l64.487-111.695" />
   <path fill="#2d2d2d" fill-rule="evenodd"
      d="m36.629 119.578-3.098.125-3.351.262-2.965.512-2.84.648-2.707.902-2.707 1.16-2.324 1.032-2.45 1.293-2.066 1.543-1.676 1.68-1.675 1.546-1.29 1.934-1.164 1.805-.77 1.937-.39 2.063-.258 2.19.258 2.192.39 2.067.77 1.933 1.164 1.809 1.29 1.93 1.675 1.68 1.676 1.675 2.066 1.418 2.45 1.29 2.324 1.163 2.707 1.156 2.707.774 2.84.648 2.965.645 3.351.254 3.098.133 3.223-.133 3.222-.254 5.934-1.293 2.836-.774 2.453-1.156 2.578-1.164 2.324-1.289 1.934-1.418 1.933-1.676 1.547-1.68 1.418-1.93 1.031-1.808.649-1.933.516-2.067.128-2.191-.128-2.191-.516-2.063-.649-1.937-1.03-1.805-1.419-1.934-1.547-1.547-1.933-1.68-1.934-1.542-2.324-1.293-2.578-1.031-2.453-1.16-2.836-.903-2.965-.648-2.969-.512-3.222-.262-3.223-.125" />
   <path fill="#fff" fill-rule="evenodd"
      d="m8.64 140.21.13-1.675.386-1.805.774-1.546 1.03-1.551 1.032-1.547 1.422-1.418 1.676-1.293 1.805-1.29 2.066-1.16 2.062-.902 2.188-.898 2.586-.648 2.445-.645 2.707-.387 2.84-.258 2.84-.132 2.836.132 2.836.258 2.71.387 2.575.645 2.453.648 2.32.898 2.067.903 2.062 1.16 1.805 1.289 1.676 1.293 1.293 1.418 1.289 1.547.902 1.55.774 1.547.386 1.805.13 1.676-.13 1.68-.386 1.8-.774 1.547-.902 1.551-1.29 1.422-1.292 1.414-1.676 1.293-1.805 1.418-2.062 1.031-2.067 1.031-2.32.774-2.453.773-2.574.516-2.711.516-5.672.257-5.68-.257-2.707-.516-2.445-.516-2.586-.773-2.188-.774-2.062-1.03-2.066-1.032-1.805-1.418-1.676-1.293-1.422-1.414-1.031-1.422-1.031-1.55-.774-1.548-.386-1.8-.13-1.68" />
   <path fill="#838787" fill-rule="evenodd"
      d="m18.7 139.824.132 1.805.254 1.676.387 1.808.648 1.547.77 1.547.78 1.418 1.157 1.418 1.031 1.293 2.578 2.062 1.551.899 1.418.648 1.547.645 1.676.515 1.808.258h3.477l1.809-.258 1.675-.515 3.098-1.293 1.55-.899 1.157-1.03 1.29-1.032 1.292-1.293 1.805-2.836.773-1.547.645-1.547.387-1.808.125-1.676.261-1.805-.261-1.804-.125-1.676-.387-1.68-.645-1.676-.773-1.418-1.805-2.836-1.293-1.289-1.289-1.035-1.156-1.035-1.55-1.027-3.099-1.293-1.675-.387-1.809-.254-1.676-.129-1.8.13-1.81.253-1.675.387-1.547.648-1.418.645-1.55 1.027-2.579 2.07-1.03 1.29-1.157 1.413-.781 1.422-.77 1.418-.648 1.676-.387 1.68-.254 1.676-.133 1.804" />
   <path fill="#83a7dd" fill-rule="evenodd"
      d="m23.21 139.695.388-2.578.648-2.453 1.418-2.32 1.418-1.938 1.938-1.547 2.32-1.16 2.324-.902 2.707-.129 2.707.129 2.32.902 2.192 1.16 2.066 1.547 1.418 1.938 1.418 2.32.645 2.453.258 2.578-.258 2.578-.645 2.45-1.418 2.32-1.418 1.937-2.066 1.547-2.192 1.16-2.32.903-2.707.133-2.707-.133-2.324-.902-2.32-1.16-1.938-1.548-1.418-1.937-1.418-2.32-.648-2.45-.387-2.578" />
   <path fill="#2d2d2d" fill-rule="evenodd"
      d="m27.215 139.695.125-1.808.644-1.805.774-1.547 1.164-1.289 1.418-1.031 1.422-.777 1.675-.516 1.801-.387 1.809.387 1.676.516 1.675.777 1.29 1.031 1.035 1.29.902 1.546.516 1.805.257 1.808-.257 1.805-.516 1.676-.902 1.676-1.036 1.289-1.289 1.035-1.675.902-1.676.516-1.809.258-1.8-.258-1.676-.516-1.422-.902-1.418-1.035-1.164-1.29-.774-1.675-.644-1.676-.125-1.805" />
   <path fill="#fff" fill-rule="evenodd"
      d="m45.398 134.406-.257 1.035-.387.903-1.031.511-.903.262-1.164-.262-.773-.511-.645-.903-.125-1.035.125-1.027.645-.777.773-.512 1.164-.262.903.262 1.03.512.388.777.257 1.027" />
   <path fill="#2d2d2d" d="M34.437 120.996h2.965v-9.156h-2.965zm0 0" />
   <path fill="#2d2d2d" fill-rule="evenodd"
      d="m21.023 113.898 2.45 8.516 2.964-.777-2.578-8.64-2.836.901M8.512 119.703l5.414 7.223 2.324-1.801-5.418-7.227-2.32 1.805M0 130.281l7.352 5.16 1.675-2.32-7.218-5.289L0 130.282M51.203 113.898l-2.453 8.516-2.707-.777 2.45-8.64 2.71.901M63.71 119.703l-5.417 7.223-2.32-1.801 5.418-7.227 2.32 1.805M72.223 130.281 65 135.441l-1.809-2.32 7.227-5.289 1.805 2.45" />
   <path fill="#f07124" fill-rule="evenodd"
      d="m383.742 38.625-8.695-8.473-3.438 7.461M384.652 16.79l-12.175.187 2.765 7.675M369.934.867l-8.512 8.781 7.371 3.399M348.18 0l.148 12.262 7.629-2.887M332.184 14.887l8.66 8.558 3.433-7.46M331.27 36.723l12.18-.184-2.766-7.676M346.035 52.766l8.516-8.782-7.375-3.398M367.746 53.512l-.144-12.258-7.633 2.883M363.984 13.781c-7.125-3.281-15.609-.078-18.89 7.051-3.32 7.211-.2 15.66 6.926 18.941 7.042 3.243 15.492.122 18.812-7.09 3.281-7.124.195-15.66-6.848-18.902" />
</svg>
