<svg xmlns="http://www.w3.org/2000/svg" xmlns:xlink="http://www.w3.org/1999/xlink" width="550"
  viewBox="0 0 249.137 93.737">
  <defs>
    <clipPath id="a">
      <path d="M347 447.879h2.414V470H347Zm0 0" />
    </clipPath>
  </defs>
  <path fill="#838787"
    d="M84.997 27.453a2.103 2.103 0 1 1-4.206.005 2.103 2.103 0 0 1 4.206-.005m84.089-16.816a2.102 2.102 0 1 1-4.204-.002 2.102 2.102 0 0 1 4.204.002M135.45 77.91a2.102 2.102 0 1 1-4.205-.001 2.102 2.102 0 0 1 4.205.001" />
  <path fill="none" stroke="#838787" stroke-width=".934" d="m82.891 27.453 50.457 50.457 33.637-67.273zm0 0" />
  <path fill="#838787"
    d="M97.61 40.07a2.103 2.103 0 0 1-4.207 0c0-2.805 4.207-2.805 4.207 0m56.762 0c0 2.803-4.206 2.802-4.205-.001 0-2.803 4.206-2.802 4.205.001M27.618 23.73c0 1.34-.672 1.934-1.2 1.934-.527 0-1.199-.594-1.199-1.934 0-1.34.672-1.933 1.2-1.933.527 0 1.199.593 1.199 1.933zm-1.86.18c0 .426.078 1.586.66 1.586.438 0 .665-.695.665-1.95 0-.425-.06-1.581-.665-1.581-.437 0-.66.691-.66 1.945m2.567.695c.504-.14.984-.617.984-1.168 0-.074-.02-.187-.121-.187-.04 0-.086.027-.152.066-.063.028-.141.067-.243.067-.289 0-.468-.22-.468-.496 0-.32.273-.551.59-.551.503 0 .765.523.765.969 0 .777-.664 1.3-1.355 1.496v-.196M52.891 17.637c-.055.183-.215.707-.215.867 0 .074.02.14.11.14.187 0 .34-.16.648-.609l.137.105c-.23.383-.727 1.016-1.215 1.016-.223 0-.383-.121-.383-.363 0-.363.14-.887.461-1.82l-.02-.02c-.394.652-1.328 2.203-2.234 2.203-.316 0-.504-.242-.504-.55 0-.317.14-.801.235-1.13.41-1.43.504-1.664.504-1.906 0-.066-.028-.14-.122-.14-.242 0-.476.39-.625.562l-.14-.094c.234-.382.773-.984 1.25-.984.242 0 .394.152.394.394 0 .208-.039.356-.468 1.868-.149.523-.317.953-.317 1.234 0 .129.082.207.203.207.47 0 1.73-1.281 2.254-3.18l.11-.41.742-.113-.805 2.723m3.637 1.89c0 1.34-.672 1.934-1.2 1.934-.527 0-1.199-.594-1.199-1.934 0-1.34.672-1.933 1.2-1.933.527 0 1.199.593 1.199 1.933zm-1.86.18c0 .426.079 1.586.66 1.586.438 0 .66-.695.66-1.953 0-.426-.054-1.578-.66-1.578-.437 0-.66.687-.66 1.945m-1.171 9.141c.375-.438 1.543-1.907 1.543-2.438 0-.348-.41-.254-.41-.637 0-.207.167-.343.363-.343.289 0 .457.23.457.511 0 .664-.598 1.637-2.364 3.727h-.168l-.3-3.117h-.016l-1.86 3.117h-.206c-.121-3.438-.29-3.801-.684-3.801-.223 0-.336.02-.43.04v-.173l1.32-.304c.243.746.337 1.558.391 3.043h.02l1.86-3.043h.167l.317 3.418m4.593 1.191c0 1.34-.672 1.934-1.199 1.934s-1.2-.594-1.2-1.934c0-1.34.673-1.934 1.2-1.934.527 0 1.2.594 1.2 1.934zm-1.863.18c0 .425.078 1.586.664 1.586.438 0 .66-.696.66-1.954 0-.425-.054-1.578-.66-1.578-.437 0-.664.688-.664 1.946" />
  <path fill="none" stroke="#838787" stroke-width=".234" d="M47.153 23.25h12.613" />
  <path fill="#838787"
    d="M67.579 14.914c.41 1.031.457 2.168.523 3.422.477-.524 1.633-1.852 1.633-2.422 0-.25-.418-.27-.418-.625 0-.215.195-.375.39-.375.301 0 .489.289.489.57 0 1.047-1.824 2.918-2.582 3.672h-.168c-.176-3.383-.457-3.84-.727-3.84-.215 0-.328.02-.43.047l-.027-.168 1.317-.281m5.246 4.613c0 1.34-.672 1.934-1.2 1.934-.527 0-1.199-.594-1.199-1.934 0-1.34.672-1.933 1.2-1.933.527 0 1.199.593 1.199 1.933zm-1.86.18c0 .426.078 1.586.66 1.586.438 0 .66-.695.66-1.953 0-.426-.054-1.578-.66-1.578-.437 0-.66.687-.66 1.945m-.648 9.141c.375-.438 1.543-1.907 1.543-2.438 0-.348-.414-.254-.414-.637 0-.207.168-.343.367-.343.29 0 .457.23.457.511 0 .664-.598 1.637-2.363 3.727h-.168l-.301-3.117h-.02l-1.859 3.117h-.203c-.121-3.438-.293-3.801-.684-3.801-.222 0-.336.02-.43.04v-.173l1.317-.304c.246.746.336 1.558.395 3.043h.02l1.855-3.043h.168l.32 3.418m4.59 1.191c0 1.34-.672 1.934-1.2 1.934-.527 0-1.199-.594-1.199-1.934 0-1.34.672-1.934 1.2-1.934.527 0 1.199.594 1.199 1.934zm-1.86.18c0 .425.078 1.586.66 1.586.438 0 .66-.696.66-1.954 0-.425-.054-1.578-.66-1.578-.437 0-.66.688-.66 1.946" />
  <path fill="none" stroke="#838787" stroke-width=".234" d="M63.973 23.25h12.613" />
  <path fill="#838787"
    d="M60.27 24.605c.508-.14.984-.617.984-1.168 0-.074-.02-.187-.12-.187-.04 0-.087.027-.153.066-.063.028-.14.067-.242.067-.29 0-.469-.22-.469-.496 0-.32.273-.551.59-.551.504 0 .766.523.766.969 0 .777-.665 1.3-1.356 1.496v-.196" />
  <path fill="none" stroke="#838787" stroke-width=".234"
    d="M76.586 12.738h2.102v21.024h-2.102M19.82 12.738h-2.1v21.024h2.1" />
  <path fill="#838787"
    d="M37.137 14.832h.16v5.094c0 .754 0 1.054.774 1.054v.168h-2.324v-.168c.718-.02.793-.113.793-.812v-3.719c0-.644-.075-.879-.364-.879-.18 0-.32.067-.476.14l-.067-.14 1.504-.738m-.457 14.016c.375-.438 1.543-1.907 1.543-2.438 0-.348-.414-.254-.414-.637 0-.207.168-.343.367-.343.29 0 .457.23.457.511 0 .664-.597 1.637-2.363 3.727h-.168l-.3-3.117h-.02l-1.86 3.117h-.203c-.12-3.438-.293-3.801-.683-3.801-.223 0-.336.02-.43.04v-.173l1.316-.304c.247.746.336 1.558.395 3.043h.02l1.855-3.043h.168l.32 3.418m4.59 1.191c0 1.34-.672 1.934-1.2 1.934-.527 0-1.198-.594-1.198-1.934 0-1.34.671-1.934 1.199-1.934.527 0 1.199.594 1.199 1.934zm-1.86.18c0 .425.079 1.586.66 1.586.438 0 .661-.696.661-1.954 0-.425-.055-1.578-.66-1.578-.438 0-.66.688-.66 1.946" />
  <path fill="none" stroke="#838787" stroke-width=".234" d="M30.336 23.25H42.95" />
  <path fill="#838787"
    d="M43.454 24.605c.504-.14.98-.617.98-1.168 0-.074-.02-.187-.121-.187-.04 0-.082.027-.148.066-.067.028-.141.067-.243.067-.293 0-.468-.22-.468-.496 0-.32.27-.551.59-.551.503 0 .765.523.765.969 0 .777-.664 1.3-1.355 1.496v-.196m103.574 57.05h.094v3.059c0 .453 0 .632.465.632v.102h-1.395v-.102c.43-.011.477-.066.477-.488v-2.23c0-.387-.047-.528-.219-.528a.668.668 0 0 0-.285.082l-.043-.082.906-.445m1.75 2.809c.504-.14.98-.618.98-1.168 0-.074-.019-.188-.12-.188-.04 0-.086.031-.153.067-.062.027-.136.066-.242.066-.289 0-.465-.215-.465-.496 0-.316.27-.55.586-.55.504 0 .77.523.77.972 0 .773-.664 1.297-1.356 1.492v-.195m24.562-6.969c-.054.187-.214.71-.214.867 0 .078.02.14.113.14.188 0 .336-.156.645-.605l.14.102c-.234.383-.73 1.02-1.214 1.02-.227 0-.383-.122-.383-.364 0-.367.137-.89.457-1.824l-.02-.02c-.39.657-1.328 2.207-2.234 2.207-.316 0-.504-.242-.504-.55 0-.32.14-.805.234-1.133.41-1.43.504-1.66.504-1.906 0-.063-.027-.141-.12-.141-.243 0-.477.394-.626.562l-.14-.093c.234-.383.773-.98 1.25-.98.246 0 .394.148.394.39 0 .207-.039.355-.469 1.871-.148.523-.316.953-.316 1.234 0 .13.086.203.203.203.469 0 1.73-1.28 2.254-3.175l.113-.41.739-.114-.805 2.719m2.598-.043h.093v3.055c0 .453 0 .632.465.632v.102h-1.394v-.102c.43-.008.476-.066.476-.488v-2.23c0-.387-.047-.528-.219-.528a.62.62 0 0 0-.285.086l-.043-.086.906-.441m-1.992 11.254c.375-.438 1.543-1.906 1.543-2.438 0-.343-.41-.254-.41-.636 0-.203.168-.344.363-.344.29 0 .457.234.457.512 0 .664-.597 1.636-2.363 3.73h-.168l-.297-3.121h-.02l-1.859 3.121h-.207c-.12-3.437-.289-3.805-.68-3.805-.226 0-.335.02-.433.04v-.168l1.32-.31c.243.747.336 1.56.391 3.044h.02l1.859-3.043h.168l.316 3.418m3.551-.742h.094v3.054c0 .453 0 .633.469.633v.102h-1.399v-.102c.434-.008.477-.066.477-.488v-2.23c0-.387-.043-.528-.22-.528a.622.622 0 0 0-.284.086l-.04-.086.903-.441" />
  <path fill="none" stroke="#838787" stroke-width=".234" d="M167.603 83.112h12.617" />
  <path fill="#838787"
    d="M188.028 74.776c.41 1.028.457 2.168.524 3.418.476-.52 1.637-1.848 1.637-2.418 0-.254-.422-.27-.422-.625 0-.215.195-.375.39-.375.301 0 .489.29.489.57 0 1.047-1.825 2.915-2.579 3.672h-.168c-.18-3.382-.46-3.84-.73-3.84-.215 0-.328.016-.43.047l-.027-.168 1.316-.28m4.203 2.675h.094v3.055c0 .453 0 .632.469.632v.102h-1.398v-.102c.433-.008.476-.066.476-.488v-2.23c0-.387-.043-.528-.219-.528a.623.623 0 0 0-.285.086l-.039-.086.902-.441m-1.464 11.254c.375-.438 1.543-1.906 1.543-2.438 0-.343-.41-.254-.41-.636 0-.203.167-.344.363-.344.289 0 .457.234.457.512 0 .664-.598 1.636-2.364 3.73h-.167l-.301-3.121h-.02l-1.855 3.121h-.207c-.121-3.437-.29-3.805-.684-3.805-.223 0-.336.02-.43.04v-.168l1.32-.31c.243.747.337 1.56.391 3.044h.02l1.86-3.043h.167l.317 3.418m3.55-.742h.094v3.054c0 .453 0 .633.465.633v.102h-1.395v-.102c.43-.008.477-.066.477-.488v-2.23c0-.387-.047-.528-.219-.528a.623.623 0 0 0-.285.086l-.043-.086.906-.441" />
  <path fill="none" stroke="#838787" stroke-width=".234" d="M184.423 83.112h12.613" />
  <path fill="#838787"
    d="M180.724 84.464c.504-.14.98-.618.98-1.168 0-.074-.02-.188-.12-.188-.04 0-.087.031-.153.067-.063.027-.14.066-.242.066-.29 0-.465-.215-.465-.496 0-.316.27-.55.586-.55.504 0 .765.523.765.972 0 .773-.664 1.297-1.351 1.492v-.195" />
  <path fill="none" stroke="#838787" stroke-width=".234"
    d="M197.036 72.6h2.102v21.02h-2.102M140.274 72.6h-2.101v21.02h2.101" />
  <path fill="#838787"
    d="M157.587 74.69h.16v5.094c0 .758 0 1.055.774 1.055v.168h-2.325v-.168c.72-.02.793-.11.793-.813v-3.719c0-.644-.074-.878-.363-.878-.18 0-.316.066-.477.14l-.066-.14 1.504-.739m-.457 14.016c.375-.438 1.543-1.906 1.543-2.438 0-.343-.41-.254-.41-.636 0-.203.168-.344.363-.344.29 0 .457.234.457.512 0 .664-.598 1.636-2.363 3.73h-.168l-.301-3.121h-.02l-1.859 3.121h-.203c-.121-3.437-.293-3.805-.684-3.805-.222 0-.336.02-.43.04v-.168l1.317-.31c.246.747.336 1.56.395 3.044h.02l1.859-3.043h.168l.316 3.418m3.547-.742h.097v3.054c0 .453 0 .633.465.633v.102h-1.394v-.102c.43-.008.472-.066.472-.488v-2.23c0-.387-.043-.528-.214-.528-.11 0-.192.04-.29.086l-.039-.086.903-.441" />
  <path fill="none" stroke="#838787" stroke-width=".234" d="M150.786 83.112H163.4" />
  <path fill="#838787"
    d="M163.903 84.464c.504-.14.98-.618.98-1.168 0-.074-.019-.188-.12-.188-.035 0-.082.031-.149.067-.066.027-.14.066-.242.066-.289 0-.469-.215-.469-.496 0-.316.274-.55.59-.55.504 0 .766.523.766.972 0 .773-.664 1.297-1.356 1.492v-.195m17.317-71.499h-2.192v-.102c1.426-1.398 1.75-1.86 1.75-2.46 0-.438-.281-.813-.711-.813a.842.842 0 0 0-.824.632h-.102c.09-.585.414-1.046 1.059-1.046.543 0 1.054.402 1.054.976 0 .567-.441 1.125-.812 1.524l-.824.875h1.156c.07 0 .46 0 .602-.297h.101l-.258.71m1.001-.98c.503-.14.98-.617.98-1.168 0-.074-.02-.187-.121-.187-.04 0-.086.027-.153.066-.062.028-.136.067-.242.067-.289 0-.465-.215-.465-.497 0-.32.27-.55.586-.55.508 0 .766.523.766.968 0 .778-.66 1.301-1.352 1.497v-.196m24.563-6.972c-.055.187-.215.71-.215.87 0 .075.02.141.113.141.188 0 .336-.16.645-.61l.14.106c-.234.383-.73 1.016-1.214 1.016-.227 0-.383-.121-.383-.363 0-.364.136-.887.457-1.82l-.02-.02c-.39.652-1.324 2.203-2.234 2.203-.317 0-.504-.242-.504-.55 0-.317.14-.805.234-1.13.41-1.43.504-1.664.504-1.906 0-.066-.027-.14-.12-.14-.243 0-.477.39-.626.558l-.14-.094c.234-.382.777-.98 1.25-.98.246 0 .394.148.394.394 0 .204-.04.356-.469 1.868-.148.523-.316.953-.316 1.234 0 .129.086.203.207.203.465 0 1.726-1.277 2.25-3.176l.113-.41.738-.113-.804 2.719m3.348 3.75h-2.192V8.66c1.422-1.402 1.75-1.863 1.75-2.46 0-.438-.281-.813-.715-.813a.849.849 0 0 0-.824.632h-.102c.09-.59.418-1.05 1.063-1.05.543 0 1.055.406 1.055.976 0 .567-.446 1.13-.817 1.524l-.82.875h1.152c.074 0 .465 0 .606-.297h.101l-.258.715m-2.742 7.464c.375-.441 1.543-1.906 1.543-2.441 0-.344-.41-.25-.41-.633 0-.207.168-.347.363-.347.29 0 .457.234.457.515 0 .664-.597 1.633-2.363 3.727h-.168l-.297-3.117h-.02l-1.859 3.117h-.207c-.12-3.438-.289-3.801-.68-3.801-.226 0-.34.02-.43.035v-.168l1.317-.308c.243.75.336 1.562.391 3.046h.02l1.859-3.046h.168l.316 3.421m4.301 3.047h-2.191v-.101c1.425-1.403 1.75-1.864 1.75-2.461 0-.438-.282-.813-.711-.813a.846.846 0 0 0-.825.633h-.101c.09-.59.414-1.05 1.058-1.05.543 0 1.055.406 1.055.976 0 .566-.441 1.129-.812 1.523l-.825.875h1.157c.07 0 .465 0 .601-.297h.102l-.258.715" />
  <path fill="none" stroke="#838787" stroke-width=".234" d="M201.043 10.629h12.618" />
  <path fill="#838787"
    d="M221.47 2.293c.41 1.027.456 2.168.523 3.422.476-.524 1.636-1.852 1.636-2.422 0-.25-.421-.27-.421-.625 0-.215.195-.375.39-.375.3 0 .488.289.488.57 0 1.047-1.824 2.914-2.578 3.672h-.168c-.18-3.383-.46-3.84-.73-3.84-.215 0-.328.02-.43.047l-.027-.168 1.316-.281m4.953 6.469h-2.191V8.66c1.426-1.402 1.75-1.863 1.75-2.46 0-.438-.281-.813-.711-.813a.846.846 0 0 0-.824.632h-.102c.09-.59.414-1.05 1.059-1.05.543 0 1.055.406 1.055.976 0 .567-.446 1.13-.813 1.524l-.824.875h1.152c.074 0 .469 0 .61-.297h.097l-.258.715m-2.214 7.464c.375-.441 1.543-1.906 1.543-2.441 0-.344-.41-.25-.41-.633 0-.207.167-.347.363-.347.289 0 .457.234.457.515 0 .664-.598 1.633-2.364 3.727h-.168l-.3-3.117h-.016l-1.86 3.117h-.206c-.121-3.438-.29-3.801-.684-3.801-.223 0-.336.02-.43.035v-.168l1.32-.308c.243.75.337 1.562.391 3.046h.02l1.86-3.046h.167l.317 3.421m4.3 3.047h-2.191v-.101c1.422-1.403 1.75-1.864 1.75-2.461 0-.438-.281-.813-.715-.813a.849.849 0 0 0-.824.633h-.102c.09-.59.418-1.05 1.063-1.05.543 0 1.05.406 1.05.976 0 .566-.44 1.129-.808 1.523l-.828.875h1.156c.074 0 .465 0 .606-.297h.101l-.258.715" />
  <path fill="none" stroke="#838787" stroke-width=".234" d="M217.864 10.629h12.613" />
  <path fill="#838787"
    d="M214.165 11.984c.503-.14.98-.617.98-1.168 0-.074-.02-.187-.121-.187-.04 0-.086.027-.152.066-.063.028-.137.067-.243.067-.289 0-.464-.215-.464-.497 0-.32.27-.55.586-.55.503 0 .769.523.769.968 0 .778-.664 1.301-1.355 1.497v-.196" />
  <g clip-path="url(#a)" transform="translate(-116.777 -447.88)">
    <path fill="none" stroke="#838787" stroke-width=".234" d="M347.254 447.996h2.101v21.024h-2.101" />
  </g>
  <path fill="none" stroke="#838787" stroke-width=".234" d="M173.715.117h-2.101V21.14h2.101" />
  <path fill="#838787"
    d="M191.028 2.21h.16V7.3c0 .758 0 1.06.773 1.06v.167h-2.324V8.36c.719-.02.793-.113.793-.812V3.824c0-.64-.074-.875-.363-.875-.18 0-.32.066-.477.14l-.066-.14 1.504-.738m-.458 14.015c.376-.441 1.544-1.906 1.544-2.441 0-.344-.41-.25-.41-.633 0-.207.168-.347.363-.347.289 0 .457.234.457.515 0 .664-.598 1.633-2.363 3.727h-.168l-.301-3.117h-.02l-1.855 3.117h-.207c-.121-3.438-.29-3.801-.684-3.801-.222 0-.336.02-.43.035v-.168l1.32-.308c.243.75.337 1.562.392 3.046h.015l1.863-3.046h.168l.317 3.421m4.301 3.047h-2.192v-.101c1.422-1.403 1.746-1.864 1.746-2.461 0-.438-.277-.813-.71-.813a.849.849 0 0 0-.825.633h-.101c.09-.59.418-1.05 1.058-1.05.547 0 1.055.406 1.055.976 0 .566-.442 1.129-.813 1.523l-.824.875h1.156c.075 0 .465 0 .606-.297h.101l-.257.715" />
  <path fill="none" stroke="#838787" stroke-width=".234" d="M184.227 10.629h12.613" />
  <path fill="#838787"
    d="M197.344 11.984c.504-.14.98-.617.98-1.168 0-.074-.019-.187-.12-.187-.035 0-.082.027-.149.066-.066.028-.14.067-.242.067-.29 0-.469-.215-.469-.497 0-.32.274-.55.59-.55.504 0 .766.523.766.968 0 .778-.664 1.301-1.356 1.497v-.196" />
  <text xml:space="preserve" id="b" x="19.641" y="25.361" fill="#838787" fill-opacity="1" stroke="none" font-size="10">
    <tspan x="19.641" y="25.361" font-family="serif" font-weight="400" style="-inkscape-font-specification:serif">P
    </tspan>
  </text>
  <text xml:space="preserve" x="90.231" y="51.697" fill="#838787" font-size="10">
    <tspan x="90.231" y="51.697" font-family="serif" font-weight="400" style="-inkscape-font-specification:serif">A
    </tspan>
  </text>
  <text xml:space="preserve" x="140" y="51.697" fill="#838787" font-size="10">
    <tspan font-family="serif" font-weight="400" style="-inkscape-font-specification:serif">B</tspan>
  </text>
  <text xml:space="preserve" x="100" y="38.483" fill="#838787" font-size="10">
    <tspan font-family="serif" font-weight="400" style="-inkscape-font-specification:serif">α</tspan>
  </text>
  <use xlink:href="#b" id="c" x="0" y="0" transform="translate(120.45 59.858)" />
  <use xlink:href="#c" transform="translate(33.44 -72.481)" />
  <path fill="none" stroke="#838787" stroke-width=".934" d="M95.549 40.111h56.699" />
  <path fill="#838787"
    d="M97.61 40.07a2.103 2.103 0 0 1-4.207 0c0-2.805 4.207-2.805 4.207 0m36.338.041c-.001 2.803-4.206 2.802-4.205 0 0-2.804 4.205-2.803 4.205 0M27.618 23.73c0 1.34-.672 1.934-1.2 1.934-.527 0-1.199-.594-1.199-1.934 0-1.34.672-1.933 1.2-1.933.527 0 1.199.593 1.199 1.933zm-1.86.18c0 .426.078 1.586.66 1.586.438 0 .665-.695.665-1.95 0-.425-.06-1.581-.665-1.581-.437 0-.66.691-.66 1.945m2.567.695c.504-.14.984-.617.984-1.168 0-.074-.02-.187-.121-.187-.04 0-.086.027-.152.066-.063.028-.141.067-.243.067-.289 0-.468-.22-.468-.496 0-.32.273-.551.59-.551.503 0 .765.523.765.969 0 .777-.664 1.3-1.355 1.496v-.196" />
  <text xml:space="preserve" x="123" y="38.483" fill="#838787" font-size="10">
    <tspan font-family="serif" font-weight="400" style="-inkscape-font-specification:serif">1-α</tspan>
  </text>
  <text xml:space="preserve" x="115" y="51.773" fill="#838787" font-size="10">
    <tspan font-family="serif" font-weight="400" style="-inkscape-font-specification:serif">P</tspan>
  </text>
</svg>
