<svg xmlns="http://www.w3.org/2000/svg" xmlns:xlink="http://www.w3.org/1999/xlink" width="500"
   viewBox="0 -10 635.455 174">
   <defs>
      <path id="a"
         d="m1.922-20.11-.328 1.5h4.281L1.735 1.126C.655 6.203-.845 8.735-2.814 8.735c-.578 0-.953-.329-.953-.75 0-.516.422-.75.422-1.36 0-.984-.703-1.734-1.781-1.734-.984 0-1.781.89-1.781 1.968 0 1.641 1.593 2.875 3.703 2.875 4.281 0 7.437-4.609 9.406-13.312l3.39-15.031h5.063l.297-1.5H9.922c1.36-7.438 3.094-10.72 5.734-10.72.656 0 1.031.235 1.031.61 0 .422-.468.657-.468 1.453 0 1.125.89 1.828 1.734 1.828 1.078 0 1.969-.984 1.969-2.015 0-1.688-1.735-2.906-4.031-2.906-2.875 0-4.797 1.593-6.204 3.609-1.562 2.219-2.359 4.797-3.39 8.14zm0 0" />
      <path id="l"
         d="M30.313-30.688H6.953v.75c3.11.282 3.578.563 3.578 1.875 0 .75-.14 1.704-.469 2.875L4.282-4.422C3.577-1.969 3.108-.938.374-.75V0h11.797v-.75c-2.766-.188-3.625-.703-3.625-1.828 0-.719.344-1.656.672-2.828l2.765-10.016c1.735.094 2.875.14 3.907.14 2.203 0 3.515.188 3.515 2.079 0 .75-.093 1.406-.375 2.86l.797.234 3.578-11.047-.843-.235c-2.125 4.235-2.266 4.328-10.157 4.422l3.016-10.672c.328-1.218 1.031-1.5 3.187-1.5 8.282 0 9.36.61 9.36 4.047 0 .282 0 .516-.14 1.547l.983.094zm0 0" />
      <path id="n"
         d="M33.938-15H21.39v.766l1.5.14c1.547.14 2.203.703 2.203 1.547 0 1.031-.282 2.156-1.219 5.313-1.031 3.609-1.266 4.171-1.828 4.75-1.031 1.03-2.828 1.593-4.938 1.593-6.062 0-9.5-3.671-9.5-9.828 0-5.219 1.938-10.437 4.985-14.328 2.265-2.875 5.453-4.656 9.172-4.656 2.906 0 5.172.984 6.625 2.765 1.03 1.282 1.64 2.97 1.734 4.985l.844.14 2.312-9.25-.703-.234c-.812 1.125-1.61 1.594-2.828 1.594-.516 0-.984-.047-2.063-.469-2.078-.797-4.375-1.125-6.296-1.125-3.72 0-7.297 1.266-10.344 3.375-5.078 3.531-8.61 9.5-8.61 16.125 0 3.203 1.282 6.813 3.485 9.078C8.312-.329 11.844.844 15.937.844c4.126 0 7.516-.89 11.141-2.906l2.297-8.797c.703-2.672 1.5-3.188 4.563-3.375zm0 0" />
      <path id="o"
         d="M6.156-30.688v.75c2.875.094 3.578.657 3.578 1.922 0 .703-.187 1.61-.515 2.782L3.484-4.328C2.72-1.547 2.25-1.218-.375-.75V0h12.078c5.5 0 10.25-1.219 13.672-3.906 4.61-3.563 7.531-8.313 7.531-14.14 0-8.22-5.5-12.642-13.734-12.642zm8.407 3.235c.484-1.64 1.515-1.828 3.296-1.828 2.735 0 4.703.562 6.157 1.64 2.297 1.75 3.672 4.703 3.672 8.47 0 4.75-1.844 10.28-5.172 13.53-2.922 2.829-6.578 4.235-11.328 4.235-2.157 0-3.204-.516-3.204-1.75 0-.61.235-1.547 1.047-4.453zm0 0" />
      <path id="b"
         d="M12.219-14.75h-.469c-.266.469-.5.594-1 .594-.266 0-.578-.031-1.203-.235-.844-.234-1.297-.328-1.875-.328-2.469 0-4.031 1.406-4.031 3.61 0 1.062.671 2.562 2.093 4.375C7.047-5.11 7.61-3.97 7.61-2.906c0 1.64-.968 2.578-2.53 2.578-1.735 0-2.876-1.375-3.345-4.547h-.53L.53.438h.531c.235-.532.61-.704.97-.704.374 0 .843.032 1.468.297.766.297 1.266.328 1.844.328 2.765 0 4.797-1.687 4.797-4.468 0-1.297-.594-2.594-2.266-4.532-1.297-1.53-1.797-2.5-1.797-3.406 0-1.234.797-1.906 1.969-1.906 1.625 0 2.64 1.11 2.969 3.875h.53zm0 0" />
      <path id="c"
         d="M7.172-14.281c.031-.14.078-.297.078-.297 0-.078-.078-.14-.172-.14l-5.203.734.063.5h.734c.531 0 1.469.093 1.469.906 0 .156-.172 1.031-.532 2.36L-.234 4.202c-.407 1.578-.829 2.078-2.266 2.11v.53h6.766v-.53c-1.563 0-2.063-.235-2.063-.97 0-.468.766-3.202 1.328-5.546a4.705 4.705 0 0 0 2.313.562c4.875 0 9.906-5.406 9.906-10.906 0-2.61-1.36-4.172-3.828-4.172-2.016 0-3.906 1.063-5.719 3.766zm5.578 3.828c0 2.344-.703 4.781-2.297 7.015C8.984-1.374 7.375-.265 5.61-.265 4.672-.266 4-.796 4-1.53c0-1.14 1.203-5.438 2.172-7.953.766-2 2.734-3.797 4.516-3.797 1.5 0 2.062.937 2.062 2.828zm0 0" />
      <path id="d"
         d="M11.953-3.64c-2.406 1.968-3.437 2.5-4.906 2.5-1.875 0-3.11-1.204-3.11-3.032 0-.5 0-1.375.329-2.031 5.984-.766 9.484-3.375 9.484-6.25 0-1.39-.969-2.266-2.734-2.266C6-14.719 1.03-9.375 1.03-4.203c0 2.766 1.813 4.562 4.516 4.562 2.766 0 4.906-1.265 6.797-3.593zM5.078-8.407c1.125-2.969 3.406-5.547 5.297-5.547.938 0 1.172.5 1.172 1.297 0 1.047-.64 2.25-1.672 3.25C8.641-8.25 7.375-7.641 4.5-6.937Zm0 0" />
      <path id="e"
         d="M11.688-3.578C9.874-1.672 8.608-.828 6.843-.828c-1.907 0-2.969-1.406-2.969-3.813 0-2.968 1.172-5.812 3.031-7.78.969-1 2.313-1.595 3.64-1.595.767 0 1.235.266 1.235.672 0 .625-.5 1-.5 1.594 0 .672.36 1.344 1.297 1.344.875 0 1.61-.703 1.61-1.61 0-1.562-1.47-2.703-3.5-2.703-2.047 0-3.954.735-5.579 2.031C2.734-10.78 1-7.875 1-4.766 1-1.375 2.797.36 5.906.36c2.5 0 4.266-1.03 6.313-3.593zm0 0" />
      <path id="f"
         d="M14.281 7.563C7.703 2.063 6.297-3.25 6.297-11.985c0-9.079 1.453-13.438 7.984-19.032l-.422-.75C6.344-27.313 2.25-20.53 2.25-11.844c0 7.985 4.047 15.938 11.469 20.157zm0 0" />
      <path id="h"
         d="M3.906 6.625C7.141 5.078 9.172 2.109 9.172-.703c0-2.453-1.656-4.094-3.766-4.094-1.687 0-2.828 1.078-2.828 2.688 0 1.593 1 2.39 2.735 2.39.515 0 .984-.187 1.359-.187s.656.281.656.61c0 1.546-1.312 3.296-3.89 5.03Zm0 0" />
      <path id="j"
         d="M1.36-31.016c6.812 5.36 8 10.766 8 19.547 0 9.125-1.329 13.531-8 19.032l.421.75c7.485-4.547 11.61-11.22 11.61-19.922 0-7.985-4.266-15.844-11.47-20.157zm0 0" />
      <path id="k" d="M29.938-15.047v-3.094H2.25v3.094zm0 9.406v-3.093H2.25v3.093zm0 0" />
      <path id="p"
         d="M22.234-7.844v-3.015h-4.843v-20.907h-2.063L.563-10.859v3.015h13.156V0h3.672v-7.844Zm-8.515-3.015H2.438l11.28-16.125zm0 0" />
      <path id="g"
         d="M12.031 0v-1.125c-1.547-.047-2.344-.797-2.344-2.969v-27.672H.704v1.125c1.64.141 2.453 1.313 2.453 3.047v23.5c0 2.078-.812 2.828-2.406 2.969V0Zm0 0" />
      <path id="i"
         d="M22.797-21.672h-7.094v1.14c2.016.095 2.578.423 2.578 1.548 0 .562-.14 1.218-.515 2.109l-3.391 8.563-3.703-9.547c-.375-.938-.422-1.125-.422-1.453 0-.704.469-.985 1.64-1.125l.844-.094v-1.14H.984v1.14c1.032.14 1.313.281 1.594.656.438.563 2.172 4.313 3.11 6.625L11.328.656h1.219l7.515-18.61c.907-2.155 1.282-2.437 2.735-2.577zm0 0" />
      <path id="m"
         d="M25.094 0v-1.125c-1.64 0-2.297-.797-2.297-2.969v-11.75c0-3.703-2.266-6.39-6.11-6.39-2.5 0-4.609.89-6.906 3.625v-13.157H.703v1.125c2.156.422 2.547.61 2.547 2.86v23.593c0 2.641-.39 2.641-2.5 3.063V0h11.281v-1.125c-1.734-.234-2.25-.938-2.25-2.875v-12.36c0-.187.328-.656.797-1.124 1.031-1.032 2.156-1.594 3.281-1.594 1.844 0 2.407 1.219 2.407 4.562V-4c0 1.938-.563 2.688-2.172 2.875V0Zm0 0" />
      <path id="q"
         d="M25.328 0v-1.125c-1.828-.14-2.297-.703-2.297-2.828v-11.61c0-4.078-2.5-6.671-6.343-6.671-2.829 0-5.079 1.265-6.672 4.093h-.047v-3.53H.984v1.14c2.079.328 2.5.843 2.5 2.86v13.577c0 1.985-.375 2.547-2.5 2.969V0h11.282v-1.125c-1.735-.234-2.25-1.078-2.25-2.828V-16.36c0-.188.328-.657.796-1.125 1.032-1.032 2.157-1.594 3.282-1.594 1.61 0 2.406 1.36 2.406 3.984v11.14c0 1.892-.563 2.642-2.172 2.829V0Zm0 0" />
      <path id="r"
         d="M9.547-11.89c0-1.5-1.281-2.829-2.781-2.829-1.547 0-2.86 1.422-2.86 2.828 0 1.407 1.313 2.813 2.86 2.813 1.5 0 2.78-1.313 2.78-2.813zm0 0" />
      <path id="s" d="M12.875-3.125h.031v-12.453h2.188V0h-2.75L4.109-12.719h-.046V0H1.89v-15.578h2.843zm0 0" />
      <path id="t"
         d="M1.89-15.578h5.344c1 0 1.993.148 2.985.437a7.94 7.94 0 0 1 2.703 1.391c.812.637 1.469 1.445 1.969 2.422.5.98.75 2.164.75 3.547 0 1.336-.25 2.492-.75 3.468a7.171 7.171 0 0 1-1.97 2.407A8.49 8.49 0 0 1 10.22-.47 9.873 9.873 0 0 1 7.234 0H1.891ZM4.064-1.906h2.734c.937 0 1.805-.13 2.61-.39a6.03 6.03 0 0 0 2.062-1.157 5.145 5.145 0 0 0 1.36-1.844c.32-.738.483-1.566.483-2.484 0-.969-.164-1.817-.484-2.547a5.013 5.013 0 0 0-1.36-1.844c-.573-.488-1.261-.863-2.062-1.125a8.495 8.495 0 0 0-2.61-.39H4.063Zm0 0" />
      <path id="u" d="M4.063 0H1.89v-15.578h9.718v1.922H4.063v4.828h7.062v1.875H4.062Zm0 0" />
      <path id="v"
         d="M13.64-12.36c-.468-.519-1.07-.93-1.796-1.234-.719-.312-1.528-.469-2.422-.469-.918 0-1.742.168-2.469.5a5.76 5.76 0 0 0-1.875 1.36 6.035 6.035 0 0 0-1.187 1.984 6.807 6.807 0 0 0-.422 2.406c0 .868.14 1.684.422 2.454a5.995 5.995 0 0 0 1.187 1.984 5.516 5.516 0 0 0 1.89 1.328c.75.324 1.587.485 2.516.485.727 0 1.399-.063 2.016-.188a5.758 5.758 0 0 0 1.61-.578v-4.344H9.655v-1.844h5.61v7.547c-.825.438-1.72.774-2.688 1a13.21 13.21 0 0 1-3.156.36c-1.219 0-2.34-.2-3.36-.594a7.928 7.928 0 0 1-2.64-1.688 7.857 7.857 0 0 1-1.719-2.593c-.406-1.008-.61-2.118-.61-3.329 0-1.218.208-2.328.626-3.328a7.63 7.63 0 0 1 1.75-2.578 7.966 7.966 0 0 1 2.625-1.656c1.008-.395 2.11-.594 3.297-.594 1.25 0 2.359.184 3.328.547.976.367 1.789.856 2.437 1.469zm0 0" />
      <path id="w"
         d="M9.422-6.14a4.132 4.132 0 0 0-.219-1.141 2.662 2.662 0 0 0-.547-.938 2.557 2.557 0 0 0-.906-.64c-.355-.157-.777-.235-1.266-.235-.437 0-.855.078-1.25.235a3.115 3.115 0 0 0-1 .64 3.392 3.392 0 0 0-.703.938 2.69 2.69 0 0 0-.312 1.14zm2.078.843v.344c0 .117-.008.234-.016.36H3.22c.008.437.101.855.281 1.25.188.386.43.726.734 1.015a3.533 3.533 0 0 0 2.36.89c.707 0 1.316-.148 1.828-.453.52-.312.926-.687 1.219-1.125l1.453 1.172c-.563.73-1.227 1.266-1.985 1.61C8.36.109 7.52.28 6.594.28a6.132 6.132 0 0 1-2.203-.39 5.02 5.02 0 0 1-1.735-1.11 5.267 5.267 0 0 1-1.14-1.718c-.282-.676-.422-1.426-.422-2.25 0-.813.133-1.555.406-2.235.27-.687.645-1.27 1.125-1.75a5.267 5.267 0 0 1 1.719-1.14 5.643 5.643 0 0 1 2.14-.407c.77 0 1.461.125 2.079.375a4.24 4.24 0 0 1 1.578 1.078c.437.47.77 1.04 1 1.704.238.667.359 1.421.359 2.265Zm0 0" />
      <path id="x"
         d="M12.344-5.234a5.58 5.58 0 0 1-.438 2.218 5.11 5.11 0 0 1-1.187 1.75c-.5.493-1.102.871-1.797 1.141-.688.27-1.43.406-2.219.406a6.02 6.02 0 0 1-2.219-.406 5.22 5.22 0 0 1-1.78-1.14 5.338 5.338 0 0 1-1.188-1.75 5.713 5.713 0 0 1-.422-2.22c0-.812.14-1.55.422-2.218a5.34 5.34 0 0 1 2.969-2.86 6.02 6.02 0 0 1 2.218-.406c.79 0 1.531.137 2.219.406a5.33 5.33 0 0 1 1.797 1.141c.508.48.906 1.055 1.187 1.719.29.668.438 1.406.438 2.219zm-2.156 0c0-.5-.079-.973-.235-1.422a3.728 3.728 0 0 0-.672-1.203 3.283 3.283 0 0 0-1.094-.829C7.758-8.895 7.266-9 6.704-9c-.555 0-1.047.105-1.484.313-.43.21-.79.484-1.078.828a3.657 3.657 0 0 0-.672 1.203c-.156.449-.235.922-.235 1.422 0 .5.079.98.235 1.437.156.45.379.852.672 1.203.289.356.648.637 1.078.844.437.2.93.297 1.484.297.563 0 1.055-.098 1.484-.297.438-.207.801-.488 1.094-.844a3.9 3.9 0 0 0 .672-1.203c.156-.457.235-.937.235-1.437zm0 0" />
      <path id="y"
         d="M3.813-8.719c.257-.55.675-1.02 1.25-1.406.582-.395 1.269-.594 2.062-.594a3.79 3.79 0 0 1 1.906.485c.563.324 1.004.859 1.328 1.609a3.699 3.699 0 0 1 1.47-1.547 4.11 4.11 0 0 1 2.077-.547c.676 0 1.254.117 1.735.344.488.23.894.54 1.218.922.32.375.555.824.703 1.344a5.59 5.59 0 0 1 .235 1.64V0h-2.063v-5.781c0-.426-.039-.828-.109-1.203A3.111 3.111 0 0 0 15.25-8c-.18-.3-.414-.535-.703-.703-.293-.176-.668-.266-1.125-.266-.469 0-.875.102-1.219.297-.336.2-.61.453-.828.766-.21.312-.36.668-.453 1.062-.094.399-.14.805-.14 1.219V0H8.718v-6.203c0-.406-.043-.774-.125-1.11a2.286 2.286 0 0 0-.375-.875 1.67 1.67 0 0 0-.672-.578c-.281-.132-.625-.203-1.031-.203-.762 0-1.399.313-1.907.938-.511.617-.765 1.445-.765 2.484V0H1.78v-8.188c0-.28-.011-.64-.031-1.078-.012-.437-.031-.82-.063-1.156h1.97c.03.262.05.559.062.89.008.325.015.595.015.813zm0 0" />
      <path id="z"
         d="M6.89-8.734H4.11v5.437c0 .625.113 1.074.343 1.344.238.273.617.406 1.14.406.188 0 .391-.02.61-.062.219-.04.414-.102.594-.188l.062 1.688a5.71 5.71 0 0 1-1.75.28c-.992 0-1.746-.269-2.265-.812-.524-.539-.781-1.351-.781-2.437v-5.656h-2v-1.688h2v-3h2.046v3h2.782zm0 0" />
      <path id="A"
         d="M1.781-8.188c0-.28-.011-.64-.031-1.078-.012-.437-.031-.82-.063-1.156h1.97c.03.262.05.563.062.906.008.344.015.625.015.844h.079c.289-.613.718-1.11 1.28-1.484A3.353 3.353 0 0 1 7-10.72c.32 0 .594.031.813.094l-.094 1.906a4.005 4.005 0 0 0-.938-.11c-.5 0-.937.095-1.312.282a2.617 2.617 0 0 0-.907.75 3.186 3.186 0 0 0-.546 1.063 4.393 4.393 0 0 0-.172 1.25V0H1.78zm0 0" />
      <path id="B"
         d="M5.734-2.25h.047l2.89-8.172h2.204L5.812 2.468c-.18.438-.37.829-.578 1.173-.21.343-.453.632-.734.875-.273.25-.594.437-.969.562-.375.133-.82.203-1.328.203-.219 0-.445-.011-.672-.031a4.167 4.167 0 0 1-.687-.125l.187-1.828c.352.113.696.172 1.032.172.539 0 .94-.153 1.203-.453.27-.293.515-.72.734-1.282L4.656 0 .203-10.422h2.313zm0 0" />
      <path id="C"
         d="M7.406-7.781a2.647 2.647 0 0 0-.984-.938A2.773 2.773 0 0 0 5-9.094c-.242 0-.48.028-.719.078-.23.055-.437.137-.625.25-.18.106-.324.246-.437.422a1.15 1.15 0 0 0-.156.625c0 .438.195.766.593.985.395.21.989.402 1.781.578.5.117.958.258 1.375.422.426.156.797.355 1.11.593.32.243.57.532.75.875.176.336.265.73.265 1.188 0 .617-.12 1.137-.359 1.562-.23.43-.543.778-.937 1.047A3.676 3.676 0 0 1 6.312.11c-.5.114-1.011.172-1.53.172-.794 0-1.571-.152-2.329-.453A4.5 4.5 0 0 1 .578-1.578l1.469-1.266a3.38 3.38 0 0 0 1.156 1.047 3.231 3.231 0 0 0 1.61.406c.269 0 .523-.023.765-.078.238-.05.457-.133.656-.25.196-.113.352-.265.47-.453.124-.195.187-.441.187-.734 0-.477-.235-.832-.704-1.063-.46-.238-1.136-.46-2.03-.672a20.656 20.656 0 0 1-1.079-.312 3.544 3.544 0 0 1-.969-.516 2.817 2.817 0 0 1-.718-.828c-.18-.332-.266-.742-.266-1.234 0-.551.11-1.024.328-1.422a3.01 3.01 0 0 1 .89-1 4.068 4.068 0 0 1 1.266-.578 5.615 5.615 0 0 1 1.454-.188c.75 0 1.468.153 2.156.453.695.293 1.238.715 1.625 1.266zm0 0" />
      <path id="D"
         d="M3.656-10.422c.031.262.051.559.063.89.008.325.015.595.015.813h.079c.124-.27.3-.523.53-.765.227-.25.489-.461.782-.641.29-.188.613-.332.969-.438a3.937 3.937 0 0 1 1.093-.156c.676 0 1.254.117 1.735.344.488.23.894.54 1.219.922.32.375.562.824.718 1.344a5.59 5.59 0 0 1 .235 1.64V0H9.016v-5.781c0-.426-.032-.828-.094-1.203A2.852 2.852 0 0 0 8.562-8a1.87 1.87 0 0 0-.734-.703c-.305-.176-.7-.266-1.187-.266-.825 0-1.496.313-2.016.938-.523.617-.781 1.445-.781 2.484V0H1.78v-8.188c0-.28-.011-.64-.031-1.078-.012-.437-.031-.82-.063-1.156zm0 0" />
      <path id="E" d="M3.89 0H1.829v-16.625h2.063zm0 0" />
      <path id="G"
         d="M10.797 0H8.734v-16.625h2.063zm-4.11-8.734H4.267V0H2.203v-8.734H.125v-1.688h2.078v-2.187c0-.614.067-1.18.203-1.704.145-.519.375-.968.688-1.343.312-.383.71-.688 1.203-.906.488-.22 1.086-.329 1.797-.329.5 0 .93.055 1.297.157l-.235 1.78a3.378 3.378 0 0 0-.5-.108 2.826 2.826 0 0 0-.547-.047c-.398 0-.714.07-.953.203-.242.136-.43.324-.562.562a2.759 2.759 0 0 0-.266.813 6.37 6.37 0 0 0-.062.922v2.187h2.421Zm0 0" />
      <path id="H"
         d="M9.094-7.781c-.23-.344-.563-.625-1-.844a3.018 3.018 0 0 0-1.406-.344c-.543 0-1.024.106-1.438.313-.418.199-.777.469-1.078.812A3.657 3.657 0 0 0 3.5-6.64c-.148.45-.219.922-.219 1.422 0 .5.07.98.219 1.438.156.449.379.851.672 1.203.3.344.66.621 1.078.828.426.2.91.297 1.453.297.531 0 1.008-.098 1.438-.297a2.97 2.97 0 0 0 1.078-.844l1.39 1.25c-.449.512-1 .914-1.656 1.203-.656.282-1.406.422-2.25.422a6.304 6.304 0 0 1-2.234-.39 5.154 5.154 0 0 1-1.766-1.11 5.204 5.204 0 0 1-1.187-1.718c-.282-.676-.422-1.438-.422-2.282 0-.82.14-1.566.422-2.234a5.08 5.08 0 0 1 1.171-1.734 5.133 5.133 0 0 1 1.766-1.126 6.02 6.02 0 0 1 2.219-.406c.726 0 1.453.153 2.172.453.726.293 1.304.715 1.734 1.266zm0 0" />
      <path id="I"
         d="M8.266-6.75c0-.781-.235-1.36-.704-1.734-.468-.375-1.09-.563-1.859-.563-.594 0-1.152.117-1.672.344-.523.23-.953.523-1.297.875L1.625-9.156c.508-.477 1.133-.86 1.875-1.14a6.752 6.752 0 0 1 2.39-.423c.75 0 1.4.11 1.954.328.55.211 1 .5 1.343.875.352.368.618.797.797 1.297.176.492.266 1.024.266 1.594v4.563c0 .343.008.714.031 1.109.02.387.063.703.125.953H8.531c-.117-.5-.172-1-.172-1.5h-.062c-.387.563-.871 1-1.453 1.313-.574.3-1.258.453-2.047.453-.406 0-.836-.059-1.281-.172A3.664 3.664 0 0 1 2.28-.437a3.01 3.01 0 0 1-.906-.985c-.242-.414-.36-.926-.36-1.531 0-.79.208-1.414.626-1.875.425-.457.984-.805 1.671-1.047.696-.25 1.477-.41 2.344-.484.864-.07 1.735-.11 2.61-.11Zm-.5 1.781c-.512 0-1.043.024-1.594.063a7.198 7.198 0 0 0-1.5.265c-.45.137-.82.336-1.11.594-.292.262-.437.617-.437 1.063 0 .304.063.558.188.765.124.211.285.383.484.516.207.125.437.215.687.266.25.054.508.078.782.078.957 0 1.695-.29 2.218-.875.52-.582.782-1.313.782-2.188v-.547Zm0 0" />
   </defs>
   <use xlink:href="#a" x="129.28" y="296.996" fill="#838787" transform="translate(-122.374 -176.335)" />
   <use xlink:href="#b" x="140.694" y="308.746" fill="#838787" transform="translate(-122.374 -176.335)" />
   <use xlink:href="#c" x="153.675" y="308.746" fill="#838787" transform="translate(-122.374 -176.335)" />
   <use xlink:href="#d" x="170.494" y="308.746" fill="#838787" transform="translate(-122.374 -176.335)" />
   <use xlink:href="#e" x="185.31" y="308.746" fill="#838787" transform="translate(-122.374 -176.335)" />
   <use xlink:href="#f" x="200.126" y="296.996" fill="#838787" transform="translate(-122.374 -176.335)" />
   <use xlink:href="#g" x="215.777" y="296.996" fill="#838787" transform="translate(-122.374 -176.335)" />
   <use xlink:href="#h" x="228.843" y="296.996" fill="#838787" transform="translate(-122.374 -176.335)" />
   <use xlink:href="#i" x="248.427" y="296.996" fill="#838787" transform="translate(-122.374 -176.335)" />
   <use xlink:href="#j" x="271.927" y="296.996" fill="#838787" transform="translate(-122.374 -176.335)" />
   <use xlink:href="#k" x="300.633" y="296.996" fill="#838787" transform="translate(-122.374 -176.335)" />
   <use xlink:href="#l" x="350.584" y="263.861" fill="#838787" transform="translate(-122.374 -176.335)" />
   <use xlink:href="#f" x="379.301" y="263.861" fill="#838787" transform="translate(-122.374 -176.335)" />
   <use xlink:href="#m" x="394.952" y="263.861" fill="#838787" transform="translate(-122.374 -176.335)" />
   <use xlink:href="#h" x="421.084" y="263.861" fill="#838787" transform="translate(-122.374 -176.335)" />
   <use xlink:href="#g" x="440.667" y="263.861" fill="#838787" transform="translate(-122.374 -176.335)" />
   <use xlink:href="#j" x="453.733" y="263.861" fill="#838787" transform="translate(-122.374 -176.335)" />
   <use xlink:href="#n" x="477.233" y="263.861" fill="#838787" transform="translate(-122.374 -176.335)" />
   <use xlink:href="#f" x="511.167" y="263.861" fill="#838787" transform="translate(-122.374 -176.335)" />
   <use xlink:href="#g" x="526.818" y="263.861" fill="#838787" transform="translate(-122.374 -176.335)" />
   <use xlink:href="#h" x="539.884" y="263.861" fill="#838787" transform="translate(-122.374 -176.335)" />
   <use xlink:href="#i" x="559.468" y="263.861" fill="#838787" transform="translate(-122.374 -176.335)" />
   <use xlink:href="#h" x="582.968" y="263.861" fill="#838787" transform="translate(-122.374 -176.335)" />
   <use xlink:href="#m" x="602.551" y="263.861" fill="#838787" transform="translate(-122.374 -176.335)" />
   <use xlink:href="#j" x="628.683" y="263.861" fill="#838787" transform="translate(-122.374 -176.335)" />
   <use xlink:href="#o" x="652.183" y="263.861" fill="#838787" transform="translate(-122.374 -176.335)" />
   <use xlink:href="#f" x="686.117" y="263.861" fill="#838787" transform="translate(-122.374 -176.335)" />
   <use xlink:href="#m" x="701.768" y="263.861" fill="#838787" transform="translate(-122.374 -176.335)" />
   <use xlink:href="#j" x="727.9" y="263.861" fill="#838787" transform="translate(-122.374 -176.335)" />
   <path fill="#838787" d="M223.51 107.22h402.366v3.101H223.51Zm0 0" />
   <use xlink:href="#p" x="425.269" y="332.246" fill="#838787" transform="translate(-122.374 -176.335)" />
   <use xlink:href="#f" x="448.769" y="332.246" fill="#838787" transform="translate(-122.374 -176.335)" />
   <use xlink:href="#q" x="464.421" y="332.246" fill="#838787" transform="translate(-122.374 -176.335)" />
   <use xlink:href="#r" x="500.997" y="332.246" fill="#838787" transform="translate(-122.374 -176.335)" />
   <use xlink:href="#g" x="524.883" y="332.246" fill="#838787" transform="translate(-122.374 -176.335)" />
   <use xlink:href="#j" x="537.949" y="332.246" fill="#838787" transform="translate(-122.374 -176.335)" />
   <use xlink:href="#f" x="553.6" y="332.246" fill="#838787" transform="translate(-122.374 -176.335)" />
   <use xlink:href="#q" x="569.251" y="332.246" fill="#838787" transform="translate(-122.374 -176.335)" />
   <use xlink:href="#r" x="605.828" y="332.246" fill="#838787" transform="translate(-122.374 -176.335)" />
   <use xlink:href="#i" x="629.714" y="332.246" fill="#838787" transform="translate(-122.374 -176.335)" />
   <use xlink:href="#j" x="653.214" y="332.246" fill="#838787" transform="translate(-122.374 -176.335)" />
   <g fill="#a01d76" transform="translate(-122.374 -176.335)">
      <use xlink:href="#s" x="689.427" y="193.226" />
      <use xlink:href="#t" x="706.411" y="193.226" />
      <use xlink:href="#u" x="723.153" y="193.226" />
   </g>
   <g fill="#4c8945" transform="translate(-122.374 -176.335)">
      <use xlink:href="#v" x="537.352" y="193.226" />
      <use xlink:href="#w" x="554.468" y="193.226" />
      <use xlink:href="#x" x="567.074" y="193.226" />
      <use xlink:href="#y" x="580.494" y="193.226" />
      <use xlink:href="#w" x="600.008" y="193.226" />
      <use xlink:href="#z" x="612.614" y="193.226" />
      <use xlink:href="#A" x="619.852" y="193.226" />
      <use xlink:href="#B" x="627.816" y="193.226" />
   </g>
   <use xlink:href="#u" x="268.939" y="193.226" fill="#f96928" transform="translate(-122.374 -176.335)" />
   <use xlink:href="#A" x="280.511" y="193.226" fill="#f96928" transform="translate(-122.374 -176.335)" />
   <g fill="#f96928" transform="translate(-122.374 -176.335)">
      <use xlink:href="#w" x="288.079" y="193.226" />
      <use xlink:href="#C" x="300.685" y="193.226" />
      <use xlink:href="#D" x="310.453" y="193.226" />
      <use xlink:href="#w" x="323.257" y="193.226" />
      <use xlink:href="#E" x="335.863" y="193.226" />
      <use xlink:href="#F" x="341.583" y="193.226" />
      <use xlink:href="#A" x="347.083" y="193.226" />
   </g>
   <use xlink:href="#w" x="354.651" y="193.226" fill="#f96928" transform="translate(-122.374 -176.335)" />
   <use xlink:href="#G" x="367.257" y="193.226" fill="#f96928" transform="translate(-122.374 -176.335)" />
   <g fill="#f96928" transform="translate(-122.374 -176.335)">
      <use xlink:href="#w" x="379.885" y="193.226" />
      <use xlink:href="#H" x="392.491" y="193.226" />
      <use xlink:href="#z" x="403.359" y="193.226" />
      <use xlink:href="#I" x="410.597" y="193.226" />
      <use xlink:href="#D" x="422.521" y="193.226" />
      <use xlink:href="#H" x="435.325" y="193.226" />
      <use xlink:href="#w" x="446.193" y="193.226" />
      <use xlink:href="#F" x="458.799" y="193.226" />
   </g>
   <path fill="none" stroke="#f96928" stroke-width="2" d="M219.521 30.321h132.832v74.727H219.521Zm0 0" />
   <path fill="none" stroke="#4c8945" stroke-width="2" d="M358.83 30.321h161.3v74.727h-161.3Zm0 0" />
   <path fill="none" stroke="#a01d76" stroke-width="2" d="M526.607 30.321h107.848v74.727H526.607Zm0 0" />
</svg>
