<svg xmlns="http://www.w3.org/2000/svg" width="500" viewBox="0 0 290.409 107.07">
   <defs>
      <clipPath id="a">
         <path d="M83.64 432H90v7h-6.36zm0 0" />
      </clipPath>
      <clipPath id="b">
         <path d="M364 507h10.05v9H364Zm0 0" />
      </clipPath>
      <clipPath id="c">
         <path d="M254 529h6v5.863h-6zm0 0" />
      </clipPath>
      <clipPath id="d">
         <path d="M289 529h5v5.863h-5zm0 0" />
      </clipPath>
   </defs>
   <path fill="none" stroke="#838787" stroke-miterlimit="1" stroke-width=".647"
      d="M9.613 5.992v78.254M12.848 14.402l-3.235-8.41-2.59 8.41M9.613 84.246H71.7M63.937 86.836l7.762-2.59-7.762-3.23" />
   <path fill="#838787"
      d="m71.46 93.566-1.19 1.168c-.223.215-.204.301.175.301l-.066.207h-1.207l.066-.207c.196 0 .356-.082.645-.344l1.488-1.402-.441-1.309c-.125-.386-.235-.402-.457-.402l.066-.207h1.52l-.063.207c-.394 0-.457.078-.351.39l.277.915h.023l1.008-.969c.254-.234.27-.336-.098-.336l.067-.207h1.164l-.067.207c-.21 0-.336.078-.625.332l-1.363 1.25.492 1.465c.141.39.278.41.473.41l-.066.207h-1.528l.063-.207c.379 0 .437-.07.336-.383l-.325-1.086h-.015" />
   <g clip-path="url(#a)" transform="translate(-83.64 -427.793)">
      <path fill="#838787"
         d="M85.79 433.246c-.044-.504-.083-.539-.388-.539l.067-.203h1.46l-.066.203c-.41 0-.472.074-.437.445l.172 2.41h.02l1.714-2.55c.168-.242.148-.301-.227-.301l.067-.207h1.125l-.067.203c-.28 0-.355.035-.59.379l-2.906 4.3a3.65 3.65 0 0 1-.668.747c-.246.191-.511.312-.808.312-.238 0-.414-.062-.524-.164a.33.33 0 0 1-.093-.347.316.316 0 0 1 .289-.22c.183 0 .246.11.28.231.044.121.083.227.231.227.344.008.727-.488.93-.774l.73-1.113-.312-3.039" />
   </g>
   <path fill="#838787"
      d="M6.676 89.102c0 1.062-.371 3.03-1.985 3.03-1.613 0-1.984-1.968-1.984-3.03 0-1.036.371-3.028 1.984-3.028 1.614 0 1.985 1.992 1.985 3.028zm-3.125 0c0 .71.02 2.8 1.14 2.8 1.125 0 1.141-2.105 1.141-2.8 0-.594-.016-2.797-1.14-2.797-1.122 0-1.141 2.203-1.141 2.797" />
   <path fill="none" stroke="#838787" stroke-miterlimit="1" stroke-width="1.293" d="m25.133 21.516 47.21 47.21" />
   <path fill="#838787"
      d="M25.145 13.383c0-.352-.024-.5-.332-.5-.082 0-.168 0-.247.008v-.14a19.4 19.4 0 0 0 1.262-.446l.055.015v.641l.015.02c.188-.246.59-.676 1.266-.676.781 0 1.45.719 1.45 1.887 0 1.007-.626 2.238-1.844 2.238-.352 0-.598-.098-.887-.38v1.38c0 .562.14.656.773.656v.16h-2.125v-.148c.578-.047.614-.23.614-.606zm.738 2.183c0 .204.414.582.894.582.29 0 1.078-.168 1.078-1.695 0-.2-.043-1.625-1.113-1.625-.316 0-.808.246-.86.582v2.156M33 14.34c0 .87-.613 2.09-1.95 2.09-1.132 0-1.921-.907-1.921-2.09 0-1.078.719-2.035 1.894-2.035 1.153 0 1.977.761 1.977 2.035zm-.79.254c0-1.086-.448-2.043-1.253-2.043-.555 0-1.039.457-1.039 1.367 0 .648.203 2.266 1.258 2.266.445 0 1.035-.336 1.035-1.59M33.45 16.21c.515-.034.675-.151.675-.632v-4.187c0-.395-.055-.536-.395-.536-.113 0-.195.008-.3.016v-.14c.465-.114.933-.235 1.398-.383l.035.015v5.242c0 .508.149.579.657.606v.129h-2.07v-.13M39.871 12.523c-.113.02-.289.036-.418.395L38.098 16.5c-.446 1.176-.832 1.754-1.493 1.754-.437 0-.636-.281-.636-.508 0-.055.015-.387.418-.387.238 0 .511.157.625.157.457 0 .808-1.211.808-1.352 0-.129-.422-.937-.547-1.21l-1-2.157c-.105-.223-.332-.266-.445-.281v-.125h1.805v.132c-.2.008-.508.02-.508.254 0 .114.063.254.09.317l1.008 2.219.683-1.946c.09-.238.203-.52.203-.597 0-.168-.14-.254-.422-.247v-.132h1.184v.132M43.488 12.938c.09.199.168.367.168.804 0 .95-.906 1.29-1.398 1.29-.102 0-.418-.044-.473-.044-.176.02-.527.38-.527.555 0 .2.422.227.687.234l1.133.055c.938.043 1.059.691 1.059.938 0 .992-1.457 1.484-2.246 1.484-.895 0-1.555-.387-1.555-.852 0-.394.414-.754.863-1.07-.238-.113-.469-.219-.469-.465 0-.148 0-.262.782-.957-.516-.226-.813-.633-.813-1.14 0-1.043.84-1.465 1.508-1.465.309 0 .5.07.852.203.183.066.34.086.484.086h.672v.343zm-1.218 4.816c1.027 0 1.62-.387 1.62-.852 0-.394-.43-.414-1.077-.43-.825-.027-1.02-.027-1.43-.113-.274.325-.43.508-.43.774 0 .27.317.62 1.317.62zm.07-2.941c.594 0 .64-.649.64-.84 0-.246-.14-1.422-.894-1.422-.316 0-.66.203-.66.789 0 .691.23 1.473.914 1.473M48.605 14.34c0 .87-.617 2.09-1.949 2.09-1.133 0-1.922-.907-1.922-2.09 0-1.078.72-2.035 1.895-2.035 1.152 0 1.976.761 1.976 2.035zm-.793.254c0-1.086-.445-2.043-1.253-2.043-.551 0-1.036.457-1.036 1.367 0 .648.204 2.266 1.254 2.266.45 0 1.035-.336 1.035-1.59M49.57 13.375c0-.555-.168-.562-.308-.562a.67.67 0 0 0-.254.035v-.149c.394-.113.808-.246 1.21-.394l.063.015v.696c.43-.407.762-.711 1.281-.711.403 0 1.028.234 1.028 1.316v2.008c0 .414.105.547.535.582v.129h-1.824v-.13c.324-.027.55-.073.55-.737v-1.836c0-.536-.156-.852-.675-.852-.262 0-.535.176-.867.5v2.469c0 .289.12.43.578.457v.129h-1.86v-.13c.41-.027.543-.144.543-.66v-2.175" />
   <path fill="none" stroke="#127bb6" stroke-miterlimit="1" stroke-width=".878" d="M49.062 45.441 65.23 28.63" />
   <path fill="#127bb6" fill-rule="evenodd" d="m66.523 30.57 3.235-6.468-6.469 3.234 3.234 3.234" />
   <path fill="none" stroke="#838787" stroke-miterlimit="1" stroke-width=".647"
      d="M118.91 5.992v78.254M121.496 14.402l-2.586-8.41-3.234 8.41M118.91 84.246h61.438M172.586 86.836l7.762-2.586-7.762-3.234M227.559 5.992V84.25M230.793 14.402l-3.234-8.41-2.586 8.41M227.559 84.25h62.734" />
   <g clip-path="url(#b)" transform="translate(-83.64 -427.793)">
      <path fill="none" stroke="#838787" stroke-miterlimit="1" stroke-width=".647"
         d="m365.527 514.629 8.407-2.59-8.407-3.23" />
   </g>
   <path fill="none" stroke="#838787" stroke-miterlimit="1" stroke-width="1.293" d="m128.617 21.516 23.281 47.21" />
   <path fill="none" stroke="#127bb6" stroke-miterlimit="1" stroke-width=".878" d="m140.258 45.441 10.347-20.695" />
   <path fill="#127bb6" fill-rule="evenodd" d="m152.766 25.836.648-7.117-5.176 5.176 4.528 1.94" />
   <path fill="none" stroke="#127bb6" stroke-miterlimit="1" stroke-width=".878" d="M248.305 45.441 269 35.098" />
   <path fill="#127bb6" fill-rule="evenodd" d="m269.648 37.477 5.172-5.176-7.113.648 1.941 4.528" />
   <path fill="#838787"
      d="M131.336 5.86c.547-.024.695-.079.695-.762V3.063c0-.52-.168-.528-.308-.528-.121 0-.235.016-.352.035v-.132c.457-.149.906-.317 1.36-.485l.039.028v3.117c0 .578.043.726.648.761v.133h-2.082zM132.32 0c.262 0 .457.2.457.445 0 .254-.195.45-.457.45-.316 0-.437-.282-.437-.45 0-.168.129-.445.437-.445M134.34 3.027c0-.554-.168-.562-.309-.562a.667.667 0 0 0-.254.035v-.148c.395-.118.809-.246 1.211-.399l.063.02v.695c.43-.406.761-.715 1.281-.715.402 0 1.027.238 1.027 1.32v2.008c0 .414.106.543.536.578v.133h-1.825V5.86c.325-.023.551-.07.551-.738V3.29c0-.535-.156-.851-.676-.851-.261 0-.535.175-.867.5v2.464c0 .293.121.434.578.457v.133h-1.86V5.86c.411-.023.544-.14.544-.656V3.027M141.64 4.703c-.472 1-1.042 1.375-1.753 1.375-.703 0-1.64-.566-1.64-1.957 0-1.437 1.015-2.168 1.964-2.168.316 0 .71.133.93.274.265.183.379.457.379.617 0 .199-.141.367-.407.383-.226.02-.375-.211-.43-.403l-.05-.191c-.07-.266-.113-.422-.582-.422-.324 0-1.13.27-1.13 1.562 0 1.008.606 1.676 1.34 1.676.634 0 .958-.379 1.259-.828l.12.082M146.047 3.992c0 .867-.613 2.09-1.95 2.09-1.132 0-1.921-.906-1.921-2.09 0-1.078.719-2.035 1.898-2.035 1.149 0 1.973.762 1.973 2.035zm-.79.254c0-1.09-.448-2.043-1.253-2.043-.555 0-1.04.453-1.04 1.367 0 .649.204 2.266 1.259 2.266.445 0 1.035-.336 1.035-1.59M146.977 3.063c0-.52-.168-.528-.305-.528-.125 0-.223.02-.3.035v-.14c.429-.14.87-.297 1.3-.473l.043.016v.78h.015c.415-.62.715-.796 1.047-.796.297 0 .473.184.473.473 0 .218-.121.386-.332.386-.309 0-.395-.308-.606-.308-.21 0-.597.441-.597.722v1.973c0 .606.297.64.746.66v.13h-2.106v-.13c.48-.09.622-.117.622-.605V3.063M149.898 3.063c0-.52-.164-.528-.304-.528-.125 0-.219.02-.301.035v-.14c.43-.14.871-.297 1.3-.473l.044.016v.78h.02c.41-.62.71-.796 1.042-.796.301 0 .473.184.473.473 0 .218-.121.386-.332.386-.309 0-.395-.308-.606-.308-.21 0-.597.441-.597.722v1.973c0 .606.3.64.746.66v.13h-2.106v-.13c.485-.09.621-.117.621-.605V3.063M155.875 4.613c-.086.274-.594 1.469-1.86 1.469-.972 0-1.64-.723-1.64-1.969 0-1.62 1.086-2.16 1.79-2.16.827 0 1.448.457 1.546 1.61h-2.73c.105 1.55.816 1.914 1.394 1.914.781 0 1.16-.598 1.363-.922zm-1.063-1.332c-.058-.422-.148-1.011-.84-1.011-.484 0-.824.238-.964 1.011h1.804M159.668 4.703c-.473 1-1.043 1.375-1.754 1.375-.703 0-1.64-.566-1.64-1.957 0-1.437 1.015-2.168 1.964-2.168.317 0 .711.133.93.274.262.183.379.457.379.617 0 .199-.14.367-.406.383-.227.02-.375-.211-.43-.403l-.05-.191c-.071-.266-.114-.422-.583-.422-.324 0-1.129.27-1.129 1.562 0 1.008.606 1.676 1.34 1.676.633 0 .957-.379 1.258-.828l.12.082M162.187 2.324h-.886v2.512c0 .27 0 .789.449.789.281 0 .437-.195.535-.309l.113.098c-.21.379-.62.668-1.027.668-.45 0-.809-.238-.809-1.117v-2.64h-.464a.078.078 0 0 1-.036-.063c0-.106.196-.156.387-.352.336-.34.465-.535.79-1 .062 0 .062.043.062.113v1.02h.886v.281M247.344 4.703c-.473 1-1.043 1.375-1.754 1.375-.703 0-1.64-.566-1.64-1.957 0-1.437 1.015-2.168 1.964-2.168.316 0 .711.133.93.274.261.183.379.457.379.617 0 .199-.141.367-.407.383-.226.02-.375-.211-.43-.403l-.05-.191c-.07-.266-.113-.422-.582-.422-.324 0-1.129.27-1.129 1.562 0 1.008.605 1.676 1.34 1.676.633 0 .957-.379 1.258-.828l.12.082M251.75 3.992c0 .867-.613 2.09-1.95 2.09-1.132 0-1.921-.906-1.921-2.09 0-1.078.719-2.035 1.898-2.035 1.149 0 1.973.762 1.973 2.035zm-.79.254c0-1.09-.448-2.043-1.253-2.043-.555 0-1.039.453-1.039 1.367 0 .649.203 2.266 1.258 2.266.445 0 1.035-.336 1.035-1.59M252.68 3.063c0-.52-.168-.528-.305-.528-.125 0-.223.02-.3.035v-.14c.429-.14.87-.297 1.3-.473l.043.016v.78h.016c.414-.62.71-.796 1.046-.796.297 0 .473.184.473.473 0 .218-.121.386-.332.386-.309 0-.394-.308-.605-.308-.211 0-.598.441-.598.722v1.973c0 .606.297.64.746.66v.13h-2.105v-.13c.48-.09.62-.117.62-.605V3.063M255.602 3.063c0-.52-.165-.528-.305-.528-.125 0-.219.02-.3.035v-.14c.429-.14.87-.297 1.3-.473l.043.016v.78h.02c.41-.62.71-.796 1.042-.796.301 0 .473.184.473.473 0 .218-.121.386-.332.386-.309 0-.395-.308-.606-.308-.21 0-.597.441-.597.722v1.973c0 .606.3.64.746.66v.13h-2.106v-.13c.485-.09.622-.117.622-.605V3.063M261.582 4.613c-.09.274-.598 1.469-1.863 1.469-.973 0-1.64-.723-1.64-1.969 0-1.62 1.089-2.16 1.792-2.16.824 0 1.445.457 1.543 1.61h-2.73c.105 1.55.816 1.914 1.394 1.914.781 0 1.16-.598 1.363-.922zm-1.062-1.332c-.063-.422-.153-1.011-.844-1.011-.48 0-.824.238-.965 1.011h1.809M265.371 4.703c-.473 1-1.043 1.375-1.754 1.375-.703 0-1.64-.566-1.64-1.957 0-1.437 1.015-2.168 1.964-2.168.317 0 .707.133.93.274.262.183.379.457.379.617 0 .199-.145.367-.406.383-.227.02-.38-.211-.43-.403l-.05-.191c-.071-.266-.118-.422-.583-.422-.324 0-1.133.27-1.133 1.562 0 1.008.606 1.676 1.344 1.676.633 0 .957-.379 1.258-.828l.121.082M267.89 2.324h-.886v2.512c0 .27 0 .789.445.789.281 0 .442-.195.54-.309l.113.098c-.211.379-.625.668-1.028.668-.449 0-.808-.238-.808-1.117v-2.64h-.465a.078.078 0 0 1-.035-.063c0-.106.195-.156.386-.352.332-.34.465-.535.79-1 .062 0 .062.043.062.113v1.02h.887v.281" />
   <path fill="none" stroke="#838787" stroke-miterlimit="1" stroke-width="1.293" d="m236.664 21.516 23.281 47.21" />
   <path fill="#838787"
      d="M145.316 102.754c-.191-.895-.586-1.078-.972-1.078-.485 0-.668.34-.668.566 0 .18.05.434.379.625l.945.563c.43.261.738.508.738 1.035 0 .762-.71 1.133-1.273 1.133-.395 0-.77-.168-1.016-.16-.105 0-.14.027-.195.105h-.113v-1.367h.14c.106.465.274 1.226 1.133 1.226.297 0 .711-.14.711-.64 0-.282-.176-.492-.457-.649l-.508-.289c-.547-.308-1.027-.633-1.027-1.281 0-.492.375-1.07 1.226-1.07.387 0 .66.175.809.175.078 0 .125-.062.148-.097h.098l.035 1.203h-.133M149.715 104.219c-.473 1-1.043 1.379-1.754 1.379-.703 0-1.64-.57-1.64-1.957 0-1.442 1.015-2.168 1.964-2.168.313 0 .711.132.93.27.262.187.375.456.375.616 0 .2-.137.368-.403.387-.226.016-.378-.21-.43-.406l-.05-.192c-.074-.265-.117-.421-.582-.421-.324 0-1.133.273-1.133 1.562 0 1.008.606 1.676 1.344 1.676.633 0 .957-.375 1.254-.824l.125.078M153.875 105.156c-.371.434-.64.442-.781.442-.16 0-.528-.008-.57-.641-.325.29-.79.64-1.274.64-.473 0-.93-.324-.93-.913 0-.88.762-1.176 2.196-1.739v-.535c0-.633-.414-.726-.676-.726-.293 0-.625.156-.625.43 0 .128.043.261.043.34a.393.393 0 0 1-.395.378c-.27 0-.375-.246-.375-.387 0-.351.41-.972 1.43-.972 1.309 0 1.309.879 1.309 1.402v1.715c0 .254 0 .508.253.508.184 0 .297-.09.395-.168zm-1.36-2c-1.328.442-1.421.93-1.421 1.23v.016c0 .414.254.688.578.688.191 0 .465-.117.543-.16.273-.133.3-.239.3-.5v-1.274M154.078 105.379c.516-.035.676-.152.676-.633v-4.187c0-.395-.055-.536-.399-.536-.113 0-.19.008-.296.02v-.145c.464-.113.93-.234 1.394-.382l.035.015v5.238c0 .512.149.582.66.61v.129h-2.07v-.13M160.055 104.133c-.09.27-.598 1.465-1.864 1.465-.972 0-1.64-.72-1.64-1.965 0-1.625 1.09-2.16 1.793-2.16.824 0 1.445.457 1.543 1.605h-2.73c.105 1.555.816 1.914 1.394 1.914.781 0 1.16-.597 1.363-.922zm-1.063-1.336c-.062-.422-.148-1.008-.844-1.008-.48 0-.824.234-.964 1.008h1.808M164.54 105.14c-.423.15-.825.29-1.29.458l-.035-.028v-.535h-.02c-.156.238-.484.563-1.133.563-.34 0-1.597-.176-1.597-1.97 0-1.147.836-2.155 1.816-2.155.38 0 .64.12.934.375v-1.367c0-.266 0-.45-.387-.45-.055 0-.14 0-.21.012v-.145c.437-.113.866-.234 1.288-.382l.043.015v4.977c0 .36 0 .535.59.492zm-1.325-2.546c-.063-.598-.492-.875-.906-.875-.493 0-1.09.43-1.09 1.62 0 1.31.633 1.802 1.215 1.802.367 0 .71-.211.78-.528v-2.02M167.418 100.48c0-.261 0-.449-.387-.449-.054 0-.14 0-.191.012v-.14c.418-.118.847-.239 1.27-.387l.046.015v2.653h.016c.05-.204.52-.711 1.183-.711 1.063 0 1.563 1.007 1.563 1.949 0 .789-.516 2.176-2.14 2.176-.438 0-1.36-.239-1.36-.563zm.738 4.415c0 .308.621.421.84.421 1.012 0 1.149-.992 1.149-1.57 0-.816-.313-1.723-1.114-1.723-.281 0-.844.16-.875.66v2.212" />
   <g clip-path="url(#c)" transform="translate(-83.64 -427.793)">
      <path fill="#838787"
         d="M259.008 529.484c-.113.02-.29.036-.422.395l-1.352 3.582c-.445 1.176-.832 1.754-1.492 1.754-.437 0-.64-.281-.64-.508 0-.055.02-.387.421-.387.239 0 .512.157.625.157.457 0 .805-1.211.805-1.352 0-.129-.418-.937-.543-1.21l-1-2.157c-.105-.223-.336-.266-.445-.281v-.125h1.805v.132c-.2.008-.508.02-.508.254 0 .114.062.254.09.317l1.007 2.218.684-1.945c.086-.238.203-.52.203-.598 0-.167-.14-.253-.422-.246v-.132h1.184v.132" />
   </g>
   <path fill="#838787"
      d="M181.96 102.605c0 1.063-.37 3.028-1.983 3.028-1.614 0-1.985-1.965-1.985-3.028 0-1.039.371-3.03 1.985-3.03 1.613 0 1.984 1.991 1.984 3.03zm-3.124 0c0 .711.016 2.797 1.14 2.797 1.122 0 1.141-2.105 1.141-2.797 0-.597-.02-2.8-1.14-2.8-1.125 0-1.141 2.203-1.141 2.8M182.785 105.133c0-.281.219-.5.48-.5.266 0 .493.226.493.5 0 .324-.305.472-.492.472-.184 0-.48-.14-.48-.472M185.586 101.137c.7.125 1.527.273 2.043.906.379.453.473.71.473 1.492 0 1.164-.965 2.098-2.352 2.098-.691 0-1.105-.211-1.105-.528 0-.09 0-.343.351-.343.563 0 .8.547 1.274.547.57 0 1.218-.493 1.218-1.563 0-1.406-1.554-1.816-2.5-1.851-.054 0-.078-.055-.054-.118l.957-2.078h1.836c.226 0 .308-.097.402-.23l.078.062-.332.782c-.027.078-.106.078-.203.078h-1.719l-.367.746M194.824 105.156c-.367.434-.64.442-.781.442-.156 0-.527-.008-.57-.641-.325.29-.79.64-1.27.64-.476 0-.933-.324-.933-.913 0-.88.765-1.176 2.195-1.739v-.535c0-.633-.414-.726-.676-.726-.289 0-.621.156-.621.43 0 .128.043.261.043.34a.396.396 0 0 1-.395.378c-.273 0-.378-.246-.378-.387 0-.351.414-.972 1.43-.972 1.308 0 1.308.879 1.308 1.402v1.715c0 .254 0 .508.254.508.183 0 .297-.09.394-.168zm-1.36-2c-1.323.442-1.421.93-1.421 1.23v.016c0 .414.254.688.578.688.195 0 .465-.117.547-.16.27-.133.297-.239.297-.5v-1.274M195.027 105.379c.52-.035.676-.152.676-.633v-4.187c0-.395-.055-.536-.394-.536-.114 0-.196.008-.301.02v-.145c.465-.113.93-.234 1.398-.382l.035.015v5.238c0 .512.149.582.657.61v.129h-2.07v-.13M201.406 103.508c0 .87-.613 2.09-1.945 2.09-1.133 0-1.922-.907-1.922-2.09 0-1.078.719-2.035 1.895-2.035 1.148 0 1.972.761 1.972 2.035zm-.789.254c0-1.086-.445-2.043-1.254-2.043-.554 0-1.035.457-1.035 1.367 0 .648.203 2.266 1.254 2.266.45 0 1.035-.332 1.035-1.59M202.371 102.543c0-.555-.164-.563-.305-.563a.695.695 0 0 0-.257.036v-.149a16.88 16.88 0 0 0 1.214-.394l.059.015v.696c.43-.407.766-.711 1.281-.711.407 0 1.028.234 1.028 1.316v2.008c0 .414.105.547.535.582v.129h-1.824v-.13c.324-.026.554-.07.554-.737v-1.836c0-.536-.16-.852-.68-.852-.261 0-.53.176-.867.5v2.469c0 .289.121.43.578.457v.129h-1.859v-.13c.414-.026.543-.144.543-.66v-2.175" />
   <g clip-path="url(#d)" transform="translate(-83.64 -427.793)">
      <path fill="#838787"
         d="M293.098 529.895c.086.203.168.37.168.808 0 .95-.907 1.29-1.399 1.29-.105 0-.422-.044-.472-.044-.176.02-.528.38-.528.555 0 .2.422.226.684.234l1.133.055c.937.043 1.062.691 1.062.937 0 .993-1.457 1.485-2.246 1.485-.895 0-1.555-.387-1.555-.852 0-.394.414-.754.86-1.07-.239-.113-.465-.219-.465-.465 0-.148 0-.266.781-.957-.516-.226-.816-.633-.816-1.14 0-1.047.843-1.465 1.511-1.465.305 0 .5.07.852.199.184.07.34.09.48.09h.676v.34zm-1.22 4.82c1.024 0 1.622-.387 1.622-.852 0-.394-.43-.414-1.078-.43-.828-.027-1.02-.027-1.434-.113-.27.325-.43.508-.43.77 0 .273.317.625 1.32.625zm.067-2.942c.598 0 .645-.648.645-.84 0-.246-.145-1.421-.899-1.421-.316 0-.656.199-.656.789 0 .691.227 1.472.91 1.472" />
   </g>
   <path fill="#838787"
      d="M214.879 101.84h-.887v2.512c0 .27 0 .789.45.789.28 0 .437-.196.535-.309l.113.098c-.211.379-.621.668-1.028.668-.445 0-.808-.239-.808-1.117v-2.641h-.461a.072.072 0 0 1-.04-.063c0-.105.196-.156.388-.351.336-.34.464-.535.789-1 .062 0 .062.047.062.117v1.016h.887v.28M219.355 105.508h-1.859v-.13c.43-.046.594-.089.594-.765v-1.738c0-.586-.192-.93-.676-.93-.254 0-.594.133-.957.555v2.113c0 .676.168.719.598.766v.129h-1.895v-.13c.473-.062.563-.124.563-.765v-4.133c0-.261 0-.449-.387-.449-.055 0-.14 0-.168.012v-.14c.394-.118.824-.239 1.246-.387l.043.027v2.648h.02c.308-.437.738-.718 1.265-.718 1.078 0 1.086 1.043 1.086 1.394v1.746c0 .64.09.684.527.766v.129M223.191 104.133c-.09.27-.597 1.465-1.859 1.465-.977 0-1.645-.72-1.645-1.965 0-1.625 1.09-2.16 1.793-2.16.825 0 1.446.457 1.543 1.605h-2.73c.105 1.555.82 1.914 1.398 1.914.778 0 1.157-.597 1.36-.922zm-1.062-1.336c-.063-.422-.149-1.008-.844-1.008-.48 0-.824.234-.965 1.008h1.809M227.91 103.836l-1.191 1.168c-.223.21-.203.3.172.3l-.063.204h-1.207l.066-.203c.196 0 .356-.082.645-.348l1.488-1.402-.441-1.305c-.125-.39-.238-.406-.453-.406l.062-.207h1.52l-.063.207c-.394 0-.457.082-.351.394l.277.91h.02l1.011-.968c.254-.23.27-.336-.097-.336l.066-.207h1.164l-.066.207c-.211 0-.34.082-.625.332l-1.364 1.254.496 1.46c.137.391.274.41.47.415l-.067.203h-1.531l.066-.203c.379 0 .437-.075.336-.383l-.324-1.086h-.016M235.96 105.14c-.42.15-.823.29-1.288.458l-.035-.028v-.535h-.02c-.156.238-.48.563-1.133.563-.34 0-1.597-.176-1.597-1.97 0-1.147.836-2.155 1.816-2.155.379 0 .64.12.934.375v-1.367c0-.266 0-.45-.387-.45-.055 0-.14 0-.211.012v-.145a15.81 15.81 0 0 0 1.29-.382l.042.015v4.977c0 .36 0 .535.59.492zm-1.323-2.546c-.063-.598-.492-.875-.907-.875-.492 0-1.085.43-1.085 1.62 0 1.31.628 1.802 1.21 1.802.368 0 .711-.211.782-.528v-2.02M236.18 105.379c.543-.027.691-.082.691-.766v-2.035c0-.52-.164-.527-.305-.527-.125 0-.238.015-.351.035v-.133c.457-.148.902-.316 1.36-.48l.034.023v3.117c0 .578.043.73.649.766v.129h-2.078zm.984-5.863c.262 0 .453.199.453.445a.44.44 0 0 1-.453.45c-.316 0-.441-.282-.441-.45 0-.164.132-.445.441-.445M239.234 102.543c0-.555-.168-.563-.308-.563-.121 0-.211.016-.281.036v-.149c.414-.113.824-.246 1.23-.394l.059.015v.66c.52-.394.878-.675 1.355-.675.566 0 .84.367.938.734.183-.211.718-.734 1.414-.734.91 0 1.035.91 1.035 1.558v1.809c0 .195-.008.457.375.52l.23.019v.129h-1.922v-.13c.438-.054.578-.07.578-.632v-1.852c0-.449-.008-.964-.64-.964-.485 0-.781.234-.973.535v2.21c0 .669.27.692.63.704v.129h-1.966v-.13c.395-.027.598-.054.598-.624v-1.906c0-.579-.149-.918-.606-.918-.605 0-1.011.472-1.011.515v2.477c0 .43.293.445.597.457v.129h-1.945v-.13c.348-.01.613-.027.613-.616v-2.22M249.027 104.133c-.086.27-.597 1.465-1.859 1.465-.973 0-1.64-.72-1.64-1.965 0-1.625 1.09-2.16 1.788-2.16.825 0 1.45.457 1.547 1.605h-2.73c.105 1.555.816 1.914 1.394 1.914.782 0 1.16-.597 1.36-.922zm-1.062-1.336c-.059-.422-.149-1.008-.84-1.008-.484 0-.824.234-.965 1.008h1.805M249.906 102.543c0-.555-.168-.563-.308-.563a.67.67 0 0 0-.254.036v-.149c.394-.113.808-.246 1.21-.394l.063.015v.696c.43-.407.762-.711 1.281-.711.403 0 1.028.234 1.028 1.316v2.008c0 .414.105.547.535.582v.129h-1.828v-.13c.328-.026.554-.07.554-.737v-1.836c0-.536-.156-.852-.675-.852-.262 0-.535.176-.871.5v2.469c0 .289.125.43.582.457v.129h-1.86v-.13c.41-.026.543-.144.543-.66v-2.175M256.223 102.754c-.192-.895-.586-1.078-.973-1.078-.484 0-.668.34-.668.566 0 .18.055.434.379.625l.95.563c.429.261.734.508.734 1.035 0 .762-.711 1.133-1.27 1.133-.398 0-.773-.168-1.02-.16-.105 0-.14.027-.19.105h-.118v-1.367h.14c.106.465.274 1.226 1.133 1.226.297 0 .711-.14.711-.64 0-.282-.176-.492-.457-.649l-.508-.289c-.546-.308-1.027-.633-1.027-1.281 0-.492.379-1.07 1.227-1.07.39 0 .66.175.808.175.082 0 .125-.062.149-.097h.097l.035 1.203h-.132M257.145 105.379c.546-.027.695-.082.695-.766v-2.035c0-.52-.168-.527-.309-.527-.12 0-.234.015-.351.035v-.133c.457-.148.906-.316 1.363-.48l.035.023v3.117c0 .578.043.73.649.766v.129h-2.082zm.984-5.863c.262 0 .457.199.457.445 0 .254-.195.45-.457.45-.317 0-.438-.282-.438-.45 0-.164.133-.445.438-.445M263.57 103.508c0 .87-.613 2.09-1.949 2.09-1.133 0-1.922-.907-1.922-2.09 0-1.078.719-2.035 1.895-2.035 1.152 0 1.976.761 1.976 2.035zm-.789.254c0-1.086-.449-2.043-1.254-2.043-.554 0-1.039.457-1.039 1.367 0 .648.203 2.266 1.258 2.266.445 0 1.035-.332 1.035-1.59M264.535 102.543c0-.555-.164-.563-.305-.563a.68.68 0 0 0-.257.036v-.149c.398-.113.808-.246 1.21-.394l.063.015v.696c.43-.407.766-.711 1.281-.711.407 0 1.028.234 1.028 1.316v2.008c0 .414.105.547.535.582v.129h-1.824v-.13c.324-.026.554-.07.554-.737v-1.836c0-.536-.16-.852-.68-.852-.261 0-.535.176-.867.5v2.469c0 .289.122.43.579.457v.129h-1.86v-.13c.414-.026.543-.144.543-.66v-2.175M67.91 41.398c0-.55-.168-.558-.308-.558a.795.795 0 0 0-.254.031v-.148a17.44 17.44 0 0 0 1.21-.395l.063.02v.691c.43-.402.762-.711 1.281-.711.403 0 1.028.238 1.028 1.316v2.012c0 .41.105.543.535.578v.133h-1.828v-.133c.328-.027.554-.07.554-.738v-1.832c0-.535-.156-.852-.675-.852-.262 0-.536.176-.868.5v2.465c0 .29.122.43.579.457v.133h-1.86v-.133c.41-.027.543-.14.543-.656v-2.18M75.723 42.363c0 .871-.618 2.09-1.95 2.09-1.132 0-1.921-.902-1.921-2.09 0-1.078.718-2.035 1.894-2.035 1.149 0 1.977.766 1.977 2.035zm-.793.254c0-1.086-.446-2.043-1.254-2.043-.551 0-1.035.457-1.035 1.367 0 .653.203 2.266 1.254 2.266.449 0 1.035-.332 1.035-1.59M76.652 41.434c0-.516-.168-.528-.308-.528-.121 0-.219.02-.297.035v-.136c.43-.145.867-.301 1.297-.477l.043.02v.78h.02c.413-.624.71-.8 1.042-.8.301 0 .477.184.477.477 0 .218-.125.382-.336.382-.305 0-.395-.304-.606-.304-.207 0-.597.437-.597.718v1.973c0 .61.3.645.75.66v.133h-2.11v-.133c.485-.086.625-.113.625-.605v-2.195M79.66 41.398c0-.55-.164-.558-.305-.558-.125 0-.21.015-.28.031v-.148c.41-.114.823-.246 1.226-.395l.062.02v.656c.52-.395.88-.676 1.352-.676.57 0 .844.371.941.738.184-.21.719-.738 1.41-.738.914 0 1.036.914 1.036 1.563v1.808c0 .192-.008.457.378.52l.227.015v.133h-1.922v-.133c.442-.05.582-.07.582-.633V41.75c0-.445-.012-.965-.644-.965-.48 0-.778.238-.973.535v2.211c0 .668.273.695.633.703v.133h-1.965v-.133c.394-.027.594-.05.594-.62v-1.907c0-.578-.149-.922-.606-.922-.605 0-1.008.473-1.008.52v2.472c0 .43.29.45.598.457v.133h-1.95v-.133c.352-.008.614-.027.614-.613v-2.223M89.613 44.016c-.367.43-.64.437-.781.437-.156 0-.527-.008-.57-.64-.325.289-.79.64-1.274.64-.472 0-.93-.324-.93-.91 0-.879.766-1.18 2.196-1.738v-.535c0-.633-.414-.73-.676-.73-.289 0-.625.155-.625.429 0 .133.047.265.047.344a.396.396 0 0 1-.398.375c-.27 0-.375-.247-.375-.383 0-.352.41-.977 1.43-.977 1.308 0 1.308.879 1.308 1.406v1.711c0 .254 0 .508.254.508.183 0 .297-.086.394-.168zm-1.36-2c-1.327.437-1.421.93-1.421 1.226v.02c0 .41.254.683.578.683.192 0 .465-.113.543-.16.274-.129.3-.234.3-.5v-1.27M89.816 44.234c.516-.035.676-.148.676-.632v-4.184c0-.395-.055-.535-.394-.535-.118 0-.196.008-.301.015v-.14c.465-.113.93-.238 1.398-.387l.032.02v5.238c0 .508.152.578.66.605v.133h-2.07v-.133" />
</svg>
