<svg xmlns="http://www.w3.org/2000/svg" width="500" viewBox="0 0 698.789 351.461">
   <defs>
      <clipPath id="a">
         <path d="M150 564h699.18v118H150Zm0 0" />
      </clipPath>
      <clipPath id="b">
         <path d="M499 418h350.18v220H499Zm0 0" />
      </clipPath>
   </defs>
   <path fill="#9adef9"
      d="M6.723 351.46V211.415l6.125 54.8.168 1.54h148.277l-.527 23.082 1.722.035.528-23.117h22.59l3.066 2.844a4.763 4.763 0 0 0-.39 1.894 4.751 4.751 0 0 0 4.75 4.754 4.756 4.756 0 0 0 4.745-4.46c2.188.339 5.114.995 8.293 1.898.867.246 1.668.492 2.418.734l10.989 26.484 1.984-.824-10.238-24.71c1.21.448 2.379.902 3.652 1.39l-.168-10.004h17.945c.016.023.028.047.043.078l.063-.078h6.703l-.453 58.973 1.738.015.29-38.148 1.714 2.136 28.672-22.976h7.281a128.91 128.91 0 0 1-2.348 4.52c-3.062 5.609-6.14 10.374-8.375 13.222 2.872-2.191 7.708-5.176 13.364-8.144 5.277-2.766 9.043-4.243 13.59-6.133l-3.399-3.465h17.766a4.741 4.741 0 0 0 4.574 6.027 4.728 4.728 0 0 0 4.559-6.027h291.34a4.733 4.733 0 0 0-2.02 3.879c0 2.61 2.129 4.742 4.758 4.742 2.625 0 4.754-2.133 4.754-4.742a4.74 4.74 0 0 0-2.016-3.88h76.898v83.708H6.723m234.46-82.727 1 .746c-.246.57-.382 1.2-.382 1.86 0 2.625 2.129 4.758 4.738 4.758a4.761 4.761 0 0 0 4.309-6.778c1.285-.511 2.699-1.039 4.207-1.566h10.851l-24.867 19.93.145-18.95m-48.153-.98h12.278l.988 2.387c-.098.035-.192.062-.29.097-3.144 1-6.046 1.758-8.222 2.168a4.741 4.741 0 0 0-4.754-4.652m14.621 0h5.04c-1.2.496-2.747 1.11-4.34 1.684l-.7-1.684m-19.515 0h4.894c-1.32 0-2.523.535-3.379 1.402l-1.515-1.402m61.52 0h.546c-.09.086-.176.18-.262.266a4.506 4.506 0 0 0-.285-.266" />
   <path fill="#176fc1"
      d="M309.121 269.04c0-.45.063-.88.18-1.29h1.761l.778.805.836-.805h4.238l.242.09.031-.09h1.247a4.728 4.728 0 0 1-4.559 6.027 4.741 4.741 0 0 1-4.754-4.738" />
   <path fill="#33bef3" d="m239.008 326.727.453-58.973h.406l1.317.98-.145 18.95-.45.359.446.55-.285 38.15-1.742-.016" />
   <path fill="#176fc1"
      d="M326.387 334.637a4.75 4.75 0 0 1-4.75 4.746 4.751 4.751 0 0 1-4.746-4.746 4.752 4.752 0 0 1 4.746-4.75 4.75 4.75 0 0 1 4.75 4.75" />
   <path fill="#fff"
      d="M306.809 278.375c-2.239 1.969-3.891 3.121-5.887 4.578l7.394 4.602c.102-.903.739-4.422 1.516-7.301.828-3.082 1.762-5.766 2.516-7.41-1.137 1.41-3.141 3.426-5.54 5.531" />
   <path fill="none" stroke="#33bef3" stroke-width="1.727" d="m288.8 310.625 17.352-27.855" />
   <path fill="#33bef3"
      d="M306.809 278.375c-2.239 1.969-3.891 3.121-5.887 4.578l7.394 4.602c.102-.903.739-4.422 1.516-7.301.828-3.082 1.762-5.766 2.516-7.41-1.137 1.41-3.141 3.426-5.54 5.531" />
   <path fill="#176fc1"
      d="M201.234 337.223a4.746 4.746 0 0 1-4.746 4.746 4.752 4.752 0 0 1-4.75-4.746 4.747 4.747 0 1 1 9.496 0" />
   <path fill="#33bef3" d="M185.613 267.75h2.528l1.511 1.406c-.406.41-.738.899-.976 1.442l-3.063-2.848" />
   <path fill="#176fc1"
      d="M123.984 275.078a4.752 4.752 0 0 1-4.746 4.75 4.753 4.753 0 0 1-4.75-4.75 4.749 4.749 0 0 1 9.496 0" />
   <path fill="#fff"
      d="M126.133 280.68c2.191 2.027 3.508 3.55 5.168 5.375l3.804-7.825c-.906-.011-4.472-.277-7.414-.75-3.152-.503-5.918-1.152-7.632-1.734 1.52.988 3.734 2.77 6.074 4.934" />
   <path fill="none" stroke="#33bef3" stroke-width="1.727" d="m159.04 294.734-28.47-13.855" />
   <path fill="#33bef3"
      d="M126.133 280.68c2.191 2.027 3.508 3.55 5.168 5.375l3.804-7.825c-.906-.011-4.472-.277-7.414-.75-3.152-.503-5.918-1.152-7.632-1.734 1.52.988 3.734 2.77 6.074 4.934M160.766 290.836l.527-23.086h1.727l-.532 23.117-1.722-.031" />
   <path fill="#33b540"
      d="M239.867 267.75h3.57a4.767 4.767 0 0 0-1.253 1.727l-2.317-1.727M232.652 267.75h.106l-.059.078c-.02-.027-.031-.055-.047-.078" />
   <path fill="#176fc1"
      d="M423.922 318.234a4.75 4.75 0 0 1-4.75 4.75 4.749 4.749 0 1 1 4.75-4.75M449.812 344.988a4.747 4.747 0 1 1-9.496 0 4.752 4.752 0 0 1 4.75-4.746 4.746 4.746 0 0 1 4.746 4.746M459.309 294.07a4.744 4.744 0 0 1-4.747 4.746 4.75 4.75 0 0 1-4.75-4.746 4.747 4.747 0 1 1 9.496 0M511.957 279.398a4.75 4.75 0 0 1-4.75 4.747 4.751 4.751 0 0 1-4.746-4.747 4.752 4.752 0 0 1 4.746-4.75 4.75 4.75 0 0 1 4.75 4.75M485.2 320.824a4.747 4.747 0 1 1-9.497 0 4.752 4.752 0 0 1 4.75-4.746 4.746 4.746 0 0 1 4.746 4.746M537.852 306.152a4.744 4.744 0 0 1-4.747 4.746 4.75 4.75 0 0 1-4.75-4.746 4.75 4.75 0 0 1 4.75-4.746 4.744 4.744 0 0 1 4.747 4.746M534.398 338.086a4.749 4.749 0 1 1-4.75-4.75 4.75 4.75 0 0 1 4.75 4.75M587.05 323.41a4.75 4.75 0 0 1-4.75 4.75 4.752 4.752 0 0 1-4.745-4.75 4.751 4.751 0 0 1 4.746-4.746 4.75 4.75 0 0 1 4.75 4.746M564.61 286.3a4.75 4.75 0 0 1-4.75 4.75 4.749 4.749 0 1 1 4.75-4.75M607.754 271.633c0-1.606.797-3.02 2.012-3.883h5.484a4.747 4.747 0 0 1 2.016 3.883c0 2.61-2.133 4.738-4.758 4.738s-4.754-2.129-4.754-4.738M613.805 303.563a4.746 4.746 0 0 1-4.746 4.746 4.752 4.752 0 0 1-4.75-4.747 4.747 4.747 0 1 1 9.496 0M666.457 288.887a4.747 4.747 0 1 1-9.496 0 4.752 4.752 0 0 1 4.75-4.746 4.746 4.746 0 0 1 4.746 4.746M623.3 345.855a4.746 4.746 0 0 1-4.745 4.747 4.752 4.752 0 0 1-4.75-4.747 4.747 4.747 0 1 1 9.496 0M650.059 326.004a4.747 4.747 0 0 1-4.75 4.746 4.746 4.746 0 0 1-4.747-4.746 4.75 4.75 0 0 1 4.747-4.75 4.75 4.75 0 0 1 4.75 4.75M484.336 280.254a4.747 4.747 0 1 1-9.496 0 4.752 4.752 0 0 1 4.75-4.746 4.746 4.746 0 0 1 4.746 4.746M188.281 272.488a4.738 4.738 0 0 1 4.75-4.738c2.598 0 4.711 2.063 4.754 4.652-.457.086-.883.157-1.27.211.387.043.81.102 1.262.168a4.75 4.75 0 0 1-4.746 4.457 4.748 4.748 0 0 1-4.75-4.75M279.781 344.133a4.749 4.749 0 1 1-4.75-4.75 4.75 4.75 0 0 1 4.75 4.75M382.488 319.96a4.75 4.75 0 0 1-4.75 4.75 4.752 4.752 0 0 1-4.746-4.75 4.751 4.751 0 0 1 4.746-4.745 4.75 4.75 0 0 1 4.75 4.746M146.855 312.195a4.751 4.751 0 0 1-4.746 4.746 4.752 4.752 0 0 1-4.75-4.746 4.753 4.753 0 0 1 4.75-4.75 4.752 4.752 0 0 1 4.746 4.75M165.848 294.07a4.749 4.749 0 0 1-9.496 0 4.753 4.753 0 0 1 4.75-4.75 4.752 4.752 0 0 1 4.746 4.75M292.727 313.344a4.752 4.752 0 0 1-4.75 4.746 4.751 4.751 0 0 1-4.747-4.746 4.752 4.752 0 0 1 4.747-4.75 4.753 4.753 0 0 1 4.75 4.75M347.102 317.371a4.747 4.747 0 0 1-4.75 4.746 4.746 4.746 0 0 1-4.747-4.746 4.75 4.75 0 0 1 4.747-4.75 4.75 4.75 0 0 1 4.75 4.75M347.965 293.207a4.749 4.749 0 1 1-4.75-4.75 4.75 4.75 0 0 1 4.75 4.75M244.965 329.457a4.75 4.75 0 0 1-4.746 4.75 4.753 4.753 0 0 1-4.75-4.75 4.75 4.75 0 0 1 4.75-4.746 4.746 4.746 0 0 1 4.746 4.746M400.617 287.16a4.75 4.75 0 0 1-4.75 4.75 4.75 4.75 0 0 1-4.746-4.75 4.746 4.746 0 0 1 4.746-4.746 4.747 4.747 0 0 1 4.75 4.746M19.117 274.215a4.75 4.75 0 0 1-4.75 4.746 4.746 4.746 0 0 1-4.746-4.746 4.75 4.75 0 0 1 4.746-4.75 4.753 4.753 0 0 1 4.75 4.75M28.61 330.316a4.75 4.75 0 0 1-4.747 4.75 4.75 4.75 0 0 1-4.746-4.75 4.746 4.746 0 0 1 9.492 0M96.797 285.438a4.753 4.753 0 0 1-4.75 4.75 4.75 4.75 0 0 1-4.746-4.75 4.746 4.746 0 0 1 4.746-4.747 4.75 4.75 0 0 1 4.75 4.747M69.176 311.328a4.752 4.752 0 0 1-4.746 4.75 4.753 4.753 0 0 1-4.75-4.75 4.752 4.752 0 0 1 4.75-4.746 4.751 4.751 0 0 1 4.746 4.746M98.523 328.594a4.753 4.753 0 0 1-4.75 4.75 4.749 4.749 0 1 1 4.75-4.75" />
   <path fill="#fff"
      d="M174.312 298.508c2.676 1.308 4.38 2.39 6.493 3.664l1.402-8.594c-.875.25-4.367 1.027-7.324 1.418-3.164.422-6 .598-7.809.535 1.738.512 4.371 1.578 7.238 2.977" />
   <path fill="none" stroke="#33b540" stroke-width="2.157" d="m217.883 303.793-39.258-6.379" />
   <path fill="#33b540"
      d="M173.234 298.781c3.352 1.633 5.477 2.985 8.121 4.578l1.743-10.742c-1.09.313-5.457 1.285-9.149 1.77-3.957.527-7.496.754-9.762.672 2.172.636 5.461 1.968 9.047 3.722M208.488 275.418c.973.312 1.867.629 2.735.95l10.246 24.71-1.992.82-10.989-26.48m-3.18-7.668h2.344l.7 1.684c-.684.25-1.38.488-2.055.707l-.988-2.391" />
   <path fill="#176fc1"
      d="M225.727 301.059a4.745 4.745 0 0 1 .02 6.71 4.741 4.741 0 0 1-6.712.02 4.748 4.748 0 0 1-.02-6.71 4.741 4.741 0 0 1 6.712-.02" />
   <path fill="none" stroke="#33b540" stroke-width="2.157" d="m242.621 271.86-31.488.527" />
   <path fill="#33b540"
      d="M206.07 274.68c-3.836-1.086-7.3-1.82-9.554-2.067 2.234-.312 5.683-1.168 9.492-2.379 2.324-.742 4.902-1.742 6.687-2.484h2.012l.176 10.008c-2.89-1.106-5.223-2.051-8.813-3.078" />
   <path fill="#176fc1"
      d="M241.8 271.34c0-1.434.637-2.719 1.637-3.59h6.22c.097.086.19.172.284.27-1.246 1.253-2.382 2.332-3.375 3.18a56.862 56.862 0 0 1 4.278-1.88 4.751 4.751 0 0 1-4.305 6.77 4.748 4.748 0 0 1-4.738-4.75" />
   <path fill="#fff"
      d="M281.121 301.559c-1.012-2.805-1.484-4.766-2.113-7.153l-6.988 5.203c.8.418 3.851 2.301 6.246 4.075 2.566 1.898 4.722 3.742 5.976 5.05-.89-1.574-2.039-4.175-3.12-7.175" />
   <path fill="none" stroke="#33b540" stroke-width="2.157" d="m267.945 286.824 9.32 12.524" />
   <path fill="#33b540"
      d="M282.082 302.113c-1.266-3.508-1.855-5.957-2.645-8.937l-8.73 6.496c1.004.531 4.813 2.883 7.809 5.094 3.203 2.379 5.902 4.687 7.468 6.316-1.113-1.969-2.55-5.219-3.902-8.969" />
   <path fill="#fff"
      d="M248.965 318.71c2.222-1.991 3.867-3.16 5.84-4.636l-7.438-4.531c-.09.902-.687 4.43-1.441 7.316-.801 3.09-1.7 5.786-2.442 7.438 1.125-1.422 3.11-3.457 5.48-5.586" />
   <path fill="none" stroke="#33b540" stroke-width="2.157" d="m265.742 287.77-16.164 26.539" />
   <path fill="#33b540"
      d="M248.816 319.809c2.774-2.485 4.832-3.95 7.301-5.797l-9.297-5.664c-.117 1.129-.863 5.539-1.8 9.148-1.004 3.86-2.13 7.227-3.06 9.29 1.407-1.77 3.884-4.313 6.856-6.977" />
   <path fill="#176fc1" d="M272.3 285.438a4.75 4.75 0 0 1-4.75 4.75 4.749 4.749 0 1 1 4.75-4.75" />
   <path fill="#f19d1b"
      d="M276.355 272.27a122.334 122.334 0 0 0 2.348-4.52h12.824l3.407 3.465c-4.547 1.894-8.313 3.37-13.59 6.137-5.657 2.968-10.492 5.949-13.364 8.14 2.235-2.844 5.313-7.613 8.375-13.222" />
   <path fill="#fff"
      d="M239.586 293.316c2.766-1.109 4.71-1.652 7.074-2.367l-5.45-6.793c-.394.813-2.16 3.926-3.847 6.383-1.804 2.633-3.57 4.86-4.832 6.156 1.54-.949 4.098-2.191 7.055-3.379" />
   <path fill="#f19d1b" d="m240.59 288.04 25.316-20.29h5.516l-28.672 22.977-2.16-2.688" />
   <path fill="#f19d1b"
      d="M237.512 297.246c5.535-2.226 9.422-3.305 14.14-4.734l-10.89-13.594c-.79 1.637-4.32 7.863-7.7 12.773-3.613 5.266-7.144 9.715-9.667 12.309 3.085-1.895 8.195-4.371 14.117-6.754M250.207 267.75h4.852c-3.454 1.21-6.395 2.406-8.485 3.45 1.059-.907 2.285-2.079 3.633-3.45" />
   <path fill="#176fc1" d="M311.062 267.75h1.622l-.84.805-.782-.805M316.91 267.75h.277l-.035.09-.242-.09" />
   <path fill="#8ddbf8"
      d="M692.152 264.285v-1.754a4.707 4.707 0 0 0 1.055-2.984 4.764 4.764 0 0 0-1.055-2.996v-37.903l5.094 45.637h-5.094m-5.824-57.902c.563-.969.856-1.95.856-2.938 0-22.652-150.72-41-336.625-41-185.907 0-336.622 18.348-336.622 41 0 .989.286 1.97.852 2.938H9.645l-5.778-51.707h681.137l5.777 51.707h-4.453" />
   <path fill="#73d2f7"
      d="M462.238 264.285c.332-.648.52-1.379.52-2.164a4.748 4.748 0 0 0-4.738-4.738c-2.625 0-4.758 2.133-4.758 4.738 0 .785.191 1.516.523 2.164h-28.664a4.673 4.673 0 0 0 .524-2.164c0-2.605-2.133-4.738-4.743-4.738-2.625 0-4.754 2.133-4.754 4.738 0 .785.188 1.516.52 2.164h-44.824a4.749 4.749 0 0 0 2.015-3.887 4.748 4.748 0 0 0-4.75-4.738 4.745 4.745 0 0 0-4.738 4.738c0 1.61.79 3.024 2.004 3.887h-47.848l7.684-19.95c8.035.075 16.164.11 24.344.11 45.922 0 89.68-1.12 129.566-3.148a4.745 4.745 0 0 0 4.648 5.727 4.735 4.735 0 0 0 4.739-4.739c0-.515-.082-1.012-.23-1.476 109.761-6.055 188.117-19.079 197.05-34.426h4.45l1.37 12.265v37.903a4.726 4.726 0 0 0-3.683-1.758 4.755 4.755 0 0 0-4.754 4.754 4.741 4.741 0 0 0 4.754 4.738 4.71 4.71 0 0 0 3.683-1.754v1.754h-229.91m66.98-4.738a4.738 4.738 0 0 0 4.739 4.738 4.741 4.741 0 0 0 4.754-4.738 4.755 4.755 0 0 0-4.754-4.754c-2.61 0-4.738 2.129-4.738 4.754m40.566-6.914a4.751 4.751 0 0 0 4.754 4.75 4.748 4.748 0 0 0 4.738-4.75 4.745 4.745 0 0 0-4.738-4.738c-2.625 0-4.754 2.125-4.754 4.738m69.914-21.578a4.745 4.745 0 1 0 9.492 0 4.743 4.743 0 0 0-4.738-4.739 4.746 4.746 0 0 0-4.754 4.739m-398.48 33.23.11-15.066 3.503.027c-.387-.816-1.676-4.12-2.516-6.969 13.856.575 28.106 1.043 42.704 1.391L270 253.621l-3.867-5.832c-.934 1.55-5.016 7.438-8.824 12.024a161.922 161.922 0 0 1-3.86 4.472h-12.23m-2.387 0-2.242-1.672 2.62-3.5c-1.12-.238-5.437-1.386-8.952-2.66-2.903-1.047-5.508-2.14-7.45-3.101a4.76 4.76 0 0 0 .864-2.723 4.747 4.747 0 0 0-1.602-3.559l3.684-5.535c4.289.207 8.629.41 13.008.594-.004.02-.016.043-.02.062-.887 2.86-1.695 4.707-2.625 6.993l3.488.023-.117 15.078h-.656m-32.617 0-4.477-10.805 4.04-1.671c-.84-.758-3.97-3.977-6.329-6.848a86.287 86.287 0 0 1-3.883-5.11c6.829.43 13.778.833 20.868 1.212l1.57 4.902a4.764 4.764 0 0 0-3.828 4.664c0 2.61 2.133 4.738 4.758 4.738 1.41 0 2.675-.62 3.546-1.601 1.473 1.586 3.278 3.773 5.122 6.261a68.087 68.087 0 0 1 2.918 4.258h-24.305m-21.8 0-9.13-8.496 2.383-2.57c-.867-.258-4.191-1.567-6.883-2.871a70.694 70.694 0 0 1-4.39-2.352 4.742 4.742 0 0 0 1.175-3.133 4.708 4.708 0 0 0-1.293-3.242l2.29-3.683c8.355.656 16.956 1.27 25.804 1.835.371 1.946.711 4.317.965 6.895.371 3.695.34 6.23.383 9.305l4.011-1.66 4.141 9.972h-19.457m-21.316 0 .058-2.476 3.496.082c-.355-.84-1.613-4.192-2.406-7.055a63.251 63.251 0 0 1-1.234-5.227 4.668 4.668 0 0 0 2.652-.933 61.987 61.987 0 0 1 2.7 4.285c1.507 2.562 2.327 4.41 3.37 6.648l2.372-2.554 7.777 7.23h-18.785m-146.989 0-3.984-35.687a4.735 4.735 0 0 0 3.117 1.168c2.606 0 4.739-2.133 4.739-4.743 0-2.625-2.133-4.753-4.739-4.753a4.734 4.734 0 0 0-3.832 1.94l-1.77-15.827h5.15c7.12 12.246 58.452 23.015 134.687 29.945l9.421 5.871a4.748 4.748 0 0 0 3.262 7.367 62.846 62.846 0 0 1-1.469 5.18c-.937 2.84-1.773 4.676-2.738 6.941l3.477.082-.059 2.516H16.11m34.086-4.738a4.728 4.728 0 0 0 4.739 4.738 4.738 4.738 0 0 0 4.75-4.738 4.751 4.751 0 0 0-4.75-4.754 4.741 4.741 0 0 0-4.739 4.754m76.809-5.61c0 2.614 2.129 4.739 4.754 4.739a4.745 4.745 0 0 0 4.738-4.739c0-2.628-2.129-4.753-4.738-4.753a4.752 4.752 0 0 0-4.754 4.753m-38.84-2.16c0 2.625 2.133 4.739 4.758 4.739a4.738 4.738 0 0 0 4.738-4.739c0-2.625-2.129-4.754-4.738-4.754a4.758 4.758 0 0 0-4.758 4.754m-27.621-18.133a4.755 4.755 0 0 0 4.754 4.758 4.742 4.742 0 0 0 4.738-4.758 4.728 4.728 0 0 0-4.738-4.738 4.741 4.741 0 0 0-4.754 4.738m159.273 12.313-1.535-4.8c1.805.093 3.63.19 5.45.277l-3.153 4.738a4.593 4.593 0 0 0-.762-.215m-66.527-9.285c4.367.379 8.809.754 13.328 1.113l-1.742 2.805a4.735 4.735 0 0 0-4.719.36l-6.867-4.278" />
   <path fill="#8cdaf8" d="M244.832 249.246c-.387-.82-1.676-4.121-2.52-6.969.844 2.848 2.133 6.149 2.52 6.97" />
   <path fill="#59caf5" d="m239.488 264.285.117-15.078 1.727.012-.113 15.066h-1.73" />
   <path fill="#59caf5"
      d="M236.117 249.184c.93-2.286 1.742-4.133 2.625-6.993a.366.366 0 0 0 .02-.062c1.187.05 2.363.101 3.554.148.84 2.848 2.13 6.149 2.516 6.97l-8.715-.063" />
   <path fill="#4fb1e8"
      d="M162.645 247.18c-.106.675-.27 1.48-.485 2.386a4.752 4.752 0 0 1-4.086-4.703c0-.984.305-1.902.824-2.664l1.633 1.02.918-1.461-1.293-.809a4.735 4.735 0 0 1 4.719-.36l-1.176 1.88 1.477.918 1.101-1.766a4.708 4.708 0 0 1 1.293 3.242c0 1.203-.449 2.297-1.175 3.133a30.899 30.899 0 0 1-2.399-1.531c.492.578 1.055 1.332 1.664 2.21a4.648 4.648 0 0 1-2.652.934c-.176-.925-.301-1.75-.363-2.43" />
   <path fill="#59caf5" d="m181.883 264.285-7.778-7.23 1.18-1.266 9.13 8.496h-2.532" />
   <path fill="#59caf5"
      d="M168.363 252.96c-1.601-2.765-3.199-5.108-4.367-6.495 1.477 1.058 3.934 2.472 6.79 3.883 2.687 1.304 6.01 2.613 6.882 2.879l-5.934 6.382c-1.043-2.238-1.867-4.086-3.37-6.648" />
   <path fill="#4fb1e8"
      d="M127.004 253.938a4.754 4.754 0 0 1 4.754-4.75c2.61 0 4.738 2.128 4.738 4.75a4.745 4.745 0 0 1-4.738 4.738c-2.625 0-4.754-2.125-4.754-4.739" />
   <path fill="#8cdaf8"
      d="M166.652 261.89c-.355-.84-1.613-4.19-2.406-7.054-.855-3.074-1.43-5.871-1.601-7.656-.282 1.785-.961 4.535-1.954 7.566-.937 2.84-1.773 4.676-2.738 6.941.965-2.265 1.8-4.101 2.738-6.94.993-3.032 1.672-5.782 1.954-7.567.171 1.785.746 4.582 1.601 7.656.793 2.863 2.05 6.215 2.406 7.055" />
   <path fill="#59caf5" d="m161.371 264.285.059-2.515 1.722.039-.054 2.476h-1.727" />
   <path fill="#59caf5"
      d="M157.953 261.688c.965-2.266 1.805-4.102 2.738-6.942.993-3.031 1.672-5.781 1.954-7.566.171 1.785.746 4.582 1.601 7.656.793 2.86 2.05 6.215 2.406 7.055l-8.699-.203" />
   <path fill="#4fb1e8"
      d="M214.184 250.629a4.757 4.757 0 0 1 3.82-4.66l.637 1.988.964-.309 1.442.961 1.023-1.539a4.733 4.733 0 0 1 1.602 3.559c0 1.016-.317 1.95-.863 2.723a30.087 30.087 0 0 1-1.512-.797c.363.351.758.757 1.183 1.21a4.714 4.714 0 0 1-3.546 1.602 4.748 4.748 0 0 1-4.75-4.738m5.632-4.672c.266.055.524.121.77.215l-.473.707-.297-.922" />
   <path fill="#59c8c5" d="m235.344 264.285 1.246-1.672 2.242 1.672h-3.488" />
   <path fill="#59c8c5"
      d="M230.52 264.285a71.64 71.64 0 0 0-2.918-4.258c-2.38-3.203-4.676-5.906-6.309-7.472 1.973 1.12 5.223 2.547 8.965 3.898 3.508 1.274 7.828 2.422 8.945 2.66l-3.86 5.172h-4.823" />
   <path fill="#4fb1e8"
      d="M683.71 259.547a4.755 4.755 0 0 1 4.755-4.754 4.741 4.741 0 0 1 4.738 4.754 4.728 4.728 0 0 1-4.738 4.738 4.741 4.741 0 0 1-4.754-4.738M453.785 264.285a4.721 4.721 0 0 1-.523-2.164c0-2.605 2.129-4.738 4.758-4.738a4.753 4.753 0 0 1 4.738 4.738c0 .785-.188 1.516-.52 2.164h-8.453M480.02 242.285c0-.336.039-.668.101-.988 3.078-.16 6.133-.317 9.156-.488.149.468.23.96.23 1.476a4.735 4.735 0 0 1-4.737 4.738 4.745 4.745 0 0 1-4.75-4.738M529.219 259.547c0-2.625 2.129-4.754 4.738-4.754a4.755 4.755 0 0 1 4.754 4.754 4.741 4.741 0 0 1-4.754 4.738 4.738 4.738 0 0 1-4.738-4.738M569.785 252.633c0-2.613 2.13-4.738 4.754-4.738a4.745 4.745 0 0 1 4.738 4.738 4.748 4.748 0 0 1-4.738 4.75 4.751 4.751 0 0 1-4.754-4.75M639.7 231.055a4.745 4.745 0 0 1 4.75-4.739 4.745 4.745 0 0 1 4.737 4.739 4.748 4.748 0 0 1-4.738 4.75 4.748 4.748 0 0 1-4.75-4.75M416.668 264.285a4.719 4.719 0 0 1-.52-2.164c0-2.605 2.13-4.738 4.758-4.738a4.753 4.753 0 0 1 4.739 4.738c0 .785-.188 1.516-.524 2.164h-8.453M366.375 264.285a4.756 4.756 0 0 1-2.012-3.887 4.748 4.748 0 0 1 4.739-4.738c2.625 0 4.757 2.13 4.757 4.738 0 1.61-.797 3.024-2.015 3.887h-5.469M12.125 228.598l-.715-6.387a4.734 4.734 0 0 1 3.832-1.941c2.61 0 4.738 2.128 4.738 4.753a4.748 4.748 0 0 1-4.738 4.739 4.747 4.747 0 0 1-3.117-1.164M88.168 251.777a4.755 4.755 0 0 1 4.754-4.754c2.61 0 4.738 2.13 4.738 4.754a4.738 4.738 0 0 1-4.738 4.739 4.741 4.741 0 0 1-4.754-4.739M50.195 259.547a4.741 4.741 0 0 1 4.739-4.754 4.751 4.751 0 0 1 4.75 4.754 4.738 4.738 0 0 1-4.75 4.738 4.728 4.728 0 0 1-4.739-4.738M60.543 233.648a4.741 4.741 0 0 1 4.754-4.738 4.728 4.728 0 0 1 4.738 4.738 4.741 4.741 0 0 1-4.738 4.754 4.755 4.755 0 0 1-4.754-4.754" />
   <path fill="#73d2f7"
      d="M313.875 264.285h-3.766l-8.785-9.101 11.2-10.996c3.921.054 7.878.097 11.835.136l-7.691 19.961h-2.793M292.066 264.285l8.032-7.89 7.62 7.89h-15.652m-16.316 0 18.02-14.441 3.93 4.07-10.055 9.879-4.903-4.996c-.312.855-1.207 2.95-2.379 5.488h-4.613m-9.18 0a145.31 145.31 0 0 1 5.09-1.144l-1.43 1.144h-3.66m5.34-7.785 17.25-11.43 2.2 2.278-16.66 13.355-2.79-4.203m23.215-7.742 5.934-4.754c2.199.039 4.402.078 6.62.113l-8.745 8.582-3.809-3.941m-4.5-4.66.445-.293c1.52.035 3.063.066 4.594.097l-2.95 2.36-2.089-2.164" />
   <path fill="#59c8c5" d="m203.871 264.285-4.14-9.973 2.007-.832 4.477 10.805h-2.344" />
   <path fill="#59c8c5"
      d="M195.336 246.668c-.254-2.57-.594-4.945-.965-6.895.395.024.8.051 1.2.079a84.438 84.438 0 0 0 3.878 5.109c2.367 2.875 5.488 6.09 6.328 6.851l-10.058 4.165c-.043-3.079-.012-5.614-.383-9.31" />
   <path fill="#8cc5bf"
      d="m288.129 264.285-.488-.492 10.054-9.879 2.399 2.48-8.035 7.891h-3.93m10.8-11.586 8.747-8.582 4.847.07-11.199 10.997-2.394-2.485" />
   <path fill="#8cc5bf"
      d="M280.36 264.285c1.175-2.539 2.062-4.633 2.378-5.488l5.39 5.488h-7.769M270.23 264.285l1.43-1.144 4.09-.844-1.05-1.594 16.66-13.355 2.41 2.496-18.02 14.441h-5.52m22.485-18.023 2.95-2.36c1.792.035 3.585.067 5.39.102l-5.93 4.754-2.41-2.496M270 253.621l15.02-9.953c.945.023 1.898.043 2.843.066l1.293 1.336-17.25 11.43-1.906-2.879m20.328-9.828.738.012-.445.293-.293-.305" />
   <path fill="#8cc5bf"
      d="M253.45 264.285a149.61 149.61 0 0 0 3.859-4.473c3.808-4.585 7.894-10.472 8.824-12.023l9.617 14.508c-3.188.664-5.996 1.207-9.18 1.988h-13.12" />
   <path fill="#59caf5"
      d="m219.605 247.648.68-.218-.172-.551 3.621-5.445c.672.03 1.344.066 2.02.101l-4.707 7.074-1.442-.96" />
   <path fill="#59caf5" d="M216.434 241.063c.617.03 1.23.066 1.847.093l2.004 6.274-1.648.527-2.203-6.895" />
   <path fill="#4fb1e8"
      d="m307.71 264.285-19.847-20.55 2.465.058 19.781 20.492h-2.398M316.668 264.285l7.691-19.96 1.848.01-7.687 19.95h-1.852M163.7 242.469l2.917-4.684c.645.047 1.297.102 1.95.152l-3.391 5.45-1.477-.918M149.477 236.328c1.27.117 2.53.23 3.816.344l8.16 5.086-.918 1.46-11.058-6.89" />
   <g clip-path="url(#a)" transform="translate(-150.39 -413.684)">
      <path fill="#4e97c7"
         d="M849.578 681.434v-1.735 1.735h-7.039v-3.465h5.098l-5.098-45.637v-12.266h-1.371l-5.773-51.707H154.254l5.777 51.707h-2.918v5.032l-6.508-58.278-.214-1.91H836.93v1.719-1.719h1.539l.183 1.524 12.633 113.074.219 1.926h-1.926" />
   </g>
   <path fill="#3693c7"
      d="M615.25 267.75a4.752 4.752 0 0 0-5.484 0H318.434a4.727 4.727 0 0 0-.684-1.453l.77-2.012h47.855a4.737 4.737 0 0 0 2.727.867 4.768 4.768 0 0 0 2.742-.867h44.824a4.755 4.755 0 0 0 4.234 2.594 4.73 4.73 0 0 0 4.215-2.594h28.668a4.742 4.742 0 0 0 8.453 0h229.91v3.465H615.25m-422.219 0h-4.894l-3.723-3.465h19.457l1.438 3.465H193.03m-30.015 0 .082-3.465h18.785l3.722 3.465h-22.59m-148.445 0h-1.554l-.172-1.54-6.121-54.796v-5.031H9.64l1.765 15.828a4.702 4.702 0 0 0-.922 2.812c0 1.426.63 2.707 1.633 3.575l3.988 35.687h145.266l-.078 3.465H14.57m676.207-61.367h1.371v12.265l-1.37-12.265" />
   <path fill="#187cbc" d="m317.187 267.75.563-1.453c.305.437.54.926.684 1.453h-1.247" />
   <path fill="#1f8ec7"
      d="m185.613 267.75-3.726-3.465h2.527l3.727 3.465h-2.528M161.293 267.75l.078-3.465h1.727l-.078 3.465h-1.727" />
   <path fill="#187cbc"
      d="M453.785 264.285h8.453a4.74 4.74 0 0 1-8.453 0M609.773 267.75a4.752 4.752 0 0 1 5.48 0h-5.48M416.668 264.285h8.453a4.739 4.739 0 0 1-4.215 2.594 4.761 4.761 0 0 1-4.238-2.594M366.375 264.285h5.469a4.768 4.768 0 0 1-2.742.867 4.737 4.737 0 0 1-2.727-.867M10.484 225.027c0-1.05.34-2.027.922-2.812l.711 6.387a4.747 4.747 0 0 1-1.633-3.575" />
   <path fill="#3693c7"
      d="m291.535 267.75-1.473-1.5 2.004-1.965h15.653l2.136 2.219c-.242.383-.43.8-.554 1.246h-17.766" />
   <path fill="#187cbc" d="M309.3 267.75c.126-.445.313-.863.555-1.246l1.207 1.246h-1.761" />
   <path fill="#3693c7"
      d="m271.426 267.75 4.324-3.465h4.613a173.186 173.186 0 0 1-1.66 3.465h-7.277m-16.367 0c1.921-.676 4-1.352 6.183-2.004 1.945-.59 3.688-1.055 5.328-1.46h3.66l-4.324 3.464H255.06m-5.399 0a4.73 4.73 0 0 0-6.2-.02l-2.253-1.68.012-1.765h12.23a111.704 111.704 0 0 1-3.242 3.465h-.547m-16.902 0 2.547-3.406 4.16 3.105v.301h-6.707m-18.051 0-.016-.89c-.343.18-1.058.5-1.996.89h-5.043l-1.433-3.465h24.304c.73 1.145 1.395 2.258 2.13 3.465h-17.946m24.133-3.465h.648l-.004.488-.644-.488" />
   <path fill="#1f8ec7" d="M239.46 267.75v-.3l.407.3h-.406m.023-2.977v-.488h1.727l-.008 1.766-1.719-1.278" />
   <path fill="#1f8da2"
      d="m239.867 267.75-4.566-3.406.043-.059h3.488l4.629 3.445c-.012.004-.016.016-.023.02h-3.57M232.652 267.75c-.734-1.207-1.402-2.32-2.129-3.465h4.82l-2.585 3.465h-.106M205.309 267.75l-1.438-3.465h2.344l1.437 3.465h-2.343M212.691 267.75c.934-.39 1.649-.71 1.996-.89l.02.89h-2.016" />
   <path fill="#187cbc" d="M243.437 267.75a4.697 4.697 0 0 1 3.102-1.168c1.191 0 2.281.441 3.117 1.168h-6.219" />
   <path fill="#4f879b"
      d="M288.129 264.285h3.93l-1.997 1.965-1.933-1.965M278.703 267.75c.59-1.2 1.149-2.371 1.656-3.465h7.77l3.406 3.465h-12.832M265.906 267.75l4.324-3.465h5.52l-4.324 3.465h-5.52M250.207 267.75a111.704 111.704 0 0 0 3.242-3.465h13.121c-1.64.406-3.383.871-5.328 1.461a136.676 136.676 0 0 0-6.183 2.004h-4.852" />
   <path fill="#3693c7"
      d="M310.117 264.285h3.762c-1.07 0-2.055.352-2.852.945l-.91-.945m3.762 0h2.793l-.277.723a4.731 4.731 0 0 0-2.516-.723" />
   <path fill="#187cbc"
      d="m312.676 267.75.406-.39-2.055-2.13a4.73 4.73 0 0 1 2.848-.945c.926 0 1.785.266 2.512.723l-.852 2.215 1.375.527h-4.234" />
   <path fill="#187cbc"
      d="m311.062 267.75-3.343-3.465h2.398l2.965 3.074-.398.391h-1.622M316.91 267.75l-1.375-.527 1.133-2.938h1.852l-1.333 3.465h-.277" />
   <path fill="#49be68"
      d="m350.395 206.383-2.102-2.16-1.16 1.136-1.313-1.972-4.523 2.996H214.812l1.84-2.176-1.324-1.121-2.777 3.297H14.789c-.566-.969-.852-1.95-.852-2.938 0-22.652 150.715-41 336.622-41 185.906 0 336.625 18.348 336.625 41 0 .989-.293 1.97-.856 2.938H350.395" />
   <path fill="#42bc69"
      d="m326.21 244.344 8.435-21.883 16.05-15.766-.3-.312h335.933c-8.933 15.347-87.289 28.37-197.05 34.433a4.723 4.723 0 0 0-4.5-3.28c-2.29 0-4.2 1.612-4.653 3.76-39.887 2.032-83.648 3.153-129.57 3.153-8.18 0-16.309-.039-24.344-.105m62.316-9.824c0 2.609 2.13 4.738 4.754 4.738a4.738 4.738 0 0 0 4.739-4.738 4.741 4.741 0 0 0-4.739-4.754 4.755 4.755 0 0 0-4.754 4.754m55.246-4.32a4.74 4.74 0 0 0 4.739 4.738 4.742 4.742 0 0 0 4.758-4.739 4.755 4.755 0 0 0-4.758-4.754c-2.606 0-4.739 2.13-4.739 4.754m-110.476-.867a4.745 4.745 0 0 0 4.738 4.75 4.755 4.755 0 0 0 4.758-4.75c0-2.61-2.133-4.738-4.758-4.738a4.745 4.745 0 0 0-4.738 4.738m199.375-1.723a4.75 4.75 0 0 0 4.758 4.75 4.75 4.75 0 0 0 4.738-4.75c0-2.609-2.133-4.742-4.738-4.742a4.753 4.753 0 0 0-4.758 4.742m-27.625 0a4.755 4.755 0 0 0 4.758 4.75 4.738 4.738 0 0 0 4.738-4.75 4.741 4.741 0 0 0-4.738-4.742c-2.625 0-4.758 2.133-4.758 4.742m81.148-.859c0 2.61 2.11 4.738 4.739 4.738 2.625 0 4.753-2.129 4.753-4.738a4.755 4.755 0 0 0-4.753-4.754 4.739 4.739 0 0 0-4.739 4.754m-343.879 15.531c-.004-.02-.008-.039-.015-.058-.903-3.059-1.508-5.836-1.707-7.63-.25 1.778-.89 4.52-1.832 7.54-4.371-.188-8.715-.387-13.008-.598l12.91-19.406.41 2.844a4.757 4.757 0 0 0-2.879 4.359 4.745 4.745 0 0 0 4.739 4.75 4.752 4.752 0 0 0 4.757-4.75 4.703 4.703 0 0 0-1.128-3.059l25.44-12.261-1.12-2.344-27 13.02a4.742 4.742 0 0 0-.95-.094c-.054 0-.113 0-.171.004l-.664-4.63 6.132-9.218-1.44-.965-5.063 7.61-.688-4.782-1.71.25.964 6.688-14.559 21.887c-1.824-.09-3.648-.184-5.453-.282l-4.148-12.992-1.645.531 3.946 12.368a2093.41 2093.41 0 0 1-20.864-1.211c-.316-.461-.617-.899-.882-1.313a4.736 4.736 0 0 0 2.234-4.02 4.747 4.747 0 0 0-2.399-4.124l6.34-7.496-1.316-1.118-6.774 8.024a4.68 4.68 0 0 0-3.113.684l-11.914-7.31 8.082-13.003-1.46-.918-8.098 13.016-5.637-3.461-.903 1.46 5.633 3.461-8.742 14.055c-4.516-.363-8.965-.734-13.328-1.117l-20.29-12.652-.917 1.476 17.39 10.832c-76.234-6.926-127.562-17.695-134.687-29.945h197.762l-13.004 15.398 1.316 1.118 13.95-16.516h126.484l-53.113 35.191-4.973-5.16-1.246 1.211 4.754 4.922-1.696 1.125a2465.395 2465.395 0 0 1-42.707-1.39m43.5-12.083c0 2.625 2.133 4.739 4.758 4.739a4.728 4.728 0 0 0 4.738-4.739 4.741 4.741 0 0 0-4.738-4.754 4.758 4.758 0 0 0-4.758 4.754m-167.449-1.722a4.741 4.741 0 0 0 4.754 4.738 4.742 4.742 0 0 0 4.758-4.738 4.755 4.755 0 0 0-9.512 0m50.2 9.468 8.269-13.304 11.508 7.074a4.745 4.745 0 0 0-.918 2.805 4.748 4.748 0 0 0 6.75 4.293c.07.308.133.628.195.96-8.84-.566-17.45-1.18-25.805-1.828" />
   <path fill="#3ab56a"
      d="M236.195 229.328a4.756 4.756 0 0 1 2.875-4.36l.246 1.7 1.707-.246-.261-1.828c.054-.004.113-.004.172-.004.32 0 .64.031.945.093l-.543.262 1.137 2.332 2.09-1.012a4.748 4.748 0 0 1-3.629 7.813 4.745 4.745 0 0 1-4.739-4.75" />
   <path fill="#3dbb6a"
      d="M238.762 242.129c.933-3.024 1.582-5.758 1.828-7.535.203 1.785.808 4.566 1.707 7.629.004.02.015.035.02.054-1.192-.047-2.368-.097-3.555-.148" />
   <path fill="#3ab56a"
      d="M484.77 237.535a4.729 4.729 0 0 1 4.507 3.281c-3.03.164-6.082.329-9.156.48a4.755 4.755 0 0 1 4.649-3.76M532.672 227.605a4.745 4.745 0 0 1 4.75-4.738 4.743 4.743 0 0 1 4.738 4.738 4.745 4.745 0 0 1-4.738 4.75 4.748 4.748 0 0 1-4.75-4.75M586.191 226.75a4.741 4.741 0 0 1 4.739-4.754 4.755 4.755 0 0 1 4.754 4.754c0 2.61-2.13 4.738-4.754 4.738a4.738 4.738 0 0 1-4.739-4.738M443.773 230.2c0-2.626 2.125-4.755 4.739-4.755a4.751 4.751 0 0 1 4.75 4.754 4.738 4.738 0 0 1-4.75 4.738 4.735 4.735 0 0 1-4.739-4.738M505.047 227.605c0-2.613 2.129-4.738 4.754-4.738a4.735 4.735 0 0 1 4.738 4.738 4.738 4.738 0 0 1-4.738 4.75 4.751 4.751 0 0 1-4.754-4.75M285.816 230.2a4.755 4.755 0 0 1 4.754-4.755 4.741 4.741 0 0 1 4.739 4.754 4.728 4.728 0 0 1-4.739 4.738 4.741 4.741 0 0 1-4.754-4.738M388.523 234.52a4.755 4.755 0 0 1 4.754-4.754 4.741 4.741 0 0 1 4.739 4.754 4.738 4.738 0 0 1-4.739 4.738c-2.625 0-4.754-2.13-4.754-4.738M187.426 234.52c0-1.047.34-2.02.914-2.805l2.613 1.605.918-1.476-2.215-1.356a4.694 4.694 0 0 1 3.114-.683l-1.149 1.36 1.305 1.116 1.597-1.886a4.752 4.752 0 0 1 2.395 4.125 4.736 4.736 0 0 1-2.234 4.011 38.772 38.772 0 0 1-.938-1.527c.145.531.29 1.137.43 1.805-.606.289-1.293.449-2.012.449a4.748 4.748 0 0 1-4.738-4.738M333.297 229.328a4.743 4.743 0 0 1 4.738-4.738 4.745 4.745 0 0 1 4.75 4.738 4.748 4.748 0 0 1-4.75 4.75 4.745 4.745 0 0 1-4.738-4.75" />
   <path fill="#42bc69"
      d="m312.523 244.188 19.133-18.793-7.297 18.93c-3.96-.04-7.914-.083-11.836-.137M301.055 244.004l33.902-27.164-.3.77-26.981 26.507c-2.215-.035-4.418-.074-6.621-.113m-9.989-.2 27.207-18.03-22.613 18.128c-1.531-.03-3.07-.062-4.594-.097" />
   <path fill="#3ab56a"
      d="M118.367 228.473a4.755 4.755 0 0 1 4.754-4.754 4.758 4.758 0 0 1 4.758 4.754c0 2.625-2.133 4.738-4.758 4.738a4.741 4.741 0 0 1-4.754-4.738" />
   <path fill="#3dba5f"
      d="M194.371 239.773c-.203-1.062-.41-2-.617-2.77.457.81 1.07 1.774 1.816 2.849-.398-.028-.804-.055-1.199-.079" />
   <path fill="#49ba5c"
      d="m307.676 244.117 26.98-26.508-2.996 7.782-19.137 18.796-4.847-.07m29.96-29.43 10.31-8.261-.618-.774-.2-.293 1.161-1.136 2.406 2.468-16.054 15.77 2.996-7.773" />
   <path fill="#49ba5c"
      d="m295.66 243.902 22.613-18.12 17.778-11.786-1.094 2.844-33.902 27.164a810.11 810.11 0 0 1-5.395-.102m42.578-30.757-.566-.22 10.055-6.667-.399-.606.617.778-10.308 8.261.601-1.546" />
   <path fill="#49ba5c"
      d="m290.328 243.793-2.144-2.219 57.632-38.187 1.91 2.87-10.054 6.669-1.05-.406-.571 1.476-44.985 29.809-.738-.012m-5.308-.121 1.695-1.125 1.148 1.191c-.945-.023-1.898-.047-2.843-.066" />
   <path fill="#3dbb6a"
      d="m223.73 241.434 14.56-21.887.37 2.574-12.906 19.406c-.676-.027-1.348-.062-2.024-.093m15.997-24.043 5.054-7.61 1.45.965-6.133 9.219-.371-2.574M216.434 241.063l-3.95-12.368 1.649-.53 4.148 12.991c-.617-.027-1.23-.062-1.847-.093M176.836 224.637l.91-1.461 14.125 8.668-.918 1.472-14.117-8.68m-7.106-4.366.903-1.461 5.637 3.457-.91 1.464-5.63-3.46M199.543 221.781l15.781-18.687 1.324 1.113-15.785 18.691-1.32-1.117" />
   <path fill="#3dbb6a" d="m191.621 231.16 7.922-9.387 1.32 1.122-7.941 9.386-1.3-1.12" />
   <path fill="#3ab56a"
      d="m287.867 243.734-5.902-6.109 1.242-1.215 7.125 7.38c-.82-.017-1.648-.036-2.465-.056M241.336 224.945l27.547-13.285 1.12 2.348-27.53 13.27-1.137-2.333M324.363 244.324l12.258-31.804 1.617.617-12.027 31.207c-.621-.008-1.223-.016-1.848-.02M237.328 212.86l1.707-.255 1.988 13.817-1.707.246-1.988-13.809M166.617 237.785l17.746-28.531 1.461.918-17.258 27.765c-.652-.05-1.304-.097-1.949-.152M149.477 236.328l-17.391-10.836.918-1.476 20.289 12.656a924.244 924.244 0 0 1-3.816-.344" />
   <path fill="#ed1c24"
      d="M374.719 204.734c0 5.243-11.594 9.493-25.89 9.493-14.302 0-25.9-4.25-25.9-9.493 0-5.242 11.598-9.496 25.9-9.496 14.296 0 25.89 4.254 25.89 9.496" />
   <path fill="#fff"
      d="M354.906 42.598c-2.3 1.902-3.988 3.007-6.02 4.402l7.25 4.824c.134-.898.872-4.402 1.735-7.258.922-3.054 1.93-5.707 2.734-7.328-1.183 1.367-3.242 3.328-5.699 5.36" />
   <path fill="none" stroke="#33bef3" stroke-width="1.727" d="M245.508 210.266 354.125 46.969" />
   <path fill="#33bef3"
      d="M354.906 42.598c-2.3 1.902-3.988 3.007-6.02 4.402l7.25 4.824c.134-.898.872-4.402 1.735-7.258.922-3.054 1.93-5.707 2.734-7.328-1.183 1.367-3.242 3.328-5.699 5.36" />
   <path fill="#fff"
      d="M145.34 21.184c.05 2.98-.145 4.988-.328 7.449l8.3-2.649c-.62-.66-2.894-3.425-4.585-5.882-1.801-2.63-3.247-5.075-4.008-6.72.332 1.778.574 4.614.62 7.802" />
   <path fill="none" stroke="#33bef3" stroke-width="1.727" d="M213.312 228.426 148.266 24.53" />
   <path fill="#33bef3"
      d="M145.34 21.184c.05 2.98-.145 4.988-.328 7.449l8.3-2.649c-.62-.66-2.894-3.425-4.585-5.882-1.801-2.63-3.247-5.075-4.008-6.72.332 1.778.574 4.614.62 7.802" />
   <path fill="#fff"
      d="M76.965 110.422c.535 2.933.676 4.945.902 7.398l7.75-3.968c-.726-.551-3.418-2.907-5.488-5.055-2.215-2.293-4.04-4.473-5.055-5.973.617 1.703 1.317 4.453 1.89 7.598" />
   <path fill="none" stroke="#33bef3" stroke-width="1.727" d="M133.91 217.684 80.395 113.246" />
   <path fill="#33bef3"
      d="M76.965 110.422c.535 2.933.676 4.945.902 7.398l7.75-3.968c-.726-.551-3.418-2.907-5.488-5.055-2.215-2.293-4.04-4.473-5.055-5.973.617 1.703 1.317 4.453 1.89 7.598" />
   <path fill="#fff"
      d="M341.16 52.64c-2.5 1.626-4.305 2.528-6.48 3.684l6.648 5.617c.234-.879 1.367-4.27 2.55-7.004 1.267-2.93 2.571-5.453 3.56-6.972-1.333 1.222-3.598 2.937-6.278 4.676" />
   <path fill="none" stroke="#33bef3" stroke-width="1.727" d="M215.98 203.64 339.875 56.896" />
   <path fill="#33bef3"
      d="M341.16 52.64c-2.5 1.626-4.305 2.528-6.48 3.684l6.648 5.617c.234-.879 1.367-4.27 2.55-7.004 1.267-2.93 2.571-5.453 3.56-6.972-1.333 1.222-3.598 2.937-6.278 4.676" />
   <path fill="#fff"
      d="M385.16 188.422c2.934-.524 4.953-.66 7.406-.875l-3.945-7.766c-.555.723-2.918 3.41-5.07 5.473-2.305 2.203-4.489 4.023-5.985 5.043 1.7-.617 4.454-1.309 7.594-1.875" />
   <g clip-path="url(#b)" transform="translate(-150.39 -413.684)">
      <path fill="none" stroke="#f19d1b" stroke-width="6.90478965" d="m815.121 457.879-276.738 140.8" />
   </g>
   <path fill="#f19d1b"
      d="M376.668 198.7c11.742-2.102 19.793-2.637 29.621-3.516l-15.797-31.047c-2.215 2.879-11.668 13.633-20.281 21.879-9.215 8.832-17.941 16.105-23.938 20.168 6.817-2.461 17.832-5.23 30.395-7.485" />
   <path fill="#fff"
      d="M124.531 75.922c1.36 2.652 2.078 4.535 3.012 6.82l6.262-6.05c-.852-.317-4.114-1.79-6.72-3.243-2.78-1.558-5.16-3.113-6.57-4.246 1.087 1.45 2.56 3.879 4.016 6.719" />
   <path fill="none" stroke="#176fc1" stroke-width="1.727" d="M282.582 237.02 128.632 77.625" />
   <path fill="#176fc1"
      d="M124.531 75.922c1.36 2.652 2.078 4.535 3.012 6.82l6.262-6.05c-.852-.317-4.114-1.79-6.72-3.243-2.78-1.558-5.16-3.113-6.57-4.246 1.087 1.45 2.56 3.879 4.016 6.719" />
   <path fill="#fff"
      d="M460.598 118.695c-2.95.465-4.961.555-7.422.72l3.777 7.847c.574-.711 2.992-3.348 5.188-5.364 2.351-2.156 4.574-3.925 6.093-4.91-1.714.578-4.484 1.211-7.636 1.707" />
   <path fill="none" stroke="#176fc1" stroke-width="2.591" d="m269.437 212.832 188.254-90.773" />
   <path fill="#176fc1"
      d="M462.05 117.016c-4.421.695-7.44.832-11.132 1.082l5.668 11.761c.855-1.054 4.488-5.011 7.781-8.039 3.528-3.234 6.86-5.894 9.137-7.367-2.57.871-6.727 1.82-11.453 2.563" />
   <path fill="#fff"
      d="M404.648 33.484c-1.832 2.348-3.242 3.793-4.925 5.598l8.12 3.14c-.066-.902-.1-4.484.126-7.456.242-3.18.652-5.993 1.086-7.75-.856 1.593-2.442 3.953-4.407 6.468" />
   <path fill="none" stroke="#176fc1" stroke-width="1.727" d="m333.29 222.86 71.538-184.938" />
   <path fill="#176fc1"
      d="M404.648 33.484c-1.832 2.348-3.242 3.793-4.925 5.598l8.12 3.14c-.066-.902-.1-4.484.126-7.456.242-3.18.652-5.993 1.086-7.75-.856 1.593-2.442 3.953-4.407 6.468" />
   <path fill="#fff"
      d="M206.785 7.797c-.445 2.95-.965 4.898-1.55 7.297l8.62-1.246c-.503-.754-2.289-3.86-3.546-6.555-1.352-2.895-2.375-5.547-2.852-7.293.031 1.812-.2 4.645-.672 7.797" />
   <path fill="none" stroke="#176fc1" stroke-width="1.727" d="M238.184 212.734 209.117 11.582" />
   <path fill="#176fc1"
      d="M206.785 7.797c-.445 2.95-.965 4.898-1.55 7.297l8.62-1.246c-.503-.754-2.289-3.86-3.546-6.555-1.352-2.895-2.375-5.547-2.852-7.293.031 1.812-.2 4.645-.672 7.797" />
   <path fill="#fff"
      d="M302.77 17.125c-2.239 1.969-3.891 3.129-5.88 4.586l7.391 4.598c.106-.903.735-4.426 1.512-7.305.828-3.078 1.754-5.766 2.512-7.406-1.14 1.402-3.14 3.418-5.535 5.527" />
   <path fill="none" stroke="#176fc1" stroke-width="1.727" d="M185.094 209.71 302.12 21.524" />
   <path fill="#176fc1"
      d="M302.77 17.125c-2.239 1.969-3.891 3.129-5.88 4.586l7.391 4.598c.106-.903.735-4.426 1.512-7.305.828-3.078 1.754-5.766 2.512-7.406-1.14 1.402-3.14 3.418-5.535 5.527" />
   <path fill="#fff"
      d="M9.09 116.457c1.187 2.734 1.777 4.664 2.562 7l6.637-5.625c-.824-.375-3.984-2.055-6.484-3.676-2.684-1.734-4.953-3.437-6.285-4.664.988 1.516 2.3 4.035 3.57 6.965" />
   <path fill="none" stroke="#176fc1" stroke-width="1.727" d="M99.387 220.27 13.074 118.422" />
   <path fill="#176fc1"
      d="M9.09 116.457c1.187 2.734 1.777 4.664 2.562 7l6.637-5.625c-.824-.375-3.984-2.055-6.484-3.676-2.684-1.734-4.953-3.437-6.285-4.664.988 1.516 2.3 4.035 3.57 6.965" />
   <path fill="#fff"
      d="M22.469 105.973c2.476 1.66 4.02 2.96 5.941 4.511l2.547-8.324c-.898.13-4.465.426-7.445.41-3.192-.011-6.024-.218-7.809-.53 1.652.741 4.117 2.155 6.766 3.933" />
   <path fill="none" stroke="#f19d1b" stroke-width="3.455" d="M350.387 204.57 26.883 105.48" />
   <path fill="#f19d1b"
      d="M18.055 106.473c4.949 3.32 8.03 5.925 11.875 9.023l5.097-16.652c-1.793.265-8.925.851-14.89.824-6.383-.023-12.047-.438-15.614-1.059 3.301 1.48 8.227 4.313 13.532 7.864" />
   <path fill="#fff"
      d="M25.895 72.754c2.304 1.887 3.718 3.332 5.488 5.055l3.324-8.051c-.91.05-4.488 0-7.457-.29-3.176-.312-5.973-.784-7.719-1.265 1.57.895 3.895 2.535 6.364 4.55" />
   <path fill="none" stroke="#f19d1b" stroke-width="3.455" d="M350.32 204.777 30.34 72.68" />
   <path fill="#f19d1b"
      d="M21.45 72.836c4.62 3.773 7.44 6.66 10.972 10.101l6.644-16.097c-1.808.097-8.968.004-14.898-.578-6.356-.63-11.957-1.575-15.445-2.532 3.144 1.793 7.78 5.075 12.726 9.106" />
   <path fill="#fff"
      d="M31.945 43.043c2.14 2.07 3.43 3.621 5.047 5.488l3.98-7.742c-.906-.031-4.468-.371-7.402-.914-3.136-.574-5.89-1.277-7.59-1.898 1.497 1.023 3.672 2.851 5.965 5.066" />
   <path fill="none" stroke="#f19d1b" stroke-width="3.455" d="M350.39 204.758 36.38 43.332" />
   <path fill="#f19d1b"
      d="M27.512 42.754c4.289 4.144 6.86 7.25 10.093 10.98l7.961-15.488c-1.812-.059-8.937-.742-14.804-1.824-6.278-1.149-11.778-2.559-15.18-3.8 2.988 2.042 7.34 5.694 11.93 10.132" />
</svg>
