<svg xmlns="http://www.w3.org/2000/svg" width="300" viewBox="0 0 560.606 388.846">
   <path
      d="M805.256 200.121c0 3.09-.868 9.394-5.557 9.394-6.43 0-13.598-12.971-13.598-23.48 0-4.325 1.36-9.52 5.561-9.52 6.55 0 13.594 13.227 13.594 23.607m-14.212-6.3c.743 2.964 1.733 6.671 3.586 9.882 1.232 2.23 2.965 4.826 4.94 4.826 2.35 0 2.596-2.968 2.596-5.57 0-2.216-.371-4.563-1.482-9.139zm9.269-1.483c-.497-2.104-1.487-6.058-3.336-9.398-1.608-3.085-3.34-5.431-5.315-5.431-1.486 0-2.467 1.352-2.467 5.686 0 1.97.246 4.567 1.477 9.143h9.64M814.032 182.941h3.336c.618 0 1.11 0 1.11.743 0 .497-.492.497-.985.497h-3.09l1.11 4.818c.126.126.126.372.126.493 0 .497-.497.994-1.115.994-.739 0-1.235-.497-1.482-1.361-.25-.865.121.739-1.231-4.944h-3.34c-.622 0-1.115 0-1.115-.747 0-.493.493-.493.99-.493h3.089l-1.854-7.657c-.246-.868-.492-1.983-.492-2.48 0-1.85 1.607-3.085 3.456-3.085 3.591 0 5.687 4.576 5.687 5.068 0 .368-.372.368-.493.368-.371 0-.497 0-.743-.618-.86-1.975-2.593-3.829-4.325-3.829-.74 0-1.11.372-1.11 1.604 0 .25.124.99.124 1.36l2.347 9.27M713.827 338.887c0 3.085-.743 9.39-5.44 9.39-6.425 0-13.594-12.972-13.594-23.48 0-4.326 1.357-9.516 5.561-9.516 6.55 0 13.473 13.223 13.473 23.606m-14.09-6.3c.738 2.96 1.728 6.667 3.46 9.878 1.361 2.23 2.965 4.83 5.069 4.83 2.22 0 2.593-2.972 2.593-5.569 0-2.221-.372-4.567-1.478-9.14zm9.147-1.486c-.497-2.105-1.487-6.054-3.215-9.394-1.607-3.09-3.34-5.436-5.315-5.436-1.482 0-2.471 1.36-2.471 5.686 0 1.97.246 4.572 1.482 9.144h9.519M724.824 329.247c0 .492-.372 1.236-1.357 1.236-.864 0-1.854-.865-1.854-1.729 0-.622.497-1.24 1.361-1.24.986 0 1.85.864 1.85 1.733m-6.672-16.563c-.12-.371-.246-.868-.246-1.36 0-1.604 1.232-2.844 3.09-2.844 3.21 0 4.696 4.576 4.696 5.069 0 .371-.496.371-.622.371-.367 0-.492-.125-.618-.492-.739-2.597-2.095-3.958-3.456-3.958-.618 0-.744.371-.744 1.114 0 .74.247 1.353.497 2.1.367.865.74 1.733 1.11 2.597.251.74 1.362 3.708 1.487 4.2.121.247.246.618.246.99 0 1.486-1.36 2.718-3.093 2.718-3.211 0-4.697-4.326-4.697-4.943 0-.372.371-.372.496-.372.497 0 .497.121.618.493.865 2.843 2.222 3.958 3.461 3.958.493 0 .865-.25.865-1.115 0-.74-.247-1.232-.99-3.336l-2.1-5.19M788.781 317.953c0 3.09-.743 9.386-5.436 9.386-6.43 0-13.602-12.972-13.602-23.476 0-4.326 1.361-9.52 5.57-9.52 6.546 0 13.468 13.231 13.468 23.61m-14.09-6.3c.747 2.96 1.728 6.668 3.46 9.882 1.362 2.226 2.965 4.823 5.07 4.823 2.224 0 2.596-2.969 2.596-5.566 0-2.22-.372-4.571-1.482-9.139zm9.147-1.49c-.493-2.096-1.486-6.054-3.21-9.39-1.612-3.085-3.34-5.44-5.315-5.44-1.487 0-2.476 1.361-2.476 5.69 0 1.971.25 4.572 1.486 9.14h9.515M799.782 308.309c0 .493-.371 1.24-1.36 1.24-.865 0-1.854-.868-1.854-1.728 0-.618.492-1.24 1.36-1.24.986 0 1.854.868 1.854 1.728m-6.675-16.554c-.126-.371-.247-.868-.247-1.361 0-1.612 1.236-2.847 3.09-2.847 3.215 0 4.697 4.58 4.697 5.072 0 .364-.493.364-.622.364-.368 0-.489-.117-.614-.493-.743-2.593-2.104-3.954-3.461-3.954-.622 0-.74.372-.74 1.11 0 .748.247 1.362.493 2.109.372.864.74 1.724 1.111 2.589.246.743 1.361 3.707 1.482 4.2.125.25.246.622.246.993 0 1.487-1.356 2.714-3.085 2.714-3.219 0-4.697-4.321-4.697-4.935 0-.376.372-.376.493-.376.492 0 .492.121.618.493.864 2.847 2.225 3.962 3.457 3.962.5 0 .868-.25.868-1.115 0-.743-.246-1.24-.985-3.34l-2.104-5.185"
      style="fill:#838787;fill-opacity:1;fill-rule:nonzero;stroke:none"
      transform="matrix(1.33333 0 0 -1.33333 -727.347 505.167)" />
   <path
      d="m701.62 284.35-1.672 1.61c14.412 14.962 34.62 24.306 57.032 24.306v-2.32c-21.768 0-41.365-9.067-55.36-23.597zM798.658 268.706c-9.582 10.073-23.07 16.377-38.07 16.377v2.321c15.651 0 29.752-6.588 39.751-17.098z"
      style="color:#838787;fill:#838787;stroke-width:.417503;stroke-miterlimit:10;-inkscape-stroke:none"
      transform="matrix(1.33333 0 0 -1.33333 -727.347 505.167)" />
   <path d="M755.828 114.867v237.622h4.642V114.867Z"
      style="color:#838787;fill:#838787;stroke-width:.417503;stroke-miterlimit:10;-inkscape-stroke:none"
      transform="matrix(1.33333 0 0 -1.33333 -727.347 505.167)" />
   <path d="M757.966 167.627v2.321c7.638 0 14.916 1.457 21.666 4.016l.823-2.17c-6.995-2.651-14.555-4.167-22.49-4.167z"
      style="color:#838787;fill:#838787;stroke-width:.417503;stroke-miterlimit:10;-inkscape-stroke:none"
      transform="matrix(1.33333 0 0 -1.33333 -727.347 505.167)" />
   <path d="m758.928 227.306-3.253 3.312 138.8 136.332 3.252-3.312z"
      style="color:#838787;fill:#f7931d;stroke-width:.417503;stroke-miterlimit:10;-inkscape-stroke:none"
      transform="matrix(1.33333 0 0 -1.33333 -727.347 505.167)" />
   <path
      d="m800.809 114.67-45.007 115.983 4.327 1.679 45.007-115.983zM730.003 254.595 616.254 366.323l3.253 3.311 113.749-111.728z"
      style="color:#838787;fill:#f7931d;stroke-width:.417503;stroke-miterlimit:10;-inkscape-stroke:none"
      transform="matrix(1.33333 0 0 -1.33333 -727.347 505.167)" />
   <path
      d="M810.061 110.934c-.634 7.996-.455 13.415-.396 20.049l-11.026-4.309 4.333-11.168-4.333 11.168-10.78-4.225c1.774-1.661 8.345-8.696 13.293-15 5.306-6.743 9.594-13.06 11.92-17.34-1.203 4.718-2.33 12.267-3.01 20.826"
      style="fill:#f7931d;fill-opacity:1;fill-rule:nonzero;stroke:none"
      transform="matrix(1.33333 0 0 -1.33333 -727.347 505.167)" />
   <path
      d="M762.762 358.38c-2.48 8.212-4.175 15.665-4.776 20.495-.605-4.83-2.304-12.278-4.793-20.49-2.321-7.674-4.459-12.66-6.93-18.817l23.41-.004c-1.04 2.2-4.598 11.143-6.91 18.816"
      style="fill:#838787;fill-opacity:1;fill-rule:nonzero;stroke:none"
      transform="matrix(1.33333 0 0 -1.33333 -727.347 505.167)" />
   <path d="M545.51 228.07v4.641h420.455v-4.641z"
      style="color:#838787;fill:#0054a6;stroke-width:.417503;stroke-miterlimit:10;-inkscape-stroke:none"
      transform="matrix(1.33333 0 0 -1.33333 -727.347 505.167)" />
   <path
      d="m734.815 269.506-8.187-8.341 5.001-4.914-5.001 4.914-8.225-8.371c2.304-.794 11.18-4.514 18.274-8.242 7.598-3.983 14.103-8 17.973-10.943-3.026 3.808-7.147 10.242-11.264 17.77-3.853 7.026-5.908 12.044-8.571 18.127M889.228 365.42c-7.097-3.716-12.153-5.679-18.278-8.226l8.292-8.458 16.858 16.558-16.858-16.558 8.1-8.262c.834 2.287 4.73 11.088 8.587 18.115 4.13 7.523 8.263 13.953 11.285 17.76-3.874-2.951-10.375-6.95-17.986-10.93"
      style="fill:#f7931d;fill-opacity:1;fill-rule:nonzero;stroke:none"
      transform="matrix(1.33333 0 0 -1.33333 -727.347 505.167)" />
   <path
      d="M758.149 126.545v-11.682 11.682l-11.89.004c1.043-2.2 4.605-11.139 6.918-18.817 2.471-8.216 4.17-15.665 4.772-20.49.6 4.825 2.308 12.274 4.793 20.486 2.317 7.678 4.459 12.659 6.934 18.817M778.152 364.61v-14.22h-3.094v-2.218c1.24.121 3.962.121 5.812.121 1.732 0 4.446 0 5.807-.12v2.216h-3.21v9.645c0 4.943 3.953 7.293 6.8 7.293 1.604 0 2.593-.99 2.593-4.45v-12.488h-3.21v-2.217c1.357.121 4.075.121 5.803.121 1.854 0 4.572 0 5.807-.12v2.216h-3.21v11.87c0 4.943-2.472 6.672-7.043 6.672-4.451 0-6.923-2.593-8.033-4.944v4.944l-7.916-.368v-2.104c2.847 0 3.094 0 3.094-1.85M722.006 112.918v-14.22h-3.094v-2.222c1.24.126 3.958.126 5.812.126 1.724 0 4.446 0 5.807-.126v2.222h-3.21v9.644c0 4.943 3.953 7.294 6.792 7.294 1.612 0 2.593-.99 2.593-4.451V98.698H733.5v-2.222c1.357.126 4.074.126 5.807.126 1.85 0 4.572 0 5.808-.126v2.222h-3.211v11.87c0 4.942-2.476 6.675-7.047 6.675-4.447 0-6.923-2.597-8.029-4.943v4.943l-7.916-.372v-2.104c2.847 0 3.094 0 3.094-1.85"
      style="fill:#838787;fill-opacity:1;fill-rule:nonzero;stroke:none"
      transform="matrix(1.33333 0 0 -1.33333 -727.347 505.167)" />
   <path d="M701.85 104.397v4.641h14.624v-4.641z"
      style="color:#838787;fill:#838787;stroke-width:.417503;stroke-miterlimit:10;-inkscape-stroke:none"
      transform="matrix(1.33333 0 0 -1.33333 -727.347 505.167)" />
</svg>
