<svg xmlns="http://www.w3.org/2000/svg" xmlns:xlink="http://www.w3.org/1999/xlink" width="500"
   viewBox="0 0 667.011 173.31">
   <defs>
      <path id="a"
         d="m1.313-13.703-.22 1.031H4L1.187.766C.454 4.219-.577 5.953-1.921 5.953c-.375 0-.64-.219-.64-.516 0-.343.296-.515.296-.921 0-.672-.484-1.188-1.218-1.188-.672 0-1.22.61-1.22 1.344 0 1.125 1.095 1.953 2.532 1.953 2.906 0 5.047-3.14 6.39-9.063l2.313-10.234h3.453l.188-1.031H6.75c.938-5.047 2.11-7.281 3.906-7.281.453 0 .703.156.703.406 0 .297-.312.453-.312 1 0 .765.594 1.234 1.172 1.234.734 0 1.344-.672 1.344-1.375 0-1.14-1.172-1.984-2.75-1.984-1.954 0-3.266 1.094-4.22 2.469-1.062 1.5-1.609 3.265-2.312 5.53zm0 0" />
      <path id="b"
         d="M8.313-10.047H8c-.188.328-.344.422-.688.422-.171 0-.39-.031-.812-.172-.578-.156-.89-.219-1.281-.219-1.672 0-2.75.954-2.75 2.454 0 .718.469 1.75 1.437 2.968.89 1.125 1.281 1.89 1.281 2.625 0 1.11-.671 1.735-1.734 1.735-1.187 0-1.953-.922-2.265-3.079H.813L.358.297h.375c.157-.36.407-.484.657-.484.25 0 .562.03 1 .203.515.218.859.234 1.25.234 1.875 0 3.265-1.156 3.265-3.047 0-.89-.406-1.765-1.547-3.094-.89-1.03-1.218-1.703-1.218-2.312 0-.844.546-1.297 1.328-1.297 1.125 0 1.797.75 2.031 2.64h.36zm0 0" />
      <path id="c"
         d="M4.89-9.719c.016-.094.048-.203.048-.203 0-.047-.047-.094-.125-.094l-3.547.5.046.344h.5c.375 0 1 .063 1 .61 0 .109-.109.703-.359 1.609l-2.61 9.812c-.28 1.079-.577 1.407-1.546 1.438v.36h4.61v-.36C1.843 4.297 1.5 4.14 1.5 3.64c0-.329.516-2.188.906-3.782C2.97.156 3.453.25 3.97.25c3.328 0 6.75-3.688 6.75-7.422 0-1.781-.922-2.844-2.61-2.844-1.359 0-2.656.72-3.89 2.563zm3.782 2.61c0 1.593-.469 3.25-1.563 4.765-1 1.406-2.093 2.156-3.296 2.156-.626 0-1.094-.359-1.094-.859 0-.766.828-3.703 1.484-5.406.516-1.36 1.86-2.594 3.063-2.594 1.03 0 1.406.64 1.406 1.938zm0 0" />
      <path id="d"
         d="M8.14-2.469C6.5-1.14 5.798-.766 4.798-.766c-1.281 0-2.11-.828-2.11-2.078 0-.344 0-.922.22-1.375 4.062-.531 6.452-2.297 6.452-4.25 0-.953-.656-1.547-1.859-1.547-3.406 0-6.797 3.625-6.797 7.157C.703-.984 1.938.25 3.766.25c1.89 0 3.343-.86 4.64-2.453zm-4.687-3.25C4.22-7.75 5.766-9.5 7.063-9.5c.64 0 .796.344.796.89 0 .704-.437 1.516-1.14 2.204-.828.797-1.703 1.203-3.657 1.687zm0 0" />
      <path id="e"
         d="M7.953-2.438C6.72-1.14 5.86-.562 4.656-.562c-1.297 0-2.015-.954-2.015-2.594 0-2.031.796-3.953 2.062-5.297.656-.688 1.563-1.094 2.469-1.094.531 0 .844.188.844.453 0 .438-.344.688-.344 1.094 0 .453.25.906.89.906.594 0 1.094-.468 1.094-1.078 0-1.078-1-1.844-2.39-1.844-1.375 0-2.672.5-3.797 1.375C1.859-7.344.688-5.359.688-3.25c0 2.313 1.218 3.5 3.328 3.5 1.703 0 2.906-.703 4.296-2.453zm0 0" />
      <path id="p"
         d="m16-2.39-.344-.266-.484.594C14.5-1.235 14.078-.86 13.703-.86c-.187 0-.281-.125-.281-.375 0-.079.094-.5.234-1.016l1.547-5.703c.016-.11.063-.469.063-.64 0-.813-.47-1.423-1.313-1.423-.453 0-.89.11-1.437.454-1.11.703-2.047 1.843-3.625 4.359.609-1.75.906-3.016.906-3.453 0-.813-.453-1.36-1.375-1.36-1.375 0-2.969 1.5-4.985 4.797l1.313-4.75-.063-.047L1-9.312v.359h.563c.625 0 .937.156.937.5 0 .281-.344 2.156-1.25 5.187L.266 0h1.703C3.062-3.594 3.39-4.406 4.156-5.594c1.282-1.922 2.61-3.25 3.39-3.25.298 0 .5.203.5.578 0 .297-.546 2.704-1.546 6.157L5.89 0h1.704c.875-3.5 1.328-4.61 2.453-6.172 1.125-1.594 2.297-2.672 2.969-2.672.25 0 .453.203.453.485 0 .109-.047.406-.156.859L12-2.344c-.234.89-.297 1.281-.297 1.5 0 .688.313 1.047.906 1.047 1.063 0 2.063-.75 3.266-2.422zm0 0" />
      <path id="f"
         d="M9.734 5.156C5.25 1.406 4.281-2.204 4.281-8.156c0-6.188 1-9.156 5.453-12.969l-.296-.5C4.311-18.594 1.53-13.985 1.53-8.062c0 5.437 2.75 10.843 7.813 13.718zm0 0" />
      <path id="h"
         d="M2.656 4.516c2.203-1.063 3.578-3.079 3.578-5 0-1.657-1.109-2.782-2.546-2.782-1.157 0-1.922.735-1.922 1.829 0 1.078.671 1.625 1.843 1.625.36 0 .672-.126.938-.126.25 0 .437.188.437.422 0 1.047-.89 2.235-2.64 3.422zm0 0" />
      <path id="j"
         d="M.922-21.125c4.64 3.656 5.453 7.328 5.453 13.313 0 6.218-.906 9.218-5.453 12.968l.297.5c5.078-3.093 7.906-7.64 7.906-13.562 0-5.438-2.922-10.782-7.813-13.719Zm0 0" />
      <path id="k" d="M20.39-10.234v-2.125H1.532v2.125zm0 6.39v-2.11H1.532v2.11zm0 0" />
      <path id="g"
         d="M8.188 0v-.766C7.14-.796 6.593-1.312 6.593-2.78v-18.844H.484v.766c1.11.093 1.657.89 1.657 2.078v16C2.14-1.375 1.594-.86.516-.766V0Zm0 0" />
      <path id="i"
         d="M15.516-14.75h-4.829v.766c1.376.062 1.766.28 1.766 1.062 0 .375-.094.828-.36 1.438L9.798-5.656l-2.531-6.5c-.25-.64-.297-.766-.297-1 0-.469.328-.672 1.125-.766l.578-.062v-.766h-8v.766c.703.093.89.187 1.094.453.28.375 1.468 2.937 2.109 4.5L7.719.453h.828l5.11-12.672c.609-1.484.874-1.672 1.859-1.765zm0 0" />
      <path id="l"
         d="M13.188-3.484c-1.188 1.343-2.11 1.78-3.422 1.78-2.797 0-4.454-2.687-4.454-7.03 0-3.485 1.125-5.407 2.688-5.407 1.344 0 1.344.735 1.344 2.235 0 1.531.703 2.344 1.797 2.344 1.343 0 2.171-.813 2.171-2.047 0-2.047-2.14-3.532-4.921-3.532-4.266 0-7.594 3.266-7.594 8.032C.797-2.531 3.64.453 7.64.453c2.562 0 4.359-.969 6.125-3.36zm0 0" />
      <path id="m"
         d="M17.25 0v-.766C16-.859 15.687-1.25 15.687-2.687v-7.907c0-2.781-1.703-4.547-4.328-4.547-1.921 0-3.453.875-4.546 2.782H6.78v-2.391H.671v.766c1.407.218 1.704.578 1.704 1.953v9.25c0 1.344-.266 1.719-1.703 2.015V0h7.687v-.766C7.172-.922 6.813-1.5 6.813-2.687v-8.454c0-.125.234-.437.546-.765.704-.703 1.47-1.078 2.235-1.078 1.094 0 1.64.921 1.64 2.718v7.579c0 1.28-.39 1.796-1.468 1.921V0Zm0 0" />
      <path id="o"
         d="M17.094 0v-.766c-1.125 0-1.578-.546-1.578-2.015v-8c0-2.531-1.532-4.36-4.157-4.36-1.703 0-3.14.61-4.703 2.47v-8.954H.484v.766c1.47.28 1.72.406 1.72 1.953v16.062c0 1.781-.25 1.781-1.688 2.078V0h7.671v-.766c-1.171-.156-1.53-.64-1.53-1.953v-8.422c0-.125.218-.437.546-.765.703-.703 1.469-1.078 2.234-1.078 1.25 0 1.641.828 1.641 3.093v7.172c0 1.313-.39 1.828-1.484 1.953V0Zm0 0" />
      <path id="n"
         d="M6.5-8.094c0-1.031-.875-1.922-1.89-1.922-1.063 0-1.954.954-1.954 1.922 0 .953.89 1.922 1.953 1.922 1.016 0 1.891-.906 1.891-1.922Zm0 0" />
      <path id="q"
         d="m1.234-12.844-.218.969H3.75L1.11.719c-.688 3.234-1.657 4.86-2.907 4.86-.36 0-.61-.204-.61-.485 0-.328.282-.469.282-.86 0-.64-.453-1.109-1.14-1.109-.641 0-1.141.563-1.141 1.25 0 1.063 1.015 1.828 2.36 1.828 2.733 0 4.75-2.937 6-8.484l2.171-9.594h3.234l.188-.969H6.328c.875-4.734 1.984-6.844 3.656-6.844.422 0 .672.157.672.391 0 .281-.312.422-.312.938 0 .718.578 1.172 1.11 1.172.702 0 1.265-.625 1.265-1.297 0-1.078-1.11-1.86-2.578-1.86-1.829 0-3.063 1.032-3.954 2.313-1 1.406-1.5 3.062-2.171 5.187zm0 0" />
      <path id="B"
         d="M19.344-19.594H4.437v.485c1.985.172 2.282.359 2.282 1.203 0 .468-.094 1.078-.297 1.828L2.734-2.813c-.453 1.547-.75 2.22-2.5 2.329V0h7.532v-.484C6-.594 5.453-.938 5.453-1.656c0-.438.219-1.047.422-1.797l1.781-6.39c1.11.062 1.828.093 2.485.093 1.406 0 2.25.125 2.25 1.313 0 .484-.063.906-.235 1.843l.5.14 2.281-7.046-.53-.156c-1.36 2.703-1.454 2.765-6.485 2.828l1.922-6.813c.203-.78.656-.953 2.031-.953 5.281 0 5.969.39 5.969 2.578 0 .172 0 .328-.078.985l.625.062zm0 0" />
      <path id="D"
         d="M21.656-9.563h-8v.47L14.61-9c.985.094 1.407.453 1.407.984 0 .672-.172 1.391-.782 3.391-.656 2.313-.796 2.672-1.171 3.031-.657.657-1.797 1.032-3.141 1.032-3.875 0-6.063-2.344-6.063-6.282 0-3.328 1.235-6.656 3.188-9.14 1.437-1.829 3.469-2.97 5.844-2.97 1.859 0 3.296.626 4.234 1.767.656.812 1.047 1.89 1.11 3.171l.53.094 1.47-5.906-.438-.156c-.516.718-1.031 1.03-1.813 1.03-.328 0-.625-.03-1.312-.312a11.804 11.804 0 0 0-4.016-.718c-2.375 0-4.656.812-6.61 2.172-3.234 2.25-5.484 6.046-5.484 10.28 0 2.048.813 4.345 2.22 5.798 1.53 1.53 3.78 2.28 6.39 2.28 2.64 0 4.797-.577 7.11-1.859l1.468-5.625c.453-1.703.953-2.03 2.906-2.156zm0 0" />
      <path id="E"
         d="M3.938-19.594v.485c1.828.062 2.265.422 2.265 1.234 0 .438-.11 1.016-.328 1.766L2.219-2.766C1.734-.984 1.438-.78-.234-.484V0h7.703c3.515 0 6.547-.781 8.734-2.484C19.141-4.766 21-7.797 21-11.516c0-5.25-3.516-8.078-8.766-8.078zm5.359 2.078c.297-1.047.969-1.172 2.11-1.172 1.734 0 3 .36 3.921 1.047 1.469 1.11 2.344 3 2.344 5.407 0 3.03-1.172 6.562-3.297 8.64-1.86 1.797-4.203 2.688-7.234 2.688-1.375 0-2.047-.328-2.047-1.11 0-.39.156-.984.672-2.843Zm0 0" />
      <path id="r"
         d="M7.797-9.406H7.5c-.172.297-.328.375-.64.375-.173 0-.36-.016-.766-.14-.532-.157-.828-.22-1.203-.22-1.563 0-2.563.891-2.563 2.297 0 .688.422 1.64 1.328 2.797C4.5-3.266 4.86-2.53 4.86-1.859c0 1.046-.625 1.64-1.625 1.64-1.109 0-1.828-.875-2.125-2.89H.766L.344.28h.344c.14-.344.375-.453.609-.453.234 0 .531.016.937.188.485.203.813.218 1.172.218C5.172.234 6.47-.859 6.47-2.625c0-.828-.375-1.656-1.438-2.89C4.203-6.5 3.875-7.11 3.875-7.689c0-.78.516-1.218 1.25-1.218 1.047 0 1.688.703 1.906 2.469h.344Zm0 0" />
      <path id="s"
         d="M4.578-9.11c.016-.093.047-.203.047-.203 0-.03-.047-.078-.11-.078l-3.327.47.046.312h.47c.343 0 .937.062.937.578 0 .11-.11.656-.344 1.515L-.156 2.688c-.25 1-.531 1.312-1.438 1.343v.328H2.72v-.328c-1 0-1.313-.156-1.313-.625 0-.297.485-2.047.844-3.531.547.281.984.36 1.484.36 3.11 0 6.313-3.454 6.313-6.97 0-1.656-.875-2.656-2.438-2.656-1.28 0-2.5.688-3.64 2.407zm3.563 2.438c0 1.5-.454 3.047-1.47 4.484C5.735-.875 4.704-.171 3.579-.171c-.594 0-1.015-.344-1.015-.812 0-.72.765-3.47 1.374-5.063.5-1.281 1.75-2.422 2.876-2.422.953 0 1.328.594 1.328 1.797zm0 0" />
      <path id="t"
         d="M7.625-2.328C6.094-1.063 5.437-.718 4.5-.718c-1.203 0-1.984-.766-1.984-1.938 0-.328 0-.875.203-1.313C6.53-4.453 8.78-6.109 8.78-7.938c0-.906-.625-1.453-1.75-1.453C3.828-9.39.656-5.984.656-2.687.656-.923 1.812.233 3.531.233c1.766 0 3.14-.812 4.344-2.296zM3.235-5.36c.734-1.907 2.171-3.547 3.39-3.547.594 0 .75.328.75.828 0 .672-.406 1.437-1.078 2.078-.781.734-1.594 1.125-3.422 1.563zm0 0" />
      <path id="u"
         d="M7.453-2.281C6.297-1.062 5.5-.531 4.36-.531c-1.203 0-1.89-.89-1.89-2.422 0-1.906.75-3.719 1.937-4.969.625-.64 1.469-1.016 2.328-1.016.485 0 .782.157.782.422 0 .407-.313.641-.313 1.016 0 .422.234.86.828.86.547 0 1.016-.454 1.016-1.032 0-1-.938-1.719-2.235-1.719-1.296 0-2.515.47-3.546 1.297C1.75-6.875.64-5.03.64-3.047.64-.875 1.78.234 3.766.234c1.593 0 2.734-.656 4.03-2.296zm0 0" />
      <path id="v"
         d="M9.125 4.828c-4.203-3.516-5.11-6.89-5.11-12.484 0-5.782.938-8.578 5.11-12.14l-.281-.485C4.047-17.438 1.438-13.11 1.438-7.563c0 5.11 2.578 10.172 7.328 12.875zm0 0" />
      <path id="x"
         d="M2.484 4.234c2.079-1 3.36-2.89 3.36-4.687 0-1.563-1.047-2.61-2.39-2.61-1.079 0-1.798.688-1.798 1.72 0 1.015.625 1.53 1.735 1.53.328 0 .625-.124.875-.124.234 0 .421.171.421.39 0 .984-.843 2.094-2.5 3.203zm0 0" />
      <path id="z"
         d="M.875-19.797c4.344 3.422 5.094 6.86 5.094 12.485 0 5.812-.844 8.625-5.094 12.14l.266.484C5.906 2.406 8.547-1.859 8.547-7.405c0-5.11-2.735-10.11-7.313-12.875zm0 0" />
      <path id="A" d="M19.11-9.594v-1.984H1.437v1.984zm0 6v-1.984H1.437v1.984zm0 0" />
      <path id="F"
         d="M14.188-5.016v-1.921h-3.094v-13.344H9.78L.36-6.938v1.922h8.407V0h2.328v-5.016ZM8.765-6.937H1.562L8.767-17.22zm0 0" />
      <path id="w"
         d="M7.688 0v-.719c-1-.031-1.5-.515-1.5-1.89v-17.672H.452v.718c1.047.094 1.563.844 1.563 1.954v15C2.016-1.297 1.5-.813.484-.72V0Zm0 0" />
      <path id="y"
         d="M14.547-13.828h-4.531v.719c1.296.062 1.656.265 1.656.984 0 .36-.094.781-.328 1.36L9.188-5.313l-2.376-6.094c-.25-.594-.265-.719-.265-.922 0-.453.297-.625 1.047-.719l.531-.062v-.72h-7.5v.72c.672.093.844.171 1.031.421.266.36 1.375 2.75 1.969 4.235L7.235.422h.78l4.797-11.875c.563-1.39.813-1.563 1.735-1.656zm0 0" />
      <path id="C"
         d="M16.016 0v-.719c-1.047 0-1.47-.515-1.47-1.89v-7.5c0-2.375-1.437-4.079-3.89-4.079-1.594 0-2.953.563-4.422 2.313v-8.406H.454v.718c1.374.266 1.609.391 1.609 1.829v15.062c0 1.688-.235 1.688-1.579 1.953V0h7.204v-.719c-1.125-.156-1.454-.594-1.454-1.828v-7.89c0-.126.22-.422.516-.72.656-.655 1.375-1.03 2.094-1.03 1.172 0 1.531.78 1.531 2.921v6.72c0 1.233-.36 1.702-1.375 1.827V0Zm0 0" />
      <path id="G"
         d="M16.172 0v-.719C15-.813 14.703-1.172 14.703-2.516v-7.421c0-2.61-1.594-4.25-4.047-4.25-1.812 0-3.25.812-4.265 2.609h-.032v-2.25H.625v.719c1.328.203 1.594.546 1.594 1.828v8.672c0 1.265-.235 1.625-1.594 1.89V0h7.203v-.719c-1.11-.156-1.437-.687-1.437-1.797v-7.921c0-.126.203-.422.515-.72.657-.655 1.375-1.03 2.094-1.03 1.016 0 1.531.874 1.531 2.562v7.11c0 1.203-.36 1.671-1.375 1.796V0Zm0 0" />
      <path id="H"
         d="M6.094-7.594c0-.953-.813-1.797-1.782-1.797-.984 0-1.828.907-1.828 1.797 0 .907.844 1.797 1.829 1.797.968 0 1.78-.828 1.78-1.797zm0 0" />
      <path id="I"
         d="M16.875-5.563c0 1.043-.21 1.922-.625 2.641a4.871 4.871 0 0 1-1.64 1.719c-.688.43-1.47.734-2.344.922-.868.187-1.762.281-2.688.281h-7.61v-19.11h7.61c.738 0 1.492.079 2.266.235a6.37 6.37 0 0 1 2.11.781 4.44 4.44 0 0 1 1.546 1.5c.395.625.594 1.422.594 2.39 0 1.063-.293 1.946-.875 2.642-.574.687-1.328 1.183-2.266 1.484v.062c.54.094 1.05.262 1.531.5a4.2 4.2 0 0 1 1.235.938c.351.375.633.82.844 1.328.207.5.312 1.063.312 1.688zm-5.234-8.015c0-.645-.25-1.113-.75-1.406-.493-.301-1.227-.454-2.204-.454H6.422v3.938h2.484c.864 0 1.535-.176 2.016-.531.476-.352.719-.867.719-1.547zM12.266-6c0-.79-.305-1.336-.907-1.64-.593-.301-1.386-.454-2.375-.454H6.422v4.375h2.594a7.05 7.05 0 0 0 1.125-.094c.382-.07.734-.187 1.046-.343.313-.164.567-.395.766-.688.207-.3.313-.687.313-1.156zm0 0" />
      <path id="J" d="M1.781 0v-20.406h4.485V0Zm0 0" />
      <path id="K"
         d="M6.531-17.734c0 .343-.07.668-.203.968A2.427 2.427 0 0 1 4.984-15.5c-.312.125-.64.188-.984.188-.719 0-1.324-.235-1.813-.704a2.305 2.305 0 0 1-.734-1.718 2.33 2.33 0 0 1 .734-1.703 2.76 2.76 0 0 1 .797-.532A2.562 2.562 0 0 1 4-20.172c.344 0 .672.063.984.188.313.125.579.297.797.515.227.219.41.48.547.782.133.292.203.609.203.953zM1.781 0v-13.453h4.422V0Zm0 0" />
      <path id="L"
         d="M10.563 0v-7.344c0-.375-.032-.734-.094-1.078a2.952 2.952 0 0 0-.313-.906 1.63 1.63 0 0 0-.61-.61c-.26-.156-.589-.234-.983-.234-.399 0-.747.078-1.047.235-.293.148-.54.355-.735.624-.199.274-.351.586-.453.938a4.08 4.08 0 0 0-.14 1.078V0H1.734v-13.453h4.282v1.875h.062c.156-.29.363-.578.625-.86.258-.28.567-.519.922-.718a5.96 5.96 0 0 1 1.14-.485c.415-.125.86-.187 1.329-.187.906 0 1.672.164 2.297.484.632.324 1.144.746 1.53 1.266.384.512.661 1.101.829 1.765.176.668.266 1.336.266 2V0Zm0 0" />
      <path id="M" d="M.969-5.313v-3.515h6.86v3.515Zm0 0" />
      <path id="N"
         d="M16.469-13.234c0 1.117-.211 2.058-.625 2.828a5 5 0 0 1-1.672 1.844c-.7.468-1.508.812-2.422 1.03-.918.22-1.871.329-2.86.329H6.595V0H1.969v-19.11h7.015c1.051 0 2.032.106 2.938.313.906.2 1.695.527 2.375.985A4.836 4.836 0 0 1 15.89-16c.382.75.578 1.672.578 2.766zm-4.61.03c0-.444-.093-.812-.28-1.093-.18-.289-.423-.52-.735-.687a3.073 3.073 0 0 0-1.031-.329 9.247 9.247 0 0 0-1.204-.078H6.594v4.516H8.53c.438 0 .852-.035 1.25-.11.395-.07.75-.195 1.063-.374.312-.188.554-.426.734-.72.188-.3.281-.675.281-1.124zm0 0" />
      <path id="O"
         d="M10.578 0v-7.297c0-.375-.027-.734-.078-1.078a2.515 2.515 0 0 0-.313-.906 1.63 1.63 0 0 0-.609-.61c-.25-.156-.574-.234-.969-.234-.773 0-1.367.277-1.78.828-.419.543-.626 1.219-.626 2.031V0H1.781v-20.406h4.422v8.656h.063c.3-.54.785-1.02 1.453-1.438.664-.425 1.468-.64 2.406-.64.914 0 1.68.164 2.297.484a4.349 4.349 0 0 1 1.515 1.266c.395.512.676 1.101.844 1.765.164.668.25 1.336.25 2V0Zm0 0" />
      <path id="P"
         d="M15.984-6.781c0 1.105-.199 2.105-.593 3a6.76 6.76 0 0 1-1.625 2.265A7.379 7.379 0 0 1 11.39-.078 8.01 8.01 0 0 1 8.5.437c-1 0-1.96-.171-2.875-.515A7.337 7.337 0 0 1 3.25-1.516 6.774 6.774 0 0 1 1.64-3.78c-.398-.895-.593-1.895-.593-3 0-1.094.195-2.078.594-2.953a6.672 6.672 0 0 1 1.609-2.25 7.003 7.003 0 0 1 2.375-1.407 8.644 8.644 0 0 1 2.875-.484c1.031 0 1.992.164 2.89.484a7.04 7.04 0 0 1 2.376 1.407 6.658 6.658 0 0 1 1.625 2.25c.394.875.593 1.859.593 2.953zm-4.265 0c0-.426-.074-.848-.219-1.266a3.43 3.43 0 0 0-.625-1.094 3.262 3.262 0 0 0-1-.765 3.083 3.083 0 0 0-1.375-.297c-.523 0-.98.101-1.375.297a2.98 2.98 0 0 0-.984.765c-.262.313-.461.68-.594 1.094-.137.418-.203.84-.203 1.266 0 .437.066.867.203 1.281.133.406.336.777.61 1.11a2.9 2.9 0 0 0 1 .796c.394.2.85.297 1.374.297.52 0 .977-.098 1.375-.297.395-.195.727-.46 1-.797.27-.332.473-.703.61-1.109.132-.414.203-.844.203-1.281zm0 0" />
      <path id="Q"
         d="M15.984-1.266c0 1.313-.195 2.454-.578 3.422-.375.977-.906 1.785-1.594 2.422-.68.633-1.507 1.11-2.484 1.422-.98.32-2.062.484-3.25.484-1.187 0-2.414-.183-3.672-.546-1.25-.356-2.336-.875-3.25-1.563l2.219-3.156c.645.57 1.36 1 2.14 1.281.79.281 1.563.422 2.313.422 1.3 0 2.258-.344 2.875-1.031.625-.688.938-1.602.938-2.735v-.797h-.079c-.417.532-.98.965-1.687 1.297-.7.324-1.496.485-2.39.485-1.032 0-1.946-.18-2.735-.547a6.16 6.16 0 0 1-2.016-1.5 6.72 6.72 0 0 1-1.25-2.203 8.086 8.086 0 0 1-.437-2.672c0-.938.144-1.828.437-2.672a6.952 6.952 0 0 1 1.25-2.235 6.179 6.179 0 0 1 2.016-1.546c.79-.395 1.691-.594 2.703-.594a5.89 5.89 0 0 1 2.422.515 4.227 4.227 0 0 1 1.875 1.594h.047v-1.734h4.187zm-4.218-5.53c0-.458-.079-.891-.235-1.298a3.17 3.17 0 0 0-.656-1.094 2.979 2.979 0 0 0-1.016-.75 3.336 3.336 0 0 0-1.359-.265c-.5 0-.945.09-1.328.265-.387.18-.715.422-.984.735-.274.305-.481.664-.625 1.078-.149.418-.22.86-.22 1.328 0 .45.071.883.22 1.297.144.406.351.773.625 1.094.269.312.597.562.984.75.383.187.828.281 1.328.281.508 0 .96-.094 1.36-.281.406-.188.75-.43 1.03-.735a3.22 3.22 0 0 0 .641-1.093c.156-.414.235-.852.235-1.313zm0 0" />
      <path id="R"
         d="M18.797-2.64a9.357 9.357 0 0 1-3.14 2.312c-1.243.562-2.673.844-4.298.844-1.468 0-2.828-.243-4.078-.72A9.7 9.7 0 0 1 4.016-2.28a9.57 9.57 0 0 1-2.157-3.203c-.523-1.239-.78-2.602-.78-4.094 0-1.531.265-2.914.796-4.156.531-1.25 1.266-2.305 2.203-3.172a9.746 9.746 0 0 1 3.297-2.016c1.258-.469 2.617-.703 4.078-.703 1.344 0 2.664.242 3.969.719 1.312.468 2.375 1.164 3.187 2.078l-3.14 3.14A3.775 3.775 0 0 0 13.766-15a5.598 5.598 0 0 0-2.157-.438c-.812 0-1.558.153-2.234.454-.668.293-1.246.699-1.734 1.218A5.532 5.532 0 0 0 6.5-11.922c-.262.711-.39 1.492-.39 2.344 0 .867.128 1.656.39 2.375.27.719.645 1.336 1.125 1.844.477.511 1.05.914 1.719 1.203a5.363 5.363 0 0 0 2.187.437c.914 0 1.711-.18 2.39-.547a4.754 4.754 0 0 0 1.657-1.406zm0 0" />
      <path id="S"
         d="M16.172 0h-5.485l-4.39-6.453h-.094V0H1.75v-20.406h4.453v12.422h.094l4.281-5.47h5.375l-5.187 6.079zm0 0" />
      <path id="T" d="M10.156-15.172V0H5.531v-15.172H.141v-3.937h15.406v3.937zm0 0" />
      <path id="U"
         d="M10.453-9.828a4.645 4.645 0 0 0-1.14-.14c-.594 0-1.094.109-1.5.327-.407.22-.731.485-.97.797a3.05 3.05 0 0 0-.53 1 3.344 3.344 0 0 0-.157.938V0H1.734v-13.453H6v1.953h.047A4.36 4.36 0 0 1 7.5-13.172c.633-.437 1.363-.656 2.188-.656a3.762 3.762 0 0 1 .953.11zm0 0" />
      <path id="V"
         d="M9.672-5.86h-.578c-.48 0-.969.028-1.469.079a6.176 6.176 0 0 0-1.328.25 2.335 2.335 0 0 0-.953.562c-.25.242-.375.559-.375.953 0 .25.054.465.172.641.113.18.257.324.437.438.188.105.395.183.625.234.238.043.469.062.688.062.894 0 1.582-.242 2.062-.734.477-.5.719-1.176.719-2.031zm-8.14-5.75a7.809 7.809 0 0 1 2.78-1.703 9.516 9.516 0 0 1 3.22-.562c1.132 0 2.093.14 2.874.422.781.273 1.414.703 1.906 1.297.489.586.844 1.324 1.063 2.219.227.886.344 1.937.344 3.156V0H9.672v-1.438h-.094c-.336.563-.851 1-1.547 1.313-.687.3-1.437.453-2.25.453A7 7 0 0 1 4.094.11a4.918 4.918 0 0 1-1.578-.703A3.887 3.887 0 0 1 1.344-1.89C1.039-2.43.89-3.098.89-3.89c0-.968.265-1.75.796-2.343.532-.594 1.211-1.051 2.047-1.375.844-.32 1.774-.536 2.797-.641a27.494 27.494 0 0 1 3-.172v-.219c0-.664-.234-1.156-.703-1.468-.469-.313-1.047-.47-1.734-.47-.625 0-1.23.138-1.813.407a5.482 5.482 0 0 0-1.5.969zm0 0" />
      <path id="W"
         d="M10.984-9.094c-.25-.32-.593-.582-1.03-.781a3.148 3.148 0 0 0-1.313-.297c-.47 0-.899.094-1.282.281-.375.188-.699.438-.968.75-.262.313-.47.68-.625 1.094-.157.418-.235.86-.235 1.328 0 .469.07.914.219 1.328.145.407.352.774.625 1.094.281.313.613.559 1 .734.395.18.832.266 1.313.266.457 0 .906-.082 1.343-.25a2.65 2.65 0 0 0 1.063-.75l2.453 3c-.555.543-1.274.969-2.156 1.281-.875.301-1.809.454-2.797.454a9.072 9.072 0 0 1-2.985-.485 7.058 7.058 0 0 1-2.39-1.422 6.961 6.961 0 0 1-1.594-2.25c-.387-.883-.578-1.883-.578-3 0-1.101.191-2.093.578-2.968a6.797 6.797 0 0 1 1.594-2.25 7.03 7.03 0 0 1 2.39-1.438c.926-.332 1.91-.5 2.954-.5a7.5 7.5 0 0 1 1.437.14c.477.087.938.204 1.375.36a5.81 5.81 0 0 1 1.219.563c.375.23.691.48.953.75zm0 0" />
      <path id="X"
         d="M10.984-8.266c0-.695-.218-1.296-.656-1.796-.437-.508-1.101-.766-1.984-.766-.438 0-.84.07-1.203.203a3.058 3.058 0 0 0-.938.563c-.262.23-.476.5-.64.812a2.16 2.16 0 0 0-.266.984zm4.079 1.704v.546c0 .18-.012.344-.032.5H5.297c.031.387.14.735.328 1.047.188.305.426.57.719.797.3.219.633.39 1 .516.375.125.758.187 1.156.187.707 0 1.3-.129 1.781-.39a3.42 3.42 0 0 0 1.188-1.016l3.078 1.938c-.625.93-1.461 1.64-2.5 2.14-1.031.488-2.23.734-3.594.734A8.752 8.752 0 0 1 5.578-.03a7.036 7.036 0 0 1-2.36-1.39 6.589 6.589 0 0 1-1.593-2.22c-.387-.882-.578-1.894-.578-3.03 0-1.095.187-2.083.562-2.97a6.89 6.89 0 0 1 1.547-2.28 6.62 6.62 0 0 1 2.297-1.438 7.812 7.812 0 0 1 2.86-.516c.988 0 1.894.168 2.718.5a5.95 5.95 0 0 1 2.14 1.453c.595.625 1.056 1.39 1.392 2.297.332.898.5 1.918.5 3.063zm0 0" />
   </defs>
   <use xlink:href="#a" x="302.991" y="331.221" fill="#838787" transform="translate(-48.845 -295.277)" />
   <use xlink:href="#b" x="310.762" y="339.221" fill="#838787" transform="translate(-48.845 -295.277)" />
   <use xlink:href="#c" x="319.6" y="339.221" fill="#838787" transform="translate(-48.845 -295.277)" />
   <use xlink:href="#d" x="331.051" y="339.221" fill="#838787" transform="translate(-48.845 -295.277)" />
   <use xlink:href="#e" x="341.139" y="339.221" fill="#838787" transform="translate(-48.845 -295.277)" />
   <use xlink:href="#f" x="351.226" y="331.221" fill="#838787" transform="translate(-48.845 -295.277)" />
   <use xlink:href="#g" x="361.882" y="331.221" fill="#838787" transform="translate(-48.845 -295.277)" />
   <use xlink:href="#h" x="370.779" y="331.221" fill="#838787" transform="translate(-48.845 -295.277)" />
   <use xlink:href="#i" x="384.112" y="331.221" fill="#838787" transform="translate(-48.845 -295.277)" />
   <use xlink:href="#j" x="400.112" y="331.221" fill="#838787" transform="translate(-48.845 -295.277)" />
   <use xlink:href="#k" x="419.657" y="331.221" fill="#838787" transform="translate(-48.845 -295.277)" />
   <use xlink:href="#l" x="450.466" y="331.221" fill="#838787" transform="translate(-48.845 -295.277)" />
   <use xlink:href="#b" x="464.674" y="339.221" fill="#838787" transform="translate(-48.845 -295.277)" />
   <use xlink:href="#c" x="473.512" y="339.221" fill="#838787" transform="translate(-48.845 -295.277)" />
   <use xlink:href="#d" x="484.963" y="339.221" fill="#838787" transform="translate(-48.845 -295.277)" />
   <use xlink:href="#e" x="495.05" y="339.221" fill="#838787" transform="translate(-48.845 -295.277)" />
   <use xlink:href="#f" x="514.034" y="331.221" fill="#838787" transform="translate(-48.845 -295.277)" />
   <use xlink:href="#m" x="524.69" y="331.221" fill="#838787" transform="translate(-48.845 -295.277)" />
   <use xlink:href="#n" x="549.593" y="331.221" fill="#838787" transform="translate(-48.845 -295.277)" />
   <use xlink:href="#o" x="565.856" y="331.221" fill="#838787" transform="translate(-48.845 -295.277)" />
   <use xlink:href="#j" x="583.648" y="331.221" fill="#838787" transform="translate(-48.845 -295.277)" />
   <use xlink:href="#p" x="594.304" y="319.381" fill="#838787" transform="translate(-48.845 -295.277)" />
   <use xlink:href="#q" x="316.789" y="440.775" fill="#838787" transform="translate(-48.845 -295.277)" />
   <use xlink:href="#r" x="324.075" y="448.275" fill="#838787" transform="translate(-48.845 -295.277)" />
   <use xlink:href="#s" x="332.361" y="448.275" fill="#838787" transform="translate(-48.845 -295.277)" />
   <use xlink:href="#t" x="343.096" y="448.275" fill="#838787" transform="translate(-48.845 -295.277)" />
   <use xlink:href="#u" x="352.553" y="448.275" fill="#838787" transform="translate(-48.845 -295.277)" />
   <use xlink:href="#v" x="362.01" y="440.775" fill="#838787" transform="translate(-48.845 -295.277)" />
   <use xlink:href="#w" x="372" y="440.775" fill="#838787" transform="translate(-48.845 -295.277)" />
   <use xlink:href="#x" x="380.34" y="440.775" fill="#838787" transform="translate(-48.845 -295.277)" />
   <use xlink:href="#y" x="392.84" y="440.775" fill="#838787" transform="translate(-48.845 -295.277)" />
   <use xlink:href="#z" x="407.84" y="440.775" fill="#838787" transform="translate(-48.845 -295.277)" />
   <use xlink:href="#A" x="426.164" y="440.775" fill="#838787" transform="translate(-48.845 -295.277)" />
   <use xlink:href="#B" x="458.047" y="419.625" fill="#838787" transform="translate(-48.845 -295.277)" />
   <use xlink:href="#v" x="476.377" y="419.625" fill="#838787" transform="translate(-48.845 -295.277)" />
   <use xlink:href="#C" x="486.367" y="419.625" fill="#838787" transform="translate(-48.845 -295.277)" />
   <use xlink:href="#x" x="503.047" y="419.625" fill="#838787" transform="translate(-48.845 -295.277)" />
   <use xlink:href="#w" x="515.547" y="419.625" fill="#838787" transform="translate(-48.845 -295.277)" />
   <use xlink:href="#z" x="523.887" y="419.625" fill="#838787" transform="translate(-48.845 -295.277)" />
   <use xlink:href="#D" x="538.887" y="419.625" fill="#838787" transform="translate(-48.845 -295.277)" />
   <use xlink:href="#v" x="561.007" y="419.625" fill="#838787" transform="translate(-48.845 -295.277)" />
   <use xlink:href="#w" x="570.997" y="419.625" fill="#838787" transform="translate(-48.845 -295.277)" />
   <use xlink:href="#x" x="579.337" y="419.625" fill="#838787" transform="translate(-48.845 -295.277)" />
   <use xlink:href="#y" x="591.837" y="419.625" fill="#838787" transform="translate(-48.845 -295.277)" />
   <use xlink:href="#x" x="606.837" y="419.625" fill="#838787" transform="translate(-48.845 -295.277)" />
   <use xlink:href="#C" x="619.337" y="419.625" fill="#838787" transform="translate(-48.845 -295.277)" />
   <use xlink:href="#z" x="636.017" y="419.625" fill="#838787" transform="translate(-48.845 -295.277)" />
   <use xlink:href="#E" x="651.017" y="419.625" fill="#838787" transform="translate(-48.845 -295.277)" />
   <use xlink:href="#v" x="672.677" y="419.625" fill="#838787" transform="translate(-48.845 -295.277)" />
   <use xlink:href="#C" x="682.667" y="419.625" fill="#838787" transform="translate(-48.845 -295.277)" />
   <use xlink:href="#z" x="699.347" y="419.625" fill="#838787" transform="translate(-48.845 -295.277)" />
   <path fill="#838787" d="M406.202 136.918h257.29v1.98h-257.29Zm0 0" />
   <use xlink:href="#F" x="505.949" y="463.275" fill="#838787" transform="translate(-48.845 -295.277)" />
   <use xlink:href="#v" x="520.949" y="463.275" fill="#838787" transform="translate(-48.845 -295.277)" />
   <use xlink:href="#G" x="530.939" y="463.275" fill="#838787" transform="translate(-48.845 -295.277)" />
   <use xlink:href="#H" x="554.285" y="463.275" fill="#838787" transform="translate(-48.845 -295.277)" />
   <use xlink:href="#w" x="569.532" y="463.275" fill="#838787" transform="translate(-48.845 -295.277)" />
   <use xlink:href="#z" x="577.872" y="463.275" fill="#838787" transform="translate(-48.845 -295.277)" />
   <use xlink:href="#v" x="587.862" y="463.275" fill="#838787" transform="translate(-48.845 -295.277)" />
   <use xlink:href="#G" x="597.852" y="463.275" fill="#838787" transform="translate(-48.845 -295.277)" />
   <use xlink:href="#H" x="621.199" y="463.275" fill="#838787" transform="translate(-48.845 -295.277)" />
   <use xlink:href="#y" x="636.445" y="463.275" fill="#838787" transform="translate(-48.845 -295.277)" />
   <use xlink:href="#z" x="651.445" y="463.275" fill="#838787" transform="translate(-48.845 -295.277)" />
   <g fill="#2489bf" transform="translate(-48.845 -295.277)">
      <use xlink:href="#I" x="49.905" y="335.946" />
      <use xlink:href="#J" x="67.86" y="335.946" />
      <use xlink:href="#K" x="75.906" y="335.946" />
      <use xlink:href="#L" x="83.898" y="335.946" />
      <use xlink:href="#L" x="100.53" y="335.946" />
      <use xlink:href="#M" x="117.162" y="335.946" />
      <use xlink:href="#N" x="125.964" y="335.946" />
      <use xlink:href="#O" x="143.244" y="335.946" />
      <use xlink:href="#P" x="159.903" y="335.946" />
      <use xlink:href="#L" x="176.967" y="335.946" />
      <use xlink:href="#Q" x="193.599" y="335.946" />
   </g>
   <use xlink:href="#R" x="47.767" y="443.166" fill="#2489bf" transform="translate(-48.845 -295.277)" />
   <g fill="#2489bf" transform="translate(-48.845 -295.277)">
      <use xlink:href="#P" x="66.235" y="443.166" />
      <use xlink:href="#P" x="83.299" y="443.166" />
      <use xlink:href="#S" x="100.363" y="443.166" />
   </g>
   <use xlink:href="#M" x="115.78" y="443.166" fill="#2489bf" transform="translate(-48.845 -295.277)" />
   <use xlink:href="#T" x="122.152" y="443.166" fill="#2489bf" transform="translate(-48.845 -295.277)" />
   <g fill="#2489bf" transform="translate(-48.845 -295.277)">
      <use xlink:href="#P" x="135.247" y="443.166" />
      <use xlink:href="#U" x="152.311" y="443.166" />
      <use xlink:href="#U" x="163.003" y="443.166" />
   </g>
   <g fill="#2489bf" transform="translate(-48.845 -295.277)">
      <use xlink:href="#V" x="173.263" y="443.166" />
      <use xlink:href="#L" x="188.545" y="443.166" />
      <use xlink:href="#W" x="205.177" y="443.166" />
      <use xlink:href="#X" x="218.758" y="443.166" />
   </g>
   <path fill="none" stroke="#f96928" stroke-width="2" d="M400.92 86.867h87.266v45.996h-87.265zm0 0" />
   <path fill="none" stroke="#a01d76" stroke-width="2"
      d="M597.858 86.867h68.153v45.996h-68.153zM465.12 1h106.367v55H465.12Zm0 0" />
   <path fill="none" stroke="#f96928" stroke-width="2" d="M399.23 1.465h60.648v55h-60.649zm0 0" />
</svg>
