<svg xmlns="http://www.w3.org/2000/svg" width="400" viewBox="0 0 582.176 308.195">
   <defs>
      <clipPath id="a">
         <path d="M171.953 574H754.13v119.176H171.953Zm0 0" />
      </clipPath>
      <clipPath id="b">
         <path d="M448 384.59h21V418h-21zm0 0" />
      </clipPath>
      <clipPath id="c">
         <path d="M171.953 572H754.13v6H171.953Zm0 0" />
      </clipPath>
      <clipPath id="d">
         <path d="M611 466h7.555v21H611Zm0 0" />
      </clipPath>
      <clipPath id="e">
         <path d="M278 639h7.98v21H278Zm0 0" />
      </clipPath>
      <clipPath id="f">
         <path d="M405.621 489H418v22h-12.379zm0 0" />
      </clipPath>
      <clipPath id="g">
         <path d="M418 500h7.973v15H418Zm0 0" />
      </clipPath>
      <clipPath id="h">
         <path d="M485.29 497H498v21h-12.71zm0 0" />
      </clipPath>
   </defs>
   <g clip-path="url(#a)" transform="translate(-171.953 -384.98)">
      <path fill="#8fd7f7" d="M171.957 693.176h582.172v-118.82H171.957Zm0 0" />
   </g>
   <path fill="#838787" d="M286.629 188.332 97.519 87.457l-1.832 3.43 189.114 100.87" />
   <path fill="#838787"
      d="M86.637 88.363c4.754 4.735 7.593 8.278 11.168 12.524l9.218-17.282c-2.039-.093-10.043-.988-16.62-2.3-7.04-1.403-13.204-3.082-17.008-4.54 3.328 2.352 8.156 6.536 13.242 11.598M288.27 191.762 478.3 91.613l-1.808-3.433-190.031 100.144" />
   <path fill="#838787"
      d="M483.656 82.102c-6.586 1.273-11.11 1.644-16.629 2.214l9.133 17.332c1.223-1.636 6.45-7.757 11.23-12.464 5.106-5.04 9.958-9.204 13.294-11.536-3.809 1.438-9.98 3.086-17.028 4.454M284.695 189.402h3.883V26.31h-3.883zm0 0" />
   <g clip-path="url(#b)" transform="translate(-171.953 -384.98)">
      <path fill="#838787"
         d="M454.61 402.121c-1.942 6.422-3.727 10.59-5.794 15.742h19.586c-.875-1.84-3.851-9.32-5.789-15.742-2.074-6.871-3.496-13.101-4-17.14-.508 4.039-1.93 10.269-4.004 17.14" />
   </g>
   <path fill="#838787"
      d="M238.258 164.55c.707-10.417 5.926-19.581 13.953-26.171 8.02-6.59 18.84-10.578 30.668-10.578 1.187 0 2.387.035 3.59.117l.133-1.938a56.898 56.898 0 0 0-3.723-.125c-12.266 0-23.516 4.137-31.902 11.024-8.387 6.883-13.915 16.543-14.657 27.543l1.938.129M331.152 167.031c-.68-10.082-5.75-18.941-13.433-25.246-7.688-6.312-17.996-10.094-29.23-10.094-1.13 0-2.266.036-3.407.114l.133 1.937a48.502 48.502 0 0 1 3.273-.113c10.801 0 20.68 3.644 28 9.656 7.324 6.02 12.082 14.38 12.73 23.88l1.934-.134" />
   <path fill="#0071bc"
      d="M288.578 94.75h17.176v-1.941h-17.176zm15.633-.484h1.941V76.305h-1.941zm197.707-18.934H73.301v1.941h428.617M500.215 179.691h1.941v-90.28h-1.941zm0 0" />
   <path fill="#0071bc"
      d="M499.195 84.828c-.968 3.207-1.863 5.297-2.894 7.871h9.797c-.442-.922-1.93-4.664-2.899-7.87-1.039-3.438-1.75-6.552-2-8.575-.254 2.023-.965 5.137-2.004 8.574" />
   <path fill="#838787" d="M287.187 187.2 97.157 287.347l1.808 3.437 190.031-100.148" />
   <path fill="#838787"
      d="M91.8 296.863c6.587-1.281 11.11-1.64 16.63-2.218l-9.137-17.329c-1.219 1.637-6.445 7.758-11.223 12.47-5.113 5.038-9.96 9.198-13.3 11.526 3.812-1.433 9.984-3.082 17.03-4.449" />
   <path fill="#0071bc"
      d="M503.176 184.281c.969-3.207 1.863-5.297 2.894-7.87h-9.793c.442.917 1.93 4.663 2.899 7.87 1.039 3.434 1.746 6.551 2.004 8.57.254-2.019.96-5.136 1.996-8.57" />
   <g clip-path="url(#c)" transform="translate(-171.953 -384.98)">
      <path fill="#0081b3" d="M171.953 577.695H754.13v-5.164H171.953Zm0 0" />
   </g>
   <path fill="#838787" d="M73.543 297.16h3.883V101.062h-3.883zm0 0" />
   <path fill="#838787"
      d="M71.504 91.89c-1.938 6.423-3.727 10.594-5.79 15.743h19.583c-.875-1.84-3.856-9.32-5.793-15.742-2.07-6.871-3.492-13.102-4-17.141-.504 4.04-1.926 10.27-4 17.14M263.687 3.094v8.918h-2.015v1.394c.777 0 2.558-.078 3.648-.078 1.086 0 2.79.078 3.645.078v-1.394h-2.02V5.965c0-3.106 2.485-4.5 4.348-4.5.93 0 1.55.543 1.55 2.793v7.754h-2.019v1.394c.856 0 2.559-.078 3.645-.078 1.164 0 2.867.078 3.648.078v-1.394h-1.941V4.57c0-3.027-1.551-4.191-4.496-4.191-2.793 0-4.266 1.629-5.04 3.101V.38l-4.968.234v1.395c1.785 0 2.015 0 2.015 1.086" />
   <path fill="#155eac"
      d="M457.332 136.59v8.918h-2.016v1.394c.852 0 2.559-.078 3.645-.078 1.164 0 2.867.078 3.644.078v-1.394h-1.937v-6.047c0-3.106 2.48-4.5 4.262-4.5 1.011 0 1.629.543 1.629 2.793v7.754h-2.012v1.394c.773 0 2.555-.078 3.64-.078 1.09 0 2.872.078 3.649.078v-1.394h-2.016v-7.442c0-3.027-1.55-4.191-4.422-4.191-2.793 0-4.343 1.629-5.117 3.102v-3.102l-4.965.234v1.395c1.782 0 2.016 0 2.016 1.086M481.715 139.691c0-.851-.695-1.55-1.55-1.55-.778 0-1.478.699-1.478 1.55 0 .852.7 1.551 1.477 1.551.856 0 1.55-.699 1.55-1.55M494.309 126.816l-5.118.235v1.394c1.786 0 2.016 0 2.016 1.086v15.977h-2.016v1.398c.934 0 2.329-.082 3.567-.082 1.242 0 2.562.082 3.57.082v-1.398h-2.02v-18.692" />
   <g clip-path="url(#d)" transform="translate(-171.953 -384.98)">
      <path fill="#838787"
         d="m616.332 466.137-5.117.234v1.395c1.785 0 1.937 0 1.937 1.086v15.976h-1.937v1.395c.855 0 2.25-.078 3.488-.078 1.242 0 2.637.078 3.57.078v-1.395h-1.941v-18.691" />
   </g>
   <g clip-path="url(#e)" transform="translate(-171.953 -384.98)">
      <path fill="#838787"
         d="m283.758 639.805-5.117.234v1.395c1.78 0 1.937 0 1.937 1.082v15.98h-1.937v1.399c.851 0 2.246-.079 3.484-.079 1.246 0 2.645.079 3.57.079v-1.399h-1.937v-18.691" />
   </g>
   <path fill="#838787"
      d="M101.98 265.008c.465 0 1.008 0 1.008-.543 0-.621-.543-.621-1.008-.621h-7.89c-.469 0-1.012 0-1.012.62 0 .544.543.544 1.012.544h7.89M109.977 108.496v-3.258l-4.809.23v1.4c1.785 0 2.02 0 2.02 1.085v8.918h-2.02v1.395c1.012 0 2.328-.078 3.644-.078 1.165 0 2.95 0 4.036.078v-1.395h-2.559v-5.039c0-2.02.773-5.586 3.645-5.586 0 .078-.543.543-.543 1.395 0 1.164.93 1.707 1.78 1.707.856 0 1.708-.543 1.708-1.707 0-1.551-1.55-2.403-3.024-2.403-2.015 0-3.18 1.473-3.878 3.258M124.48 109.813c0-.31-.308-.774-.851-.774-.547 0-1.164.543-1.164 1.164 0 .309.308.774.851.774.543 0 1.164-.622 1.164-1.164m-4.187 10.39c-.074.313-.234.543-.234.856 0 1.007.855 1.78 1.941 1.78 2.094 0 2.945-2.866 2.945-3.179 0-.23-.234-.23-.312-.23-.23 0-.309.156-.387.386-.465 1.63-1.316 2.407-2.172 2.407-.387 0-.465-.235-.465-.7 0-.464.078-.851.313-1.32.152-.543.387-1.086.621-1.629.23-.465.926-2.324 1.008-2.554.078-.235.152-.47.152-.7 0-.933-.851-1.707-1.937-1.707-2.016 0-3.024 2.793-3.024 3.102 0 .308.309.308.387.308.308 0 .308-.152.387-.382.543-1.711 1.398-2.485 2.171-2.485.313 0 .547.153.547.696 0 .468-.16.777-.703 2.093l-1.238 3.258M89.297 176.734l3.101-2.949c4.5-4.035 6.204-5.582 6.204-8.453 0-3.336-2.559-5.582-6.125-5.582-3.258 0-5.426 2.637-5.426 5.195 0 1.63 1.472 1.63 1.55 1.63.54 0 1.547-.31 1.547-1.552 0-.699-.543-1.472-1.546-1.472h-.391c.7-1.863 2.25-2.95 3.875-2.95 2.64 0 3.879 2.329 3.879 4.731 0 2.328-1.395 4.578-3.02 6.36l-5.508 6.206c-.386.309-.386.387-.386 1.082h10.777l.774-5.039h-.696c-.156.852-.386 2.172-.62 2.559-.235.234-2.173.234-2.794.234h-5.195M109.46 185.96c0-.151 0-.151-.464-.694-3.644-3.645-4.578-9.075-4.578-13.496 0-5.04 1.164-10.079 4.652-13.727.39-.309.39-.387.39-.465 0-.23-.077-.308-.23-.308-.312 0-2.949 2.015-4.656 5.66-1.472 3.175-1.785 6.36-1.785 8.84 0 2.25.313 5.738 1.863 8.996 1.782 3.566 4.266 5.43 4.578 5.43.153 0 .23-.079.23-.235M114.578 168.668v8.996h-2.016v1.32c.774 0 2.56-.082 3.645-.082 1.16 0 2.867.082 3.645.082v-1.32h-2.016v-6.047c0-3.18 2.48-4.578 4.34-4.578 1.011 0 1.55.543 1.55 2.793v7.832h-1.937v1.32c.777 0 2.48-.082 3.645-.082 1.09 0 2.793.082 3.644.082v-1.32h-2.012v-7.52c0-3.027-1.554-4.19-4.5-4.19-2.714 0-4.265 1.628-5.043 3.105v-3.106l-4.96.235v1.394c1.78 0 2.015 0 2.015 1.086M137.988 171.773c0-.855-.695-1.554-1.55-1.554-.852 0-1.551.699-1.551 1.554 0 .848.699 1.547 1.55 1.547.856 0 1.551-.699 1.551-1.547M149.613 158.895l-5.117.234v1.398c1.781 0 1.938 0 1.938 1.082v16.055h-1.938v1.32c.856 0 2.246-.078 3.488-.078 1.243 0 2.637.078 3.567.078v-1.32h-1.938v-18.77M160.469 171.773c0-2.25-.309-5.742-1.86-9.078-1.785-3.488-4.265-5.425-4.574-5.425-.156 0-.238.156-.238.308 0 .074 0 .156.547.7 2.793 2.867 4.496 7.445 4.496 13.495 0 4.961-1.082 10-4.653 13.649-.39.383-.39.383-.39.539 0 .156.082.234.238.234.309 0 2.945-1.941 4.652-5.586 1.473-3.18 1.782-6.437 1.782-8.836M166.75 168.668v8.996h-1.938v1.32c.778 0 2.56-.082 3.645-.082 1.086 0 2.793.082 3.645.082v-1.32h-2.016v-6.047c0-3.18 2.48-4.578 4.344-4.578.93 0 1.55.543 1.55 2.793v7.832h-2.015v1.32c.851 0 2.558-.082 3.644-.082 1.16 0 2.868.082 3.645.082v-1.32h-1.938v-7.52c0-3.027-1.629-4.19-4.5-4.19-2.793 0-4.265 1.628-5.039 3.105v-3.106l-4.965.235v1.394c1.782 0 1.938 0 1.938 1.086" />
   <g clip-path="url(#f)" transform="translate(-171.953 -384.98)">
      <path fill="#838787"
         d="M417.598 495.367c0-1.941-.465-5.894-3.41-5.894-4.036 0-8.532 8.144-8.532 14.734 0 2.715.852 5.973 3.489 5.973 4.113 0 8.453-8.301 8.453-14.813m-8.84 3.953c.465-1.86 1.086-4.187 2.168-6.203.855-1.394 1.863-3.023 3.183-3.023 1.395 0 1.63 1.863 1.63 3.492 0 1.39-.235 2.863-.93 5.734zm5.738.934c-.309 1.316-.93 3.8-2.016 5.89-1.007 1.942-2.093 3.415-3.335 3.415-.93 0-1.551-.852-1.551-3.567 0-1.242.156-2.87.93-5.738h5.972" />
   </g>
   <g clip-path="url(#g)" transform="translate(-171.953 -384.98)">
      <path fill="#838787"
         d="M424.5 501.418c0-.313-.23-.777-.852-.777-.543 0-1.164.543-1.164 1.086 0 .386.313.773.852.773.621 0 1.164-.543 1.164-1.082m-4.188 10.39a2.74 2.74 0 0 0-.152.852c0 1.008.774 1.785 1.938 1.785 2.015 0 2.945-2.87 2.945-3.18 0-.234-.309-.234-.387-.234-.234 0-.308.078-.386.309-.47 1.629-1.32 2.484-2.172 2.484-.387 0-.47-.234-.47-.699 0-.465.161-.852.313-1.316.235-.543.465-1.09.7-1.633.156-.465.851-2.324.93-2.637.077-.152.156-.383.156-.621 0-.926-.856-1.703-1.938-1.703-2.023 0-2.95 2.715-2.95 3.105 0 .23.231.23.31.23.312 0 .312-.081.39-.308.543-1.785 1.395-2.484 2.172-2.484.309 0 .539.152.539.699 0 .461-.152.777-.621 2.094l-1.317 3.258" />
   </g>
   <g clip-path="url(#h)" transform="translate(-171.953 -384.98)">
      <path fill="#838787"
         d="M497.266 503.14c0-1.94-.465-5.894-3.41-5.894-4.036 0-8.532 8.14-8.532 14.734 0 2.715.852 5.97 3.489 5.97 4.113 0 8.453-8.298 8.453-14.81m-8.84 3.954c.469-1.864 1.086-4.188 2.168-6.203.855-1.395 1.863-3.024 3.183-3.024 1.399 0 1.63 1.86 1.63 3.488 0 1.395-.231 2.872-.93 5.739zm5.738.93c-.309 1.32-.93 3.8-2.016 5.894-1.007 1.937-2.093 3.41-3.336 3.41-.93 0-1.546-.851-1.546-3.566 0-1.239.152-2.867.93-5.739h5.968" />
   </g>
   <path fill="#838787"
      d="M332.215 124.207c0-.312-.23-.773-.848-.773-.547 0-1.168.539-1.168 1.082 0 .386.313.777.852.777.625 0 1.164-.543 1.164-1.086m-4.188 10.39a2.81 2.81 0 0 0-.152.856c0 1.008.773 1.781 1.937 1.781 2.016 0 2.946-2.87 2.946-3.175 0-.235-.309-.235-.387-.235-.23 0-.309.078-.387.313-.464 1.625-1.32 2.476-2.172 2.476-.386 0-.464-.23-.464-.695 0-.465.156-.852.308-1.32.235-.54.469-1.082.696-1.625.16-.465.855-2.328.933-2.637a1.4 1.4 0 0 0 .156-.621c0-.934-.855-1.707-1.937-1.707-2.02 0-2.95 2.715-2.95 3.101 0 .23.235.23.313.23.305 0 .305-.073.383-.308.547-1.781 1.398-2.48 2.176-2.48.308 0 .543.156.543.699 0 .465-.157.773-.621 2.09l-1.32 3.258" />
</svg>
