<svg xmlns="http://www.w3.org/2000/svg" width="400" viewBox="0 0 322.327 68.23">
  <defs>
    <clipPath id="a">
      <path d="M67.441 69.152H141v68.23H67.441Zm0 0" />
    </clipPath>
    <clipPath id="b">
      <path d="M234 69.152h74v68.23h-74zm0 0" />
    </clipPath>
    <clipPath id="c">
      <path d="M347 79h42.77v44H347Zm0 0" />
    </clipPath>
  </defs>
  <path fill="#ed2629" d="M72.671.737 56.566 67.644.737 21.648 72.671.738" />
  <g clip-path="url(#a)" transform="translate(-67.442 -69.153)">
    <path fill="none" stroke="#838787" stroke-linejoin="round" stroke-width="1.475"
      d="m140.113 69.89-16.105 66.907L68.18 90.8zm0 0" />
  </g>
  <path fill="#ed2629" d="m239.32.737-16.11 66.907-55.828-45.996L239.319.738" />
  <g clip-path="url(#b)" transform="translate(-67.442 -69.153)">
    <path fill="none" stroke="#838787" stroke-linejoin="round" stroke-width="1.475"
      d="m306.762 69.89-16.11 66.907L234.824 90.8zm0 0" />
  </g>
  <path fill="none" stroke="#838787" stroke-width=".738" d="M255.194 53.007h-41.816V11.191h41.816zm0 0" />
  <path fill="#838787" d="M231.335 16.112a2.09 2.09 0 0 1-2.09 2.09 2.09 2.09 0 1 1 0-4.18 2.09 2.09 0 0 1 2.09 2.09" />
  <path fill="none" stroke="#838787" stroke-width=".369"
    d="M231.335 16.112a2.09 2.09 0 0 1-2.09 2.09 2.09 2.09 0 1 1 0-4.18 2.09 2.09 0 0 1 2.09 2.09zm0 0" />
  <path fill="#838787" d="M220.757 37.144a2.09 2.09 0 1 1-4.18 0 2.09 2.09 0 1 1 4.18 0" />
  <path fill="none" stroke="#838787" stroke-width=".369"
    d="M220.757 37.144a2.09 2.09 0 1 1-4.18 0 2.09 2.09 0 1 1 4.18 0zm0 0" />
  <path fill="#838787" d="M241.792 47.35a2.093 2.093 0 1 1-4.183 0 2.093 2.093 0 0 1 4.183 0" />
  <path fill="none" stroke="#838787" stroke-width=".369"
    d="M241.792 47.35a2.093 2.093 0 1 1-4.183 0 2.093 2.093 0 0 1 4.183 0zm0 0" />
  <path fill="#838787" d="M252 26.687a2.093 2.093 0 1 1-4.184 0 2.093 2.093 0 0 1 4.183 0" />
  <path fill="none" stroke="#838787" stroke-width=".369"
    d="M252 26.687a2.093 2.093 0 1 1-4.184 0 2.093 2.093 0 0 1 4.183 0zm0 0" />
  <path fill="#838787" d="M69.734 32.1a2.09 2.09 0 0 1-2.09 2.09 2.09 2.09 0 1 1 0-4.18 2.09 2.09 0 0 1 2.09 2.09" />
  <path fill="none" stroke="#838787" stroke-width=".369"
    d="M69.734 32.1a2.09 2.09 0 0 1-2.09 2.09 2.09 2.09 0 1 1 0-4.18 2.09 2.09 0 0 1 2.09 2.09zm0 0" />
  <path fill="none" stroke="#838787" stroke-width=".738" d="M88.55 53.007H46.734V11.191H88.55zm0 0" />
  <path fill="none" stroke="#838787" stroke-width="1.475" d="M90.644 32.1h10.453" />
  <path fill="#838787"
    d="M104.581 30.589c-2.441-.734-4.027-1.414-5.984-2.203v7.445c.703-.336 3.543-1.465 5.984-2.203 2.61-.789 4.977-1.328 6.512-1.52-1.535-.19-3.902-.73-6.512-1.519" />
  <path fill="none" stroke="#838787" stroke-width="1.475" d="M257.288 32.1h10.453" />
  <path fill="#838787"
    d="M271.226 30.589c-2.438-.734-4.024-1.414-5.98-2.203v7.445c.698-.336 3.542-1.465 5.98-2.203 2.61-.789 4.976-1.328 6.511-1.52-1.535-.19-3.902-.73-6.511-1.519" />
  <path fill="#fff" d="M113.64 53.007h41.816V11.191H113.64zm0 0" />
  <path fill="none" stroke="#838787" stroke-width=".738" d="M155.456 53.007H113.64V11.191h41.816zm0 0" />
  <path fill="#f8a1aa" d="M280.284 53.007h41.82V11.191h-41.82zm0 0" />
  <g clip-path="url(#c)" transform="translate(-67.442 -69.153)">
    <path fill="none" stroke="#838787" stroke-width=".738" d="M389.547 122.16H347.73V80.344h41.817zm0 0" />
  </g>
</svg>
