<svg xmlns="http://www.w3.org/2000/svg" xmlns:xlink="http://www.w3.org/1999/xlink" width="700"
   viewBox="0 0 713.98 217.525">
   <defs>
      <path id="d"
         d="m8.906-11.719-.86 9.531c-.054.45-.077.743-.077.876 0 .23.039.402.125.515.113.168.258.293.437.375.188.074.492.11.922.11L9.36 0h-4.5l.094-.313h.188c.363 0 .66-.078.89-.234.164-.101.297-.281.39-.531.063-.176.118-.586.173-1.234l.14-1.454h-3.28L2.28-2.187c-.261.355-.43.609-.5.765a1.194 1.194 0 0 0-.093.438c0 .18.07.336.218.468.145.125.39.196.735.204L2.547 0h-3.39l.093-.313c.418-.019.781-.16 1.094-.421.32-.258.8-.817 1.437-1.672L8.61-11.72zM7.234-8.906 3.922-4.391h2.875zm0 0" />
      <path id="e"
         d="m2.563-11.14.109-.313h4.094c.687 0 1.296.11 1.828.328.539.21.941.508 1.203.89.27.387.406.794.406 1.22 0 .656-.242 1.25-.719 1.78-.468.532-1.242.923-2.312 1.173.687.261 1.191.605 1.516 1.03.332.43.5.903.5 1.423 0 .562-.149 1.105-.438 1.625A3.33 3.33 0 0 1 7.625-.766c-.46.282-1.012.493-1.656.625C5.5-.047 4.773 0 3.797 0H-.391l.11-.313c.437-.007.734-.05.89-.124.227-.094.391-.22.485-.376.133-.218.312-.707.531-1.468L3.688-9.22c.164-.582.25-.992.25-1.234a.57.57 0 0 0-.235-.485c-.148-.124-.437-.187-.875-.187-.094 0-.183-.004-.265-.016zM4.28-6.39c.364.011.625.015.782.015 1.175 0 2.046-.25 2.609-.75.57-.508.86-1.148.86-1.922 0-.582-.18-1.035-.532-1.36-.344-.32-.898-.484-1.656-.484-.211 0-.469.04-.782.11zM2.61-.75a10.58 10.58 0 0 0 1.422.125 3.7 3.7 0 0 0 2.344-.797c.676-.531 1.016-1.25 1.016-2.156 0-.688-.215-1.223-.641-1.61-.418-.394-1.09-.593-2.016-.593-.187 0-.406.011-.656.031zm0 0" />
      <path id="f"
         d="M12.172-11.719 11.312-8h-.296l-.032-.938a3.314 3.314 0 0 0-.203-.89c-.094-.27-.246-.5-.453-.688a1.976 1.976 0 0 0-.765-.453 3.006 3.006 0 0 0-1.032-.172c-1.011 0-1.89.274-2.64.813-.97.71-1.727 1.703-2.266 2.984a8.203 8.203 0 0 0-.672 3.219c0 1.117.32 2.008.969 2.672.644.656 1.484.984 2.515.984.79 0 1.489-.172 2.094-.515.614-.352 1.18-.895 1.703-1.625h.407c-.625.992-1.32 1.718-2.079 2.187-.75.457-1.652.688-2.703.688-.937 0-1.765-.196-2.484-.579a3.968 3.968 0 0 1-1.64-1.656 4.895 4.895 0 0 1-.563-2.297c0-1.25.332-2.46 1-3.64a7.303 7.303 0 0 1 2.75-2.797c1.176-.676 2.36-1.016 3.547-1.016.55 0 1.176.137 1.875.406.3.118.52.172.656.172.133 0 .25-.023.344-.078.101-.062.273-.226.515-.5zm0 0" />
      <path id="g"
         d="m4.844.281-3.11-7.14C1.36-7.723 1.066-8.27.86-8.5c-.156-.164-.382-.281-.671-.344v-.36h4.89v.36c-.305 0-.512.059-.625.172-.156.149-.234.313-.234.5 0 .25.144.711.437 1.375l1.516 3.453 1.203-2.984c.352-.852.531-1.457.531-1.813a.596.596 0 0 0-.234-.484c-.149-.133-.406-.207-.781-.219v-.36h3.015v.36a1.293 1.293 0 0 0-.719.328c-.18.18-.449.7-.812 1.563L5.297.28Zm0 0" />
      <path id="h"
         d="M2.89-13.672c.426 0 .786.152 1.079.453.3.293.453.653.453 1.078 0 .418-.152.778-.453 1.079a1.464 1.464 0 0 1-1.078.437 1.49 1.49 0 0 1-1.079-.438 1.49 1.49 0 0 1-.437-1.078c0-.425.145-.785.438-1.078.3-.3.66-.453 1.078-.453zm1.391 4.469v7.297c0 .648.07 1.062.219 1.25.156.18.453.277.89.297V0H.407v-.36c.414-.007.719-.124.906-.343.133-.156.204-.555.204-1.203v-5.375c0-.657-.079-1.07-.235-1.25-.148-.188-.437-.29-.875-.313v-.36zm0 0" />
      <path id="i"
         d="M8.484-4.938H3.422c.062 1.22.39 2.188.984 2.907.446.543.989.812 1.625.812.395 0 .754-.11 1.078-.328.32-.219.664-.613 1.032-1.187l.343.218c-.5 1.012-1.054 1.73-1.656 2.157-.605.425-1.305.64-2.094.64-1.375 0-2.414-.523-3.109-1.578-.563-.851-.844-1.906-.844-3.156 0-1.531.41-2.75 1.235-3.656.832-.914 1.804-1.375 2.921-1.375.938 0 1.75.386 2.438 1.156.688.762 1.055 1.89 1.11 3.39zm-2.421-.656c0-1.062-.06-1.785-.172-2.172-.118-.394-.297-.695-.547-.906-.137-.113-.32-.172-.547-.172-.344 0-.625.168-.844.5-.387.586-.578 1.387-.578 2.406v.344zm0 0" />
      <path id="j"
         d="M9.813.281 7.28-6.484 4.813.28h-.516L1.859-6.406c-.375-1.008-.687-1.672-.937-1.985-.168-.207-.418-.359-.75-.453v-.36h4.64v.36c-.312 0-.53.047-.656.14-.117.095-.172.2-.172.313 0 .118.102.45.313 1l1.36 3.594L6.952-7.39l-.094-.234c-.199-.488-.375-.8-.53-.938-.15-.132-.372-.226-.673-.28v-.36h4.719v.36c-.375.023-.61.073-.703.155a.442.442 0 0 0-.14.344c0 .149.093.465.28.953l1.297 3.594 1.188-3.297c.164-.476.25-.8.25-.968 0-.258-.063-.446-.188-.563-.125-.125-.37-.195-.734-.219v-.36h2.734v.36c-.304.043-.543.153-.718.328-.18.168-.407.657-.688 1.47L10.375.28Zm0 0" />
      <path id="l"
         d="m6.5-9.469.156 3.14h-.343c-.399-.925-.813-1.562-1.25-1.905-.43-.344-.856-.516-1.282-.516-.273 0-.5.094-.687.281a.839.839 0 0 0-.281.625c0 .18.062.344.187.5.207.274.797.735 1.766 1.39.968.657 1.601 1.216 1.906 1.673.3.449.453.953.453 1.515 0 .524-.133 1.028-.39 1.516A2.69 2.69 0 0 1 5.655-.11c-.46.258-.976.391-1.547.391-.437 0-1.023-.14-1.75-.422-.199-.07-.336-.109-.406-.109-.219 0-.402.168-.547.5h-.328L.922-3.063h.344c.289.868.691 1.516 1.203 1.954.52.43 1.008.64 1.469.64.312 0 .566-.094.765-.281a.935.935 0 0 0 .313-.703c0-.32-.102-.598-.297-.828-.2-.227-.64-.57-1.328-1.031-1-.696-1.649-1.235-1.938-1.61-.437-.531-.656-1.125-.656-1.781 0-.707.242-1.348.734-1.922.489-.57 1.196-.86 2.125-.86.5 0 .985.122 1.453.36.176.105.317.156.422.156.125 0 .219-.023.282-.078.07-.05.19-.191.359-.422zm0 0" />
      <path id="m"
         d="M4.25-.938v3.422c0 .477.035.801.11.97.07.175.187.3.343.374.156.082.469.125.938.125v.36H.39v-.36c.406-.012.707-.125.906-.344.125-.156.187-.546.187-1.171v-9.72c0-.655-.078-1.07-.234-1.25-.148-.187-.434-.288-.86-.312v-.36h3.86V-8c.32-.469.648-.805.984-1.016.477-.312 1-.468 1.563-.468.676 0 1.289.214 1.844.64.55.43.972 1.016 1.265 1.766.29.75.438 1.558.438 2.422 0 .937-.153 1.793-.453 2.562-.293.774-.727 1.36-1.297 1.766a3.2 3.2 0 0 1-1.89.61c-.513 0-.985-.118-1.423-.344-.336-.165-.68-.458-1.031-.875Zm0-1c.563.805 1.164 1.204 1.813 1.204.351 0 .644-.188.875-.563.343-.55.515-1.598.515-3.14 0-1.594-.187-2.68-.562-3.266-.25-.383-.59-.578-1.016-.578-.656 0-1.2.48-1.625 1.437zm0 0" />
      <path id="n"
         d="M5.766-1.36C4.64-.366 3.629.126 2.734.126c-.523 0-.96-.172-1.312-.516-.344-.343-.516-.773-.516-1.296 0-.696.301-1.329.906-1.891.602-.563 1.922-1.313 3.954-2.25v-.922c0-.695-.043-1.133-.125-1.313-.075-.175-.215-.332-.422-.468a1.296 1.296 0 0 0-.703-.203c-.43 0-.782.093-1.063.28-.168.118-.25.259-.25.423 0 .136.094.304.281.5.239.293.36.57.36.828 0 .324-.121.601-.36.828-.242.219-.554.328-.937.328-.406 0-.75-.125-1.031-.375-.282-.25-.422-.539-.422-.875 0-.469.187-.914.562-1.344.375-.437.895-.77 1.563-1a6.447 6.447 0 0 1 2.094-.343c.875 0 1.562.187 2.062.562.508.367.844.766 1 1.203.094.274.14.903.14 1.89v3.579c0 .43.016.695.047.797a.575.575 0 0 0 .141.25c.07.055.149.078.235.078.164 0 .335-.125.515-.375l.297.234c-.324.493-.664.844-1.016 1.063a2.252 2.252 0 0 1-1.203.328c-.523 0-.933-.121-1.234-.36-.293-.25-.469-.624-.531-1.124zm0-.718v-3.078c-.805.46-1.399.96-1.782 1.5-.25.355-.375.71-.375 1.062 0 .305.11.57.329.797.156.18.382.266.687.266.32 0 .703-.18 1.14-.547zm0 0" />
      <path id="o"
         d="m8.188-2.375.312.234c-.438.813-.98 1.422-1.625 1.829A3.906 3.906 0 0 1 4.812.28c-1.23 0-2.214-.46-2.953-1.39C1.13-2.035.766-3.15.766-4.453c0-1.25.332-2.352 1-3.313.812-1.144 1.925-1.718 3.343-1.718.957 0 1.711.242 2.266.718.563.48.844 1.016.844 1.61 0 .375-.117.68-.344.906-.219.219-.512.328-.875.328-.398 0-.719-.129-.969-.39-.25-.258-.406-.72-.468-1.375-.043-.407-.137-.692-.282-.86-.156-.164-.336-.25-.531-.25-.313 0-.586.168-.813.5-.343.512-.515 1.29-.515 2.328 0 .867.133 1.696.406 2.485.281.793.66 1.382 1.14 1.765.364.282.79.422 1.282.422.32 0 .629-.07.922-.219.289-.156.629-.441 1.016-.859Zm0 0" />
      <clipPath id="a">
         <path d="M554 493.977h311.879V612H554Zm0 0" />
      </clipPath>
      <clipPath id="b">
         <path d="M629 493.977h218V713.03H629Zm0 0" />
      </clipPath>
      <clipPath id="c">
         <path d="M554 595h311.879v118.031H554Zm0 0" />
      </clipPath>
   </defs>
   <path fill="#4eb748" d="m104.122 46.385-81.969 35.86 43.73 40.136" />
   <path fill="none" stroke="#838787" stroke-linejoin="round" stroke-miterlimit="3.864" stroke-width=".721"
      d="m104.122 46.384-81.969 35.86 43.73 40.136zm0 0" />
   <path fill="#f16465" d="m206.212 185.065-82.332-37.688 30.004 28.906" />
   <path fill="none" stroke="#838787" stroke-linejoin="round" stroke-miterlimit="3.864" stroke-width=".721"
      d="m206.212 185.064-82.332-37.688 30.004 28.906zm0 0" />
   <g clip-path="url(#a)" transform="translate(-143.683 -494.56)">
      <path fill="none" stroke="#838787" stroke-miterlimit="3.864" stroke-width="1.44107138"
         d="m561.977 603.323 295.438-108.086" />
   </g>
   <path fill="none" d="m691.29 208.616-193.73-71.032V79.94L691.39 8.963Zm0 0" />
   <g clip-path="url(#b)" transform="translate(-143.683 -494.56)">
      <path fill="none" stroke="#838787" stroke-miterlimit="3.864" stroke-width="2.16181418"
         d="m834.974 703.175-193.731-71.032V574.5l193.832-70.977zm0 0" />
   </g>
   <path fill="#838787"
      d="m117.829 11.28.14 3.148h-.343c-.399-.934-.809-1.566-1.23-1.906-.43-.344-.852-.516-1.274-.516a.966.966 0 0 0-.684.27.835.835 0 0 0-.285.625c0 .175.066.347.2.511.206.27.788.727 1.75 1.38.96.652 1.593 1.202 1.894 1.66.304.456.457.964.457 1.527 0 .512-.13 1.015-.383 1.504a2.687 2.687 0 0 1-1.078 1.129 3.03 3.03 0 0 1-1.54.394c-.437 0-1.019-.14-1.753-.418-.192-.07-.324-.105-.399-.105-.214 0-.394.168-.539.504h-.343l-.16-3.309h.343c.293.86.696 1.504 1.207 1.938.512.43 1 .644 1.457.644.313 0 .567-.098.77-.293a.933.933 0 0 0 .297-.7c0-.316-.098-.585-.293-.816-.196-.23-.633-.574-1.317-1.039-.996-.695-1.644-1.226-1.941-1.593-.43-.536-.645-1.133-.645-1.778 0-.707.243-1.347.73-1.922.49-.57 1.196-.859 2.114-.859.496 0 .98.125 1.445.375.176.102.317.152.43.152.117 0 .211-.027.285-.078.07-.05.184-.191.344-.43h.344M127.395 18.354l.301.234c-.434.817-.973 1.422-1.621 1.82a3.889 3.889 0 0 1-2.066.598c-1.231 0-2.215-.46-2.954-1.387-.738-.925-1.105-2.035-1.105-3.332 0-1.254.336-2.355 1.008-3.304.804-1.149 1.922-1.723 3.34-1.723.957 0 1.714.242 2.277.719.559.476.84 1.015.84 1.601 0 .375-.114.676-.34.899-.227.222-.524.336-.89.336-.391 0-.708-.13-.966-.387-.25-.258-.406-.71-.464-1.367-.04-.414-.137-.703-.29-.867a.69.69 0 0 0-.53-.246c-.313 0-.583.164-.81.5-.343.503-.511 1.277-.511 2.32 0 .863.137 1.691.414 2.48.277.79.656 1.375 1.133 1.762a2.04 2.04 0 0 0 1.285.422c.324 0 .629-.074.922-.227.289-.148.629-.433 1.027-.851M132.65 11.526l.007 2.093c.606-.949 1.137-1.578 1.598-1.89.457-.313.898-.469 1.32-.469.367 0 .66.113.883.34.219.226.328.543.328.957 0 .441-.105.781-.32 1.023a.98.98 0 0 1-.77.364c-.344 0-.644-.114-.898-.332a4.881 4.881 0 0 0-.45-.375.435.435 0 0 0-.226-.059.811.811 0 0 0-.54.219c-.265.222-.468.539-.605.953a6.677 6.677 0 0 0-.316 2.11l.008 2.116.004.555c0 .375.02.617.07.723.078.18.196.312.352.39.152.086.418.137.785.157v.343h-5v-.343c.402-.032.672-.145.813-.332.144-.188.214-.68.214-1.485v-5.101c0-.54-.027-.88-.078-1.028a.84.84 0 0 0-.289-.41c-.125-.086-.344-.144-.66-.18v-.34h3.77" />
   <path fill="#838787" fill-rule="evenodd"
      d="M142.848 15.155c0-1.059-.058-1.782-.175-2.176-.11-.39-.29-.692-.536-.895-.136-.117-.32-.176-.55-.176-.34 0-.621.165-.84.5-.387.586-.582 1.383-.582 2.403v.344zm2.422.648h-5.066c.058 1.219.387 2.184.98 2.89.453.548 1 .82 1.637.82.395 0 .758-.108 1.078-.327.32-.223.668-.617 1.035-1.184l.336.219c-.5 1.016-1.05 1.73-1.656 2.152-.605.422-1.3.633-2.098.633-1.367 0-2.406-.523-3.105-1.574-.567-.844-.848-1.895-.848-3.145 0-1.535.414-2.754 1.246-3.664.832-.906 1.805-1.363 2.922-1.363.934 0 1.746.383 2.43 1.145.687.761 1.058 1.894 1.11 3.398M151.794 15.155c0-1.059-.055-1.782-.172-2.176-.114-.39-.293-.692-.535-.895-.137-.117-.325-.176-.555-.176-.34 0-.621.165-.84.5-.387.586-.578 1.383-.578 2.403v.344zm2.422.648h-5.063c.059 1.219.387 2.184.977 2.89.453.548 1 .82 1.64.82.395 0 .754-.108 1.074-.327.325-.223.672-.617 1.036-1.184l.336.219c-.5 1.016-1.051 1.73-1.653 2.152-.605.422-1.304.633-2.101.633-1.368 0-2.403-.523-3.106-1.574-.566-.844-.848-1.895-.848-3.145 0-1.535.418-2.754 1.25-3.664.829-.906 1.801-1.363 2.918-1.363.934 0 1.747.383 2.43 1.145.692.761 1.059 1.894 1.11 3.398" />
   <path fill="#838787"
      d="M159.13 11.526v1.187c.472-.508.921-.875 1.355-1.105.434-.23.898-.348 1.398-.348.598 0 1.09.168 1.485.5a2.4 2.4 0 0 1 .789 1.238c.105.371.156 1.094.156 2.16v3.59c0 .707.063 1.149.192 1.325.129.171.394.285.796.328v.343h-4.66v-.343c.352-.043.598-.192.75-.434.106-.164.16-.57.16-1.219v-4.105c0-.754-.03-1.23-.09-1.43a.862.862 0 0 0-.296-.457.745.745 0 0 0-.469-.164c-.562 0-1.086.399-1.566 1.191v4.965c0 .688.062 1.125.191 1.309.129.184.367.3.715.344v.343h-4.66v-.343c.386-.04.66-.164.82-.375.113-.145.168-.57.168-1.278v-5.23c0-.7-.062-1.14-.191-1.313-.13-.172-.391-.285-.797-.34v-.34h3.754M177.45 11.28l.14 3.148h-.343c-.395-.934-.805-1.566-1.23-1.906-.426-.344-.852-.516-1.274-.516a.972.972 0 0 0-.684.27.845.845 0 0 0-.281.625c0 .175.063.347.195.511.207.27.793.727 1.754 1.38.957.652 1.59 1.202 1.895 1.66.3.456.453.964.453 1.527 0 .512-.125 1.015-.379 1.504a2.71 2.71 0 0 1-1.078 1.129 3.04 3.04 0 0 1-1.54.394c-.437 0-1.019-.14-1.753-.418-.195-.07-.328-.105-.399-.105-.218 0-.398.168-.539.504h-.343l-.164-3.309h.343c.297.86.7 1.504 1.211 1.938.512.43 1 .644 1.453.644.317 0 .575-.098.77-.293.2-.191.3-.426.3-.7 0-.316-.097-.585-.292-.816-.2-.23-.637-.574-1.317-1.039-1-.695-1.648-1.226-1.941-1.593-.43-.536-.645-1.133-.645-1.778 0-.707.243-1.347.727-1.922.488-.57 1.195-.859 2.117-.859.496 0 .977.125 1.442.375.175.102.32.152.43.152a.497.497 0 0 0 .288-.078c.07-.05.184-.191.34-.43h.344" />
   <path fill="#838787" fill-rule="evenodd"
      d="M183.087 18.8c.562.8 1.168 1.198 1.812 1.198.356 0 .652-.183.879-.558.344-.551.516-1.598.516-3.14 0-1.587-.188-2.669-.567-3.25-.246-.384-.582-.579-1.004-.579-.668 0-1.21.48-1.636 1.434zm0 .995v3.453c0 .477.035.801.109.973.078.172.195.3.352.379.156.078.468.117.93.117v.344h-5.29v-.344c.418-.012.73-.129.93-.348.133-.152.203-.546.203-1.183V13.44c0-.657-.078-1.078-.234-1.262-.153-.18-.454-.285-.899-.312v-.34h3.899v1.21c.32-.476.648-.812.984-1.027.477-.297 1-.449 1.562-.449.676 0 1.293.215 1.844.64.555.426.98 1.012 1.266 1.766.289.75.437 1.559.437 2.422 0 .934-.152 1.781-.449 2.555-.3.77-.734 1.355-1.3 1.758-.567.406-1.2.605-1.895.605-.504 0-.977-.113-1.418-.336-.328-.168-.672-.46-1.031-.875M195.825 18.647V15.58c-.793.465-1.387.965-1.774 1.496-.257.352-.382.711-.382 1.07 0 .305.105.571.324.798.164.18.394.265.687.265.332 0 .711-.187 1.145-.562m0 .726c-1.121.996-2.133 1.493-3.027 1.493-.524 0-.965-.172-1.313-.52-.348-.344-.52-.773-.52-1.29 0-.706.301-1.339.907-1.898.605-.562 1.922-1.308 3.953-2.242v-.922c0-.695-.035-1.132-.113-1.312-.078-.18-.22-.336-.43-.473a1.316 1.316 0 0 0-.715-.203c-.43 0-.781.098-1.058.285-.172.121-.254.258-.254.414 0 .137.09.309.273.512.25.285.375.555.375.816 0 .325-.121.598-.36.825-.238.226-.55.34-.94.34-.415 0-.759-.125-1.04-.375-.277-.25-.418-.543-.418-.875 0-.473.188-.922.563-1.352.37-.43.898-.762 1.566-.992a6.494 6.494 0 0 1 2.09-.344c.875 0 1.566.188 2.078.555.508.37.836.773.988 1.207.094.273.141.906.141 1.894v3.567c0 .422.016.683.047.793a.518.518 0 0 0 .152.242c.063.05.14.078.223.078.176 0 .351-.117.535-.356l.293.23c-.328.49-.668.84-1.023 1.063-.348.223-.75.332-1.196.332-.527 0-.937-.125-1.234-.37-.297-.247-.477-.622-.543-1.122" />
   <path fill="#838787"
      d="m208.352 18.354.309.234c-.438.817-.977 1.422-1.621 1.82a3.902 3.902 0 0 1-2.07.598c-1.231 0-2.215-.46-2.954-1.387-.734-.925-1.105-2.035-1.105-3.332 0-1.254.336-2.355 1.008-3.304.808-1.149 1.922-1.723 3.343-1.723.954 0 1.711.242 2.27.719.566.476.844 1.015.844 1.601 0 .375-.11.676-.34.899-.227.222-.52.336-.89.336-.387 0-.708-.13-.962-.387-.254-.258-.41-.71-.468-1.367-.04-.414-.137-.703-.286-.867a.71.71 0 0 0-.535-.246c-.312 0-.582.164-.804.5-.344.503-.516 1.277-.516 2.32 0 .863.14 1.691.414 2.48.277.79.656 1.375 1.137 1.762.363.281.789.422 1.285.422.32 0 .629-.074.918-.227.289-.148.633-.433 1.023-.851" />
   <path fill="#838787" fill-rule="evenodd"
      d="M215.184 15.155c0-1.059-.054-1.782-.172-2.176-.113-.39-.293-.692-.535-.895-.136-.117-.324-.176-.554-.176-.34 0-.622.165-.84.5-.387.586-.578 1.383-.578 2.403v.344zm2.422.648h-5.066c.062 1.219.39 2.184.98 2.89.453.548 1 .82 1.64.82.395 0 .755-.108 1.075-.327.324-.223.668-.617 1.035-1.184l.336.219c-.5 1.016-1.05 1.73-1.652 2.152-.606.422-1.305.633-2.102.633-1.367 0-2.398-.523-3.105-1.574-.567-.844-.848-1.895-.848-3.145 0-1.535.414-2.754 1.25-3.664.828-.906 1.805-1.363 2.922-1.363.93 0 1.742.383 2.43 1.145.687.761 1.054 1.894 1.105 3.398" />
   <g clip-path="url(#c)" transform="translate(-143.683 -494.56)">
      <path fill="none" stroke="#838787" stroke-miterlimit="3.864" stroke-width="1.44107138"
         d="m561.977 603.323 295.438 108.086" />
   </g>
   <path fill="#838787"
      d="M416.235 108.35a2.675 2.675 0 1 1 5.352 0 2.672 2.672 0 0 1-2.676 2.676 2.675 2.675 0 0 1-2.676-2.676" />
   <path fill="none" stroke="#838787" stroke-miterlimit="3.864" stroke-width=".721"
      d="M416.236 108.349a2.675 2.675 0 1 1 5.352 0 2.672 2.672 0 0 1-2.677 2.675 2.675 2.675 0 0 1-2.675-2.675zm0 0" />
   <path fill="none" stroke="#558dca" stroke-miterlimit="3.864" stroke-width="2.882"
      d="m608.119 55.438 36.234 36.235" />
   <path fill="none" stroke="#838787" stroke-miterlimit="3.864" stroke-width=".721" d="m627.056 74.38 28.41-28.41" />
   <path fill="#838787" fill-rule="evenodd" d="m655.169 46.268-1.782-1.785 6.243-2.676-2.68 6.242zm0 0" />
   <path fill="none" stroke="#838787" stroke-miterlimit="3.864" stroke-width=".721"
      d="m418.708 108.146 208.348-33.352" />
   <path fill="#838787" fill-rule="evenodd"
      d="M403.016 89.19h4.172c-.031-.578-.097-.985-.203-1.219a2.006 2.006 0 0 0-.734-.871 1.878 1.878 0 0 0-1.02-.313c-.547 0-1.031.211-1.465.637-.425.422-.68 1.008-.75 1.766m0 .566c-.008 1.332.317 2.379.977 3.137.656.758 1.426 1.137 2.312 1.137.59 0 1.106-.16 1.543-.48.438-.325.801-.884 1.098-1.677l.305.196c-.14.91-.54 1.734-1.203 2.468-.66.739-1.493 1.11-2.489 1.11-1.082 0-2.008-.422-2.781-1.266-.77-.844-1.156-1.976-1.156-3.398 0-1.543.394-2.746 1.183-3.61.793-.86 1.786-1.293 2.98-1.293 1.013 0 1.84.332 2.49 1 .651.664.976 1.555.976 2.676h-6.235" />
   <path fill="#838787"
      d="M409.919 86.342h4.226v.363h-.207c-.297 0-.52.067-.668.196a.596.596 0 0 0-.219.48c0 .254.106.61.32 1.067l2.208 4.574 2.012-5.008a2.08 2.08 0 0 0 .167-.805c0-.117-.019-.203-.07-.265a.523.523 0 0 0-.246-.172c-.11-.043-.308-.067-.59-.067v-.363h2.93v.363c-.242.028-.43.078-.563.16-.128.075-.273.223-.433.442-.059.09-.168.34-.336.754l-3.668 9.031c-.356.871-.82 1.535-1.398 1.98-.575.446-1.13.669-1.665.669-.386 0-.707-.11-.957-.336-.25-.223-.375-.477-.375-.766 0-.277.09-.5.274-.664.183-.168.43-.254.746-.254.215 0 .516.07.89.207.266.09.426.137.493.137.199 0 .414-.102.644-.301.239-.2.473-.59.711-1.168l.633-1.582-3.258-6.797a4.763 4.763 0 0 0-.469-.766c-.164-.23-.3-.386-.402-.468-.156-.102-.398-.2-.73-.278v-.363" />
   <path fill="#838787" fill-rule="evenodd"
      d="M422.071 89.19h4.176c-.031-.578-.102-.985-.207-1.219a1.931 1.931 0 0 0-.735-.871 1.856 1.856 0 0 0-1.015-.313c-.547 0-1.035.211-1.465.637-.426.422-.68 1.008-.754 1.766m0 .566c-.008 1.332.32 2.379.977 3.137.66.758 1.43 1.137 2.316 1.137.59 0 1.102-.16 1.543-.48.434-.325.8-.884 1.098-1.677l.3.196c-.136.91-.539 1.734-1.199 2.468-.664.739-1.492 1.11-2.492 1.11-1.078 0-2.008-.422-2.777-1.266-.77-.844-1.157-1.976-1.157-3.398 0-1.543.395-2.746 1.184-3.61.793-.86 1.785-1.293 2.977-1.293 1.011 0 1.843.332 2.492 1 .648.664.972 1.555.972 2.676h-6.234" />
   <path fill="none" stroke="#ed1c24" stroke-miterlimit="3.864" stroke-width="2.882"
      d="m588.35 166.204 63.823 17.293" />
   <path fill="none" stroke="#838787" stroke-miterlimit="3.864" stroke-width=".721"
      d="m622.939 175.259 10.703-39.938" />
   <path fill="#838787" fill-rule="evenodd" d="m633.536 135.729-2.438-.653 4.07-5.441.801 6.746zm0 0" />
   <path fill="#0071bc" stroke="#4eb748" stroke-miterlimit="3.864" stroke-width="2.882"
      d="m566.939 136.966 9.059-24.703" />
   <path fill="none" stroke="#838787" stroke-miterlimit="3.864" stroke-width=".721"
      d="m570.236 127.907-28.824-10.293" />
   <path fill="#838787" fill-rule="evenodd" d="m541.805 117.76-.863 2.371-5.058-4.527 6.785-.215zm0 0" />
   <path fill="none" stroke="#838787" stroke-miterlimit="3.864" stroke-width=".721"
      d="M555.587 126.505c0-1.203.141-2.375.45-3.48m54.683 47.414c1.922-4.758 6.54-8.118 11.985-8.118 1.203 0 2.375.168 3.48.477m-11.488-86.102c-.117-.703-.227-1.425-.227-2.16 0-7.164 5.809-12.972 12.973-12.972 3.394 0 6.484 1.304 8.797 3.44m-217.532 43.142 150.704 19.761m-150.704-19.761 204.231 66.703M.36 210.603h331.465V29.017H.36Zm0 0" />
   <path fill="#838787" fill-rule="evenodd"
      d="M211.083 186.916c0 1.575.191 2.86.578 3.856.32.84.797 1.258 1.43 1.258.304 0 .617-.141.945-.41.324-.274.57-.731.738-1.372.258-.968.387-2.332.387-4.09 0-1.308-.133-2.394-.403-3.265-.203-.649-.464-1.11-.78-1.379a1.31 1.31 0 0 0-.833-.277c-.383 0-.722.171-1.023.515-.403.465-.676 1.2-.824 2.203-.145 1-.215 1.989-.215 2.961m-1.664-.207c0-1.304.199-2.43.59-3.37.394-.946.917-1.645 1.57-2.106.508-.364 1.031-.551 1.574-.551.875 0 1.664.45 2.36 1.344.874 1.109 1.308 2.609 1.308 4.504 0 1.328-.191 2.457-.574 3.382-.383.934-.871 1.606-1.461 2.02-.598.422-1.168.633-1.719.633-1.09 0-2-.645-2.726-1.934-.614-1.086-.922-2.394-.922-3.922" />
   <path fill="#838787"
      d="m120.516 134.147 2.801-1.352h.277v9.668c0 .649.028 1.047.082 1.203.055.16.164.285.336.367.168.086.516.133 1.036.145v.313h-4.325v-.313c.543-.012.89-.059 1.051-.14a.702.702 0 0 0 .328-.329c.063-.144.094-.554.094-1.246v-6.187c0-.836-.031-1.371-.086-1.61a.683.683 0 0 0-.219-.394.568.568 0 0 0-.375-.13c-.207 0-.5.087-.87.266l-.13-.261M151.282 188.596l-.8 2.223h-6.759v-.317c1.989-1.812 3.387-3.289 4.2-4.437.808-1.149 1.214-2.196 1.214-3.149 0-.722-.222-1.32-.668-1.789-.445-.469-.976-.699-1.593-.699-.567 0-1.07.16-1.516.488-.45.32-.781.801-.992 1.43h-.313c.141-1.04.5-1.832 1.086-2.387.582-.554 1.313-.828 2.184-.828.93 0 1.707.3 2.332.895.621.597.934 1.3.934 2.113a4.08 4.08 0 0 1-.407 1.738c-.418.914-1.093 1.88-2.027 2.899-1.402 1.527-2.27 2.445-2.602 2.75h2.965c.598 0 1.024-.024 1.266-.07.242-.044.46-.137.656-.274.195-.137.367-.336.512-.586h.328" />
   <path fill="none" stroke="#231f20" stroke-miterlimit="3.864" stroke-width=".721"
      d="M155.439 166.49a4.38 4.38 0 1 1 2.695 7.828" />
   <path fill="#231f20" d="m157.075 166.42-3.367 3.496 1.172-4.71" />
   <path fill="#838787" fill-rule="evenodd"
      d="M12.755 82.994c0 1.579.191 2.86.578 3.856.32.84.797 1.258 1.43 1.258.304 0 .617-.137.945-.41.324-.27.57-.727.738-1.372.262-.964.387-2.332.387-4.093 0-1.305-.133-2.39-.403-3.262-.203-.648-.464-1.11-.78-1.375a1.291 1.291 0 0 0-.833-.281c-.383 0-.723.172-1.023.515-.403.47-.676 1.2-.825 2.2a20.783 20.783 0 0 0-.214 2.964m-1.664-.207c0-1.308.199-2.425.593-3.37.39-.942.914-1.645 1.567-2.102.507-.367 1.03-.551 1.574-.551.875 0 1.664.445 2.36 1.34.874 1.11 1.308 2.61 1.308 4.504 0 1.328-.192 2.457-.574 3.386-.383.926-.871 1.602-1.461 2.02-.598.418-1.168.629-1.719.629-1.09 0-2-.64-2.727-1.93-.613-1.09-.921-2.398-.921-3.926" />
   <path fill="#838787"
      d="m63.653 126.951 2.8-1.347h.278v9.672c0 .64.027 1.043.082 1.199a.63.63 0 0 0 .336.367c.168.086.516.133 1.035.14v.317H63.86v-.316c.543-.008.89-.055 1.05-.14a.678.678 0 0 0 .329-.325c.062-.145.094-.555.094-1.242v-6.196c0-.836-.032-1.367-.086-1.605-.04-.18-.11-.313-.215-.395a.575.575 0 0 0-.375-.129c-.211 0-.504.086-.875.262l-.129-.262M113.583 47.67l-.805 2.227h-6.754v-.317c1.988-1.812 3.387-3.293 4.2-4.437.808-1.149 1.214-2.2 1.214-3.149 0-.726-.222-1.324-.668-1.793-.445-.464-.976-.699-1.597-.699-.559 0-1.067.164-1.516.489-.445.324-.777.804-.992 1.433h-.313c.14-1.039.504-1.832 1.09-2.387.582-.554 1.309-.832 2.184-.832.93 0 1.707.301 2.328.895.625.601.937 1.305.937 2.117 0 .578-.136 1.16-.406 1.738-.418.91-1.094 1.88-2.027 2.895-1.403 1.531-2.27 2.45-2.602 2.75h2.965c.602 0 1.023-.02 1.266-.067.242-.046.46-.136.656-.277.195-.137.367-.332.512-.586h.328" />
   <path fill="none" stroke="#231f20" stroke-miterlimit="3.864" stroke-width=".721"
      d="M45.497 81.759c2.441-5.774 8.16-9.824 14.82-9.824 8.887 0 16.09 7.203 16.09 16.086 0 8.882-7.203 16.086-16.09 16.086" />
   <path fill="#231f20" d="m47.91 80.846-3.765 7.156-.316-8.082" />
   <path fill="#558dca" d="m298.61 87.983-89.836-39.04 41.715 96.97" />
   <path fill="none" stroke="#838787" stroke-linejoin="round" stroke-miterlimit="3.864" stroke-width=".721"
      d="m298.61 87.981-89.835-39.039 41.714 96.97zm0 0" />
   <path fill="#838787" fill-rule="evenodd"
      d="M302.657 88.28c0 1.574.191 2.859.582 3.851.32.84.797 1.262 1.43 1.262.304 0 .617-.137.945-.41.324-.274.57-.73.738-1.371.258-.97.387-2.332.387-4.094 0-1.305-.133-2.39-.402-3.266-.204-.648-.465-1.105-.786-1.375a1.28 1.28 0 0 0-.832-.277c-.378 0-.718.172-1.02.516-.401.464-.675 1.199-.823 2.199a20.753 20.753 0 0 0-.22 2.965m-1.66-.207c0-1.305.2-2.43.595-3.375.39-.942.914-1.641 1.57-2.102.504-.367 1.027-.55 1.566-.55.88 0 1.668.448 2.364 1.343.875 1.105 1.308 2.61 1.308 4.504 0 1.328-.191 2.457-.57 3.387-.387.925-.875 1.601-1.465 2.015-.594.422-1.168.633-1.719.633-1.094 0-2.004-.645-2.73-1.934-.61-1.086-.918-2.394-.918-3.921" />
   <path fill="#838787"
      d="m246.614 151.104 2.8-1.348h.278v9.664c0 .649.031 1.047.082 1.207.055.16.164.278.336.364.168.085.516.132 1.035.144v.313h-4.324v-.313c.543-.012.89-.059 1.05-.137a.717.717 0 0 0 .329-.336c.062-.136.094-.55.094-1.242v-6.187c0-.836-.028-1.371-.086-1.606a.67.67 0 0 0-.22-.398.58.58 0 0 0-.374-.125c-.207 0-.5.086-.871.262l-.13-.262M208.657 42.873l-.8 2.223h-6.755v-.316c1.989-1.813 3.383-3.29 4.196-4.438.812-1.148 1.214-2.2 1.214-3.148 0-.723-.218-1.32-.664-1.79-.445-.468-.98-.703-1.597-.703-.563 0-1.07.165-1.516.489-.45.328-.777.804-.992 1.433h-.313c.141-1.035.504-1.828 1.086-2.386.582-.555 1.313-.829 2.188-.829.93 0 1.703.297 2.328.895.625.598.934 1.3.934 2.113 0 .582-.133 1.16-.403 1.742-.418.91-1.094 1.875-2.027 2.895-1.406 1.527-2.27 2.445-2.602 2.746h2.961c.602 0 1.024-.02 1.266-.066.242-.047.465-.137.66-.274.191-.136.363-.336.508-.586h.328" />
   <path fill="none" stroke="#231f20" stroke-miterlimit="3.864" stroke-width=".721"
      d="M273.404 90.747c-2.442-5.773-8.16-9.824-14.825-9.824-8.883 0-16.086 7.203-16.086 16.086s7.203 16.086 16.086 16.086" />
   <path fill="#231f20" d="m274.9 88.948-.317 8.082-3.766-7.157" />
   <use xlink:href="#d" x="196.226" y="554.025" fill="#838787" transform="translate(-143.683 -494.56)" />
   <use xlink:href="#e" x="307.668" y="655.383" fill="#838787" transform="translate(-143.683 -494.56)" />
   <use xlink:href="#f" x="399.896" y="558.832" fill="#838787" transform="translate(-143.683 -494.56)" />
   <use xlink:href="#d" x="717.912" y="626.572" fill="#838787" transform="translate(-143.683 -494.56)" />
   <use xlink:href="#e" x="799.573" y="683.745" fill="#838787" transform="translate(-143.683 -494.56)" />
   <use xlink:href="#f" x="793.814" y="591.518" fill="#838787" transform="translate(-143.683 -494.56)" />
   <g fill="#838787" transform="translate(-143.683 -494.56)">
      <use xlink:href="#g" x="616.386" y="515.304" />
      <use xlink:href="#h" x="626.474" y="515.304" />
      <use xlink:href="#i" x="632.083" y="515.304" />
      <use xlink:href="#j" x="641.041" y="515.304" />
      <use xlink:href="#k" x="655.609" y="515.304" />
      <use xlink:href="#l" x="660.653" y="515.304" />
      <use xlink:href="#m" x="668.501" y="515.304" />
      <use xlink:href="#n" x="679.719" y="515.304" />
      <use xlink:href="#o" x="689.807" y="515.304" />
      <use xlink:href="#i" x="698.765" y="515.304" />
   </g>
</svg>
